<?xml version="1.0" standalone="no"?>
<!DOCTYPE svg PUBLIC "-//W3C//DTD SVG 20010904//EN"
 "http://www.w3.org/TR/2001/REC-SVG-20010904/DTD/svg10.dtd">
<svg version="1.0" xmlns="http://www.w3.org/2000/svg"
 width="3333.000000pt" height="1837.000000pt" viewBox="0 0 3333.000000 1837.000000"
 preserveAspectRatio="xMidYMid meet">
<metadata>
Created by potrace 1.16, written by Peter Selinger 2001-2019
</metadata>
<g transform="translate(0.000000,1837.000000) scale(0.100000,-0.100000)"
fill="#000000" stroke="none">
<path d="M19563 14331 c-54 -39 -80 -75 -147 -202 -151 -285 -354 -1109 -435
-1759 -48 -385 -55 -514 -56 -1005 0 -509 4 -565 61 -776 13 -50 23 -93 22
-94 -2 -1 -343 85 -758 192 -1318 338 -1267 326 -1304 313 -47 -15 -68 -42
-73 -93 -7 -59 15 -100 64 -119 21 -8 521 -138 1111 -289 l1073 -274 35 -62
c19 -34 55 -92 79 -129 25 -37 44 -68 42 -70 -1 -2 -566 49 -1255 113 -1212
113 -1253 116 -1288 100 -93 -45 -72 -194 30 -212 17 -3 638 -62 1379 -130
l1349 -125 96 -87 c184 -164 353 -276 587 -393 135 -66 394 -174 483 -201 23
-7 41 -14 39 -16 -2 -2 -230 26 -506 62 -276 35 -571 69 -657 75 -412 28 -709
-55 -884 -247 -214 -235 -178 -634 82 -894 105 -105 217 -159 349 -166 l87 -6
158 71 c414 183 805 297 1274 372 426 67 965 77 1388 25 130 -16 123 -12 256
-155 287 -307 494 -723 574 -1155 11 -60 28 -150 37 -200 43 -229 32 -383 -79
-1090 -62 -391 -81 -677 -57 -846 50 -350 230 -509 576 -509 128 0 219 20 325
71 68 32 100 56 165 122 67 68 90 100 133 187 104 212 137 391 137 750 l-1
245 -44 100 -45 100 25 237 c14 130 28 239 31 242 3 3 16 -31 29 -77 39 -138
155 -477 214 -626 144 -362 301 -654 445 -826 27 -33 64 -85 82 -115 45 -78
106 -168 150 -220 36 -44 37 -46 23 -79 -8 -18 -14 -34 -14 -36 0 -5 323 -18
410 -17 52 2 149 13 215 26 66 13 174 29 240 36 316 30 737 106 1005 179 732
201 1327 565 1788 1091 205 235 390 584 472 892 30 115 33 121 144 285 457
676 706 1234 788 1768 28 183 30 478 5 640 -37 236 -107 445 -240 710 -90 181
-157 297 -340 590 -358 571 -472 785 -556 1040 -93 283 -133 535 -133 845 0
268 31 519 92 762 26 99 25 142 -4 204 -87 187 -452 256 -632 119 -48 -36 -77
-101 -108 -235 -64 -282 -81 -442 -81 -760 0 -338 26 -546 105 -846 99 -374
239 -662 608 -1244 265 -418 344 -557 415 -735 184 -460 191 -884 23 -1389
-57 -169 -125 -340 -133 -332 -3 3 -27 60 -55 128 -126 315 -326 616 -573 863
-300 301 -646 510 -1070 648 -368 120 -670 181 -1650 332 -165 25 -352 58
-415 72 -301 66 -546 184 -730 350 -79 72 -164 173 -153 184 4 4 400 132 878
284 479 153 882 284 897 291 30 16 58 61 58 94 0 61 -55 120 -112 120 -13 0
-432 -131 -933 -290 -500 -160 -914 -290 -918 -290 -15 0 -107 241 -107 280 0
4 372 196 828 425 470 237 837 427 850 441 16 19 22 37 22 74 0 41 -5 53 -31
79 -63 63 -31 76 -915 -370 -437 -221 -798 -398 -801 -395 -9 9 -20 107 -43
381 -11 132 -25 287 -31 345 -14 135 -160 1027 -200 1216 -72 349 -176 635
-301 826 -59 91 -163 208 -183 208 -25 0 -170 -116 -243 -195 -137 -147 -252
-346 -337 -585 -64 -178 -103 -236 -181 -266 -62 -24 -134 -15 -289 36 -288
93 -490 125 -805 125 -318 -1 -511 -32 -833 -134 -190 -61 -255 -55 -331 29
-38 42 -57 78 -156 301 -93 210 -275 526 -354 616 -77 88 -177 109 -253 54z
m860 -2944 c72 -33 151 -111 185 -185 23 -48 27 -71 27 -142 0 -75 -4 -93 -32
-152 -39 -82 -100 -145 -179 -184 -53 -26 -69 -29 -154 -29 -83 0 -102 3 -151
28 -68 33 -152 119 -181 184 -26 59 -34 165 -18 232 51 215 303 340 503 248z
m1725 -2 c81 -36 162 -121 192 -202 18 -48 21 -73 18 -143 -3 -73 -9 -94 -37
-148 -41 -75 -103 -135 -179 -170 -49 -23 -70 -27 -147 -27 -82 0 -97 3 -157
33 -216 106 -271 384 -111 562 113 125 273 162 421 95z m-773 -886 c24 -6 61
-26 82 -44 36 -31 38 -36 38 -92 0 -48 -5 -67 -28 -101 -62 -94 -164 -137
-307 -130 -123 6 -182 42 -205 125 -22 81 84 207 205 244 38 11 166 10 215 -2z"/>
<path d="M10654 14200 c-137 -36 -276 -121 -382 -234 -135 -145 -274 -397
-478 -869 -79 -183 -100 -223 -106 -206 -5 12 -33 157 -63 323 -95 529 -142
669 -261 788 -94 94 -206 138 -354 138 -186 0 -332 -76 -443 -233 -150 -210
-391 -645 -537 -970 -29 -64 -56 -115 -59 -111 -3 3 -8 267 -11 587 -6 651 -3
626 -77 663 -30 15 -61 19 -148 19 -121 0 -148 -9 -182 -62 -19 -29 -105 -392
-158 -668 -67 -354 -173 -1130 -194 -1427 -20 -277 -11 -614 25 -893 20 -157
59 -367 80 -433 20 -62 75 -129 122 -149 47 -20 248 -28 356 -14 104 13 144
33 170 85 17 35 18 51 9 239 -26 541 52 975 292 1632 126 343 258 652 347 810
98 173 320 523 335 530 9 3 20 2 25 -3 12 -12 73 -254 87 -342 11 -71 25 -584
41 -1580 14 -880 29 -1099 79 -1169 30 -42 113 -79 206 -93 67 -9 96 -9 180 6
123 20 184 48 207 96 15 30 18 64 18 228 0 174 4 225 45 520 72 516 114 750
184 1029 88 345 220 685 371 952 123 217 324 491 397 541 31 21 34 21 58 6 26
-17 43 -64 71 -195 24 -114 22 -228 -26 -1146 -27 -512 -36 -653 -65 -975 -37
-407 -45 -551 -45 -800 l0 -225 30 -62 c33 -71 61 -93 159 -123 117 -37 315
-20 423 36 55 29 66 87 32 177 -8 21 -14 73 -14 120 0 83 21 419 40 627 5 63
25 291 44 505 67 756 70 810 71 1190 0 605 -40 781 -219 960 -93 93 -182 145
-302 175 -103 27 -280 27 -380 0z"/>
<path d="M12323 13835 c-125 -35 -214 -108 -270 -223 -38 -76 -38 -76 -38
-201 0 -122 1 -128 33 -194 107 -218 367 -308 588 -203 333 158 333 627 -1
792 -67 33 -84 37 -167 40 -62 3 -111 -1 -145 -11z"/>
<path d="M12253 12695 c-101 -15 -135 -32 -152 -73 -27 -67 -95 -824 -122
-1362 -17 -341 -9 -401 76 -572 66 -132 170 -214 330 -260 106 -30 325 -32
425 -5 220 60 343 176 550 517 136 224 236 435 300 636 26 82 29 101 20 130
-29 87 -206 80 -291 -13 -15 -15 -84 -127 -154 -248 -250 -430 -306 -511 -443
-640 -105 -98 -107 -98 -137 42 -16 78 -15 99 20 768 34 651 36 728 26 814 -6
47 -20 104 -32 128 -58 120 -207 169 -416 138z"/>
<path d="M5331 10889 c-273 -31 -637 -159 -862 -304 -310 -199 -549 -487 -718
-864 -197 -438 -500 -1688 -592 -2441 -29 -237 -37 -737 -15 -948 77 -728 314
-1208 756 -1536 478 -354 997 -497 1564 -431 604 71 986 313 1172 743 102 236
164 707 150 1132 -9 246 -31 490 -51 556 -32 107 -118 178 -231 190 -129 13
-831 74 -856 74 -18 0 -28 -5 -28 -15 0 -13 -38 -15 -277 -15 -497 -1 -563
-17 -563 -135 0 -27 6 -37 33 -54 94 -58 216 -86 657 -151 390 -58 417 -66
453 -142 50 -108 72 -663 34 -851 -78 -383 -320 -780 -542 -888 -65 -32 -76
-34 -170 -34 -93 0 -105 2 -166 32 -154 76 -430 327 -537 488 -130 195 -239
469 -291 732 -49 245 -56 330 -56 688 2 871 128 1731 372 2520 154 500 278
759 472 982 162 187 378 313 536 313 57 0 149 -26 209 -58 77 -41 186 -150
267 -268 117 -170 216 -227 394 -228 122 -1 178 21 213 83 29 51 28 93 -4 177
-62 167 -161 310 -271 392 -135 102 -379 203 -580 242 -126 24 -348 33 -472
19z"/>
<path d="M15000 9581 c-85 -26 -135 -81 -169 -184 -20 -61 -53 -227 -129 -642
l-39 -210 -319 -5 c-285 -4 -323 -7 -356 -24 -153 -76 -135 -249 33 -312 36
-14 89 -18 304 -20 253 -2 260 -3 277 -24 10 -12 18 -36 18 -54 0 -17 -40
-469 -89 -1004 l-89 -972 -128 -213 c-244 -406 -416 -674 -483 -755 -20 -24
-90 -92 -157 -152 l-121 -108 -34 106 -34 107 2 375 c2 395 12 622 43 1065 34
475 43 727 31 802 -48 281 -282 391 -676 317 -79 -15 -94 -21 -126 -53 -28
-28 -39 -49 -47 -91 -36 -190 -143 -1422 -172 -1980 -11 -221 -4 -314 35 -465
92 -353 255 -511 607 -587 84 -18 136 -22 283 -22 208 -1 290 15 428 85 171
85 271 187 517 527 56 78 104 141 106 140 1 -2 26 -51 55 -108 67 -137 109
-199 193 -287 149 -158 363 -278 604 -339 253 -64 555 7 587 138 9 36 -45 94
-152 165 -171 113 -325 337 -382 555 -42 161 -44 240 -21 683 71 1386 110
2087 119 2103 20 38 40 43 223 57 345 27 533 47 586 61 137 38 191 175 105
266 -60 64 -137 80 -280 57 -38 -6 -195 -18 -351 -28 -252 -15 -283 -15 -286
-1 -3 8 -7 47 -11 85 -14 148 -161 803 -192 856 -23 39 -78 76 -133 88 -52 12
-143 13 -180 2z"/>
<path d="M11467 9566 c-44 -16 -74 -41 -92 -76 -11 -22 -118 -534 -169 -809
-11 -63 -21 -91 -40 -109 l-25 -25 -288 -2 c-278 -1 -290 -2 -341 -24 -158
-70 -154 -240 8 -315 42 -19 65 -21 301 -22 172 -1 263 -5 277 -13 32 -17 36
-51 24 -190 -7 -69 -39 -430 -72 -801 -97 -1076 -104 -1136 -174 -1345 -82
-245 -209 -426 -453 -647 -100 -91 -142 -114 -157 -90 -8 14 -36 288 -36 359
0 37 7 111 15 163 258 1685 258 1681 259 1840 0 128 -2 152 -22 201 -12 31
-38 72 -58 92 -78 78 -173 99 -424 95 l-168 -3 -43 33 c-151 112 -290 190
-417 232 -342 113 -718 60 -1107 -157 -742 -415 -1145 -1048 -1207 -1897 -48
-663 233 -1091 847 -1289 184 -59 266 -72 475 -71 151 0 203 4 286 22 195 42
380 117 569 231 55 33 112 63 127 67 38 8 78 -18 128 -86 90 -121 217 -196
435 -256 69 -20 124 -27 232 -31 160 -6 253 5 366 43 161 55 284 134 437 280
55 53 106 94 117 94 23 0 46 -24 100 -105 127 -189 328 -341 548 -414 207 -68
323 -75 553 -30 104 20 117 25 153 59 56 53 53 80 -13 145 -29 28 -78 65 -109
82 -66 37 -158 135 -238 254 -98 145 -155 309 -169 489 -9 111 -9 126 63 1506
30 577 55 1057 55 1066 0 10 10 28 23 43 21 24 30 26 192 40 508 45 494 45
658 -40 137 -72 204 -88 337 -83 125 5 216 33 316 99 123 80 222 220 259 364
20 78 19 231 -1 309 -38 148 -160 304 -295 379 -239 133 -555 92 -744 -98
-109 -109 -158 -225 -171 -409 -7 -99 -22 -139 -57 -157 -30 -17 -443 -17
-473 -1 -29 15 -39 45 -69 207 -35 185 -131 636 -151 702 -11 39 -24 60 -51
80 -35 27 -42 28 -162 30 -89 2 -137 -1 -164 -11z m-2268 -1763 c70 -40 222
-197 269 -278 82 -142 110 -274 92 -448 -69 -678 -203 -1092 -469 -1461 -122
-167 -249 -295 -389 -387 -175 -115 -239 -125 -337 -49 -125 97 -249 297 -295
478 -54 214 -47 571 16 874 95 452 340 845 716 1148 201 162 285 188 397 123z"/>
<path d="M17825 7939 c-101 -12 -291 -58 -465 -115 -172 -56 -389 -164 -504
-250 -171 -129 -391 -373 -517 -574 -96 -152 -160 -328 -201 -550 -51 -284
-26 -893 48 -1148 130 -447 613 -848 1176 -974 89 -20 130 -23 308 -23 160 0
224 4 290 18 189 40 395 124 589 240 123 74 170 84 281 63 47 -9 154 -22 237
-28 515 -39 1016 125 1323 432 161 160 208 252 161 312 -36 45 -144 92 -222
96 -94 6 -137 -17 -275 -148 -177 -168 -315 -264 -484 -333 -145 -60 -279 -86
-569 -112 l-74 -6 28 48 c16 26 49 73 75 103 261 308 425 662 495 1070 23 130
31 480 15 607 -43 347 -191 637 -425 833 -107 90 -191 143 -364 230 -368 184
-625 242 -926 209z m120 -261 c3 -13 4 -73 3 -134 l-3 -112 -167 102 c-105 63
-168 107 -168 117 0 13 24 19 133 31 192 22 196 22 202 -4z m284 -58 c22 -42
28 -83 41 -259 12 -168 -1 -383 -36 -569 -40 -222 -72 -264 -201 -270 -89 -5
-87 -21 -25 158 95 271 152 613 152 907 0 58 3 74 17 82 20 10 22 8 52 -49z
m294 -112 c22 -72 69 -506 71 -651 l1 -118 -31 -29 c-27 -23 -109 -51 -118
-38 -1 1 8 188 20 413 12 226 23 427 23 448 1 50 14 40 34 -25z m-1099 -56
c178 -94 439 -252 463 -281 28 -32 28 -49 1 -167 -16 -69 -25 -93 -35 -90 -7
3 -178 130 -380 283 l-367 277 64 17 c110 29 131 26 254 -39z m1515 -267 c60
-76 108 -143 105 -147 -8 -12 -213 -168 -222 -168 -11 0 -37 454 -27 470 10
15 10 15 144 -155z m-1928 35 c189 -78 396 -220 557 -381 120 -120 182 -202
182 -241 0 -87 -94 -155 -176 -128 -25 9 -59 41 -128 123 -169 204 -376 382
-578 500 -109 64 -113 79 -30 124 31 18 67 33 78 33 12 0 54 -14 95 -30z
m-263 -319 c108 -65 200 -131 286 -206 70 -61 152 -152 144 -160 -7 -7 -138
23 -223 51 -92 30 -243 103 -327 157 -53 33 -58 40 -58 72 0 68 40 135 80 135
9 0 53 -22 98 -49z m2448 -239 c-7 -47 -36 -83 -129 -157 -180 -146 -407 -281
-587 -351 -304 -117 -545 -160 -858 -151 -287 7 -488 55 -741 177 -187 91
-441 264 -456 311 -6 17 10 79 20 79 1 0 76 -36 166 -79 350 -170 644 -242
989 -242 174 0 319 16 473 52 308 72 658 239 967 461 l95 68 33 -67 c24 -50
32 -77 28 -101z m52 -412 c-7 -133 -21 -163 -121 -244 -765 -625 -1849 -643
-2562 -44 -49 42 -106 93 -126 114 -36 39 -94 124 -84 124 3 0 40 -22 83 -48
786 -493 1595 -509 2407 -47 120 68 261 159 344 222 24 18 48 33 54 33 6 0 8
-40 5 -110z m-2630 -600 c130 -89 238 -164 239 -168 3 -8 -348 -204 -354 -198
-7 6 -153 498 -153 513 0 7 7 13 16 13 8 0 122 -72 252 -160z m2512 -8 c-48
-146 -206 -413 -262 -443 -11 -6 -21 -9 -23 -7 -1 2 1 83 5 180 5 132 11 183
22 200 9 13 73 58 144 101 148 89 152 88 114 -31z m-482 -239 c-4 -38 -15
-135 -23 -218 -8 -82 -17 -169 -20 -191 -9 -63 -57 -127 -130 -173 -72 -45
-85 -49 -85 -23 1 46 39 595 42 598 7 7 194 73 209 73 13 1 14 -8 7 -66z
m-1389 -42 c90 -25 121 -41 121 -61 0 -7 -287 -181 -432 -261 -180 -101 -207
-100 -269 7 -26 46 -29 58 -18 65 8 4 109 69 224 143 147 95 219 135 240 135
17 1 77 -12 134 -28z m721 -76 c0 -23 -168 -187 -290 -285 -113 -90 -315 -227
-393 -267 -94 -47 -201 -40 -269 17 -29 25 -31 30 -18 43 22 21 632 482 655
495 12 7 76 12 168 12 126 0 147 -2 147 -15z m236 -117 c-3 -18 -8 -60 -11
-93 -16 -159 -37 -315 -51 -362 -17 -63 -43 -80 -135 -90 l-61 -6 7 109 c12
184 44 287 117 370 33 38 116 103 131 104 4 0 6 -15 3 -32z m-457 -458 c-5
-36 -12 -80 -15 -97 l-5 -33 -109 0 c-150 0 -149 11 12 118 67 45 123 80 124
79 1 -1 -2 -31 -7 -67z"/>
</g>
</svg>
