<?xml version="1.0" encoding="utf-8"?>
<!-- Generator: Adobe Illustrator 21.1.0, SVG Export Plug-In . SVG Version: 6.00 Build 0)  -->
<svg version="1.1" id="Capa_1" xmlns="http://www.w3.org/2000/svg" xmlns:xlink="http://www.w3.org/1999/xlink" x="0px" y="0px"
	 viewBox="0 0 12 15" enable-background="new 0 0 12 15" xml:space="preserve">
<g id="Group_9473" transform="translate(-13611.267 -763)">
	<path fill="#95989A" d="M13621.9,770.6c-0.3,0-0.5-0.1-0.7-0.3l-3.9-3.9l-3.9,3.9c-0.4,0.4-1,0.4-1.4,0s-0.4-1,0-1.4l4.6-4.6
		c0.4-0.4,1-0.4,1.4,0l4.6,4.6c0.4,0.4,0.4,1,0,1.4C13622.4,770.5,13622.2,770.6,13621.9,770.6z"/>
	<path fill="#95989A" d="M13621.9,777c-0.3,0-0.5-0.1-0.7-0.3l-3.9-3.9l-3.9,3.9c-0.4,0.4-1,0.4-1.4,0s-0.4-1,0-1.4l4.6-4.6
		c0.4-0.4,1-0.4,1.4,0l4.6,4.6c0.4,0.4,0.4,1,0,1.4C13622.4,776.9,13622.2,777,13621.9,777z"/>
</g>
</svg>
