<?xml version="1.0" encoding="utf-8"?>
<!-- Generator: Adobe Illustrator 21.1.0, SVG Export Plug-In . SVG Version: 6.00 Build 0)  -->
<svg version="1.1" id="Capa_1" xmlns="http://www.w3.org/2000/svg" xmlns:xlink="http://www.w3.org/1999/xlink" x="0px" y="0px"
	 viewBox="0 0 26 26" enable-background="new 0 0 26 26" xml:space="preserve">
<path opacity="0.7" fill="#88898D" d="M18.9,8.3h-1.4V1.7c0-0.5-0.4-0.9-0.9-0.9H9.4c-0.5,0-0.9,0.4-0.9,0.9v6.7H7.1
	c-1.2,0-2.2,1-2.2,2.2v11.3c0,1.1,0.8,2,1.9,2.1c0,0.1,0,0.1,0,0.2c0,0.7,0.5,1.2,1.2,1.2c0.7,0,1.2-0.5,1.2-1.2c0-0.1,0-0.1,0-0.2
	h7.7c0,0.1,0,0.1,0,0.2c0,0.7,0.5,1.2,1.2,1.2c0.7,0,1.2-0.5,1.2-1.2c0-0.1,0-0.1,0-0.2c1.1-0.1,1.9-1,1.9-2.1V10.5
	C21.1,9.3,20.1,8.3,18.9,8.3z M10.6,2.9h4.9V8h-4.9V2.9z"/>
</svg>
