<?xml version="1.0" encoding="utf-8"?>
<!-- Generator: Adobe Illustrator 21.1.0, SVG Export Plug-In . SVG Version: 6.00 Build 0)  -->
<svg version="1.1" id="Capa_1" xmlns="http://www.w3.org/2000/svg" xmlns:xlink="http://www.w3.org/1999/xlink" x="0px" y="0px"
	 viewBox="0 0 76 30" enable-background="new 0 0 76 30" xml:space="preserve">
<g transform="translate(2855.039 9488.012)">
	<g transform="translate(8.982 12.628)">
		<path fill="#ABABAE" d="M-2848.5-9485c-3,0-5.5,2.5-5.5,5.5s2.5,5.5,5.5,5.5s5.5-2.5,5.5-5.5S-2845.5-9485-2848.5-9485
			L-2848.5-9485z M-2848.5-9476.3c-1.8,0-3.2-1.4-3.2-3.2s1.4-3.2,3.2-3.2s3.2,1.4,3.2,3.2
			C-2845.3-9477.8-2846.8-9476.3-2848.5-9476.3L-2848.5-9476.3z"/>
	</g>
	<g transform="translate(55.759 12.408)">
		<path fill="#ABABAE" d="M-2848.5-9485c-3,0-5.5,2.5-5.5,5.5s2.5,5.5,5.5,5.5s5.5-2.5,5.5-5.5l0,0
			C-2843-9482.5-2845.5-9485-2848.5-9485z M-2848.5-9476.3c-1.8,0-3.2-1.4-3.2-3.2s1.4-3.2,3.2-3.2s3.2,1.4,3.2,3.2
			C-2845.3-9477.8-2846.8-9476.3-2848.5-9476.3L-2848.5-9476.3z"/>
	</g>
	<path fill="#ABABAE" d="M-2779.9-9466.6c-0.1-0.4-0.3-0.7-0.6-1c-0.1-0.1-0.1-0.2-0.1-0.2l0.1-1.4v-0.1c-0.2-3.2-1.3-4.5-1.3-4.5
		c-1.6-3.1-17-4.5-17-4.5c-0.9-0.1-1.7-0.1-2.6,0c-0.1,0-0.2,0-0.3-0.1c-2.7-2-10.6-5.5-11-5.6l0,0c-5.9-2-20.6-0.4-20.6-0.4
		l-1.2,0.2c-2.5,0.5-11,4.4-11.5,4.7c0,0,0,0-0.1,0c-0.9,0.2-5.5,0.8-5.9,0.8l0,0c-0.7,0.2-0.6,0.7-0.5,0.8c0,0,0,0,0,0.1
		c0,0.3,0,0.6-0.1,0.9c0,0,0,0,0,0.1c-0.4,0.8-0.5,1.6-0.5,2.4v0.1c-0.2,0.7-0.3,1.3-0.3,2c0,0.1,0,0.1-0.1,0.2
		c-0.2,0.2-0.4,0.5-0.5,0.8l0,0c-0.5,1.2,0.4,3.2,0.6,3.6v0.1c0.1,0.3,0.2,0.7,0.4,1c0.1,0.1,0.1,0.1,0.2,0.2c0.2,0,0.5,0,0.7-0.1
		c0.1,0,0.2,0,0.2,0c1.7,0.5,3.5,0.9,5.3,1.2h0.1c-0.1-0.4-0.1-0.7-0.1-1.1c0-3.7,3-6.6,6.6-6.6c3.7,0,6.6,3,6.6,6.6
		c0,0.4,0,0.9-0.1,1.3c0.1,0.1,0.2,0.2,0.3,0.2l33.1,0.3c0.1,0,0.2-0.1,0.3-0.1c-0.1-0.6-0.2-1.1-0.2-1.7c0-3.8,3.1-6.9,6.8-6.9
		c3.8,0,6.9,3.1,6.9,6.8l0,0c0,0.5-0.1,1.1-0.2,1.6c0.1,0,0.1,0,0.2,0h0.2l0,0l5.1-1c0.3,0,0.5-0.1,0.7-0.3
		C-2779.9-9466.3-2779.9-9466.5-2779.9-9466.6z M-2850.2-9474.2h-0.1c-0.5,0-1,0-1.5-0.1c-0.2,0-0.3-0.2-0.3-0.3
		c0-0.6,0.1-1.3,0.4-1.8c0.1-0.1,0.2-0.2,0.4-0.2c0.4,0.1,1.2,0.4,1.8,0.6c0.1,0,0.2,0.1,0.2,0.3
		C-2849.3-9475.1-2849.6-9474.4-2850.2-9474.2z M-2837.3-9478.1h-2.8c-0.4-0.1-0.1-0.4-0.1-0.4c1.3-1.1,2.8-2,4.3-2.8
		c0.2-0.1,0.4,0,0.5,0.1s0.1,0.2,0,0.3l-1.6,2.6C-2837.1-9478.1-2837.2-9478.1-2837.3-9478.1z M-2823.4-9477.9l-11.8-0.2
		c-0.2,0-0.3-0.2-0.3-0.3s0-0.1,0-0.2l2.1-3.5c0-0.1,0.1-0.1,0.1-0.1c0.6-0.2,3.5-1.4,9.2-1.3c0.2,0,0.3,0.1,0.3,0.3l0.7,5
		C-2823-9478.1-2823.2-9477.9-2823.4-9477.9L-2823.4-9477.9L-2823.4-9477.9z M-2809.4-9479.8c-0.3,0.1-0.5,0.3-0.5,0.6
		c0,0-0.4,1.1-0.2,1.5l0,0c0,0.2-0.2,0.3-0.4,0.3l-9.4-0.2c-0.1,0-0.3-0.1-0.3-0.2l-1.7-5.1c-0.1-0.2,0-0.4,0.2-0.4h0.1
		c1.5,0,6.3,0.3,8.4,1.2c0,0,2.4,1.1,3.8,1.9c0.2,0.1,0.2,0.3,0.1,0.5C-2809.3-9479.9-2809.3-9479.8-2809.4-9479.8z M-2782.4-9471.7
		c-0.3,0-0.7,0-1.2-0.1c0,0-1-0.1-1.6-0.2c-0.2,0-0.3-0.1-0.4-0.3l-0.7-1c0,0-0.4-0.5,0.2-0.6c1-0.1,2.1,0,3.1,0.1
		c0.1,0,0.1,0.1,0.2,0.1c0.3,0.4,0.5,0.9,0.8,1.4c0.1,0.2,0,0.3-0.1,0.4C-2782.3-9471.7-2782.4-9471.7-2782.4-9471.7z"/>
</g>
</svg>
