<?xml version="1.0" encoding="utf-8"?>
<!-- Generator: Adobe Illustrator 21.1.0, SVG Export Plug-In . SVG Version: 6.00 Build 0)  -->
<svg version="1.1" id="Capa_1" xmlns="http://www.w3.org/2000/svg" xmlns:xlink="http://www.w3.org/1999/xlink" x="0px" y="0px"
	 viewBox="0 0 43 19" enable-background="new 0 0 43 19" xml:space="preserve">
<g>
	<circle fill="#009FC7" cx="5.6" cy="14.6" r="3.8"/>
	<path fill="#F4F4F4" d="M5.6,16.8c-1.2,0-2.2-1-2.2-2.2s1-2.2,2.2-2.2s2.2,1,2.2,2.2S6.8,16.8,5.6,16.8z"/>
	<circle fill="#009FC7" cx="35.2" cy="14.8" r="3.8"/>
	<path fill="#F4F4F4" d="M35.2,17C34,17,33,16,33,14.8s1-2.2,2.2-2.2s2.2,1,2.2,2.2l0,0C37.4,16,36.4,17,35.2,17z"/>
	<path id="Path_5496" fill="none" d="M8,2C7.1,2.6,7.2,4.3,7.2,4.3c-0.1,1,0.4,1.1,0.4,1.1h1.8L9.3,1.7L8,2z"/>
	<path id="Path_5497" fill="none" d="M2.8,6C2.3,6.5,2.2,8.7,2.2,8.7l1.4-1.5c0-0.5-0.1-0.9-0.3-1.4C3,5.5,2.8,6,2.8,6z"/>
	<path id="Path_5498" fill="none" d="M38.8,12.3c0.1,0.1,0.1,0.2,0.2,0.3C38.9,12.5,38.8,12.4,38.8,12.3z"/>
	<path id="Path_5499" fill="none" d="M10.1,1.7v3.7l6.5,0.4l-0.3-4.2C16,1.5,10.1,1.7,10.1,1.7z"/>
	<path id="Path_5500" fill="none" d="M39,12.6c0,0,0,0.1,0.1,0.1C39,12.6,39,12.6,39,12.6z"/>
	<path id="Path_5501" fill="none" d="M27.6,4.3l-3.2-1.7c-1.6-0.8-6.4-1-6.4-1c0.2,1.4,0.5,2.8,0.9,4.2l9.5,0.9l-0.3-1.8
		C28,4.7,27.9,4.4,27.6,4.3z"/>
	<path id="Path_5502" fill="none" d="M37.9,8c0.9,1.1,2.1,2.1,3.3,2.8c-0.1-0.6-0.3-1.2-0.5-1.7C39.8,8.7,38.9,8.3,37.9,8z"/>
	<path fill="#009FC7" d="M42.8,11.8c-0.1-0.5-0.4-0.9-0.8-1.2c-0.2-0.6-0.4-1.2-0.7-1.7c-1.9-2-8.7-2.9-8.7-2.9
		c-1-0.4-5.3-3.3-5.3-3.3C24.6,1,20,0.6,20,0.6C13.6,0,4.3,1.3,4.3,1.3C4.4,2,4.6,2.1,4.6,2.1c-1,1.3-1.9,2.8-2.8,4.2
		C1.7,6.5,1.6,6.8,1.6,7L1.5,8.9c-0.3,0.4-0.6,0.8-0.9,1.2c-0.7,1.2,0,4.3,0,4.3l0.6,0.2v-0.1c0-2.3,2-4.2,4.3-4.2s4.3,1.8,4.3,4.2
		c0,0.3,0,0.7-0.1,1h21.2c0-0.1,0-0.2,0-0.2c0-0.2,0-0.4,0-0.6c0-2.3,2-4.2,4.3-4.2c1.4,0,2.7,0.6,3.5,1.7c0.1,0.1,0.1,0.2,0.2,0.3
		l0,0c0,0,0,0.1,0.1,0.1c0.5,0.9,0.7,2,0.4,3l2.7-0.4c0.2-0.1,0.4-0.3,0.3-0.5c0-0.2,0-0.5-0.1-0.7l0.4-2
		C42.8,11.9,42.8,11.9,42.8,11.8z"/>
	<path fill="#F4F4F4" d="M3.7,7.1L2.3,8.6c0,0,0-2.2,0.6-2.7c0,0,0.2-0.5,0.5-0.2C3.5,6.2,3.6,6.7,3.7,7.1z"/>
	<path fill="#F4F4F4" d="M7.6,5.5c0,0-0.5-0.1-0.4-1.1c0,0,0-1.7,0.8-2.3l1.3-0.2l0.1,3.7L7.6,5.5z"/>
	<path fill="#F4F4F4" d="M10.1,5.5V1.8c0,0,5.9-0.2,6.2-0.1l0.3,4.2L10.1,5.5z"/>
	<path fill="#F4F4F4" d="M18.9,5.8C18.5,4.4,18.2,3,18,1.6c0,0,4.8,0.2,6.4,1l3.2,1.7C27.8,4.4,28,4.6,28,4.9l0.3,1.8L18.9,5.8z"/>
	<path fill="#F4F4F4" d="M37.9,8c1,0.2,1.9,0.6,2.8,1.1c0.3,0.5,0.5,1.1,0.5,1.7C39.9,10.1,38.8,9.2,37.9,8z"/>
</g>
</svg>
