<?xml version="1.0" encoding="utf-8"?>
<!-- Generator: Adobe Illustrator 21.1.0, SVG Export Plug-In . SVG Version: 6.00 Build 0)  -->
<svg version="1.1" id="Capa_1" xmlns="http://www.w3.org/2000/svg" xmlns:xlink="http://www.w3.org/1999/xlink" x="0px" y="0px"
	 viewBox="0 0 76 30" enable-background="new 0 0 76 30" xml:space="preserve">
<g transform="translate(2972.015 9400.02)">
	<path fill="#ABABAE" d="M-2959-9391.1c-2.5,0.2-5.1,0.6-7.5,1.3l0,0c-1.1,0.6-1.1,2.9-1,3.3v0.1c-0.2,0.3-0.4,0.6-0.7,0.8
		c-0.4,0.4-0.6,0.9-0.6,1.4c0,0.7,0.1,1.5,0.2,1.8c0,0.2,0.1,0.4,0.2,0.5c0.4,0.6,0.9,1.2,1.4,1.7c0,0,0.1,0.1,0.1,0.2l0,0
		c0,0.3,0.2,0.6,0.6,0.7h0.1l1.2-0.1c0.2,0,0.4,0,0.6,0c0.6,0.1,2,0.3,2.5,0.4c0.1,0,0.2-0.1,0.2-0.2l0,0c-0.3-7.6,6.8-7.6,7-7.6
		l0,0c7.1,0.6,7,7.1,6.9,8.3c0,0.1,0.1,0.2,0.2,0.2l0,0h29.6c0.1,0,0.2-0.1,0.2-0.2c0.1-9.4,7.7-8.5,7.7-8.5c7,0.8,6.3,6.9,6,8.3
		c0,0.1,0.1,0.2,0.2,0.2c0,0,0,0,0.1,0c1,0,3.4-0.3,3.8-0.3c0,0,0,0,0.1,0c0.3-0.2,0.5-0.5,0.5-0.9c0-0.1,0-0.1,0.1-0.1
		c0.3-0.2,0.3-0.4,0.3-0.4v-0.1c0.7-1.4,0.3-3.9,0.2-4.4v-0.1c-2.9-5.5-22.5-5.5-23.8-5.5h-0.1c-1.1-0.8-9.6-5.2-9.6-5.2
		c-1.3-0.7-1.8-0.5-1.8-0.5c-0.5,0.1-0.5,0.9-0.5,1l0,0l0.1,0.9c0,0.2,0.1,0.5,0.2,0.7c0.5,0.6,1.1,1.2,1.8,1.7
		c0.1,0.1,0.1,0.1,0.1,0.2c-0.1,0.3-0.2,0.5-0.2,0.5c-0.2,0.6-0.3,0.9-0.4,1.1c0,0.1-0.1,0.1-0.2,0.1l-10.7-0.3
		c-0.1,0-0.2-0.1-0.2-0.2c0-0.9-0.2-1.8-0.4-2.7c-0.1-0.3-0.2-0.5-0.4-0.7c-0.1-0.2-0.3-0.3-0.5-0.4c-0.3-0.2-0.6-0.3-0.9-0.3l0,0
		l-0.4-0.1c-1-0.1-0.9,0.6-0.9,0.6v2.5c0,0.1-0.1,0.2-0.2,0.2c-1.6,0-3.3-0.1-4.9-0.3c-0.3-0.1-0.6,0.1-0.7,0.3
		c0,0.1-0.1,0.1-0.2,0.1C-2955.6-9391.1-2959-9391.1-2959-9391.1 M-2966.8-9386.7c-0.1-0.8,0-1.6,0.4-2.3c0-0.1,0.1-0.1,0.2-0.1
		c0.4,0.1,1.8,0.3,1.8,1.3l0,0c0,0.2-0.3,1.3-2.2,1.2C-2966.7-9386.5-2966.8-9386.6-2966.8-9386.7z M-2904.7-9386.9
		c1,0.1,3.1,0.5,4.1,1.9c0.1,0.1,0,0.2,0,0.3c0,0-0.1,0-0.2,0c-1.5-0.3-2.8-0.9-4-1.8c-0.1-0.1-0.1-0.2,0-0.3
		C-2904.8-9386.9-2904.7-9386.9-2904.7-9386.9z"/>
	<g transform="translate(8.443 9.922)">
		<path fill="#ABABAE" d="M-2963.4-9396c-3.1,0-5.6,2.5-5.6,5.6s2.5,5.6,5.6,5.6s5.6-2.5,5.6-5.6
			C-2957.9-9393.5-2960.4-9396-2963.4-9396z M-2963.4-9387.2c-1.8,0-3.2-1.4-3.2-3.2s1.4-3.2,3.2-3.2s3.2,1.4,3.2,3.2
			S-2961.7-9387.2-2963.4-9387.2L-2963.4-9387.2L-2963.4-9387.2z"/>
	</g>
	<g transform="translate(52.534 9.82)">
		<path fill="#ABABAE" d="M-2963.4-9396c-3.1,0-5.6,2.5-5.6,5.6s2.5,5.6,5.6,5.6s5.6-2.5,5.6-5.6S-2960.4-9396-2963.4-9396
			L-2963.4-9396z M-2963.4-9387.2c-1.8,0-3.2-1.4-3.2-3.2s1.4-3.2,3.2-3.2s3.2,1.4,3.2,3.2S-2961.7-9387.2-2963.4-9387.2
			L-2963.4-9387.2z"/>
	</g>
</g>
</svg>
