<?xml version="1.0" encoding="utf-8"?>
<!-- Generator: Adobe Illustrator 21.1.0, SVG Export Plug-In . SVG Version: 6.00 Build 0)  -->
<svg version="1.1" id="Capa_1" xmlns="http://www.w3.org/2000/svg" xmlns:xlink="http://www.w3.org/1999/xlink" x="0px" y="0px"
	 viewBox="0 0 35 35" enable-background="new 0 0 35 35" xml:space="preserve">
<path id="Path_5530" opacity="0.7" fill="#898989" enable-background="new    " d="M22.2,25.3c0-0.8-0.1-1.5-0.3-2.3
	c-0.6-2.2-1.7-3.8-2.5-3.5l1.4-5.2c1.9-0.1,3.3-1.7,3.2-3.5c-0.1-1.9-1.7-3.3-3.5-3.2c-1.9,0.1-3.3,1.7-3.2,3.5
	c0.1,1.1,0.6,2.1,1.5,2.7l-1.6,5.8c-0.9,0-2.2,1-3.2,2.4c-0.8,0.9-1.2,2.1-1.3,3.3H8.1v2.2h18.8v-2.2H22.2z"/>
</svg>
