<?xml version="1.0" encoding="utf-8"?>
<!-- Generator: Adobe Illustrator 21.1.0, SVG Export Plug-In . SVG Version: 6.00 Build 0)  -->
<svg version="1.1" id="Group_9423" xmlns="http://www.w3.org/2000/svg" xmlns:xlink="http://www.w3.org/1999/xlink" x="0px" y="0px"
	 viewBox="0 0 270 110" enable-background="new 0 0 270 110" xml:space="preserve">
<g id="Group_9422" transform="translate(-1362 -2122)" opacity="0.7">
	<path id="Path_5330" fill="none" stroke="#88888C" stroke-miterlimit="10" d="M1414.2,2138.7c2.1-1.6,14.7-6.6,27-7.5
		c10.4-0.8,48.3-0.8,49.7-0.6c5.6,0.4,11.1,1.5,16.4,3.4c7.2,2.6,48.2,22.7,50.1,24.1c1.3,1,2.5,3.4-2.3,3.4s-12.1-2.4-16.6,0.7
		c-4.3,3-109.7-7-109.7-7s-8.2-0.9-11-4.7C1414.9,2146.6,1412,2140.5,1414.2,2138.7z"/>
	<path id="Path_5331" fill="none" stroke="#88888C" stroke-miterlimit="10" d="M1452.5,2130.8l5.6,27l-7,4.9c0,0-0.3,17.6,0.4,21
		c0,0,4.5,20.8,8.2,23.2l82.4,1.2c0,0,6.9-12.3,6.6-22.8c-0.4-10.4,0-24.5,0-24.5l-0.8-7.7"/>
	<line id="Line_979" fill="none" stroke="#88888C" stroke-miterlimit="10" x1="1456.9" y1="2130.7" x2="1463.2" y2="2158.3"/>
	<g id="Group_7718" transform="translate(91.925 39.729)">
		<path id="Path_5332" fill="none" stroke="#88888C" stroke-miterlimit="10" d="M1381,2128.4c0,0.9-0.7,1.6-1.6,1.6c0,0,0,0,0,0
			h-13.7c-0.9,0-1.6-0.7-1.6-1.6c0,0,0,0,0,0v-0.8c0-0.9,0.7-1.6,1.6-1.6c0,0,0,0,0,0h13.7c0.9,0,1.6,0.7,1.6,1.6c0,0,0,0,0,0
			L1381,2128.4z"/>
	</g>
	<circle id="Ellipse_586" fill="none" stroke="#88888C" stroke-miterlimit="10" cx="1577.1" cy="2206" r="21.5"/>
	<circle id="Ellipse_587" fill="none" stroke="#88888C" stroke-miterlimit="10" cx="1577.1" cy="2206" r="16.3"/>
	<circle id="Ellipse_588" fill="none" stroke="#88888C" stroke-miterlimit="10" cx="1397.3" cy="2206" r="21.5"/>
	<path id="Path_5333" fill="none" stroke="#88888C" stroke-miterlimit="10" d="M1625.2,2183.3c-3.2-3.6-1.1-4.7-2.3-7.6
		c-0.9-2.1-1.2-12.3-57.2-21.1c-2.6-0.4-47.5-22.3-49.3-22.9c-1.8-0.6-8.2-4.1-27.6-5c-19.4-0.9-63.5-2.3-81.9,5.7
		c-11.3,4.9-27.3,21.9-29.4,24.2c-2.1,2.3-7.9,10-8.5,17.6c-0.6,7.6-5,10.3-5,13.4c0.1,3.1,3.8,19.7,7.5,21.7
		c-0.1-0.6-0.1-1.4-0.1-2c-0.2-14.3,11.3-26.1,25.7-26.2c14.3-0.2,26.1,11.3,26.2,25.7c0,0.2,0,0.4,0,0.6c0,1.1-0.1,2.1-0.2,3.2
		c36.8,0.8,87.1,1.8,128.6,2.5c-0.4-1.9-0.6-3.7-0.6-5.6c-0.2-14.3,11.3-26.1,25.7-26.2c14.3-0.2,26.1,11.3,26.2,25.7
		c0,0.2,0,0.4,0,0.6c0,2.1-0.3,4.2-0.8,6.3c14.9,0.1,24.4,0.1,25.3-0.3C1632.3,2211.5,1628.9,2187.5,1625.2,2183.3z"/>
	<circle id="Ellipse_589" fill="none" stroke="#88888C" stroke-miterlimit="10" cx="1397.3" cy="2206" r="16.3"/>
	<path id="Path_5334" fill="none" stroke="#88888C" stroke-miterlimit="10" d="M1623.3,2178.5c-2.1-0.8-16.6-11-20.3-11.7
		c-3.8-0.8-19.5-2.1-17.3-0.7c1.1,0.7,1.2,1.1,2.9,2.1c2.1,1.3,9.7,6.3,9.9,8.4c0.2,2.2,22.2,6.6,25.1,4.5"/>
	<path id="Path_5335" fill="none" stroke="#88888C" stroke-miterlimit="10" d="M1565.6,2154.6c0,0,19.4,10.4,23.1,13.6"/>
	<line id="Line_980" fill="none" stroke="#88888C" stroke-miterlimit="10" x1="1598.6" y1="2176.6" x2="1592.6" y2="2186.2"/>
	<path id="Path_5336" fill="none" stroke="#88888C" stroke-miterlimit="10" d="M1534.2,2157.2c0,0-7.5-6.1-9.3-6.5
		c-2.5-0.6-5,0.8-5.8,3.2c-0.6,2.1-1.5,7.2,3.2,7.4c4.7,0.2,10.5,0.5,11.4,0c1.2-0.9,1.5-2.6,0.7-3.8
		C1534.4,2157.5,1534.3,2157.3,1534.2,2157.2z"/>
	<line id="Line_981" fill="none" stroke="#88888C" stroke-miterlimit="10" x1="1522" y1="2140.7" x2="1522.8" y2="2150.6"/>
	<path id="Path_5337" fill="none" stroke="#88888C" stroke-miterlimit="10" d="M1375.8,2158.7c0.3-0.4,6.7-3.4,9.6-1.5
		c2.9,1.9,0.9,8.7,0,8.9c-0.9,0.2-15.9,8.7-16.5,8.9"/>
	<path id="Path_5338" fill="none" stroke="#88888C" stroke-miterlimit="10" d="M1629.9,2201.7c0,0-7.2-6.3-9.6-5.7
		c-2.3,0.7-7.7,5.4-7.7,8.5c0,3.1,3.8,6.2,8,6.1s8.7,0,8.7,0"/>
</g>
<rect id="Rectangle_8411" fill="none" width="270" height="110"/>
</svg>
