<?xml version="1.0" encoding="utf-8"?>
<!-- Generator: Adobe Illustrator 22.0.1, SVG Export Plug-In . SVG Version: 6.00 Build 0)  -->
<svg version="1.1" id="Capa_1" xmlns="http://www.w3.org/2000/svg" xmlns:xlink="http://www.w3.org/1999/xlink" x="0px" y="0px"
	 viewBox="0 0 16 18" enable-background="new 0 0 16 18" xml:space="preserve">
<g id="Group_10229" transform="translate(-1407.779 -3520.03)">
	<path id="Path_5486" fill="#ABACAE" d="M1422.4,3531.5l-4.9,4.9l-8.8-9l-0.1,0.9c0,0.2,0,0.3,0.1,0.4l8.6,8.6
		c0.1,0.1,0.3,0.1,0.4,0l5-5c0.1-0.1,0.1-0.3,0-0.4L1422.4,3531.5z"/>
	<path id="Path_5487" fill="#ABACAE" d="M1413.8,3520.7l-4.3,0.5c-0.1,0-0.3,0.2-0.3,0.3l-0.5,4.3c0,0.2,0,0.3,0.1,0.4l8.6,8.6
		c0.1,0.1,0.3,0.1,0.4,0l5-5c0.1-0.1,0.1-0.3,0-0.4l-8.6-8.6C1414.1,3520.7,1413.9,3520.6,1413.8,3520.7z M1412.8,3524.8
		c-0.5,0.5-1.3,0.5-1.8,0c-0.5-0.5-0.5-1.3,0-1.8c0.5-0.5,1.3-0.5,1.8,0C1413.3,3523.5,1413.3,3524.3,1412.8,3524.8
		C1412.8,3524.8,1412.8,3524.8,1412.8,3524.8z"/>
</g>
</svg>
