<?xml version="1.0" encoding="utf-8"?>
<!-- Generator: Adobe Illustrator 21.1.0, SVG Export Plug-In . SVG Version: 6.00 Build 0)  -->
<svg version="1.1" id="Group_8786" xmlns="http://www.w3.org/2000/svg" xmlns:xlink="http://www.w3.org/1999/xlink" x="0px" y="0px"
	 viewBox="0 0 46 24" enable-background="new 0 0 46 24" xml:space="preserve">
<g id="Group_8780" transform="translate(-283 -2366)">
	<path id="Path_5555" fill="#ABABAE" d="M298.2,2375v-1.1h-0.6v-2.4h-1.2v-1.7h-1.1v1.7h-1.2v2.4h-0.6v1.1H293v14h5.8v-14H298.2z
		 M294.1,2376.3h1.2v1.2h-1.2V2376.3z M294.1,2378.6h1.2v1.2h-1.2V2378.6z M294.2,2380.9h1.2v1.2h-1.2L294.2,2380.9z M294.2,2383.2
		h1.2v1.2h-1.2L294.2,2383.2z M295.3,2386.7h-1.2v-1.2h1.2V2386.7z M296.5,2376.3h1.2v1.2h-1.2L296.5,2376.3L296.5,2376.3z
		 M296.5,2378.6h1.2v1.2h-1.2L296.5,2378.6L296.5,2378.6z M296.5,2380.9h1.2v1.2h-1.2V2380.9z M296.5,2383.2h1.2v1.2h-1.2V2383.2z
		 M297.7,2386.7h-1.2v-1.2h1.2V2386.7z"/>
	<path id="Path_5556" fill="#ABABAE" d="M300,2377.4v11.6h5.8v-11.6H300z M302.3,2386.4h-1.2v-1.2h1.2L302.3,2386.4z M302.3,2384.3
		h-1.2v-1.2h1.2L302.3,2384.3z M302.3,2382.1h-1.2v-1.2h1.2L302.3,2382.1z M302.3,2379.9h-1.2v-1.2h1.2L302.3,2379.9z M304.6,2386.4
		h-1.2v-1.2h1.2L304.6,2386.4z M304.6,2384.3h-1.2v-1.2h1.2L304.6,2384.3z M304.6,2382.1h-1.2v-1.2h1.2L304.6,2382.1z M304.6,2379.9
		h-1.2v-1.2h1.2L304.6,2379.9z"/>
	<path id="Path_5557" fill="#ABABAE" d="M317.4,2375.1v-4.7h-2.3v-1.6h-1.2v1.6h-2.3v4.6h-1.2v13.9h8.2v-13.9H317.4z M312.7,2386.7
		h-1.2v-1.2h1.2L312.7,2386.7z M312.7,2384.3h-1.2v-1.2h1.2L312.7,2384.3z M312.7,2382h-1.2v-1.2h1.2L312.7,2382z M312.7,2379.7
		h-1.2v-1.2h1.2L312.7,2379.7z M312.7,2377.4h-1.2v-1.2h1.2L312.7,2377.4z M313.9,2375.1h-1.2v-1.2h1.2V2375.1z M313.9,2372.8h-1.2
		v-1.2h1.2V2372.8z M315.1,2386.7h-1.2v-1.2h1.2V2386.7z M315.1,2384.3h-1.2v-1.2h1.2V2384.3z M315.1,2382h-1.2v-1.2h1.2V2382z
		 M315.1,2379.7h-1.2v-1.2h1.2V2379.7z M315.1,2377.4h-1.2v-1.2h1.2V2377.4z M316.2,2375.1h-1.2v-1.2h1.2L316.2,2375.1z
		 M316.2,2372.8h-1.2v-1.2h1.2L316.2,2372.8z M317.4,2386.7h-1.2v-1.2h1.2V2386.7z M317.4,2384.3h-1.2v-1.2h1.2V2384.3z M317.4,2382
		h-1.2v-1.2h1.2V2382z M317.4,2379.7h-1.2v-1.2h1.2V2379.7z M317.4,2377.4h-1.2v-1.2h1.2V2377.4z"/>
	<path id="Path_5558" fill="#ABABAE" d="M303.5,2367v9.4h3.5v12.6h2.3v-22H303.5z M304.6,2368.5h1.2v1.2h-1.2V2368.5z M304.6,2370.8
		h1.2v1.2h-1.2L304.6,2370.8z M305.8,2374.3h-1.2v-1.2h1.2L305.8,2374.3z M306.9,2368.5h1.2v1.2h-1.2V2368.5z M306.9,2372v-1.2h1.2
		v1.2L306.9,2372z M308.1,2374.3H307v-1.2h1.2L308.1,2374.3z"/>
</g>
<rect id="Rectangle_8086" fill="none" width="46" height="24"/>
</svg>
