<?xml version="1.0" encoding="utf-8"?>
<!-- Generator: Adobe Illustrator 21.1.0, SVG Export Plug-In . SVG Version: 6.00 Build 0)  -->
<svg version="1.1" id="Capa_1" xmlns="http://www.w3.org/2000/svg" xmlns:xlink="http://www.w3.org/1999/xlink" x="0px" y="0px"
	 viewBox="0 0 76 30" enable-background="new 0 0 76 30" xml:space="preserve">
<g transform="translate(2862.967 9395.987)">
	<g transform="translate(1.991 14.257)">
		<path fill="#ABABAE" d="M-2848.7-9394c-2.9,0-5.3,2.4-5.3,5.3s2.4,5.3,5.3,5.3c2.9,0,5.3-2.4,5.3-5.3S-2845.8-9394-2848.7-9394z
			 M-2848.7-9385.6c-1.7,0-3.1-1.4-3.1-3.1s1.4-3.1,3.1-3.1s3.1,1.4,3.1,3.1l0,0C-2845.6-9387-2847-9385.6-2848.7-9385.6
			L-2848.7-9385.6z"/>
	</g>
	<g transform="translate(43.158 14.503)">
		<path fill="#ABABAE" d="M-2848.7-9394c-2.9,0-5.3,2.4-5.3,5.3s2.4,5.3,5.3,5.3c2.9,0,5.3-2.4,5.3-5.3S-2845.8-9394-2848.7-9394z
			 M-2848.7-9385.6c-1.7,0-3.1-1.4-3.1-3.1c0-1.7,1.4-3.1,3.1-3.1s3.1,1.4,3.1,3.1C-2845.6-9387-2847-9385.6-2848.7-9385.6
			L-2848.7-9385.6z"/>
	</g>
	<path fill="none" d="M-2843.4-9391.8c-1.2,0.8-1.1,3.2-1.1,3.2c-0.1,1.3,0.5,1.5,0.5,1.5l2.5,0.1l-0.2-5.1L-2843.4-9391.8z"/>
	<path fill="none" d="M-2850.6-9386.4c-0.7,0.7-0.8,3.7-0.8,3.7l1.9-2.1c0-0.6-0.2-1.3-0.5-1.9
		C-2850.4-9387-2850.6-9386.4-2850.6-9386.4z"/>
	<path fill="none" d="M-2800.7-9377.6c0.1,0.1,0.2,0.3,0.3,0.4C-2800.5-9377.3-2800.6-9377.5-2800.7-9377.6z"/>
	<path fill="none" d="M-2840.5-9392.2l0.1,5.2l9,0.5l-0.4-5.9C-2832.4-9392.6-2840.5-9392.2-2840.5-9392.2z"/>
	<path fill="none" d="M-2800.5-9377.2l0.1,0.1C-2800.4-9377.1-2800.4-9377.2-2800.5-9377.2z"/>
	<path fill="none" d="M-2816.2-9388.7l-4.4-2.4c-2.2-1.1-8.9-1.3-8.9-1.3c-0.2,0.7,1.3,5.8,1.3,5.8l13.1,1.3l-0.4-2.5
		C-2815.6-9388.2-2815.9-9388.5-2816.2-9388.7z"/>
	<path fill="none" d="M-2802-9383.5c1.2,1.9,4.7,3.9,4.7,3.9c-0.1-0.8-0.4-1.6-0.8-2.4C-2798.7-9382.6-2802-9383.5-2802-9383.5z"/>
	<path fill="#ABABAE" d="M-2795.2-9378.3c-0.2-0.7-0.6-1.2-1.1-1.7c-0.2-0.8-0.5-1.6-0.9-2.3c-2.6-2.7-12.1-4-12.1-4
		c-1.3-0.5-7.3-4.6-7.3-4.6c-3.8-2.3-10.1-2.9-10.1-2.9c-8.9-0.9-21.8,0.9-21.8,0.9c0.2,0.9,0.5,1.1,0.5,1.1
		c-1.4,1.9-2.7,3.8-3.8,5.9c-0.2,0.3-0.3,0.6-0.3,1l-0.1,2.7c-0.4,0.5-0.8,1.1-1.2,1.6c-0.9,1.6,0,6,0,6l0.8,0.2v-0.1
		c0.1-3.2,2.7-5.8,6-5.8c3.2,0,5.9,2.5,6,5.8c0,0.5-0.1,0.9-0.2,1.4l29.5,0.1c0-0.1,0-0.2,0-0.3c0-0.3-0.1-0.6-0.1-0.8
		c0.1-3.2,2.7-5.8,6-5.8c1.9,0,3.7,0.9,4.8,2.4c0.1,0.1,0.2,0.2,0.3,0.4l0,0l0.1,0.1c0.7,1.2,1,2.7,0.6,4.1l3.8-0.6
		c0.3-0.1,0.5-0.4,0.5-0.7s-0.1-0.6-0.2-0.9l0.5-2.8C-2795.2-9378.1-2795.2-9378.2-2795.2-9378.3z M-2849.5-9384.8l-1.9,2.1
		c0,0,0.1-3,0.8-3.7c0,0,0.3-0.7,0.7-0.3C-2849.7-9386-2849.5-9385.4-2849.5-9384.8z M-2844-9387.1c0,0-0.7-0.2-0.5-1.5
		c0,0-0.1-2.4,1.1-3.2l1.7-0.3l0.2,5.1L-2844-9387.1z M-2840.5-9387.1l-0.1-5.2c0,0,8.2-0.3,8.7-0.2l0.4,5.9L-2840.5-9387.1z
		 M-2828.3-9386.6c0,0-1.5-5.1-1.3-5.8c0,0,6.7,0.3,8.9,1.3l4.5,2.4c0.3,0.2,0.5,0.5,0.6,0.8l0.4,2.5L-2828.3-9386.6z M-2802-9383.5
		c0,0,3.3,0.9,3.9,1.5c0.4,0.7,0.6,1.5,0.8,2.4C-2797.3-9379.6-2800.7-9381.5-2802-9383.5z"/>
	<path fill="#ABABAE" d="M-2800.4-9377.1c0.7,1.3,0.8,2.8,0.5,4.2h0.1C-2799.4-9374.3-2799.6-9375.8-2800.4-9377.1L-2800.4-9377.1z"
		/>
	<path opacity="0.67" fill="#ABABAE" enable-background="new    " d="M-2800.4-9377.1c0.7,1.3,0.8,2.8,0.5,4.2h0.1
		C-2799.4-9374.3-2799.6-9375.8-2800.4-9377.1L-2800.4-9377.1z"/>
</g>
</svg>
