<?xml version="1.0" encoding="utf-8"?>
<!-- Generator: Adobe Illustrator 21.1.0, SVG Export Plug-In . SVG Version: 6.00 Build 0)  -->
<svg version="1.1" id="Capa_1" xmlns="http://www.w3.org/2000/svg" xmlns:xlink="http://www.w3.org/1999/xlink" x="0px" y="0px"
	 viewBox="0 0 35 35" enable-background="new 0 0 35 35" xml:space="preserve">
<g id="Group_8589" transform="translate(220 -1780)" opacity="0.7">
	<g id="Group_3993" transform="translate(465 960)">
		<path id="Path_2590" fill="#88898D" d="M-667.8,827.5h-9.3c-0.4,0-0.8,0.4-0.8,0.8v18.4c0,0.4,0.4,0.8,0.8,0.8h9.3
			c0.4,0,0.8-0.4,0.8-0.8v-18.4C-667,827.9-667.4,827.5-667.8,827.5z M-669.3,834.4c0,0.2-0.1,0.4-0.3,0.4h-5.6
			c-0.2,0-0.3-0.2-0.3-0.4v-4.5c0-0.2,0.1-0.4,0.3-0.4h5.6c0.2,0,0.3,0.2,0.3,0.4L-669.3,834.4z"/>
	</g>
	<g id="Group_3995" transform="translate(475.075 960.421)">
		<path id="Path_2591" fill="#88898D" d="M-671.8,846.6c-0.2,0-0.4,0-0.6,0c-2-0.3-3.4-2.1-3.4-4.1c0.2-1.5,0.4-3.1,0.8-4.6
			c0.2-0.9,0.4-1.7,0.5-2.4c0.1-0.3,0-0.4-0.1-0.5c-0.3-0.3-1-0.4-2.3-0.3c-0.1,0-0.2,0-0.2,0h0c-0.4,0-0.7-0.3-0.8-0.7
			c0-0.4,0.3-0.8,0.7-0.8c0,0,0,0,0,0c0.1,0,0.1,0,0.2,0c0.9,0,2.6-0.1,3.5,0.9c0.4,0.5,0.6,1.1,0.4,1.7c-0.1,0.7-0.3,1.5-0.5,2.4
			c-0.3,1.4-0.6,2.9-0.8,4.3c-0.1,1.4,1,2.5,2.4,2.6c1,0,2-0.6,2.4-1.5c0.7-1.5-0.3-4.4-0.5-4.9c-0.8-2.1-1.1-4.3-0.8-6.5
			c0.2-1.8,1.1-3.4,2.4-4.5c0.3-0.3,0.8-0.2,1.1,0.1c0.3,0.3,0.2,0.8-0.1,1.1l0,0c-1,0.9-1.7,2.2-1.9,3.5c0,0,0,0,0,0.1
			c-0.2,1.9,0.1,3.9,0.7,5.7c0.5,1.5,1.3,4.2,0.5,6.1C-668.8,845.7-670.2,846.6-671.8,846.6z"/>
		<g id="Group_3994" transform="translate(7.722 2.084)">
			<path id="Path_2592" fill="#88898D" d="M-677.9,831.3h1.6c0.2,0,0.4-0.2,0.4-0.4v-2.3c0-0.2-0.1-0.5-0.3-0.7l-0.5-0.5"/>
		</g>
	</g>
</g>
</svg>
