<?xml version="1.0" encoding="utf-8"?>
<!-- Generator: Adobe Illustrator 21.1.0, SVG Export Plug-In . SVG Version: 6.00 Build 0)  -->
<svg version="1.1" id="Capa_1" xmlns="http://www.w3.org/2000/svg" xmlns:xlink="http://www.w3.org/1999/xlink" x="0px" y="0px"
	 viewBox="0 0 76 30" enable-background="new 0 0 76 30" xml:space="preserve">
<g transform="translate(2739.017 9489.993)">
	<path fill="#ABABAE" d="M-2666.7-9473.9c-0.2-0.1-0.3-0.3-0.3-0.5c-0.3-1.5-3.2-2.6-3.2-2.6c-3.4-1.1-13.7-2.6-13.9-2.6l0,0
		c-3.1-1.7-10.3-5-11.3-5.4c-0.1,0-0.1-0.1-0.2-0.1c-5.6-1.6-17.5-0.6-17.5-0.6c-2.1,0.3-3.6,0.5-3.6,0.5l0,0
		c-4.2,1.2-11.5,5-11.7,5.1l0,0l-6.1,0.5c-0.3,0-0.5,0.2-0.6,0.5l0,0c-0.4,1.2-0.5,2.4-0.4,3.6l0.1,0.6c0,0.3-0.1,0.6-0.4,0.8
		l-0.8,0.6c-0.3,0.2-0.5,0.5-0.5,0.9c0,0.7,0.2,1.4,0.5,2c0.4,1.1,1.3,1.9,2.4,2.3l5.4,0.5c0-0.2,0-0.4,0-0.6c0-3.3,2.7-6,6-6
		s6,2.7,6,6l0,0c0,0.3,0,0.7-0.1,1l29.7,0.2c-0.1-0.4-0.1-0.7-0.1-1.1c0-3.3,2.7-6,6-6s6,2.7,6,6l0,0c0,0.3,0,0.7-0.1,1l0,0l6.5-0.4
		c0.7,0,1.3-0.1,1.9-0.4l0.5-0.3c0.2-0.1,0.3-0.3,0.3-0.5c-0.1-0.6,0-1.2,0.2-1.8c0.1-0.4,0.2-0.8,0.2-1.2l0,0
		C-2665.7-9472.7-2666-9473.5-2666.7-9473.9z M-2731.5-9477L-2731.5-9477c-0.6,0.6-1.3,1-2,1.3c-0.2,0.1-0.3,0-0.4-0.2l0,0
		c-0.2-0.6-0.2-1.3-0.1-1.9c0-0.1,0.2-0.2,0.3-0.2l1.5,0.1l0,0C-2731.2-9477.6-2731.5-9477.1-2731.5-9477z M-2720.2-9479.4
		c1.1-2.5,3.5-4.3,6.2-4.6l7.4-0.2l0.3,5.3L-2720.2-9479.4z M-2692.4-9480.3c-0.7,0.1-0.1,1.9-0.1,1.9l-12-0.5l-0.4-5.4
		c2.1,0,4.2,0.2,6.2,0.4c2.7,0.5,5.2,1.7,7.2,3.5L-2692.4-9480.3z M-2668.7-9473.4l-4.5-0.3c-0.9-0.1-1.7-0.7-2.2-1.5
		c-0.4-1,2.1-1,3.2-0.9c0.3,0,0.7,0.1,1,0.3l2,1.1c0.6,0.4,0.8,0.7,0.8,1C-2668.4-9473.6-2668.5-9473.4-2668.7-9473.4
		L-2668.7-9473.4L-2668.7-9473.4z"/>
	<g transform="translate(9.055 12.327)">
		<path fill="#ABABAE" d="M-2731.8-9486c-2.9,0-5.2,2.3-5.2,5.2s2.3,5.2,5.2,5.2s5.2-2.3,5.2-5.2l0,0
			C-2726.6-9483.7-2728.9-9486-2731.8-9486L-2731.8-9486z M-2731.8-9477.8c-1.7,0-3-1.3-3-3s1.3-3,3-3s3,1.3,3,3l0,0
			C-2728.8-9479.1-2730.1-9477.8-2731.8-9477.8z"/>
	</g>
	<g transform="translate(50.569 12.327)">
		<path fill="#ABABAE" d="M-2731.8-9486c-2.9,0-5.2,2.3-5.2,5.2s2.3,5.2,5.2,5.2s5.2-2.3,5.2-5.2S-2728.9-9486-2731.8-9486
			L-2731.8-9486z M-2731.8-9477.8c-1.7,0-3-1.3-3-3s1.3-3,3-3s3,1.3,3,3l0,0C-2728.8-9479.1-2730.1-9477.8-2731.8-9477.8z"/>
	</g>
</g>
</svg>
