<?xml version="1.0" encoding="utf-8"?>
<!-- Generator: Adobe Illustrator 21.1.0, SVG Export Plug-In . SVG Version: 6.00 Build 0)  -->
<svg version="1.1" id="Capa_1" xmlns="http://www.w3.org/2000/svg" xmlns:xlink="http://www.w3.org/1999/xlink" x="0px" y="0px"
	 viewBox="0 0 46 46" enable-background="new 0 0 46 46" xml:space="preserve">
<g id="Group_9708" transform="translate(3731 4678)">
	<g id="Group_8905" transform="translate(8.953 23.388)">
		<path id="Path_5550" opacity="0.7" fill="#88898D" enable-background="new    " d="M-3726-4674.2c-0.3-0.3-0.6-0.5-0.9-0.6
			c-0.4-0.1-0.5-0.2-0.5-0.2c-0.4,0-0.9-0.1-1.1-0.1s-0.3,0.4-0.3,0.8v4.2c0,0.4,0.1,0.8,0.3,0.8c0.2,0,0.7,0,1.1-0.1
			c0.2,0,0.3-0.1,0.5-0.2c0.4-0.1,0.7-0.3,0.9-0.6c0.3-0.3,0.5-0.6,0.6-0.9c0.1-0.4,0.2-0.8,0.2-1.2c0-0.4-0.1-0.8-0.2-1.2
			C-3725.6-4673.6-3725.8-4673.9-3726-4674.2z"/>
	</g>
	<g id="Group_8906">
		<path id="Path_5551" opacity="0.7" fill="#88898D" enable-background="new    " d="M-3687.8-4671.4c0.7-0.5,0.8-1.5,0.2-2.1
			s-1.5-0.8-2.1-0.2c0,0,0,0,0,0c-2.5,2.1-4.1,5.1-4.7,8.3c-0.1,0.4-0.1,1.1-0.2,1.5c-0.3,4.1,0.3,8.3,1.7,12.2
			c0.4,1.1,2.3,6.9,1,9.9c-0.9,2.1-3.1,3.3-5.4,2.9c-3.1-0.4-4.1-3.3-4.1-5.1c0.3-2.9,0.9-5.8,1.5-8.6c0.4-1.8,0.7-3.5,1-4.8
			c0.3-1.2,0-2.5-0.8-3.4c-1.7-2-5.3-1.8-7-1.7h-0.1c-0.1,0-0.2-0.3-0.2-0.8v-9.3c0-0.5-0.1-1-0.3-1.5l-0.5-0.5
			c-0.5-0.2-1-0.3-1.6-0.3h-17c-0.5,0-1,0.1-1.5,0.3l-0.5,0.5c-0.2,0.5-0.3,1-0.3,1.5v35.3c0,0.5,0.1,1,0.3,1.5l0.5,0.5
			c0.5,0.2,1,0.3,1.5,0.3h17c0.5,0,1-0.1,1.5-0.3l0.5-0.5c0.2-0.5,0.3-1,0.3-1.5v-21.5c0-0.3,0-0.5,0-0.8l0,0c0.2,0,0.3,0,0.5,0
			c2.5-0.1,4.1,0.1,4.6,0.7c0.1,0.1,0.2,0.3,0.1,0.9c-0.2,1.3-0.6,3-0.9,4.8c-0.7,3-1.2,6.1-1.6,9.2c-0.2,4,2.8,7.6,6.7,8.2
			c0.4,0.1,0.8,0.1,1.2,0.1c3.2,0,6.1-1.9,7.4-4.8c1.6-3.6,0.1-9.1-0.9-12.1c-0.9-2.8-1.4-5.8-1.6-8.8c0-0.4,0.3-0.7,0.7-0.8
			c0,0,0,0,0.1,0h0.9c0.4,0,0.8-0.3,0.8-0.8c0,0,0,0,0,0v-4.7c0-0.4-0.1-0.7-0.3-1.1c-0.1-0.3-0.1-0.7,0.2-0.9
			C-3688.9-4670.4-3688.4-4670.9-3687.8-4671.4z M-3713.8-4646.7c-0.3,0.6-0.6,1.2-1.1,1.7c-0.5,0.5-1,0.9-1.6,1.2
			c-0.4,0.2-0.8,0.3-1.2,0.3c-0.5,0.1-1,0.1-1.6,0.1h-2.4c-0.4,0-0.8-0.3-0.8-0.8c0,0,0,0,0,0v-8.8c0-0.4,0.3-0.8,0.8-0.8
			c0,0,0,0,0,0h2.4c0.5,0,1,0,1.6,0.1c0.4,0.1,0.8,0.2,1.2,0.4c0.6,0.3,1.2,0.7,1.6,1.1c0.5,0.5,0.8,1,1.1,1.7
			c0.3,0.6,0.4,1.3,0.4,2C-3713.4-4648-3713.6-4647.3-3713.8-4646.7z M-3711.7-4661.9c0,0.4,0,0.8-0.1,1.2c-0.1,0.2-0.8,0.4-1.2,0.4
			h-9.8c-0.4,0-0.7,0-1.1-0.2c-0.2-0.1-0.3-1-0.3-1.4v-7.5c0-0.4,0-0.8,0.1-1.2c0.1-0.2,0.8-0.4,1.2-0.4h9.7c0.4,0,0.7,0,1.1,0.2
			c0.2,0.1,0.3,1,0.3,1.4L-3711.7-4661.9L-3711.7-4661.9z"/>
	</g>
</g>
</svg>
