<?xml version="1.0" encoding="utf-8"?>
<!-- Generator: Adobe Illustrator 21.1.0, SVG Export Plug-In . SVG Version: 6.00 Build 0)  -->
<svg version="1.1" id="Capa_1" xmlns="http://www.w3.org/2000/svg" xmlns:xlink="http://www.w3.org/1999/xlink" x="0px" y="0px"
	 viewBox="0 0 46 46" enable-background="new 0 0 46 46" xml:space="preserve">
<g opacity="0.7">
	<path fill="#88898D" d="M27.5,25.8c-0.3,0-0.6,0.1-0.8,0.3s-0.3,0.5-0.3,0.8c0,0.2,0,0.3,0.1,0.4c0.1,0.1,0.1,0.3,0.2,0.4
		c0.1,0.1,0.2,0.2,0.3,0.2c0.1,0.1,0.3,0.1,0.4,0.1c0.1,0,0.3,0,0.4-0.1c0.1-0.1,0.2-0.1,0.3-0.2c0.1-0.1,0.2-0.2,0.2-0.3
		c0.1-0.1,0.1-0.3,0.1-0.4c0-0.3-0.1-0.6-0.3-0.8C28,25.9,27.8,25.8,27.5,25.8z"/>
	<path fill="#88898D" d="M27.5,23.9c0.1,0,0.3,0,0.4-0.1c0.1-0.1,0.2-0.1,0.3-0.2c0.1-0.1,0.2-0.2,0.2-0.3c0.1-0.1,0.1-0.2,0.1-0.4
		c0-0.3-0.1-0.5-0.3-0.7c-0.2-0.2-0.4-0.3-0.7-0.3c-0.3,0-0.5,0.1-0.7,0.3c-0.2,0.2-0.3,0.4-0.3,0.7c0,0.3,0.1,0.5,0.3,0.7
		C27,23.8,27.2,23.9,27.5,23.9z"/>
	<path fill="#88898D" d="M42.8,8.1c-0.5-0.2-1-0.3-1.6-0.3c-0.2,0-0.4-0.1-0.5-0.3c-0.7-1.4-1.3-2.8-2-4.2C38.7,3.1,38.5,3,38.4,3
		h-12C26.2,3,26,3.1,26,3.3c-0.6,1.4-1.3,2.8-2,4.2c-0.1,0.2-0.3,0.3-0.5,0.3c-0.6,0-1.3,0-1.9,0c-0.2,0-0.3,0.1-0.4,0.2L19,10.1
		c-0.1,0.1-0.2,0.1-0.3,0.3V9.6c0-0.2,0-0.4-0.3-0.5c-0.2-0.1-0.5,0-0.6,0.2c-0.2,0.2-0.3,0.4-0.5,0.6c-0.1,0-0.2,0.1-0.2,0.1
		c0-0.1,0-0.2,0-0.2c0.1-0.3,0.2-0.6,0.3-0.9c0.1-0.2,0-0.5-0.2-0.6c-0.2-0.2-0.5-0.1-0.7,0.1C16.3,8.5,16.1,8.7,16,9
		c-0.1,0.2-0.3,0.2-0.4,0c0,0,0,0-0.1,0c-0.1-0.1-0.1-0.2-0.1-0.3c0.1-0.2,0.2-0.4,0.2-0.6c0-0.2,0-0.4-0.2-0.5
		c-0.2-0.1-0.4-0.1-0.5,0c-0.2,0.1-0.3,0.2-0.4,0.4c-0.2,0.3-0.4,0.3-0.6,0.1C11,6.5,7.8,5.3,4.5,4.7C3.8,4.6,3.1,4.5,2.3,4.4
		c-0.1,0-0.2,0.1-0.3,0.2C1.9,5.4,1.8,6.1,1.7,6.8C3.5,7.2,5.3,7.7,7,8.3c1.7,0.7,3.4,1.6,4.9,2.6c-0.2,0.2-0.4,0.4-0.5,0.6
		c-0.2,0.2-0.2,0.5,0,0.7c0,0,0,0,0.1,0c0.2,0.1,0.5,0.1,0.7-0.1c0.2-0.2,0.3-0.4,0.5-0.6c0.1-0.1,0.2-0.2,0.3,0
		c0.1,0.1,0.2,0.1,0.2,0.3c-0.1,0.2-0.1,0.4-0.2,0.6c0,0.2,0,0.5,0.2,0.6c0.2,0.1,0.5,0.1,0.7-0.1c0.1-0.1,0.3-0.3,0.4-0.4
		c0.1,0,0.1-0.1,0.2-0.1c0.3,0.1,0.4,0.3,0.3,0.7c0,0.1-0.1,0.2-0.1,0.3c-0.1,0.3-0.1,0.6,0.2,0.8c-0.1,0.1-0.1,0.1-0.2,0.2
		c-0.5,0.5-1,1-1.5,1.5c-0.1,0.1-0.2,0.3-0.2,0.5v23.7c0,0.1,0,0.2,0,0.3c0.1,1.5,1.3,2.6,2.8,2.5h3.7c7.4,0,14.8,0,22.2,0
		c0.4,0,0.8-0.1,1.2-0.2c1-0.4,1.6-1.4,1.5-2.5V10.3C44.3,9.4,43.7,8.5,42.8,8.1z M22.6,22.6h-2.8v1.5h2.6v2h-2.6v1.6h2.8v2h-5.1v-9
		h5.1V22.6z M26.6,7.5c0.3-0.6,0.6-1.1,0.8-1.7c0.1-0.2,0.3-0.4,0.5-0.3h8.8c0.2,0,0.3,0.1,0.4,0.2c0.3,0.6,0.6,1.3,0.9,2
		c0,0.1,0,0.1,0,0.2l-11.6,0C26.6,7.7,26.6,7.6,26.6,7.5z M30.7,28.3c-0.2,0.3-0.4,0.6-0.7,0.9c-0.3,0.2-0.7,0.4-1.1,0.6
		s-0.9,0.2-1.4,0.2c-0.5,0-0.9-0.1-1.4-0.2s-0.8-0.3-1.1-0.6c-0.3-0.2-0.6-0.5-0.7-0.9S24,27.6,24,27.2c0-1.1,0.6-1.9,1.8-2.3
		c-0.9-0.4-1.4-1.1-1.4-2c0-0.4,0.1-0.7,0.2-1c0.2-0.3,0.4-0.6,0.6-0.8c0.3-0.2,0.6-0.4,1-0.5c0.4-0.1,0.8-0.2,1.3-0.2
		c0.5,0,0.9,0.1,1.3,0.2c0.4,0.1,0.7,0.3,1,0.5c0.3,0.2,0.5,0.5,0.6,0.8c0.2,0.3,0.2,0.7,0.2,1c0,0.2,0,0.5-0.1,0.6
		c0,0.2-0.1,0.4-0.2,0.5c-0.1,0.2-0.3,0.3-0.5,0.4s-0.4,0.3-0.7,0.4c1.2,0.5,1.8,1.3,1.8,2.3C30.9,27.6,30.8,27.9,30.7,28.3z
		 M38.7,28c-0.2,0.4-0.4,0.7-0.8,1c-0.3,0.3-0.7,0.5-1.2,0.6c-0.5,0.1-1,0.2-1.6,0.2c-0.5,0-1.1-0.1-1.6-0.2s-1-0.3-1.4-0.6l0.3-2.2
		c0.4,0.3,0.8,0.6,1.2,0.8c0.4,0.2,0.8,0.3,1.2,0.3c0.5,0,0.9-0.1,1.1-0.4c0.3-0.3,0.4-0.6,0.4-1c0-0.4-0.2-0.8-0.6-1.1
		c-0.4-0.3-0.9-0.4-1.5-0.4c-0.3,0-0.6,0-0.8,0.1c-0.3,0.1-0.6,0.2-0.9,0.3l0.8-4.9h4.7v2h-3.1l-0.2,1c0.1,0,0.3,0,0.4,0
		c0.1,0,0.2,0,0.4,0c0.5,0,0.9,0.1,1.3,0.2c0.4,0.2,0.7,0.4,1,0.7c0.3,0.3,0.5,0.6,0.7,1s0.2,0.8,0.2,1.3
		C38.9,27.2,38.8,27.6,38.7,28z"/>
</g>
</svg>
