<?xml version="1.0" encoding="utf-8"?>
<!-- Generator: Adobe Illustrator 21.1.0, SVG Export Plug-In . SVG Version: 6.00 Build 0)  -->
<svg version="1.1" id="Group_9056" xmlns="http://www.w3.org/2000/svg" xmlns:xlink="http://www.w3.org/1999/xlink" x="0px" y="0px"
	 viewBox="0 0 46 46" enable-background="new 0 0 46 46" xml:space="preserve">
<g id="Group_8704">
	<path fill="#009FC7" d="M23,44C11.4,44,2,34.6,2,23C2,11.4,11.4,2,23,2c11.6,0,21,9.4,21,21C44,34.6,34.6,44,23,44z M23,4
		C12.5,4,4,12.5,4,23s8.5,19,19,19s19-8.5,19-19S33.5,4,23,4z"/>
</g>
<g id="Group_8705">
	<path id="Path_5535" fill="#009FC7" d="M19,33.1l2.9,1.6c0,0,0.2,0.7,0.5,0.7h1.5c0.3,0,0.5-0.7,0.5-0.7l2.9-1.6l0.2-2.9h-8.8
		L19,33.1z"/>
	<path id="Path_5536" fill="#009FC7" d="M16,22.3c2.9,4.5,1.5,5.2,2.5,6h1.3c0,0,0.3-3-2.3-7v0c-1.3-1.9-1.4-4.3-0.3-6.3
		c1.1-2.1,3.4-3.4,5.8-3.4h0.1c2.4,0,4.5,1.2,5.7,3.3c1.1,2,1,4.4-0.3,6.3v0c-2.6,4.1-2.2,7-2.2,7h1.3c1-0.8-0.4-1.5,2.5-6
		c2.4-3.9,1.1-9-2.7-11.4s-9-1.1-11.4,2.7C14.4,16.3,14.4,19.6,16,22.3L16,22.3z"/>
	<path id="Path_5537" fill="#009FC7" d="M23.9,23.6v5l0.7-5l1.2-3.3c0.1-0.2,0-0.4-0.2-0.4c-0.1,0-0.2,0-0.2,0l-2.2,0.9L21,19.9
		c-0.1-0.1-0.3,0-0.4,0.1c-0.1,0.1-0.1,0.2-0.1,0.3l1.2,3.3l0.7,4.9v-5.1l-0.9-2.7l1.6,0.7c0,0,0.1,0,0.1,0c0,0,0.1,0,0.1,0l1.6-0.7
		l-0.9,2.6C23.9,23.5,23.9,23.5,23.9,23.6z"/>
</g>
<rect id="Rectangle_7833" fill="none" width="46" height="46"/>
</svg>
