<?xml version="1.0" encoding="utf-8"?>
<!-- Generator: Adobe Illustrator 21.1.0, SVG Export Plug-In . SVG Version: 6.00 Build 0)  -->
<svg version="1.1" id="Group_8789" xmlns="http://www.w3.org/2000/svg" xmlns:xlink="http://www.w3.org/1999/xlink" x="0px" y="0px"
	 viewBox="0 0 46 24" enable-background="new 0 0 46 24" xml:space="preserve">
<g id="Group_8781" transform="translate(-396 -2301)">
	<path id="Path_5559" fill="#ABABAE" d="M416.7,2304.9c0-1.6-1.3-2.9-2.9-2.9c-1.6,0-2.9,1.3-2.9,2.9c0,1.6,1.3,2.9,2.9,2.9
		C415.4,2307.8,416.7,2306.5,416.7,2304.9z"/>
	<path id="Path_5560" fill="#ABABAE" d="M414.7,2318.7c0-1.3,0.6-2.5,1.5-3.3c-0.2-0.4-0.3-0.9-0.4-1.4c0-1.5,1-2.7,2.4-3.1
		c-0.9-2.5-3.7-3.7-6.2-2.8c-1.9,0.7-3.1,2.5-3.1,4.5v2.9c0,0.5,0.4,0.9,0.9,1c0,0,0,0,0,0h1v3.9c0,0.5,0.4,0.9,0.9,1c0,0,0,0,0,0h3
		c-0.1-0.3-0.2-0.6-0.2-0.9L414.7,2318.7L414.7,2318.7z"/>
	<path id="Path_5561" fill="#ABABAE" d="M427.1,2305.9c0-1.6-1.3-2.9-2.9-2.9c-1.6,0-2.9,1.3-2.9,2.9s1.3,2.9,2.9,2.9c0,0,0,0,0,0
		C425.8,2308.7,427.1,2307.5,427.1,2305.9z"/>
	<path id="Path_5562" fill="#ABABAE" d="M429,2317.2l-1.5-5.7c-0.4-1.8-2.2-3-4-2.6c-1.3,0.3-2.3,1.3-2.6,2.6
		c0.8,0.6,1.3,1.5,1.3,2.5c0,0.5-0.1,1-0.4,1.4c1,0.8,1.5,2,1.5,3.3v1.8c0,0.3-0.1,0.6-0.2,0.9h2c0.4,0,0.8-0.3,0.9-0.7
		c0.2-0.8,0.5-1.7,0.7-2.2c0.6,0,1.3,0,1.3,0c0.3,0,0.6-0.1,0.7-0.4C429,2317.8,429.1,2317.5,429,2317.2z"/>
	<g id="Group_8767" transform="translate(7.052 10.129)">
		<circle id="Ellipse_783" fill="#ABABAE" cx="412" cy="2303.8" r="1.8"/>
		<path id="Path_5563" fill="#ABABAE" d="M412,2305.6c-1.6,0-3,1.3-3,3v1.8c0,0.3,0.3,0.6,0.6,0.6h0.6v2.4c0,0.3,0.3,0.6,0.6,0.6
			h2.4c0.3,0,0.6-0.3,0.6-0.6v-2.4h0.6c0.3,0,0.6-0.3,0.6-0.6v-1.8C414.9,2306.9,413.6,2305.6,412,2305.6z"/>
	</g>
</g>
<rect id="Rectangle_8088" fill="none" width="46" height="24"/>
</svg>
