<?xml version="1.0" encoding="utf-8"?>
<!-- Generator: Adobe Illustrator 21.1.0, SVG Export Plug-In . SVG Version: 6.00 Build 0)  -->
<svg version="1.1" id="Capa_1" xmlns="http://www.w3.org/2000/svg" xmlns:xlink="http://www.w3.org/1999/xlink" x="0px" y="0px"
	 viewBox="0 0 76 30" enable-background="new 0 0 76 30" xml:space="preserve">
<g transform="translate(2971.035 9483.011)">
	<path fill="#ABABAE" d="M-2945.2-9480c-3.7,0-17.5,0.8-18.1,0.8l0,0l0,0c-0.2,0.1-0.3,0.2-0.2,0.4c0,0.1,0.1,0.1,0.1,0.2l0.4,0.3
		c0.1,0,0.1,0.1,0,0.2l0,0c-0.9,0.7-4.7,4.3-4.9,4.5l0,0c-0.6,0.3-0.9,1-0.8,1.7v0.1c-0.5,1-0.6,2.2-0.2,3.3l0,0c0,0.7,0,1.3-0.2,2
		v0.1c-0.3,0.2-0.4,0.6-0.3,0.9c0,0.1,0,0.1-0.1,0.2l0,0h-0.2c0,0,0,0-0.1,0c-0.5,0.2-0.1,1.9,0,2.1l0,0c0,1.1,0.5,1.4,0.5,1.4
		c1.2,1,7.3,1.8,8.4,1.9c0.1,0,0.1,0,0.2-0.1l0,0c0.4-7.8,6.7-7.1,6.9-7.1l0,0c6.5,0.2,6.1,6.7,6,7.8c0,0.1,0,0.1,0.1,0.2l0,0
		l31.4,0.1c0.1,0,0.1-0.1,0.1-0.1l0,0c-0.1-8.6,6.9-8.1,6.9-8.1c6.2,0.4,6.3,6.8,6.3,7.8c0,0.1,0.1,0.1,0.1,0.1
		c1.8,0.1,3.6,0,5.3-0.2c0.1,0,0.3-0.1,0.4-0.1c0.3-0.2,0.6-0.4,0.9-0.7c0.1-0.1,0.2-0.2,0.2-0.4c0.1-0.3-0.1-0.6-0.4-0.7l-0.1-0.1
		l0.1-1.5v-0.1c0.3-0.4,0.5-1,0.5-1.5c0.1-0.9-0.2-1.7-0.9-2.2c0,0-0.1,0-0.1-0.1c-0.1-0.6-0.5-1.1-1-1.3c0,0-0.1,0-0.1-0.1
		c-1.2-2-15.5-4-15.9-4.1s0,0,0,0c-0.4-0.1-0.9-0.1-1.3,0h-0.1c-2.2-1.2-11.1-5.7-11.3-5.8l0,0l0,0
		C-2932.4-9480.3-2945.2-9480-2945.2-9480 M-2963.9-9469.6c-1.3,0.5-2.7,0.7-4.1,0.5c-0.1,0-0.1-0.1-0.1-0.1c-0.2-0.8,0-1.7,0.4-2.4
		l0.1-0.1c0.6,0.1,3.6,0.7,4,1.2C-2963.6-9470.4-2963-9470-2963.9-9469.6L-2963.9-9469.6z M-2961.5-9473.1c-0.8,0.1-0.3-0.7-0.2-0.8
		l0,0l2.2-2.6c0.6-0.6,1.4-1,2.2-1l0,0l6.1-0.5c0.1,0,0.1,0.1,0.2,0.1v0.1l-2.7,4.7l-0.1,0.1L-2961.5-9473.1z M-2952.2-9473.2
		l2.5-4.7l0.1-0.1h0.7c0.1,0,0.1,0.1,0.1,0.1l0.6,4.9c0,0.1-0.1,0.2-0.1,0.2l0,0l-3.8-0.2C-2952.2-9473-2952.2-9473.1-2952.2-9473.2
		L-2952.2-9473.2z M-2924.5-9474.5l1.2,0.8c0.3,0.2,0.4,0.5,0.4,0.8s0,0.7,0,1c0,0.1-0.1,0.1-0.1,0.1l0,0l-11.7-0.5
		c-0.1,0-0.1,0-0.1-0.1l-1.4-5.2c0-0.1,0-0.2,0.1-0.2l0,0C-2934.8-9477.7-2928.1-9477-2924.5-9474.5z M-2947.4-9478.1l10,0.3
		c0.1,0,0.1,0.1,0.1,0.1l1,5.2c0,0.1,0,0.2-0.1,0.2l0,0l-10.4-0.5c-0.1,0-0.1-0.1-0.1-0.1l-0.6-5
		C-2947.5-9478-2947.4-9478.1-2947.4-9478.1L-2947.4-9478.1z M-2903.1-9467.1c0,0-0.8-0.5,0-0.6l0,0c1.4-0.2,2.8-0.1,4.2,0.2
		c0.5,0.2,0.9,0.7,1,1.2c0,0.1,0,0.2-0.1,0.2l0,0C-2898.7-9466-2901.6-9465.8-2903.1-9467.1z"/>
	<g transform="translate(10.223 13.514)">
		<path fill="#ABABAE" d="M-2964.4-9480c-3.1,0-5.6,2.5-5.6,5.6s2.5,5.6,5.6,5.6s5.6-2.5,5.6-5.6
			C-2958.9-9477.5-2961.3-9480-2964.4-9480L-2964.4-9480z M-2964.4-9471.2c-1.8,0-3.2-1.5-3.2-3.2s1.4-3.2,3.2-3.2s3.2,1.5,3.2,3.2
			C-2961.2-9472.6-2962.6-9471.2-2964.4-9471.2L-2964.4-9471.2z"/>
	</g>
	<g transform="translate(54.837 13.195)">
		<path fill="#ABABAE" d="M-2964.4-9480c-3.1,0-5.6,2.5-5.6,5.6s2.5,5.6,5.6,5.6s5.6-2.5,5.6-5.6
			C-2958.9-9477.5-2961.3-9480-2964.4-9480L-2964.4-9480z M-2964.4-9471.2c-1.8,0-3.2-1.4-3.2-3.2s1.4-3.2,3.2-3.2s3.2,1.4,3.2,3.2
			l0,0C-2961.2-9472.6-2962.6-9471.2-2964.4-9471.2L-2964.4-9471.2z"/>
	</g>
</g>
</svg>
