<?xml version="1.0" encoding="utf-8"?>
<!-- Generator: Adobe Illustrator 21.1.0, SVG Export Plug-In . SVG Version: 6.00 Build 0)  -->
<svg version="1.1" id="Group_9058" xmlns="http://www.w3.org/2000/svg" xmlns:xlink="http://www.w3.org/1999/xlink" x="0px" y="0px"
	 viewBox="0 0 46 46" enable-background="new 0 0 46 46" xml:space="preserve">
<g id="Group_8736" transform="translate(277 -587)">
	<path fill="#009FC7" d="M-254,631c-11.6,0-21-9.4-21-21c0-11.6,9.4-21,21-21c11.6,0,21,9.4,21,21C-233,621.6-242.4,631-254,631z
		 M-254,591c-10.5,0-19,8.5-19,19s8.5,19,19,19s19-8.5,19-19S-243.5,591-254,591z"/>
	<g id="Group_8713" transform="translate(8.115 12.462)">
		<path id="Path_5545" fill="#009FC7" d="M-270.2,593.9v11.2h19.9v-11.2H-270.2z M-260.2,604.1c-2.2,0-4-2-4-4.6s1.8-4.6,4-4.6
			s4,2,4,4.6C-256.1,601.9-257.8,603.9-260.2,604.1L-260.2,604.1L-260.2,604.1z"/>
		<path id="Path_5546" fill="#009FC7" d="M-270.8,593.2h18.7v-1.3h-20v11.2h1.3V593.2z"/>
		<path id="Path_5547" fill="#009FC7" d="M-272.7,591.3h18.7V590h-20v11.2h1.3V591.3z"/>
		<path id="Path_5548" fill="#009FC7" d="M-258.5,602.2c-0.4,0.2-0.9,0.3-1.3,0.3c-0.8,0-1.6-0.4-2-1c-0.2-0.3-0.4-0.7-0.5-1.2h-0.5
			v-0.7h0.5v-0.4h-0.5v-0.7h0.5c0.1-0.4,0.3-0.9,0.6-1.2c0.5-0.6,1.2-0.9,1.9-0.9c0.4,0,0.8,0.1,1.2,0.3l-0.2,1
			c-0.3-0.1-0.6-0.2-0.9-0.2c-0.4,0-0.8,0.2-1,0.5c-0.1,0.2-0.2,0.4-0.3,0.6h2.1v0.7h-2.2v0.4h2.2v0.7h-2.1c0.1,0.2,0.1,0.4,0.3,0.6
			c0.3,0.3,0.7,0.5,1.1,0.5c0.3,0,0.7-0.1,1-0.2L-258.5,602.2z"/>
	</g>
</g>
<rect id="Rectangle_7831" fill="none" width="46" height="46"/>
</svg>
