<?xml version="1.0" encoding="utf-8"?>
<!-- Generator: Adobe Illustrator 21.1.0, SVG Export Plug-In . SVG Version: 6.00 Build 0)  -->
<svg version="1.1" id="Capa_1" xmlns="http://www.w3.org/2000/svg" xmlns:xlink="http://www.w3.org/1999/xlink" x="0px" y="0px"
	 viewBox="0 0 46 46" enable-background="new 0 0 46 46" xml:space="preserve">
<path id="Path_5834" opacity="0.7" fill="#88898D" d="M43.2,6.6C43.9,6,44,5.1,43.5,4.4S42,3.7,41.4,4.2c0,0,0,0,0,0
	c-2.5,2.1-4.1,5.1-4.7,8.3c-0.1,0.4-0.1,1.1-0.2,1.5c-0.3,4.1,0.3,8.3,1.7,12.2c0.4,1.1,2.3,6.9,1,9.9c-0.9,2.1-3.1,3.3-5.4,2.9
	c-3.1-0.4-4.1-3.3-4.1-5.1c0.3-2.9,0.9-5.8,1.5-8.6c0.4-1.8,0.7-3.5,1-4.8c0.3-1.2,0-2.5-0.8-3.4c-1.7-2-5.3-1.8-7-1.7h-0.1
	c-0.1,0-0.2-0.3-0.2-0.8V5.3c0-0.5-0.1-1-0.3-1.5l-0.5-0.5c-0.5-0.2-1-0.3-1.6-0.3h-17C4,3,3.5,3.1,3.1,3.3L2.5,3.9
	c-0.2,0.5-0.3,1-0.3,1.5v35.3c0,0.5,0.1,1,0.3,1.5l0.5,0.5C3.5,42.9,4,43,4.5,43h17c0.5,0,1-0.1,1.5-0.3l0.5-0.5
	c0.2-0.5,0.3-1,0.3-1.5V19.2c0-0.3,0-0.5,0-0.8l0,0c0.2,0,0.3,0,0.5,0c2.5-0.1,4,0.1,4.6,0.7c0.1,0.1,0.2,0.3,0.1,0.9
	c-0.2,1.3-0.6,3-0.9,4.8c-0.7,3-1.2,6.1-1.6,9.2c-0.2,4,2.8,7.6,6.7,8.2c0.4,0.1,0.8,0.1,1.2,0.1c3.2,0,6.1-1.9,7.4-4.8
	c1.6-3.6,0.1-9.1-0.9-12.1c-0.9-2.8-1.4-5.8-1.6-8.8c0-0.4,0.3-0.7,0.7-0.8c0,0,0,0,0.1,0H41c0.4,0,0.8-0.3,0.8-0.8c0,0,0,0,0,0
	v-4.7c0-0.4-0.1-0.7-0.3-1.1c-0.1-0.3-0.1-0.7,0.2-0.9C42.1,7.6,42.6,7.1,43.2,6.6z M18.4,29.8c0,0.4-0.1,0.8-0.3,1.2
	c-0.2,0.5-0.4,1-0.8,1.4c-0.3,0.4-0.7,0.8-1.2,1c-0.5,0.3-0.9,0.5-1.5,0.6c-0.5,0.1-1.1,0.2-1.7,0.2c-0.8,0-1.5-0.1-2.2-0.4
	c-0.6-0.3-1.2-0.6-1.7-1.1c-0.5-0.5-0.9-1.1-1.1-1.7c-0.3-0.7-0.4-1.5-0.4-2.2c0-0.8,0.1-1.5,0.4-2.2c0.3-0.6,0.6-1.2,1.1-1.7
	c0.5-0.5,1.1-0.9,1.7-1.1c0.7-0.3,1.5-0.4,2.3-0.4c1,0,2,0.2,2.9,0.7c0.6,0.4,1.1,0.9,1.5,1.5c0.2,0.3,0.1,0.7-0.1,0.9
	c-0.1,0-0.1,0.1-0.2,0.1L16.1,27c-0.4,0.2-0.9,0-1.1-0.4c-0.1-0.2-0.3-0.4-0.6-0.6c-0.4-0.3-0.8-0.4-1.3-0.4c-0.4,0-0.8,0.1-1.1,0.2
	c-0.3,0.1-0.6,0.4-0.9,0.6c-0.3,0.3-0.4,0.6-0.6,1c-0.1,0.4-0.2,0.9-0.2,1.3c0,0.4,0.1,0.8,0.2,1.2c0.1,0.4,0.3,0.7,0.5,1
	c0.2,0.3,0.5,0.5,0.9,0.6c0.4,0.1,0.8,0.2,1.2,0.2c0.3,0,0.5,0,0.8-0.1c0.5-0.1,0.9-0.4,1.2-0.8l0.1-0.2c0.1-0.3-0.2-0.6-0.7-0.6
	h-0.7c-0.4,0-0.8-0.3-0.8-0.8c0,0,0,0,0,0V29c0-0.4,0.3-0.8,0.8-0.8c0,0,0,0,0,0h3.8c0.4,0,0.8,0.3,0.8,0.8c0,0,0,0,0,0
	C18.5,29,18.5,29.3,18.4,29.8L18.4,29.8z M19.3,16.1c0,0.4,0,0.8-0.1,1.2c-0.1,0.2-0.8,0.4-1.2,0.4H8.2c-0.4,0-0.7-0.1-1.1-0.2
	c-0.2-0.1-0.3-1-0.3-1.4V8.6c0-0.4,0-0.8,0.1-1.2C7,7.2,7.8,7,8.2,7h9.7c0.4,0,0.7,0,1.1,0.2c0.2,0.1,0.3,1,0.3,1.4L19.3,16.1
	L19.3,16.1z"/>
</svg>
