<?xml version="1.0" encoding="utf-8"?>
<!-- Generator: Adobe Illustrator 21.1.0, SVG Export Plug-In . SVG Version: 6.00 Build 0)  -->
<svg version="1.1" id="Capa_1" xmlns="http://www.w3.org/2000/svg" xmlns:xlink="http://www.w3.org/1999/xlink" x="0px" y="0px"
	 viewBox="0 0 46 46" enable-background="new 0 0 46 46" xml:space="preserve">
<path opacity="0.7" fill="#88898D" enable-background="new    " d="M43.5,6.5c0.4-0.4,0.5-1.4,0-2.1C43,3.8,42,3.7,41.4,4.2
	c-2.5,2.1-4.1,5.1-4.7,8.3c-0.1,0.4-0.1,1.1-0.2,1.5c-0.3,4.1,0.3,8.3,1.7,12.2c0.4,1.1,2.3,6.9,1,9.9c-0.9,2.1-3.1,3.3-5.4,2.9
	c-3.1-0.4-4.1-3.3-4.1-5.1c0.3-2.9,0.9-5.8,1.5-8.6c0.4-1.8,0.7-3.5,1-4.8c0.3-1.2,0-2.5-0.8-3.4c-1.7-2-5.3-1.8-7-1.7h-0.1
	c-0.1,0-0.2-0.3-0.2-0.8V5.3c0-0.5-0.1-1-0.3-1.5l-0.5-0.5c-0.5-0.2-1-0.3-1.6-0.3h-17c-0.5,0-1,0.1-1.5,0.3L2.7,3.8
	c-0.2,0.5-0.3,1-0.3,1.5v35.3c0,0.5,0.1,1,0.3,1.5l0.5,0.5c0.5,0.2,1,0.3,1.5,0.3h17c0.5,0,1-0.1,1.5-0.3l0.5-0.5
	c0.2-0.5,0.3-1,0.3-1.5V19.1c0-0.3,0-0.5,0-0.8c0.2,0,0.3,0,0.5,0c2.5-0.1,4,0.1,4.6,0.7c0.1,0.1,0.2,0.3,0.1,0.9
	c-0.2,1.3-0.6,3-0.9,4.8c-0.7,3-1.2,6.1-1.6,9.2c-0.2,4,2.8,7.6,6.7,8.2c0.4,0.1,0.8,0.1,1.2,0.1c3.2,0,6.1-1.9,7.4-4.8
	c1.6-3.6,0.1-9.1-0.9-12.1c-0.9-2.8-1.4-5.8-1.6-8.8c0-0.4,0.3-0.7,0.7-0.8c0,0,0,0,0.1,0h0.9c0.4,0,0.8-0.3,0.8-0.8v-4.7
	c0-0.4-0.1-0.7-0.3-1.1c-0.1-0.3-0.1-0.7,0.2-0.9C42.4,7.6,42.9,7,43.5,6.5z M13.8,34.9c-1.3,0.6-5.4,1.8-3.8-0.6
	c1.3-2,4.2-3.4,4-6.2c-1.6,2-3.7,4.4-6.3,5.2l-0.2,0.1c-0.9-5,5.9-6.8,8.3-10.4C16.4,27,18.6,32.5,13.8,34.9z M19.2,17.3
	c-0.1,0.2-0.8,0.4-1.2,0.4H8.2c-0.4,0-0.7,0-1.1-0.2c-0.2-0.1-0.3-1-0.3-1.4V8.6c0-0.4,0-0.8,0.1-1.2C7,7.2,7.7,7,8.1,7h9.7
	c0.4,0,0.7,0,1.1,0.2c0.2,0.1,0.3,1,0.3,1.4l0.1,7.5C19.3,16.5,19.3,16.9,19.2,17.3z"/>
</svg>
