<?xml version="1.0" encoding="utf-8"?>
<!-- Generator: Adobe Illustrator 21.1.0, SVG Export Plug-In . SVG Version: 6.00 Build 0)  -->
<svg version="1.1" id="Capa_1" xmlns="http://www.w3.org/2000/svg" xmlns:xlink="http://www.w3.org/1999/xlink" x="0px" y="0px"
	 viewBox="0 0 18 18" enable-background="new 0 0 18 18" xml:space="preserve">
<g>
	<path fill="#333333" d="M0.6,8.7c0-2.7,2.6-5.1,5.3-5C7.3,3.6,8.5,4.2,9.5,5C9.1,5.5,8.6,6,8.1,6.4C6.9,5.6,5.2,5.3,4,6.3
		c-1.7,1.2-1.8,4-0.1,5.3c1.6,1.5,4.7,0.7,5.1-1.5c-1,0-2,0-3,0c0-0.6,0-1.2,0-1.8c1.7,0,3.4,0,5.1,0c0.1,1.4-0.1,2.9-1,4.1
		c-1.3,1.9-4,2.4-6.1,1.6C1.9,13.2,0.5,11,0.6,8.7z"/>
	<path fill="#333333" d="M14.3,6.7c0.5,0,1,0,1.5,0c0,0.5,0,1,0,1.5c0.5,0,1,0,1.5,0c0,0.5,0,1,0,1.5c-0.5,0-1,0-1.5,0
		c0,0.5,0,1,0,1.5c-0.5,0-1,0-1.5,0c0-0.5,0-1,0-1.5c-0.5,0-1,0-1.5,0c0-0.5,0-1,0-1.5c0.5,0,1,0,1.5,0C14.3,7.7,14.3,7.2,14.3,6.7z
		"/>
</g>
</svg>
