<?xml version="1.0" encoding="utf-8"?>
<!-- Generator: Adobe Illustrator 21.1.0, SVG Export Plug-In . SVG Version: 6.00 Build 0)  -->
<svg version="1.1" id="Capa_1" xmlns="http://www.w3.org/2000/svg" xmlns:xlink="http://www.w3.org/1999/xlink" x="0px" y="0px"
	 viewBox="0 0 46 46" enable-background="new 0 0 46 46" xml:space="preserve">
<path id="Path_5833" opacity="0.7" fill="#88898D" enable-background="new    " d="M43.5,11.2c0.1-1.1-0.7-2-1.7-2.2c0,0,0,0-0.1,0
	h-0.4l-0.1-4c0-0.4-0.4-0.8-0.8-0.8c-0.4,0-0.8,0.4-0.8,0.8l0.1,4l-3.3,0l-0.1-4c0-0.4-0.4-0.8-0.8-0.8c-0.4,0-0.8,0.4-0.8,0.8
	l0.1,4h-0.4c-1.1,0-1.8,1.1-1.8,2.2c0,0,0,2.6,0,2.7c-0.1,2.3,1.6,4.2,3.8,4.4c0,0,0.1,0,0.1,0v18.3c0,1.6-1.3,2.9-2.9,2.9
	c0,0,0,0,0,0h-0.2c-1.4,0-2.6-1.2-2.6-2.6c0,0,0,0,0,0V24.7c0-3.6-2.9-6.4-6.4-6.4h-0.3V4.6c0-0.9-0.7-1.6-1.6-1.6H4
	C3.2,3,2.5,3.7,2.5,4.6v36.9C2.5,42.3,3.2,43,4,43h18.6c0.9,0,1.6-0.7,1.6-1.6V21.3h0.3c1.9,0,3.4,1.5,3.4,3.4V37
	c0,3.1,2.5,5.6,5.6,5.6h0.2c3.3,0,5.9-2.6,5.9-5.9V18.4c2.3-0.1,4.1-2,4-4.3c0-0.1,0-0.1,0-0.2C43.5,13.8,43.5,11.2,43.5,11.2z
	 M15.3,39.4L10,29.2h2.6l-1.7-8.4l6.2,10l-2.7,0.1L15.3,39.4z M19.6,16.8c0,0.4-0.2,0.7-0.6,0.8H7.7c-0.4-0.1-0.6-0.4-0.6-0.8v-9
	C7,7.4,7.3,7.1,7.7,7H19c0.4,0.1,0.6,0.4,0.6,0.8L19.6,16.8z"/>
</svg>
