<?xml version="1.0" encoding="utf-8"?>
<!-- Generator: Adobe Illustrator 21.1.0, SVG Export Plug-In . SVG Version: 6.00 Build 0)  -->
<svg version="1.1" id="Capa_1" xmlns="http://www.w3.org/2000/svg" xmlns:xlink="http://www.w3.org/1999/xlink" x="0px" y="0px"
	 viewBox="0 0 38 38" enable-background="new 0 0 38 38" xml:space="preserve">
<g id="Ellipse_605" transform="translate(399 2467)">
	<circle fill="#FFFFFF" cx="-380" cy="-2448" r="18"/>
	<path fill="#009FC7" d="M-380-2430c-9.9,0-18-8.1-18-18c0-9.9,8.1-18,18-18c9.9,0,18,8.1,18,18C-362-2438.1-370.1-2430-380-2430z
		 M-380-2462c-7.7,0-14,6.3-14,14s6.3,14,14,14s14-6.3,14-14S-372.3-2462-380-2462z"/>
</g>
<g enable-background="new    ">
	<path fill="#333333" d="M22,24.6l-0.2,0.9c-0.6,0.3-1.2,0.4-1.5,0.6c-0.4,0.1-0.8,0.2-1.3,0.2c-0.8,0-1.4-0.2-1.8-0.6
		s-0.6-0.9-0.6-1.5c0-0.2,0-0.5,0-0.7s0.1-0.5,0.2-0.8l0.8-2.9c0.1-0.3,0.1-0.5,0.2-0.8s0.1-0.5,0.1-0.7c0-0.4-0.1-0.6-0.2-0.8
		c-0.2-0.1-0.4-0.2-0.9-0.2c-0.2,0-0.4,0-0.6,0.1s-0.4,0.1-0.6,0.2l0.2-0.9c0.5-0.2,1-0.4,1.5-0.6s0.9-0.2,1.4-0.2
		c0.8,0,1.4,0.2,1.8,0.6c0.4,0.4,0.6,0.9,0.6,1.5c0,0.1,0,0.3,0,0.7s-0.1,0.6-0.2,0.9l-0.8,2.8c-0.1,0.2-0.1,0.5-0.2,0.8
		s-0.1,0.5-0.1,0.7c0,0.4,0.1,0.6,0.3,0.8c0.2,0.1,0.5,0.2,0.9,0.2c0.2,0,0.4,0,0.7-0.1C21.7,24.7,21.9,24.7,22,24.6z M22.2,12.7
		c0,0.5-0.2,0.9-0.6,1.3s-0.8,0.5-1.4,0.5s-1-0.2-1.4-0.5s-0.6-0.8-0.6-1.3s0.2-0.9,0.6-1.3s0.8-0.5,1.4-0.5s1,0.2,1.4,0.5
		S22.2,12.2,22.2,12.7z"/>
</g>
</svg>
