<?xml version="1.0" encoding="utf-8"?>
<!-- Generator: Adobe Illustrator 21.1.0, SVG Export Plug-In . SVG Version: 6.00 Build 0)  -->
<svg version="1.1" id="Capa_1" xmlns="http://www.w3.org/2000/svg" xmlns:xlink="http://www.w3.org/1999/xlink" x="0px" y="0px"
	 viewBox="0 0 18 18" enable-background="new 0 0 18 18" xml:space="preserve">
<g id="_1499261553_38-instagram_1_" transform="translate(1061.306 251.336) rotate(90)">
	<path id="Path_5519_1_" fill="#333333" d="M-246.5,1052.3c0,2.3,1.8,4.1,4.1,4.1c2.3,0,4.1-1.8,4.1-4.1c0-2.3-1.8-4.1-4.1-4.1
		C-244.6,1048.2-246.5,1050-246.5,1052.3z M-239.7,1052.3c0,1.5-1.2,2.6-2.6,2.6c-1.5,0-2.6-1.2-2.6-2.6s1.2-2.6,2.6-2.6l0,0
		C-240.9,1049.7-239.7,1050.9-239.7,1052.3z"/>
	
		<ellipse id="Ellipse_607_1_" transform="matrix(2.535182e-06 1 -1 2.535182e-06 801.4586 1294.6038)" fill="#333333" cx="-246.6" cy="1048" rx="0.9" ry="0.9"/>
	<path id="Path_5520_1_" fill="#333333" d="M-249,1045.6c-0.9,0.9-1.4,2.1-1.3,3.4v6.6c-0.1,2.4,1.7,4.5,4.1,4.7c0.2,0,0.4,0,0.5,0
		h6.6c1.3,0,2.5-0.4,3.4-1.3c0.8-0.9,1.3-2.1,1.3-3.3v-6.6c0-1.2-0.4-2.5-1.3-3.4c-0.9-0.9-2.1-1.4-3.4-1.3h-6.6
		C-246.9,1044.3-248.1,1044.8-249,1045.6z M-239,1045.8c0.9,0,1.7,0.3,2.3,0.9c0.6,0.6,0.9,1.5,0.8,2.3v6.6c0,0.9-0.3,1.7-0.8,2.3
		c-0.6,0.6-1.5,0.9-2.4,0.9h-6.6c-0.9,0-1.7-0.3-2.3-0.9c-0.6-0.6-0.9-1.5-0.8-2.3v-6.6c0-0.9,0.3-1.7,0.9-2.3
		c0.6-0.6,1.5-0.9,2.3-0.9H-239z"/>
</g>
</svg>
