<?xml version="1.0" encoding="utf-8"?>
<!-- Generator: Adobe Illustrator 21.1.0, SVG Export Plug-In . SVG Version: 6.00 Build 0)  -->
<svg version="1.1" id="Group_9059" xmlns="http://www.w3.org/2000/svg" xmlns:xlink="http://www.w3.org/1999/xlink" x="0px" y="0px"
	 viewBox="0 0 46 46" enable-background="new 0 0 46 46" xml:space="preserve">
<g id="Group_8726" transform="translate(195 -587)">
	<path fill="#009FC7" d="M-172,631c-11.6,0-21-9.4-21-21c0-11.6,9.4-21,21-21c11.6,0,21,9.4,21,21C-151,621.6-160.4,631-172,631z
		 M-172,591c-10.5,0-19,8.5-19,19s8.5,19,19,19s19-8.5,19-19S-161.5,591-172,591z"/>
	<g id="Group_8709" transform="translate(8.067 10.731)">
		<g id="Group_8708">
			<path id="Path_5539" fill="#009FC7" d="M-168.3,607.1c-1-1.6-2-3.2-3-4.8c-0.2-0.4-0.6-0.6-1-0.6h-15.3c-0.6,0-1.1,0.2-1.3,0.7
				c-0.9,1.5-1.9,3-2.8,4.6c-0.2,0.3-0.3,0.7-0.2,1c0.1,0.4,0.1,0.5,0.6,0.5h22.5c0.1,0,0.3,0,0.4-0.1
				C-168.2,608.1-168.1,607.6-168.3,607.1z M-183.1,606.7c0.3-0.5,0.5-0.9,0.8-1.3c0-0.1,0.2-0.1,0.3-0.1h3.8c0.1,0,0.2,0,0.3,0.1
				c0.3,0.4,0.5,0.9,0.8,1.4L-183.1,606.7z M-171.1,604.8H-189c-0.1,0-0.3,0-0.4-0.1c0-0.1,0.1-0.2,0.2-0.3l1.3-2.1
				c0.1-0.3,0.4-0.4,0.7-0.4h14.5c0.2,0,0.4,0.1,0.5,0.3c0.4,0.7,0.9,1.4,1.3,2.2c0.1,0.1,0.1,0.2,0.1,0.3
				C-170.9,604.7-171,604.8-171.1,604.8z"/>
			<path id="Path_5540" fill="#009FC7" d="M-171.8,590.5c0-0.4-0.1-0.5-0.5-0.5h-7.8c-2.6,0-5.2,0-7.8,0c-0.5,0-0.5,0-0.5,0.6v10.2
				c0,0.7,0,0.7,0.5,0.7c1.3,0,2.6,0,3.9,0h11.6c0.3,0,0.5,0,0.4-0.5C-171.8,597.5-171.8,594-171.8,590.5z M-173.2,600.1
				c0,0.4-0.2,0.4-0.4,0.4h-9.6c-1.1,0-2.2,0-3.2,0c-0.5,0-0.5,0-0.5-0.6v-8.4c0-0.5,0-0.5,0.4-0.5c2.2,0,4.3,0,6.5,0h6.5
				c0.3,0,0.4,0.1,0.4,0.5C-173.2,594.3-173.2,597.2-173.2,600.1L-173.2,600.1z"/>
		</g>
		<path id="H_x2C6_rer_x5F_1_x5F__1_" fill="#009FC7" d="M-177.4,597.1l1.1,1.5l-1.5,1.1c-0.8,0.6-2.6-0.5-3.9-2.3
			c-1.5-2.1-2-4.3-1.2-4.9l1.5-1.1l1.1,1.5c0.2,0.2-0.5,0.3-1.2,0.8c-0.4,0.3-0.5,0.9-0.2,1.3l0,0l1.8,2.7c0.3,0.4,0.9,0.5,1.3,0.2
			l0,0C-177.9,597.5-177.5,596.9-177.4,597.1z"/>
	</g>
	<g id="Group_8711" transform="translate(27.192 5.615)">
		<g id="Group_8710">
			<path id="Path_5541" fill="#009FC7" d="M-191.6,592.7c-0.2,0-0.3,0.2-0.3,0.3c0,0.2,0.2,0.3,0.3,0.3l0,0c1,0,1.7,0.8,1.7,1.7l0,0
				c0,0.2,0.2,0.3,0.3,0.3c0.2,0,0.3-0.2,0.3-0.3C-189.2,593.8-190.3,592.7-191.6,592.7z"/>
			<path id="Path_5542" fill="#009FC7" d="M-191.6,591.3c-0.2,0-0.4,0.2-0.4,0.4s0.2,0.4,0.4,0.4c1.7,0,3.1,1.4,3.2,3.2
				c0,0.2,0.2,0.4,0.4,0.4s0.4-0.2,0.4-0.4C-187.7,593-189.5,591.3-191.6,591.3z"/>
			<path id="Path_5543" fill="#009FC7" d="M-191.6,590c-0.2,0-0.3,0.2-0.3,0.3s0.2,0.3,0.3,0.3c2.5,0,4.5,2,4.5,4.5
				c0,0.2,0.2,0.3,0.3,0.3c0.2,0,0.3-0.2,0.3-0.3C-186.5,592.3-188.8,590-191.6,590z"/>
		</g>
	</g>
</g>
<rect id="Rectangle_7830" fill="none" width="46" height="46"/>
</svg>
