<?xml version="1.0" encoding="utf-8"?>
<!-- Generator: Adobe Illustrator 21.1.0, SVG Export Plug-In . SVG Version: 6.00 Build 0)  -->
<svg version="1.1" id="Capa_1" xmlns="http://www.w3.org/2000/svg" xmlns:xlink="http://www.w3.org/1999/xlink" x="0px" y="0px"
	 viewBox="0 0 24 24" enable-background="new 0 0 24 24" xml:space="preserve">
<g>
	<path opacity="0.58" fill="#88898D" enable-background="new    " d="M12,20.9c-0.2,0-0.3,0-0.4-0.1c-0.4-0.3-9.7-7.1-9.7-12.4
		C2,6,3.5,4,5.8,3.3c1.4-0.4,2.8-0.3,4.1,0.4C10.8,4.2,11.6,5,12,5.9c1.4-2.4,3.8-3,5.5-2.7c2.6,0.4,4.5,2.6,4.5,5.2
		c0,5.3-9.3,12.1-9.7,12.4C12.3,20.9,12.2,20.9,12,20.9z M7.3,4.6c-0.4,0-0.7,0.1-1.1,0.2C4.6,5.2,3.4,6.7,3.4,8.4
		c0,3.6,5.8,8.8,8.6,10.8c2.8-2.1,8.6-7.3,8.6-10.9c0-2.1-1.6-3.4-3.3-3.7c-1.6-0.3-3.7,0.5-4.6,3.3c-0.1,0.3-0.4,0.5-0.7,0.5
		c0,0,0,0,0,0c-0.3,0-0.6-0.2-0.7-0.5c0-0.1-0.1-0.2-0.2-0.6c-0.3-1.1-1-1.9-1.9-2.4C8.6,4.7,8,4.6,7.3,4.6z"/>
</g>
</svg>
