<?xml version="1.0" encoding="utf-8"?>
<!-- Generator: Adobe Illustrator 21.1.0, SVG Export Plug-In . SVG Version: 6.00 Build 0)  -->
<svg version="1.1" id="Capa_1" xmlns="http://www.w3.org/2000/svg" xmlns:xlink="http://www.w3.org/1999/xlink" x="0px" y="0px"
	 viewBox="0 0 18 18" enable-background="new 0 0 18 18" xml:space="preserve">
<g>
	<path fill="#333333" d="M16.8,10.7v5.7h-3.3v-5.3c0-1.3-0.5-2.3-1.7-2.3c-0.9,0-1.5,0.6-1.7,1.2c-0.1,0.2-0.1,0.5-0.1,0.8v5.6H6.6
		c0,0,0-9.1,0-10h3.3v1.4c0,0,0,0,0,0h0v0c0.4-0.7,1.2-1.7,3-1.7C15.1,6.2,16.8,7.6,16.8,10.7L16.8,10.7z M3.1,1.6
		C2,1.6,1.2,2.3,1.2,3.3C1.2,4.3,2,5,3.1,5h0C4.3,5,5,4.3,5,3.3C5,2.3,4.3,1.6,3.1,1.6L3.1,1.6z M1.4,16.4h3.3v-10H1.4V16.4z
		 M1.4,16.4"/>
</g>
</svg>
