<svg xmlns="http://www.w3.org/2000/svg" viewBox="14320 -3282 86.613 35.643">
  <defs>
    <style>
      .cls-1, .cls-4 {
        fill: none;
      }

      .cls-1 {
        stroke: #95989a;
        opacity: 0.398;
      }

      .cls-2 {
        opacity: 0.4;
      }

      .cls-3 {
        fill: #88898e;
      }

      .cls-5, .cls-6 {
        fill: #ababae;
      }

      .cls-6 {
        opacity: 0.67;
      }
    </style>
  </defs>
  <g id="Group_9442" data-name="Group 9442" transform="translate(14232.807 -3349.551)">
    <g id="Group_8951" data-name="Group 8951" transform="translate(-451.307 -379.194)">
      <line id="Line_1074" data-name="Line 1074" class="cls-1" x2="86.613" transform="translate(538.5 481.888)"/>
    </g>
    <g id="Group_8952" data-name="Group 8952" class="cls-2" transform="translate(95.638 67.551)">
      <g id="Group_8297" data-name="Group 8297" transform="translate(2.451 19.748)">
        <path id="Path_5494" data-name="Path 5494" class="cls-3" d="M30.523,173.7c-3.655,0-6.623,3.286-6.623,7.333s2.967,7.333,6.623,7.333,6.623-3.286,6.623-7.333S34.178,173.7,30.523,173.7Zm0,11.586a4.286,4.286,0,0,1,0-8.527,4.286,4.286,0,0,1,0,8.527Z" transform="translate(-23.9 -173.7)"/>
      </g>
      <g id="Group_8298" data-name="Group 8298" transform="translate(53.994 20.089)">
        <path id="Path_5495" data-name="Path 5495" class="cls-3" d="M532.523,176.7c-3.655,0-6.623,3.286-6.623,7.333s2.967,7.333,6.623,7.333,6.623-3.286,6.623-7.333S536.178,176.7,532.523,176.7Zm0,11.586a4.286,4.286,0,1,1,3.85-4.264A4.074,4.074,0,0,1,532.523,188.286Z" transform="translate(-525.9 -176.7)"/>
      </g>
      <path id="Path_5496" data-name="Path 5496" class="cls-4" d="M116.239,23.464c-1.509,1.114-1.427,4.468-1.427,4.468-.164,1.853.667,2.137.667,2.137l3.193.091-.246-7.061Z" transform="translate(-103.008 -20.475)"/>
      <path id="Path_5497" data-name="Path 5497" class="cls-4" d="M31.906,88.732c-.924.932-1.006,5.116-1.006,5.116l2.433-2.877a8.568,8.568,0,0,0-.585-2.6C32.245,87.8,31.906,88.732,31.906,88.732Z" transform="translate(-27.731 -78.159)"/>
      <path id="Path_5498" data-name="Path 5498" class="cls-4" d="M649.4,200c.113.171.226.352.329.534C649.626,200.352,649.513,200.171,649.4,200Z" transform="translate(-582.726 -177.262)"/>
      <path id="Path_5499" data-name="Path 5499" class="cls-4" d="M163.7,18.907l.082,7.163,11.253.739-.5-8.175C173.937,18.441,163.7,18.907,163.7,18.907Z" transform="translate(-146.896 -16.475)"/>
      <path id="Path_5500" data-name="Path 5500" class="cls-4" d="M652.6,204.7a1.765,1.765,0,0,1,.1.193A1.765,1.765,0,0,0,652.6,204.7Z" transform="translate(-585.597 -181.428)"/>
      <path id="Path_5501" data-name="Path 5501" class="cls-4" d="M314.322,24.2l-5.575-3.343C305.975,19.364,297.586,19,297.586,19c-.257,1.023,1.591,8.084,1.591,8.084l16.449,1.762-.544-3.479A1.632,1.632,0,0,0,314.322,24.2Z" transform="translate(-267.013 -16.841)"/>
      <path id="Path_5502" data-name="Path 5502" class="cls-4" d="M634.2,128.1c1.52,2.695,5.822,5.435,5.822,5.435a11.019,11.019,0,0,0-.955-3.286C638.307,129.317,634.2,128.1,634.2,128.1Z" transform="translate(-569.087 -113.537)"/>
      <path id="Path_5503" data-name="Path 5503" class="cls-3" d="M73.628,21.784a4.347,4.347,0,0,0-1.386-2.3,14.707,14.707,0,0,0-1.171-3.252c-3.275-3.809-15.2-5.582-15.2-5.582-1.684-.739-9.148-6.322-9.148-6.322C41.942,1.08,34.046.341,34.046.341,22.885-.864,6.765,1.637,6.765,1.637c.257,1.308.585,1.489.585,1.489a74.812,74.812,0,0,0-4.795,8.118,3.007,3.007,0,0,0-.349,1.342l-.144,3.752A26.9,26.9,0,0,0,.554,18.567c-1.17,2.228,0,8.368,0,8.368l1.047.341v-.171A7.761,7.761,0,0,1,9.065,19.09a7.754,7.754,0,0,1,7.464,8.016,8.65,8.65,0,0,1-.205,1.876l36.943.091c-.01-.159-.01-.318-.01-.478a8.539,8.539,0,0,1-.082-1.16,7.761,7.761,0,0,1,7.464-8.016,7.312,7.312,0,0,1,6.058,3.32,4.081,4.081,0,0,1,.329.534v.011a1.762,1.762,0,0,1,.1.193,8.464,8.464,0,0,1,.975,3.957,8.648,8.648,0,0,1-.2,1.8l4.733-.819a1.02,1.02,0,0,0,.585-1.023,2.9,2.9,0,0,0-.246-1.3l.637-3.911A.749.749,0,0,0,73.628,21.784ZM5.636,12.814,3.2,15.7s.082-4.184,1.006-5.116c0,0,.339-.932.842-.375A8.661,8.661,0,0,1,5.636,12.814ZM12.5,9.607s-.842-.273-.667-2.137c0,0-.082-3.343,1.427-4.457l2.187-.375L15.7,9.7Zm4.415,0-.082-7.163s10.237-.466,10.832-.273l.5,8.175Zm15.278.648S30.35,3.195,30.607,2.172c0,0,8.4.375,11.161,1.865l5.575,3.343A1.632,1.632,0,0,1,48.1,8.55l.544,3.49Zm32.949,4.32s4.107,1.217,4.867,2.149a11.138,11.138,0,0,1,.955,3.286S66.666,17.271,65.147,14.576Z" transform="translate(-0.033 -0.013)"/>
      <path id="Path_5504" data-name="Path 5504" class="cls-5" d="M652.6,204.6Z" transform="translate(-585.597 -181.339)"/>
      <path id="Path_5505" data-name="Path 5505" class="cls-6" d="M652.6,204.6Z" transform="translate(-585.597 -181.339)"/>
      <path id="Path_5506" data-name="Path 5506" class="cls-5" d="M653.6,206.4a9.232,9.232,0,0,1,.647,5.776l.133-.023a8.568,8.568,0,0,0,.2-1.8A8.344,8.344,0,0,0,653.6,206.4Z" transform="translate(-586.495 -182.935)"/>
      <path id="Path_5507" data-name="Path 5507" class="cls-6" d="M653.6,206.4a9.232,9.232,0,0,1,.647,5.776l.133-.023a8.568,8.568,0,0,0,.2-1.8A8.344,8.344,0,0,0,653.6,206.4Z" transform="translate(-586.495 -182.935)"/>
    </g>
  </g>
</svg>
