<?xml version="1.0" encoding="utf-8"?>
<!-- Generator: Adobe Illustrator 21.1.0, SVG Export Plug-In . SVG Version: 6.00 Build 0)  -->
<svg version="1.1" id="Capa_1" xmlns="http://www.w3.org/2000/svg" xmlns:xlink="http://www.w3.org/1999/xlink" x="0px" y="0px"
	 viewBox="0 0 181.5 37.3" enable-background="new 0 0 181.5 37.3" xml:space="preserve">
<g transform="translate(1853.014 -3531.642)">
	<g transform="translate(61.212 11.909)">
		<path fill="#009FC7" d="M-1779.3,3543.7c-0.4-0.3-1-0.5-1.5-0.4c-0.3,0-0.5,0-0.8,0c-2.6,0.2-3.3,2.8-3.4,3.7l0,0
			c-0.3,1.8-0.2,3.7,0.2,5.5c0.1,0.5,0.3,0.9,0.6,1.3c0,0,0.1,0.1,0.1,0.1c0.7,0.9,1.9,1.4,3,1.3c0.8,0,1.5-0.3,2.1-0.8l0,0
			c0,0,0.7-0.3,1.2-1.9c0.1-0.2,0.1-0.5,0.2-0.6c0.2-0.9,0.3-1.9,0.3-2.8c0-1-0.1-1.9-0.3-2.9
			C-1777.8,3545.2-1778.4,3544.2-1779.3,3543.7z M-1779.9,3551.7c0,0.1-0.1,0.2-0.1,0.3c-0.1,0.2-0.2,0.4-0.4,0.6
			c-0.2,0.3-0.5,0.4-0.9,0.4c-0.7-0.1-1.1-0.8-1.3-1.5v-0.1c0,0-0.8-3.2,0.1-5.2c0.2-0.5,0.6-0.8,1.1-0.9c0.3,0,0.7,0.1,0.9,0.3
			c0.4,0.3,0.6,0.8,0.7,1.3c0.1,0.6,0.2,1.1,0.2,1.7C-1779.5,3549.7-1779.6,3550.8-1779.9,3551.7L-1779.9,3551.7z M-1826.1,3552.4
			c-0.1,3-3.9,3.2-4.3,3c-0.3-0.1-3.3,0.3-3.5-3.9l0.1-0.1l0,0l1.9,0.2l0.1,0.1c0.1,0.4,0.4,1.9,1.9,1.8c1.6-0.1,1.8-0.9,1.3-1.8
			c-0.5-0.9-4.6-2.3-4.8-4.1c-0.2-1.9,0.4-4.4,3.4-4.4c2.9,0,3.5,3.2,3.6,3.6l0,0l-0.1,0.1c-0.7,0.2-1.3,0.3-2,0.4l-0.1-0.1l0,0
			c0-0.4-0.2-2.2-1.6-1.9c-1.4,0.4-1.4,1.7-0.3,2.2C-1829.7,3548-1825.9,3549.4-1826.1,3552.4L-1826.1,3552.4z M-1846.7,3539
			c-0.7,0-5.5,0-6.2,0l-0.1,0.1l0,0l0.2,1.8l0.1,0.1l0.5,0.1v13.8l0,0l0.1,0.1h2.6l0.1-0.1v-6.3h0.8l2.1,6.3l0,0l0.1,0.1l2.7,0l0,0
			l0-0.1l-2.4-6.4c1-0.4,2.6-1.8,2.6-4.8C-1843.5,3540.1-1846,3539-1846.7,3539z M-1847.8,3546.3h-1.7v-5.2h1.7
			c0.4,0,1.8,0.6,1.8,2.5C-1846.1,3545.6-1847.4,3546.3-1847.8,3546.3L-1847.8,3546.3z M-1813.3,3547.1c-0.7-2-1.7-0.5-1.9-0.1
			l0.2,7.8l-0.1,0.1l0,0l-2.4,0l0,0l-0.1-0.1l0,0v-10.5l0,0l0.1-0.1l0,0l2.1-0.3l0,0l0.1,0.1l0,0v0.5c3.7-1.8,4.1,1.8,4.1,2.3
			l-0.1,0.1L-1813.3,3547.1L-1813.3,3547.1z M-1803.3,3551.8l-0.1-0.1l0,0l-2-0.4l-0.1,0.1c-0.1,0.4-0.5,1.9-1.5,1.8
			c-0.7,0-1.1-0.8-1.3-1.5v-0.1c-0.1-0.5-0.2-1.1-0.2-1.6c0.3,0,4.9-0.3,4.9-0.3c0.4-1.3,0.4-2.6,0-3.9c-0.1-0.4-0.3-0.8-0.6-1.1
			c-0.7-1-2-1.5-3.2-1.2c-2.6,0.2-3.3,2.8-3.3,3.7l0,0c-0.3,1.8-0.2,3.7,0.2,5.5c0.1,0.5,0.3,0.9,0.6,1.3c0,0,0.1,0.1,0.1,0.1
			c0.7,0.9,1.9,1.4,3,1.3C-1804.2,3555.3-1803.4,3552.7-1803.3,3551.8L-1803.3,3551.8z M-1808.1,3546.4c0.2-0.5,0.6-0.8,1.1-0.9
			c0.3,0,0.6,0.1,0.9,0.3l0,0c0,0,0,0,0,0c0,0,0,0,0,0c0.1,0.1,0.2,0.2,0.3,0.3c0.3,0.6,0.5,1.2,0.5,1.9c0,0-2.4,0-3.1,0
			C-1808.5,3547.4-1808.3,3546.9-1808.1,3546.4z"/>
		<path fill="#009FC7" d="M-1839,3543.3c-2.7,0.1-3.5,2.7-3.5,3.6l0.1,0.1l2,0.4l0.1-0.1c0.1-0.4,0.5-1.9,1.5-1.9
			c1.4,0.1,1.4,1.6,1.4,1.6v0.2c-1,0-5.7,0.4-5.7,3.9c0,4,3.1,3.6,4,3.6c0.5,0,1.2,0,1.7,0h0.8l1.3,0l0.1-0.1v-7.5
			C-1835.2,3545.4-1836.2,3543.2-1839,3543.3z M-1837.4,3552.9c-0.8,0.1-1.7,0-2.5-0.3c-0.6-0.5-1.2-1.9-0.7-2.4
			c0.4-0.5,2.6-0.7,3.2-0.7L-1837.4,3552.9z"/>
		<path fill="#009FC7" d="M-1798,3543.3c-2.7,0.1-3.4,2.7-3.5,3.6l0.1,0.1l2,0.4l0.1-0.1c0.1-0.4,0.5-1.9,1.5-1.9
			c1.4,0.1,1.4,1.6,1.4,1.6v0.2c-1,0-5.7,0.4-5.7,3.9c0,4,3.1,3.6,4,3.6c0.5,0,1.2,0,1.7,0h0.8l1.4,0l0.1-0.1v-7.5
			C-1794.2,3545.4-1795.2,3543.2-1798,3543.3z M-1796.4,3552.9c-0.8,0.1-1.7,0-2.5-0.3c-0.6-0.5-1.2-1.9-0.7-2.4
			c0.4-0.5,2.6-0.7,3.2-0.7L-1796.4,3552.9z"/>
		<path fill="#009FC7" d="M-1818.8,3554.9c-0.5,0.3-1,0.4-1.6,0.4c-2.8,0.2-3.8-2-3.8-4v-5.7l-1.4,0l0,0l-0.1-0.1v-2.2l0,0l0.1-0.1
			h1.4v-4.2l0.1-0.1c0.7,0.2,1.6,0.4,2.2,0.6l0,0l0.1,0.1l-0.1,3.6h2.6l0.1,0.1v2.1l-0.1,0.1l0,0l-2.6,0.1l-0.1,5.9
			c0,0,0,1.5,1.4,1.6c0.4,0,0.8-0.1,1.1-0.2l0.1,0L-1818.8,3554.9L-1818.8,3554.9z"/>
		<path fill="#009FC7" d="M-1786.2,3554.9c-0.5,0.3-1,0.4-1.6,0.4c-2.8,0.2-3.8-2-3.8-4v-5.7l-1.4,0l0,0l-0.1-0.1v-2.2l0,0l0.1-0.1
			h1.4v-4.2l0.1-0.1c0.7,0.2,1.6,0.4,2.2,0.6l0,0l0.1,0.1l-0.1,3.6h2.6l0.1,0.1v2.1l-0.1,0.1l0,0l-2.6,0.1l-0.1,5.9
			c0,0,0,1.5,1.4,1.6c0.4,0,0.8-0.1,1.1-0.2l0.1,0L-1786.2,3554.9L-1786.2,3554.9z"/>
		<path fill="#009FC7" d="M-1771.3,3547.1c-0.7-2-1.7-0.5-1.9-0.1l0.2,7.8l-0.1,0.1l0,0l-2.4,0l0,0l-0.1-0.1l0,0v-10.5l0,0l0.1-0.1
			l0,0l2.1-0.3l0,0l0.1,0.1l0,0v0.5c3.7-1.8,4.1,1.8,4.1,2.3l-0.1,0.1L-1771.3,3547.1L-1771.3,3547.1z"/>
		<g transform="translate(84.805 4.27)">
			<path d="M-1818.2,3543c0,2-0.2,6.7-0.2,7.3l-0.1,0.1l-2.1,0.1l-0.1-0.1c0-0.8,0.4-7.6,0-8.5c-0.3-0.9-2-0.5-2.8,0.4
				c0,0.2,0,0.5,0,0.7c0,2-0.2,6.7-0.2,7.3l-0.1,0.1l0,0l-2.1,0.1l-0.1-0.1c0-0.8,0.3-7.6,0-8.5c-0.3-0.9-2.3-0.4-3,0.5l0.2,8l0,0
				l-0.1,0.1l0,0l-2.4,0l0,0l-0.1-0.1v-10.7l0.1-0.1l0,0l2.1-0.3l0.1,0.1l0,0v0.6c0.9-0.6,2-1,3.1-1c0.7,0.1,1.3,0.6,1.7,1.2
				c0.2-0.1,2.3-1.4,3.5-1.2C-1819.3,3539.3-1818.1,3541-1818.2,3543z M-1832.9,3542c-0.2-1.1-0.8-2-1.7-2.6c-0.4-0.3-1-0.5-1.5-0.4
				c-0.3,0-0.5,0-0.8,0c-2.6,0.2-3.3,2.8-3.4,3.7l0,0c-0.3,1.8-0.2,3.7,0.2,5.5c0.1,0.5,0.3,0.9,0.6,1.3c0,0,0.1,0.1,0.1,0.1
				c0.7,0.9,1.9,1.4,3,1.3c0.8,0,1.5-0.3,2.1-0.8l0,0c0,0,0.7-0.3,1.2-1.9c0.1-0.2,0.1-0.5,0.2-0.6c0.2-0.9,0.3-1.9,0.3-2.8
				C-1832.5,3543.9-1832.6,3543-1832.9,3542z M-1835.1,3547.4c0,0.1-0.1,0.2-0.1,0.3c-0.1,0.2-0.2,0.4-0.4,0.6
				c-0.2,0.3-0.5,0.4-0.9,0.4c-0.7-0.1-1.1-0.8-1.3-1.5v-0.1c0,0-0.8-3.2,0.1-5.2c0.2-0.5,0.6-0.8,1.1-0.9c0.3,0,0.7,0.1,0.9,0.3
				c0.4,0.3,0.6,0.8,0.7,1.3c0.1,0.6,0.2,1.1,0.2,1.7C-1834.7,3545.5-1834.8,3546.5-1835.1,3547.4L-1835.1,3547.4z M-1841.7,3547.5
				c-0.1,0.9-0.9,3.5-3.5,3.6c-1.2,0.2-2.3-0.3-3-1.3c0,0-0.1-0.1-0.1-0.1c-0.2-0.4-0.4-0.8-0.6-1.3c-0.5-1.8-0.6-3.7-0.2-5.5l0,0
				c0.1-0.9,0.8-3.5,3.4-3.7c2.7-0.4,3.9,1.7,4.1,3.6l0,0l-0.1,0.1l-2,0l-0.1-0.1c-0.1-0.3-0.3-1.5-1.5-1.5
				c-0.5,0.1-0.9,0.4-1.1,0.9c-0.9,2-0.1,5.2-0.1,5.2v0.1c0.2,0.7,0.6,1.4,1.3,1.5c1.1,0.1,1.5-1.4,1.5-1.8l0.1-0.1l0,0l2,0.4l0,0
				L-1841.7,3547.5z M-1850.4,3548l-0.4,2.6l-0.1,0.1l-2-0.1l-0.1-0.1l0,0v-2.3l0,0l0.1-0.1l2.4-0.2l0,0L-1850.4,3548z"/>
		</g>
	</g>
	<g transform="translate(-0.013 -0.008)">
		<g transform="translate(0 0)">
			<path fill="#FFFFFF" d="M-1844.4,3568.3L-1844.4,3568.3C-1844.4,3568.3-1844.4,3568.3-1844.4,3568.3L-1844.4,3568.3
				C-1844.4,3568.2-1844.4,3568.3-1844.4,3568.3z"/>
			<path fill="#C2B5AF" d="M-1811.1,3565.4c-0.3-0.4-0.7-0.6-1.1-0.6c-0.5,0-0.8-0.2-0.7-0.8c0-0.3,0.2-0.9,0.3-1.4
				c-0.2,0-0.4,0.1-0.5,0.2c-0.2,0.1-0.5,0.2-0.9,0.3c-0.1,0.2-0.1,0.3-0.2,0.5c-0.2,0.6-0.9,1.8-0.2,2.4c0.4,0.3,1.1,0.2,1.5,0.4
				c0.2,0.1,0.3,0.2,0.5,0.3c0.2,0,0.5,0,0.7,0c0.2,0,0.4-0.1,0.6-0.3c0.2-0.1,0.3-0.3,0.3-0.5
				C-1810.9,3565.8-1811,3565.6-1811.1,3565.4z"/>
			<path fill="#814421" d="M-1841.9,3551.3c0.1-0.1,0.2-0.2,0.3-0.3c0.5-0.6,1.1-1,1.7-1.4c0.4-0.2,0.8-0.4,1.2-0.6
				c-0.5-0.1-1.1-0.2-1.5-0.4c-1.1-0.3-2.3-0.8-3.3-1.3c-2.3-1.2-4.4-2.8-6.1-4.8c-0.8-0.9-1.4-1.9-2.2-2.8
				c-0.1-0.1-0.2-0.2-0.2-0.2c-0.1-0.1-0.1-0.2-0.1-0.3c-0.1-0.1-0.3,0-0.5,0c-0.4,0.2-0.1,0.7,0,1c0.2,0.4,0.4,0.8,0.7,1.2
				c0.3,0.4,0.6,0.7,0.8,1c0.2,0.3,0.4,0.6,0.7,0.9c0.4,0.5,0.7,0.9,1.2,1.4c0.4,0.5,0.9,0.9,1.3,1.3c0.3,0.3,0.6,0.6,0.9,0.9
				l0.7,0.6c0.3,0.3,0.7,0.5,1,0.7c0.2,0.1,0.4,0.3,0.6,0.5C-1843.7,3549.3-1842,3550.1-1841.9,3551.3z"/>
			<path fill="#DFDBD5" d="M-1847.2,3544.2L-1847.2,3544.2"/>
			<g transform="translate(2.317 3.402)">
				<path d="M-1844.5,3547.6c0.1,0.2,0.1,0.4,0,0.6c0.2-0.2,0.5-0.5,0.6-0.6c0.5-0.6,1.1-1,1.7-1.4c0.4-0.3,0.9-0.5,1.3-0.6h-0.1
					c-0.3-0.1-0.6-0.1-0.9-0.2c-1.2-0.3-2.3-0.7-3.4-1.2c-0.6-0.2-1.1-0.5-1.6-0.8c-1.6-1-3.1-2.2-4.3-3.6c-0.1-0.1-0.3-0.3-0.4-0.5
					c-0.1-0.1-0.2-0.4-0.3-0.4h0c-0.4,0.1-0.7,0.3-1,0.6c0,0.1,0.1,0.2,0.2,0.3c0.2,0.2,0.4,0.5,0.6,0.7c0.4,0.4,0.7,0.8,1.1,1.2
					c0.5,0.5,0.9,1.1,1.5,1.5c0.8,0.7,1.7,1.4,2.6,2C-1846.1,3545.9-1844.8,3546.5-1844.5,3547.6z"/>
			</g>
			<path fill="#AF6135" d="M-1850.6,3543.2c0,0-0.1,0-0.1,0c-0.2-0.3-0.4-0.6-0.6-0.8c-0.1-0.1-0.1-0.2-0.2-0.3
				c-0.6-0.7-1.1-1.6-1.5-2.5c0-0.2,0.1-0.4,0.2-0.5c0.2-0.1,0.3-0.2,0.5-0.1c0,0,0.1,0,0.1,0.1c0.8,1.2,1.7,2.3,2.7,3.4
				c0,0.1,0,0.1,0,0.2c-0.1,0-0.1,0-0.2,0c-1-1.1-1.9-2.2-2.7-3.4c-0.1,0-0.1,0-0.2,0.1c-0.1,0.1-0.2,0.2-0.2,0.2
				c0.3,0.8,0.8,1.6,1.4,2.3c0.1,0.1,0.2,0.2,0.2,0.3c0.2,0.3,0.4,0.5,0.6,0.8c0,0.1,0,0.1,0,0.2
				C-1850.5,3543.2-1850.6,3543.2-1850.6,3543.2z"/>
			<path fill="#454444" d="M-1841.8,3551.2c-0.4-0.7-1-1.4-1.6-1.8l-0.1-0.1c-0.3-0.2-0.7-0.5-1-0.7c-1.6-1.1-3-2.3-4.3-3.8
				c-0.3-0.4-0.7-0.8-1-1.2c-0.2-0.2-0.5-0.5-0.7-0.8c-0.1,0.1-0.1,0.1-0.2,0.2c0.2,0.2,0.5,0.5,0.7,0.7c0.3,0.4,0.7,0.8,1,1.1
				c1.3,1.4,2.7,2.7,4.3,3.8c0.3,0.2,0.7,0.5,1,0.7l0.1,0.1c0.6,0.5,1.4,1.1,1.6,1.8C-1842,3551.4-1841.9,3551.3-1841.8,3551.2z"/>
			<g transform="translate(3.158 3.332)">
				<path fill="#454444" d="M-1842.2,3545.8c0.2-0.1,0.4-0.1,0.6-0.1c-0.9-0.2-1.8-0.4-2.7-0.8c-2.4-0.8-4.6-2.1-6.4-3.8
					c-0.6-0.6-1.3-1.3-2-2l0-0.1l-0.3,0.1c0,0,0,0,0.1,0.1v0c0,0,0,0,0,0.1l0,0c0.6,0.7,1.4,1.5,2,2.1c1.9,1.7,4.1,3.1,6.5,3.9
					C-1843.6,3545.4-1842.9,3545.7-1842.2,3545.8z"/>
			</g>
			<path fill="#DFDBD5" d="M-1796.6,3544.5c-0.4-0.4-1-0.7-1.6-0.7c-0.3-0.1-0.7-0.2-1-0.4c-0.4-0.1-0.8-0.2-1.2-0.4
				c-0.7-0.4-0.8-1.1-1.3-1.6c-0.6-0.6-1.3-1-2.1-1.2c-0.9-0.3-1.8-0.4-2.7-0.4c-0.8,0.1-1.5,0.5-2.1,1.1c-0.3,0.4-0.6,0.9-1,1.3
				c-0.3,0.4-0.8,0.6-1.1,1l-0.5,0.8c-0.5,0.8-0.9,1.7-1.3,2.6c-0.1,0.3-0.3,0.7-0.5,0.9c-0.3,0.2-0.6,0.3-0.9,0.4
				c-1,0.5-1.9,1-2.8,1.6c-1.7,0.9-4.3,0.6-6.2,0.8c-2.4,0.1-4.7,0-7-0.2c-0.4-0.1-0.8-0.1-1.2-0.2c-0.4-0.1-0.8-0.1-1.3-0.2
				c-0.6-0.1-1.2-0.4-1.8-0.6c-0.5-0.1-1-0.1-1.5-0.1c-0.6,0-1.1-0.2-1.6-0.2c-0.7,0.1-1.3,0.3-1.9,0.6c-1.3,0.6-2.4,1.5-3.2,2.7
				c-0.8,1.1-1.2,2.4-1.4,3.7c-0.1,0.6-0.2,1.2-0.4,1.8c-0.1,0.7-0.5,1.4-1,1.9c-0.3,0.2-0.6,0.3-0.9,0.5c-0.3,0.1-0.6,0.1-0.8,0.2
				c-0.6,0.3-0.9,0.8-1,1.4c0,0.3-0.1,0.7-0.1,1c0,0.5-0.1,1-0.2,1.5c-0.1,0.5-0.2,1-0.4,1.5c-0.1,0.6,0,1.1,0.2,1.6
				c0.6,1.4,2,2.1,3.4,1.8c0.6-0.2,0.9-0.8,0.7-1.4c0-0.1-0.1-0.2-0.2-0.3c-0.4-0.7-1.4-0.7-1.7-1.4c-0.2-0.7-0.1-1.5,0.3-2.1
				c0.7-0.9,1.4-0.7,2.4-0.7c1.4,0.1,2.7-0.2,4-0.8c0.7-0.4,1.4-1.8,2.2-1.9c0.4,0,0.7,0.1,1,0.3c0.8,0.2,1.7,0.3,2.6,0.3
				c4.7,0.2,8.9,1.8,13.4,2.6c0.9,0.3,1.8,0.4,2.8,0.5h0.1c0,0.3,0.1,0.6,0.1,0.8c0.1,0.6,0.1,1.2,0.2,1.8c0,0.4,0.1,0.8,0.2,1.1
				c0.3,0.5,0.9,0.9,1.5,0.9c0.3,0,0.7,0,1,0c0.3,0,0.7,0,1.1-0.1c0.3,0,0.6-0.1,0.8-0.4c0.2-0.2,0.2-0.4,0.2-0.7
				c-0.1-0.4-0.3-0.8-0.7-0.9c-0.5-0.2-1.1,0-1.5-0.4c-0.7-0.6,0-1.8,0.2-2.4c0.1-0.2,0.1-0.3,0.2-0.5c2-0.5,3.8-1.5,5.4-2.7
				c0.6-0.4,1.2-0.8,1.7-1.3c1-1.2,1.7-2.6,2-4.1c0.2-1,0.5-1.9,1-2.8c0.2-0.2,0.5-0.4,0.6-0.6c0.3-0.5,0-1,0.3-1.5
				c0.2-0.3,0.6-0.5,1-0.6c0.3,0,0.7-0.1,1-0.1c0.3-0.1,0.5-0.4,0.8-0.5c0.3,0,0.7-0.1,1.1,0c0.4,0,0.8-0.2,1.1-0.5
				c0.2-0.2,0.3-0.3,0.4-0.5c0.1-0.2,0.3-0.4,0.5-0.7c0.2-0.3,0.3-0.6,0.5-0.9C-1796.4,3545.7-1796.3,3545-1796.6,3544.5z"/>
			<path fill="#814421" d="M-1798.8,3544.5c0-0.4-0.2-0.9-0.6-1.1c-0.2,0-0.3-0.1-0.5-0.1c-0.4-0.1-0.7-0.3-0.9-0.6
				c-0.2-0.3-0.4-0.6-0.5-1c-0.7-0.6-1.5-1.1-2.4-1.5c-0.9-0.3-1.9-0.4-2.9-0.5c-0.7,0.1-1.4,0.5-1.9,1c-0.4,0.4-0.6,0.9-1,1.3
				c-0.5,0.4-0.9,0.8-1.3,1.2c-0.3,0.5-0.7,1-0.9,1.5c-0.3,0.6-0.6,1.2-0.8,1.8c-0.1,0.2-0.1,0.5,0.2,0.5c0.2,0,0.3,0,0.5,0.1
				c0.4,0.2,0.3,0.6,0.5,0.9c0.3,0.7,0.8,1.2,1.4,1.6c0.2,0.2,0.5,0.4,0.7,0.6c0.5,0,0.7-0.4,0.9-1.1c0.2-0.7,0.4-1.5,0.5-2.2
				c0-0.7,0.2-1.5,0.5-2.1c0.2,0.1,0.1,0.8,0.1,1c0,0.6-0.1,1.2-0.1,1.8c0,0.9-0.2,1.8-0.6,2.6c-0.1,0.3-0.2,0.6-0.2,0.9
				c0.2,0.1,0.4,0.3,0.6,0.4c0.2,0.2,2.4,1.3,3.3,1.7c0.2-0.5,0.5-0.9,0.8-1.4c0.1-0.1,0.2-0.2,0.2-0.4c0.1-0.3,0.3-0.6,0.3-1
				c0-0.4,0.3-0.7,0.7-0.8c0.4-0.1,0.7,0.1,1.1-0.2c0.3-0.3,0.5-0.7,0.6-1.2c0.2-0.9,0.9-1.3,1.4-2.1
				C-1798.8,3545.7-1798.7,3545.1-1798.8,3544.5z"/>
			<path fill="#814421" d="M-1810.6,3557.1c0.5-0.1,0.8-0.4,0.9-0.9c0-0.5-0.1-1-0.4-1.4c-0.2-0.4-0.4-0.8-0.7-1.1
				c-0.2-0.1-0.3-0.3-0.4-0.5c-0.2-0.4-0.4-0.8-0.5-1.2c-0.1-0.4-0.3-0.9-0.5-1.2c-0.3-0.3-0.9-0.6-1-1c-0.1-0.5,0.2-0.9,0.2-1.4
				c-0.2-1.1-1.3-0.5-1.9-0.1c-1,0.6-2.1,1-3.2,1.1c-1,0.1-1.9,0.6-2.8,0.7c-2.4,0.3-4.9,0.3-7.3,0c-0.7-0.1-1.4-0.1-2.1-0.2
				c-0.7-0.1-2.1-0.2-2.1,0.8c0,0.7,0.6,1.1,0.9,1.6c0.2,0.3,0.2,0.7,0.1,1c-0.2,0.4-0.6,0.7-0.8,1.1c-0.2,0.4-0.3,0.7-0.4,1.1
				c-0.2,0.8,0.1,1.6,0.7,2.2c1.4,1.1,2.9,2,4.6,2.5c0.9,0.4,1.8,0.5,2.8,0.5c0.8-0.2,0.8-1.7,0.9-2.4c0.1-0.4,0.2-0.9,0.6-1
				c0.5-0.2,1,0.2,1.2,0.7c0.6,1,0.9,2.1,1.6,3c0.4,0.5,1.1,0.6,1.7,0.2c0.1-0.1,0.2-0.2,0.3-0.3c0.3-0.5,0.6-0.9,1.1-1.3
				c0.4-0.3,0.9-0.4,1.4-0.7c0.8-0.5,1.3-1.3,2.2-1.6C-1812.7,3556.9-1811.6,3557.4-1810.6,3557.1z"/>
			<path fill="#814421" d="M-1834.7,3549.3C-1834.7,3549.2-1834.7,3549.2-1834.7,3549.3c-0.8-0.3-1.6-0.5-2.5-0.5
				c-0.6,0-1.2,0.1-1.7,0.3c-1.1,0.5-2,1.3-2.7,2.2c-0.5,0.5-0.9,0.9-1.3,1.4c-0.4,0.5-0.6,1.1-0.7,1.6c-0.1,0.5-0.1,1-0.3,1.5
				c-0.1,0.5-0.2,0.9-0.2,1.4c-0.1,0.3-0.2,0.6-0.3,0.8c0,0.1-0.1,0.1-0.1,0.2h-0.1l-0.3,0.5c0.1,0.3,0.3,0.6,0.6,0.8h0
				c0,0,0.1,0.1,0.1,0.1c0.3,0.1,0.6,0.3,1,0.3c1.2,0.1,2.5,0,3.6-0.5c1.4-0.4,2.5-1.3,3.2-2.5c0.5-1,0.6-2.1,0.5-3.2
				c0-0.5,0-1.1,0.1-1.6C-1835.6,3551.1-1835.2,3550.2-1834.7,3549.3z"/>
			<path fill="#814421" d="M-1804.3,3542.7c0.2,0.9,0.1,1.9,0.2,2.8c0.2,0.8,0.3,1.6,0.3,2.5c0.1,2.1,0.4,4.2,0.5,6.4
				c0,0.8,0.2,2-0.9,2c-0.8,0-1.6-0.9-2.3-1.3c-1-0.7-1.7-1.8-1.8-3c-0.1-1.2,0.7-2.2,0.8-3.4c0.2-1.1,0-2.2,0.1-3.3
				c0-0.8,0.2-1.5,0.5-2.2"/>
			<path d="M-1839.6,3549.3c-0.9,0.4-1.6,1-2.3,1.8c-0.2,0.3-0.5,0.5-0.7,0.8c-0.3,0.3-0.5,0.6-0.7,1c0.6,0.2,1.3,0.2,2,0
				c0.3-0.1,0.6-0.2,0.9-0.3c0.7-0.2,1.4,0.1,1.7,0.7c0.6,0.7,1,2.5,1.9,2.8c0.9,0.4,0.8-1.2,0.8-1.7c0-0.9,0.1-1.8,0.2-2.7
				c0.1-0.4,0.3-0.8,0.5-1.2c0.1-0.2,0.2-0.4,0.3-0.6c0.1-0.2,0.2-0.3,0.3-0.5c0-0.1,0.2-0.2,0.2-0.3c0-0.1-0.2-0.1-0.3-0.1
				c-1.2-0.3-2.5-0.4-3.8-0.1c-0.3,0.1-0.7,0.2-1,0.3C-1839.5,3549.3-1839.6,3549.3-1839.6,3549.3z"/>
			<path d="M-1822.5,3550.4c-0.6,0.1-1.2,0.5-1.6,1c-0.3,0.3-0.5,0.7-1,0.7c-0.4,0-1-0.2-0.9-0.7s0.7-0.6,0.9-0.9
				c-1-0.5-2.4-0.1-3.5-0.2c-0.2,0-0.4-0.1-0.6-0.1c-0.9-0.2-1.8-0.3-2.7-0.5c-0.2-0.1-0.4,0-0.5,0.1c-0.3,0.3-0.4,0.7-0.5,1.1
				c0,0.3,0.2,0.5,0.4,0.7c0.3,0.3,0.6,0.6,0.8,0.9c0.3,0.4,0.2,0.9-0.2,1.2c0,0,0,0-0.1,0c-0.7,0.3-1.2-0.5-1.8-0.5
				c-0.7,0-1.3,0.5-1.3,1.2c0,0,0,0.1,0,0.1c0,0.9,0.4,1.7,0.9,2.3c1.1,1.4,2.6,2.4,4.3,3c1.1,0.3,4.1,1.5,5.1,1
				c1.1-0.6,0.6-2.3,1.2-3.2c1.1-1.5,2.2,1.6,2.5,2.3c0.3,0.7,0.6,1.7,1.5,1.6c0.8-0.1,1.2-1,1.7-1.5c0.6-0.7,1.3-0.7,1.9-1.2
				c0.8-0.6,0.1-1.7-0.1-2.5c-0.1-0.9,0.4-1.8,1.3-2.1c0.9-0.2,1.9,0.6,2.8,0.5c0.4,0,0.8-0.1,1.1-0.4c0.3-0.4,0.1-0.6-0.2-0.9
				c-0.7-0.7-0.5-1.8-1.1-2.5c-0.3-0.4-0.8-0.6-1-1.1c-0.3-0.6,0.3-1.2,0-1.8c-0.1-0.2-0.3-0.3-0.5-0.3c-0.2-0.1-0.4,0.1-0.5,0.2
				c-0.1,0.1-0.3,0.2-0.5,0.2c-0.3,0.1-0.6,0.4-0.9,0.5c-0.1,0.1-0.2,0.1-0.3,0.2c-0.6,0.3-1.2,0.4-1.9,0.4
				c-1.2,0.1-2.2,0.9-3.3,0.9C-1821.6,3550.3-1822.1,3550.3-1822.5,3550.4z"/>
			<path d="M-1809.4,3545.3c-1.6-1.2,0.1-2,0.3-3.3c0-0.1,0-0.2,0-0.3c0-0.1,0-0.3-0.1-0.3h0c0,0-0.1,0.1-0.1,0.1
				c0,0.1-0.1,0.1-0.2,0.2c-0.1,0.1-0.3,0.2-0.4,0.4c0,0-0.1,0.1-0.1,0.1c-0.1,0.1-0.2,0.2-0.3,0.3c-0.4,0.3-0.8,0.7-1.1,1.1
				c-0.4,0.5-0.7,1.1-0.9,1.8l-0.2,0.6c0,0.1-0.1,0.3-0.1,0.5c0,0.2-0.1,0.3-0.2,0.5c0.1,0,0.2,0,0.3,0c0.2-0.1,0.4,0,0.6,0
				c0.4,0.2,0.4,0.6,0.5,0.9c0.2,0.5,0.5,1,1,1.3c0.3,0.3,0.9,1.1,1.4,0.8c0.3-0.2,0.4-0.6,0.5-1c0.1-0.5,0.2-1,0.2-1.4
				C-1808.3,3546.8-1808.7,3545.9-1809.4,3545.3z"/>
			<g transform="translate(50.204 2.804)">
				<path fill="#5A3015" d="M-1851.5,3540.2c0-0.1-0.1-0.2-0.1-0.2c-0.1-0.3-0.1-0.8-0.5-0.9c-0.4-0.1-0.6,1.3-0.7,1.5
					c-0.1,0.3-0.4,0.7,0.1,0.8c0.4,0,0.8,0.1,1.1,0.3c0.2,0.1,0.7,0.5,0.7,0c0-0.2-0.1-0.4-0.2-0.6
					C-1851.3,3540.8-1851.4,3540.5-1851.5,3540.2z"/>
				<path fill="#FFFFFF" d="M-1852.6,3540.8C-1852.6,3540.8-1852.7,3540.8-1852.6,3540.8c0-0.1,0.2-0.5,0.3-0.6s0.2-0.2,0.3-0.2
					c0.1,0.1,0.2,0.2,0.2,0.3c0,0.1,0,0.4-0.3,0.4C-1852.2,3540.8-1852.4,3540.8-1852.6,3540.8z"/>
				<path d="M-1852,3540.5c0-0.1-0.1-0.2,0-0.3c0-0.2,0.2,0,0.2,0.1c0,0.1,0,0.3,0,0.4C-1851.9,3540.7-1851.9,3540.6-1852,3540.5
					C-1852,3540.5-1852,3540.5-1852,3540.5z"/>
				<g transform="translate(1.49 4.979)">
					<path fill="#B0A791" d="M-1848.6,3539.1L-1848.6,3539.1L-1848.6,3539.1l-0.1-0.1l-0.1,0.1l0,0c-0.2,0.3-0.4,0.7-0.7,1
						c-0.3,0.3-0.6,0.6-1,0.8c-0.3,0.2-0.7,0.2-1.1,0.2c-0.1,0-0.2,0-0.3,0c-0.2,0-0.4,0.1-0.5,0.3c-0.1,0.1-0.2,0.1-0.2,0.2h0
						c-0.1,0.1-0.2,0.2-0.3,0.4c0.2,0,0.3,0,0.5-0.1c0.1-0.1,0.2-0.1,0.3-0.2c0.1-0.1,0.2-0.2,0.4-0.2c0.1,0,0.2,0,0.3,0
						c0.4,0,0.8-0.1,1.1-0.2c0.4-0.2,0.8-0.5,1.1-0.8c0.3-0.3,0.5-0.7,0.7-1C-1848.5,3539.2-1848.5,3539.1-1848.6,3539.1z"/>
				</g>
				<path fill="#B0A791" d="M-1847.3,3541.5L-1847.3,3541.5c-0.4-0.1-0.6-0.2-0.9-0.3c-0.2,0-0.3-0.1-0.5-0.1
					c-0.2-0.1-0.4-0.1-0.6-0.2c-0.1,0-0.3-0.1-0.4-0.1c-0.1,0-0.1-0.1-0.1-0.2c0-0.1,0.1-0.1,0.2-0.1l0,0l0.4,0.1
					c0.2,0.1,0.4,0.1,0.6,0.2c0.2,0,0.3,0.1,0.5,0.1c0.3,0.1,0.6,0.2,0.9,0.3c0.1,0,0.1,0.1,0.1,0.2c0,0,0,0,0,0
					C-1847.2,3541.4-1847.3,3541.5-1847.3,3541.5z"/>
			</g>
			<path fill="#C2B5AF" d="M-1837,3563.6L-1837,3563.6c-0.4,0.5,0.4,1.2,0.7,1.4c0.4,0.4,1,0.6,1.6,0.6c0.7-0.1,1.5-0.2,2,0.4
				c0.2,0.3,0.3,0.6,0.3,1c0,0.3-0.3,0.5-0.6,0.5l-1.2,0.2c-0.7,0.1-1.4,0-2.1-0.3c-0.8-0.4-1.2-1.4-2.1-1.9
				c-0.8-0.5-2.3-0.6-2.3-1.9c0-0.4,0.2-0.8,0.5-1.1c0.1-0.1,0.1-0.2,0.2-0.2c0.1-0.1,0.2-0.1,0.3-0.1c0.5-0.2,0.9-0.4,1.2-0.8
				c0.1-0.1,0.9-1.2,1-1.2l0.7,0.2c0.3,0.1,0.6,0.2,0.9,0.2l1.1,0.1c0.2,0,0.4,0.1,0.6,0.1c0,0-0.1,0.5-0.1,0.6
				c0,0.2-0.1,0.3-0.2,0.5c-0.2,0.3-0.5,0.6-0.8,0.8C-1835.8,3563.1-1836.6,3563-1837,3563.6z"/>
			<g transform="translate(35.258 3.393)">
				<path fill="#B0A791" d="M-1847.1,3563.4c-0.2,0-0.3,0-0.5,0c-0.1,0-0.2,0-0.3,0c-0.1,0-0.1-0.1-0.1-0.1s0.1-0.1,0.1-0.1
					c0,0,0,0,0,0c0.1,0,0.2,0,0.3,0c0.4,0,0.8,0.1,1-0.1c0.1-0.1,0.2-0.3,0.1-0.5c-0.1-0.6-0.4-0.8-1.1-0.9c-0.2,0-0.5-0.1-0.7-0.3
					c-0.1-0.2-0.2-0.4-0.1-0.6c0-0.4,0.1-0.8,0.2-1.2c0-0.1,0.1-0.1,0.2-0.1c0.1,0,0.1,0.1,0.1,0.2c-0.1,0.5-0.1,0.8-0.2,1.2
					c0,0.1,0,0.3,0.1,0.4c0.1,0.1,0.3,0.2,0.5,0.2c0.8,0.1,1.3,0.5,1.4,1.2c0.1,0.3,0,0.6-0.2,0.8
					C-1846.6,3563.3-1846.8,3563.4-1847.1,3563.4z"/>
				<path fill="#B0A791" d="M-1849.3,3544.7c-0.1,0-0.1,0-0.1-0.1c0-0.1,0-0.1,0.1-0.2c0,0,0,0,0,0c0.1,0,0.2-0.1,0.2-0.1l0.4-0.2
					c0.2-0.2,0.4-0.3,0.6-0.6c0-0.1,0.1-0.1,0.2,0c0.1,0,0.1,0.1,0,0.2c-0.2,0.2-0.4,0.5-0.6,0.6c-0.1,0.1-0.3,0.2-0.5,0.2
					C-1849,3544.7-1849.1,3544.7-1849.3,3544.7C-1849.3,3544.7-1849.3,3544.7-1849.3,3544.7z"/>
				<path fill="#B0A791" d="M-1849.4,3559.9c-0.1,0-0.1,0-0.1-0.1c0-0.1,0-0.1,0.1-0.2c2-0.6,3.8-1.6,5.4-2.9
					c0.2-0.2,0.4-0.3,0.7-0.5c0.4-0.2,0.7-0.5,1.1-0.8c0.8-0.9,1.4-1.9,1.7-3.1c0-0.1,0.1-0.1,0.2-0.1c0.1,0,0.1,0.1,0.1,0.2
					c-0.3,1.2-0.9,2.3-1.8,3.2c-0.3,0.3-0.7,0.6-1.1,0.8c-0.2,0.1-0.5,0.3-0.7,0.5C-1845.5,3558.3-1847.4,3559.3-1849.4,3559.9
					L-1849.4,3559.9z"/>
				<path fill="#B0A791" d="M-1850.3,3565.2c-0.3,0-0.6,0-0.9-0.1c-1.1-0.3-1.2-1.8-1.2-2.4c0-0.8-0.1-1.6-0.2-2.4
					c0-0.3-0.1-0.5-0.1-0.8c0-0.2-0.1-0.4-0.1-0.7c-0.1-0.4-0.1-0.8-0.2-1.3c0-0.1,0.1-0.1,0.1-0.1l0,0c0.1,0,0.1,0.1,0.1,0.1
					c0,0.4,0.1,0.8,0.2,1.2c0.1,0.5,0.1,1,0.2,1.5c0.1,0.8,0.2,1.6,0.2,2.5c0,0.9,0.2,1.9,1,2.1c0.5,0.1,1.1,0.1,1.6,0.1h0.5
					c0.3,0,0.6,0,0.9-0.1c0.4-0.1,0.6-0.5,0.5-0.9c-0.1-0.4-0.3-0.7-0.7-0.8c-0.2-0.1-0.4-0.1-0.6-0.1c-0.3,0-0.6-0.1-0.9-0.3
					c-0.6-0.5-0.2-1.5,0-2.1c0.1-0.1,0.1-0.3,0.1-0.4c0.1-0.3,0.2-0.5,0.3-0.7c0.3-0.7,0.5-1.5,0.6-2.3c0-0.1,0-0.2,0-0.3
					c0-0.3,0-0.5,0-0.8c0-0.1,0-0.1,0.1-0.2c0.1,0,0.1,0,0.2,0.1c0.1,0.3,0.1,0.6,0,0.9c0,0.1,0,0.2,0,0.3c-0.1,0.8-0.3,1.7-0.6,2.5
					c-0.1,0.2-0.2,0.5-0.2,0.7c-0.1,0.1-0.1,0.3-0.1,0.4c-0.2,0.6-0.6,1.4-0.1,1.8c0.2,0.1,0.5,0.2,0.8,0.2c0.2,0,0.5,0.1,0.7,0.1
					c0.4,0.2,0.7,0.6,0.8,1.1c0.1,0.5-0.2,1.1-0.7,1.3c-0.3,0.1-0.7,0.1-1,0.1h-0.5C-1849.8,3565.2-1850.1,3565.2-1850.3,3565.2z"/>
				<path fill="#AF6135" d="M-1839.3,3553L-1839.3,3553c-0.8-0.1-1.4-0.4-1.9-0.9c-0.2-0.2-0.4-0.3-0.6-0.4
					c-1.1-0.7-1.8-1.8-1.9-3.1c0-0.7,0.1-1.4,0.4-2.1c0.2-0.4,0.3-0.9,0.4-1.3c0.1-0.6,0.1-1.3,0.1-1.9c0-0.5,0-0.9,0-1.4
					c0-0.8,0.2-1.5,0.5-2.2c0-0.1,0.1-0.1,0.2-0.1c0.1,0,0.1,0.1,0.1,0.2c-0.3,0.7-0.5,1.4-0.5,2.1c0,0.5,0,0.9,0,1.4
					c0,0.6,0,1.3-0.1,1.9c-0.1,0.5-0.2,0.9-0.4,1.4c-0.3,0.6-0.4,1.3-0.4,2c0.1,1.2,0.7,2.3,1.8,2.9c0.2,0.1,0.4,0.3,0.6,0.5
					c0.5,0.4,1,0.7,1.6,0.9c0.2,0,0.4,0,0.5-0.2c0.3-0.3,0.2-0.9,0.2-1.4c0-0.1,0-0.2,0-0.3c0-1.1-0.1-2.1-0.2-3.2
					c-0.1-1.1-0.2-2.1-0.2-3.2c0-0.8-0.2-1.6-0.4-2.4c-0.1-0.5-0.1-0.9-0.1-1.4c0-0.5,0-1-0.1-1.4c0-0.1,0-0.1,0.1-0.2
					c0.1,0,0.1,0,0.2,0.1c0.1,0.5,0.1,1,0.1,1.5c0,0.4,0,0.9,0.1,1.3c0.2,0.8,0.3,1.7,0.3,2.5c0,1.1,0.1,2.2,0.2,3.2
					c0.1,1.1,0.2,2.1,0.2,3.2c0,0.1,0,0.2,0,0.3c0.1,0.5,0,1.1-0.3,1.6C-1838.8,3552.9-1839.1,3553-1839.3,3553z"/>
				<path fill="#B0A791" d="M-1848.5,3565.1L-1848.5,3565.1c-0.1,0-0.2-0.1-0.1-0.2c0,0,0,0,0,0c0.1-0.2,0.1-0.5-0.1-0.7
					c-0.2-0.3-0.5-0.6-0.9-0.6c-0.1,0-0.1-0.1-0.1-0.1c0-0.1,0.1-0.1,0.1-0.1l0,0c0.5,0.1,0.9,0.4,1.1,0.8c0.2,0.3,0.2,0.7,0.1,1
					C-1848.4,3565.1-1848.4,3565.1-1848.5,3565.1z"/>
			</g>
			<path fill="#B0A791" d="M-1816.4,3560.2c0,0-0.1,0-0.1,0c-0.1,0-0.1-0.1,0-0.2c0.6-0.6,1.5-0.9,2.3-1c0.2,0,0.4,0,0.6,0
				c0.5,0,1.1,0,1.3-0.2c0.1-0.1,0.2,0,0.2,0c0,0.1,0,0.1,0,0.2c-0.5,0.3-1,0.4-1.5,0.3c-0.2,0-0.4,0-0.6,0
				C-1815,3559.3-1815.8,3559.6-1816.4,3560.2C-1816.4,3560.2-1816.4,3560.2-1816.4,3560.2z"/>
			<g transform="translate(4.154 19.368)">
				<path fill="#B0A791" d="M-1836.8,3548.2C-1836.8,3548.2-1836.9,3548.2-1836.8,3548.2c-0.1-0.1-0.1-0.2-0.1-0.2
					c0.3-0.4,0-1-0.1-1.2c-0.3-0.6-0.9-0.5-1.5-0.5c-0.2,0-0.4,0-0.7,0c-0.5-0.1-1-0.3-1.4-0.7c-0.4-0.4-1.1-1-0.7-1.5
					c0.2-0.3,0.5-0.5,0.8-0.6c0.6-0.2,1.2-0.6,1.6-1.1c0.3-0.3,0.5-0.7,0.5-1.2c0-0.1,0.1-0.1,0.1-0.1c0.1,0,0.1,0.1,0.1,0.1
					c0,0.5-0.2,1-0.6,1.3c-0.5,0.5-1.1,0.9-1.7,1.2c-0.2,0.1-0.5,0.3-0.6,0.5c-0.2,0.3,0.2,0.7,0.7,1.1c0.3,0.3,0.8,0.5,1.2,0.6h0.6
					c0.6,0,1.4-0.1,1.8,0.6c0.3,0.4,0.4,1,0.1,1.5C-1836.7,3548.2-1836.7,3548.2-1836.8,3548.2z"/>
				<path fill="#B0A791" d="M-1839,3548.5c-0.3,0-0.6,0-0.8-0.1c-0.7-0.2-1.4-0.7-1.8-1.3c-0.1-0.1-0.2-0.3-0.4-0.4
					c-0.4-0.4-1-0.8-1.6-0.9c-0.6-0.1-1.1-0.6-1.3-1.2c-0.1-0.3,0-0.7,0.2-1c0.1-0.3,0.3-0.5,0.5-0.7c0-0.1,0.1-0.1,0.2,0
					c0.1,0,0.1,0.1,0,0.2c-0.2,0.2-0.3,0.5-0.5,0.7c-0.1,0.3-0.2,0.6-0.1,0.8c0.1,0.6,0.6,0.8,1.1,1c0.6,0.2,1.2,0.5,1.7,1
					c0.1,0.1,0.3,0.3,0.4,0.5c0.4,0.6,0.9,1,1.6,1.2c1,0.1,2,0,3-0.2c0.1,0,0.2,0,0.2,0.1c0,0.1,0,0.2-0.1,0.2l0,0
					C-1837.6,3548.4-1838.3,3548.5-1839,3548.5z"/>
				<path fill="#B0A791" d="M-1849.8,3549.6L-1849.8,3549.6c-0.1,0-0.1-0.1-0.1-0.1c0-0.5-0.2-1-0.5-1.3c-0.1-0.1-0.2-0.1-0.2-0.1
					c-0.1,0-0.2,0-0.2-0.1c0-0.1,0-0.2,0.1-0.2c0.2,0,0.4,0,0.5,0.1c0.4,0.4,0.6,1,0.6,1.6
					C-1849.7,3549.5-1849.8,3549.6-1849.8,3549.6z"/>
				<path fill="#B0A791" d="M-1837.6,3548.3c-0.1,0-0.1,0-0.1-0.1c-0.2-0.7-0.5-1.1-1.2-1.1c-0.1,0-0.1-0.1-0.1-0.1
					c0-0.1,0.1-0.1,0.1-0.1c0,0,0,0,0,0l0,0c0.8,0,1.2,0.4,1.4,1.3C-1837.5,3548.2-1837.5,3548.3-1837.6,3548.3L-1837.6,3548.3z"/>
				<path fill="#B0A791" d="M-1849.8,3549.6c-0.2,0-0.4,0-0.7-0.1c-1.1-0.3-2-1.2-2.3-2.3c-0.2-0.8-0.2-1.7,0.1-2.5
					c0.1-0.3,0.2-0.7,0.2-1c0-0.3,0-0.6,0-0.9c-0.1-0.5,0-1.1,0.2-1.6c0.2-0.5,0.7-0.8,1.3-0.8c0.3,0,0.5-0.1,0.7-0.2
					c0.5-0.2,0.9-0.6,1.1-1.1c0-0.1,0.1-0.1,0.2-0.1c0.1,0,0.1,0.1,0.1,0.2l0,0c-0.3,0.5-0.7,1-1.2,1.2c-0.2,0.1-0.5,0.2-0.8,0.2
					c-0.4,0-0.9,0.3-1.1,0.7c-0.2,0.5-0.3,1-0.2,1.5c0,0.3,0,0.6,0,0.9c-0.1,0.4-0.1,0.7-0.2,1.1c-0.3,0.7-0.3,1.6-0.1,2.3
					c0.3,1,1.1,1.8,2.1,2.1c0.4,0.1,0.8,0.1,1.2,0c0.2,0,0.4-0.1,0.5-0.3c0.1-0.1,0.1-0.2,0.1-0.5c0-0.1,0.1-0.1,0.1-0.1l0,0
					c0.1,0,0.1,0.1,0.1,0.1c0,0.2,0,0.5-0.2,0.7c-0.2,0.2-0.4,0.3-0.7,0.3C-1849.3,3549.6-1849.6,3549.6-1849.8,3549.6z"/>
			</g>
			<path fill="#B0A791" d="M-1844.3,3568.5c0,0-0.1,0-0.1,0c-0.1,0-0.1-0.1,0-0.2c0.2-0.2,0.1-0.6,0-0.9c-0.1-0.3-0.3-0.6-0.5-0.8
				c-0.2-0.1-0.3-0.2-0.5-0.2c-0.3,0-0.6-0.2-0.7-0.5c-0.4-0.7-0.3-1.5,0-2.2c0.2-0.6,0.8-1,1.4-1h0.9c0.4,0,0.8,0,1.2,0
				c1.4-0.1,2.7-0.5,3.8-1.3c0.6-0.5,1.1-1.1,1.5-1.7c0.5-0.7,1-1.4,1.7-1.9c0.1,0,0.2,0,0.2,0.1c0,0.1,0,0.1,0,0.2
				c-0.6,0.5-1.2,1.1-1.6,1.8c-0.4,0.7-1,1.3-1.5,1.8c-1.2,0.8-2.5,1.2-3.9,1.3c-0.4,0-0.8,0.1-1.3,0c-0.3,0-0.6,0-0.8,0
				c-0.5,0.1-0.9,0.4-1.1,0.9c-0.4,0.6-0.4,1.3-0.1,1.9c0.1,0.2,0.3,0.3,0.6,0.3c0.2,0.1,0.4,0.2,0.6,0.3c0.3,0.3,0.5,0.6,0.6,0.9
				c0.2,0.4,0.1,0.8-0.1,1.1C-1844.3,3568.5-1844.3,3568.5-1844.3,3568.5z"/>
			<g transform="translate(15.48 21.015)">
				<path fill="#B0A791" d="M-1832.7,3542.9h-0.3c-2.4-0.2-4.8-0.7-7.1-1.4c-1.8-0.5-3.7-1-5.6-1.3c-0.8-0.1-1.6-0.1-2.4-0.2
					c-1.6,0-3.2-0.3-4.8-0.7c-0.1,0-0.1-0.1-0.1-0.2c0-0.1,0.1-0.1,0.2-0.1l0,0c1.5,0.4,3.1,0.7,4.7,0.7c0.8,0,1.6,0.1,2.4,0.2
					c1.9,0.3,3.8,0.7,5.7,1.3c2.3,0.7,4.7,1.2,7.1,1.4h0.3c0.1,0,0.1,0.1,0.1,0.1C-1832.6,3542.8-1832.6,3542.9-1832.7,3542.9
					L-1832.7,3542.9z"/>
			</g>
			<path d="M-1796.9,3544.1c-0.1,0-0.2-0.1-0.2-0.1h0l-0.1-0.1c-0.1-0.1-0.3,0.2-0.3,0.3c0,0,0,0.1-0.1,0.1c0,0-0.1,0.1-0.1,0.1v0
				c0,0.1,0,0.1,0.1,0.1c0,0,0,0,0,0c0.2,0,0.5-0.3,0.7,0c0.2,0.3-0.2,0.3-0.4,0.4c-0.2,0.2-0.2,0.4-0.2,0.7
				c0.2,0.4,0.3,0.8,0.4,1.2c0.4-0.5,0.6-1.2,0.7-1.8C-1796.3,3544.7-1796.5,3544.4-1796.9,3544.1z"/>
			<path fill="#AF6135" d="M-1803.2,3547c-0.1,0-0.1-0.1-0.1-0.1c-0.1-1.1,0.1-2.1,0.3-3.2c0-0.1,0.1-0.2,0.1-0.4
				c0.2-0.6,0.5-1.5,0.2-2c-0.1-0.1,0-0.2,0-0.2c0.1-0.1,0.2,0,0.2,0c0,0,0,0,0,0c0.5,0.6,0.1,1.5-0.1,2.2c0,0.1-0.1,0.2-0.1,0.4
				c-0.3,1-0.4,2-0.3,3.1C-1803,3547-1803.1,3547-1803.2,3547L-1803.2,3547z"/>
			<path fill="#454444" d="M-1796.3,3544.8c-0.1-0.4-0.4-0.7-0.7-0.8l-0.3-0.1c-0.1,0.1-0.1,0.2-0.2,0.2l0.4,0.1
				c0.3,0.1,0.5,0.3,0.6,0.6c0.1,0.7-0.1,1.4-0.5,1.9l0,0.1c0,0.1,0.1,0.3,0.1,0.4l0.2-0.3
				C-1796.4,3546.3-1796.2,3545.5-1796.3,3544.8z"/>
			<g transform="translate(49.463 10.341)">
				<path fill="#AF6135" d="M-1850.8,3539.3c0.1-0.1,0.2-0.3,0.3-0.4c-0.2,0.1-0.4,0.1-0.6,0.1h-0.3c-0.4,0-0.7,0.2-0.9,0.5
					c-0.2,0.2-0.3,0.5-0.3,0.8v0.2c0,0.2-0.1,0.6-0.2,0.7c-0.1,0-0.1,0.1,0,0.2c0,0,0.1,0.1,0.1,0.1s0,0,0.1,0
					c0.3-0.2,0.3-0.6,0.4-0.8v-0.2c0-0.2,0.1-0.4,0.2-0.6c0.2-0.2,0.5-0.4,0.8-0.4h0.3C-1851,3539.4-1850.9,3539.3-1850.8,3539.3z"
					/>
			</g>
			<path fill="#AF6135" d="M-1799.3,3543.3c-0.1,0-0.3-0.1-0.3-0.1c-0.3-0.1-0.6-0.2-0.8-0.4c-0.2-0.2-0.3-0.4-0.4-0.6
				c-0.1-0.2-0.2-0.4-0.3-0.5c-1-1-2.3-1.7-3.8-2c-0.9-0.3-1.9-0.2-2.8,0.1c-0.4,0.3-0.8,0.7-1.1,1.1c-0.1,0.1-0.2,0.2-0.2,0.3
				c0,0-0.1,0.1-0.1,0.1c0.1,0.1,0.1,0.2,0.1,0.3c0.1-0.1,0.1-0.2,0.2-0.2c0.1-0.1,0.2-0.2,0.3-0.3c0.3-0.4,0.6-0.8,1-1.1
				c0.8-0.3,1.7-0.4,2.6-0.1c1.4,0.2,2.6,0.9,3.6,1.9c0.1,0.1,0.2,0.3,0.2,0.5c0.1,0.3,0.3,0.5,0.5,0.7c0.3,0.2,0.6,0.3,0.9,0.4
				c0.2,0,0.4,0.1,0.5,0.2l0.2,0h0L-1799.3,3543.3z"/>
			<path fill="#454444" d="M-1809.1,3541.7L-1809.1,3541.7c0-0.2,0-0.2-0.1-0.3c-0.1,0.1-0.1,0.1-0.2,0.2c-0.3,0.3-0.6,0.6-0.9,0.9
				c-0.3,0.3-0.6,0.6-0.9,0.9c-0.4,0.5-0.8,1.2-1,1.8c-0.1,0.1-0.1,0.3-0.2,0.5c0,0.1-0.1,0.2-0.1,0.3c-0.1,0.3-0.2,0.6-0.4,0.9l0,0
				l0,0l0,0c0,0.2,0.2,0.1,0.2,0.1l0,0l0,0c0.2-0.3,0.3-0.6,0.4-1c0-0.1,0.1-0.2,0.1-0.3c0.1-0.1,0.1-0.3,0.2-0.5
				c0.2-0.6,0.5-1.2,0.9-1.7c0.3-0.3,0.6-0.6,0.9-0.9c0.3-0.2,0.5-0.5,0.8-0.8l0.1-0.1L-1809.1,3541.7
				C-1809.1,3541.7-1809.1,3541.7-1809.1,3541.7z"/>
			<path fill="#454444" d="M-1813.9,3547.7l-0.3,0.1c-0.4,0.2-0.8,0.4-1.2,0.6c-0.6,0.3-1.3,0.6-2,0.6c-0.4,0.1-0.8,0.2-1.3,0.3
				c-0.2,0.1-0.4,0.1-0.7,0.2c-0.4,0.1-0.7,0.3-1.1,0.4c-0.2,0-0.5,0.1-0.7,0.1l-0.7,0c-0.3,0-0.7,0.1-1,0.1c-0.3,0-0.7,0.1-1.1,0.1
				c-1.7,0-3.3-0.1-5-0.3h-0.1c-0.2,0-0.5,0-0.7-0.1c-0.5,0-1-0.1-1.5-0.1c-0.2,0-0.3-0.1-0.5-0.1c-0.6-0.1-1.1-0.2-1.6-0.4
				c-0.2-0.1-0.5-0.1-0.8-0.2l0,0c-0.2-0.1-0.5-0.1-0.7-0.1c-0.3-0.1-0.6-0.1-0.9-0.2c-0.5-0.1-1-0.1-1.5-0.1
				c-0.9,0-1.8,0.3-2.6,0.8c-0.3,0.2-0.5,0.4-0.8,0.7c-0.2,0.1-0.4,0.3-0.5,0.5c-0.1,0-0.1,0.1,0,0.2c0,0,0.1,0.1,0.1,0.1
				c0,0,0.1,0,0.1,0c0.2-0.1,0.4-0.3,0.5-0.5c0.2-0.2,0.5-0.4,0.8-0.6c0.7-0.5,1.6-0.8,2.5-0.8c0.5,0,0.9,0,1.4,0.1
				c0.4,0,0.8,0.1,1.2,0.2c0.4,0.1,0.8,0.2,1.1,0.3c0.4,0.1,0.9,0.2,1.3,0.3l0,0c0.1,0,0.2,0,0.3,0.1h0.1c0.7,0.1,1.4,0.2,2.1,0.2
				c0.2,0,0.5,0,0.7,0.1h0.1c1.7,0.2,3.4,0.3,5,0.3c0.4,0,0.7-0.1,1.1-0.1c0.3-0.1,0.7-0.1,1-0.1l0.7,0c0.3,0,0.5,0,0.8-0.1
				c0.4-0.1,0.8-0.2,1.2-0.3c0.2-0.1,0.4-0.2,0.7-0.2c0.4-0.1,0.8-0.2,1.2-0.2c0.7-0.1,1.4-0.3,2.1-0.7c0.4-0.2,0.8-0.4,1.2-0.6
				l0.6-0.3C-1813.5,3547.8-1813.6,3547.8-1813.9,3547.7z"/>
			<path fill="#AF6135" d="M-1840.9,3550.5c0-0.1-0.1-0.1-0.2,0l-0.1,0.1c-0.4,0.3-0.8,0.7-1.2,1.1c-0.7,0.7-1.2,1.5-1.4,2.4
				c0,0.2-0.1,0.5-0.1,0.8c-0.1,0.5-0.2,1.1-0.3,1.6c-0.1,0.2-0.1,0.5-0.2,0.7c-0.1,0.3-0.2,0.6-0.3,0.9c0,0.1,0,0.1-0.1,0.2
				s-0.1,0.2-0.1,0.2l-0.1,0.1c0,0.1,0.1,0.2,0.1,0.3l0.2-0.3c0-0.1,0.1-0.2,0.1-0.3c0-0.1,0.1-0.2,0.1-0.2l0,0
				c0.1-0.3,0.2-0.6,0.2-0.8c0.1-0.2,0.1-0.5,0.2-0.7c0.2-0.5,0.3-1.1,0.3-1.6c0-0.2,0.1-0.5,0.1-0.8c0.2-0.9,0.6-1.7,1.3-2.3
				c0.4-0.4,0.8-0.7,1.2-1.1l0.1-0.1C-1840.9,3550.6-1840.9,3550.6-1840.9,3550.5z"/>
		</g>
	</g>
</g>
<g transform="translate(1823.365 -3564.083)">
	<g transform="translate(171.103 25.083)">
		<path fill="#009FC7" d="M-1815,3555.1h-31c-1.1,0-2-0.9-2-2V3541c0-1.1,0.9-2,2-2h31c1.1,0,2,0.9,2,2v12.1
			C-1813,3554.2-1813.9,3555.1-1815,3555.1z M-1840.3,3542.2c-1.7,0-2.6,1.7-2.6,5c0,3.7,0.8,4.4,2.2,4.4c1,0,1.6-0.4,1.6-1
			c0-0.3-0.1-0.6-0.2-0.9c-0.3,0.1-0.7,0.2-1,0.2c-0.8,0-1-0.7-1-2.9c0-2.4,0.5-3.5,1.4-3.5c0.2,0,0.5,0.1,0.7,0.2
			c0.1-0.3,0.2-0.6,0.2-0.9C-1839,3542.6-1839.2,3542.2-1840.3,3542.2L-1840.3,3542.2z M-1821,3550.1c-0.1,0.2-0.2,0.5-0.2,0.8
			c0,0.5,0.5,0.8,1.5,0.8c1.3,0,2.2-0.7,2.2-1.9c0-0.6-0.2-1.2-0.7-1.6l-1-1c-0.3-0.4-0.4-0.5-0.4-0.6c0-0.3,0.2-0.4,0.6-0.4
			c0.4,0,0.8,0.1,1.1,0.3c0.2-0.2,0.3-0.4,0.3-0.7c0-0.2,0-0.8-1.6-0.8c-1.4,0-2.1,0.5-2.1,1.6c0,0.5,0.2,1,0.6,1.4l1.1,1.2
			c0.2,0.2,0.3,0.5,0.3,0.7c0,0.4-0.2,0.5-0.7,0.5C-1820.3,3550.3-1820.7,3550.2-1821,3550.1L-1821,3550.1z M-1823.4,3544.9
			c-1.1,0-2.3,0.4-2.3,3.7c0,2.7,1,3.1,2,3.1c0.9,0,1.8-0.2,1.8-0.8c0-0.3,0-0.7-0.1-1c-0.4,0.2-0.9,0.3-1.4,0.4
			c-0.6,0-0.8-0.3-0.8-1.2c0.8,0,1.5-0.1,2.2-0.2c0.1-0.6,0.2-1.2,0.2-1.8C-1821.8,3545.6-1822.3,3544.9-1823.4,3544.9
			L-1823.4,3544.9z M-1831.9,3544.9c-1.1,0-2.3,0.4-2.3,3.5c0,2.8,0.6,3.2,1.9,3.2c0.8,0,1.4-0.3,1.4-0.7c0-0.3,0-0.5-0.1-0.8
			c-0.3,0.1-0.5,0.2-0.8,0.2c-0.7,0-0.9-0.4-0.9-2c0-2,0.4-2.2,0.9-2.2c0.3,0,0.6,0.1,0.8,0.2c0.1-0.3,0.1-0.5,0.1-0.8
			C-1830.8,3545.1-1831.2,3544.9-1831.9,3544.9L-1831.9,3544.9z M-1836.7,3544.9c-1.5,0-2.2,1.1-2.2,3.4c0,2.9,0.6,3.4,2.1,3.4
			c1.5,0,2.1-1.1,2.1-3.4C-1834.7,3545.4-1835.4,3544.9-1836.7,3544.9L-1836.7,3544.9z M-1828.3,3546.2c0.4,0,0.4,0.4,0.4,0.8v4.5
			h0.2c1.2,0,1.3,0,1.3-0.3v-4.7c0-1.1-0.2-1.7-1.2-1.7c-0.5,0-0.9,0.2-1.2,0.5v-3.4h-0.1c-1.1,0-1.3,0-1.3,0.6v8.9h0.2
			c0.4,0,0.7,0,1.1,0c0.2,0,0.2-0.1,0.2-0.2v-4.9C-1828.7,3546.3-1828.5,3546.2-1828.3,3546.2L-1828.3,3546.2z M-1836.8,3550.4
			c-0.3,0-0.5-0.2-0.5-2.2c0-1.8,0.2-2.1,0.5-2.1c0.4,0,0.5,0.2,0.5,2.1C-1836.3,3550.3-1836.5,3550.4-1836.8,3550.4L-1836.8,3550.4
			z M-1824.2,3547.9L-1824.2,3547.9c0-1.3,0.2-1.8,0.6-1.8c0.3,0,0.4,0.1,0.4,1c0,0.2,0,0.5-0.1,0.7
			C-1823.5,3547.9-1823.9,3547.9-1824.2,3547.9L-1824.2,3547.9z"/>
	</g>
</g>
</svg>
