<?xml version="1.0" encoding="utf-8"?>
<!-- Generator: Adobe Illustrator 21.1.0, SVG Export Plug-In . SVG Version: 6.00 Build 0)  -->
<svg version="1.1" id="Capa_1" xmlns="http://www.w3.org/2000/svg" xmlns:xlink="http://www.w3.org/1999/xlink" x="0px" y="0px"
	 viewBox="0 0 24 24" enable-background="new 0 0 24 24" xml:space="preserve">
<g transform="translate(0 2)">
	<g transform="translate(43 22)">
		<path fill="none" d="M-39-18h16c0.6,0,1,0.4,1,1l0,0c0,0.6-0.4,1-1,1h-16c-0.6,0-1-0.4-1-1l0,0C-40-17.6-39.6-18-39-18z"/>
		<path fill="#88898D" d="M-23-16h-16c-0.6,0-1-0.4-1-1s0.4-1,1-1h16c0.6,0,1,0.4,1,1S-22.4-16-23-16z"/>
	</g>
	<g transform="translate(43 27)">
		<path fill="none" d="M-39-18h16c0.6,0,1,0.4,1,1l0,0c0,0.6-0.4,1-1,1h-16c-0.6,0-1-0.4-1-1l0,0C-40-17.6-39.6-18-39-18z"/>
		<path fill="#88898D" d="M-23-16h-16c-0.6,0-1-0.4-1-1s0.4-1,1-1h16c0.6,0,1,0.4,1,1S-22.4-16-23-16z"/>
	</g>
	<g transform="translate(43 32)">
		<path fill="none" d="M-39-18h16c0.6,0,1,0.4,1,1l0,0c0,0.6-0.4,1-1,1h-16c-0.6,0-1-0.4-1-1l0,0C-40-17.6-39.6-18-39-18z"/>
		<path fill="#88898D" d="M-23-16h-16c-0.6,0-1-0.4-1-1s0.4-1,1-1h16c0.6,0,1,0.4,1,1S-22.4-16-23-16z"/>
	</g>
</g>
</svg>
