<?xml version="1.0" encoding="utf-8"?>
<!-- Generator: Adobe Illustrator 21.1.0, SVG Export Plug-In . SVG Version: 6.00 Build 0)  -->
<svg version="1.1" id="Capa_1" xmlns="http://www.w3.org/2000/svg" xmlns:xlink="http://www.w3.org/1999/xlink" x="0px" y="0px"
	 viewBox="0 0 76 30" enable-background="new 0 0 76 30" xml:space="preserve">
<g transform="translate(2752.825 9395.987)">
	<g transform="translate(2.013 15.191)">
		<path fill="#ABABAE" d="M-2733-9394c-2.8,0-5,2.3-5,5c0,2.8,2.3,5,5,5c2.8,0,5-2.3,5-5l0,0C-2727.9-9391.7-2730.2-9394-2733-9394
			C-2732.9-9394-2733-9394-2733-9394z M-2733-9386c-1.6,0-2.9-1.3-2.9-2.9c0-1.6,1.3-2.9,2.9-2.9s2.9,1.3,2.9,2.9l0,0
			C-2730-9387.3-2731.3-9386-2733-9386L-2733-9386L-2733-9386z"/>
	</g>
	<g transform="translate(32.889 14.968)">
		<path fill="#ABABAE" d="M-2733-9394c-2.8,0-5,2.3-5,5c0,2.8,2.3,5,5,5c2.8,0,5-2.3,5-5C-2727.9-9391.7-2730.2-9394-2733-9394z
			 M-2733-9386c-1.6,0-2.9-1.3-2.9-2.9c0-1.6,1.3-2.9,2.9-2.9s2.9,1.3,2.9,2.9l0,0C-2730-9387.3-2731.3-9386-2733-9386L-2733-9386z"
			/>
	</g>
	<path fill="#ABABAE" d="M-2692.2-9373.2c0-0.1,0-0.2-0.1-0.4c-0.1-0.3-0.3-0.7-0.4-1c0-0.1,0-0.1,0-0.2c0.1-0.3,0.1-0.6,0-0.9v-0.1
		c0-0.8,0-1.6,0.1-2.4l0,0c-0.1-0.8-0.3-1.6-0.7-2.4v-0.1c0-0.3-0.1-0.6-0.3-0.9c-0.1-0.1-0.1-0.2,0-0.3l0.1-0.2
		c0.1-0.1,0-0.2,0-0.3c-0.9-0.9-2-1.6-3.2-2.1c-0.2,0-0.3,0-0.5-0.1c-0.5,0.1-1.1,0-1.6-0.1c-0.1,0-0.1,0-0.1-0.1
		c-3.8-3.7-8.4-6.5-13.4-8.3c-7-1.9-17.4-0.6-18.2-0.5h-0.1c-1.2-0.1-2.4-0.1-3.6,0l0,0c-0.6,0.1-0.4,0.4-0.3,0.5c0,0,0,0.1,0.1,0.1
		l0.7,1.3c0,0.1,0,0.1,0,0.2c-0.3,1.9-1.6,8.1-1.7,8.6c0,0,0,0,0,0.1c-0.3,0.8-0.5,1.7-0.4,2.6c0,0.1,0,0.1-0.1,0.2
		c-2,2.2-2.3,5.5-0.8,8c0.1,0.1,0.2,0.2,0.3,0.1c0.1,0,0.2-0.2,0.2-0.3c-1.2-3,0.3-6.4,3.3-7.5c3-1.2,6.4,0.3,7.5,3.3
		c0.3,0.7,0.4,1.4,0.4,2.1c0,0.9-0.2,1.8-0.6,2.6c0,0.1,0.1,0.2,0.3,0.2l19.5,0.2c0.2,0,0.3-0.1,0.3-0.3l0,0
		c-0.1-0.6-0.1-1.2-0.1-1.8c0-0.3,0-0.6,0-0.8c0-3.2,2.6-5.8,5.8-5.8s5.8,2.6,5.8,5.8c0,0.9-0.2,1.8-0.6,2.6c0,0.1,0,0.2,0.1,0.3
		l0,0c0.1,0.2,0.4,0.3,0.6,0.2c0.5-0.1,1.1-0.3,1.5-0.6c0,0,0.1,0,0.1-0.1c0.1-0.2,0.1-0.3,0-0.5c0-0.1,0-0.2,0-0.2
		C-2692.4-9372.7-2692.3-9372.9-2692.2-9373.2z M-2730.7-9386.5c0,0-0.4,1-2.8,3c-0.1,0.1-0.3,0.1-0.4,0c-0.1-0.1-0.1-0.2-0.1-0.2
		c0.3-1.6,1-5.2,1.3-6.9c0-0.2,0.2-0.2,0.3-0.2s0.2,0.1,0.2,0.1C-2731.5-9389.6-2730.4-9387.2-2730.7-9386.5z M-2712.3-9387.1
		c-0.4,0-0.9,0.1-1,0.6c0,0,0,0,0,0.1c0,0.2,0,0.4,0.1,0.6c0.1,0.1,0,0.3-0.2,0.4h-0.1c-2.2-0.2-10-1.1-13-2.9
		c-0.1,0-0.1-0.1-0.1-0.2l-0.4-3.2c0-0.1,0.1-0.3,0.2-0.3c1.4-0.2,7.9-1.1,12.7,0.4c0.1,0,0.1,0.1,0.2,0.2l1.9,4.1
		c0.1,0.1,0,0.3-0.1,0.4C-2712.2-9387.1-2712.2-9387.1-2712.3-9387.1z M-2702.7-9385.2c-2.1,0-4.1-0.2-6.2-0.5
		c-0.1,0-0.1-0.1-0.2-0.1l-2.7-4.6c-0.1-0.1,0-0.3,0.1-0.4c0.1,0,0.2,0,0.2,0c1.8,0.7,6.3,2.6,8.9,5.1c0.1,0.1,0.1,0.3,0,0.4
		C-2702.5-9385.3-2702.6-9385.2-2702.7-9385.2z M-2694.8-9380.8c0,0.1-0.1,0.2-0.2,0.2c-0.7,0-1.5-0.1-2.1-0.5l0,0
		c-0.6-0.4-1.1-0.8-1.6-1.2c-0.1-0.1-0.1-0.3,0-0.4c0,0,0.1,0,0.1-0.1c1.2-0.5,2.6-0.4,3.7,0.3c0.1,0.1,0.1,0.2,0.1,0.3l-0.1,0.3
		c0,0.1,0,0.1,0,0.2C-2694.8-9381.3-2694.8-9381-2694.8-9380.8L-2694.8-9380.8z"/>
</g>
</svg>
