<?xml version="1.0" encoding="utf-8"?>
<!-- Generator: Adobe Illustrator 21.1.0, SVG Export Plug-In . SVG Version: 6.00 Build 0)  -->
<svg version="1.1" id="Capa_1" xmlns="http://www.w3.org/2000/svg" xmlns:xlink="http://www.w3.org/1999/xlink" x="0px" y="0px"
	 viewBox="0 0 76 30" enable-background="new 0 0 76 30" xml:space="preserve">
<g transform="translate(2969.9 9567.96)">
	<g transform="translate(9.885 16.601)">
		<path fill="#ABABAE" d="M-2963.4-9567c-3.1,0-5.6,2.5-5.6,5.6s2.5,5.6,5.6,5.6s5.6-2.5,5.6-5.6
			C-2957.7-9564.5-2960.3-9567-2963.4-9567z M-2963.4-9558.1c-1.8,0-3.3-1.5-3.3-3.3s1.5-3.3,3.3-3.3s3.3,1.5,3.3,3.3
			C-2960.1-9559.6-2961.6-9558.1-2963.4-9558.1L-2963.4-9558.1z"/>
	</g>
	<g transform="translate(57.058 16.724)">
		<path fill="#ABABAE" d="M-2963.4-9567c-3.1,0-5.6,2.5-5.6,5.6s2.5,5.6,5.6,5.6s5.6-2.5,5.6-5.6l0,0
			C-2957.7-9564.5-2960.3-9567-2963.4-9567z M-2963.4-9558.1c-1.8,0-3.3-1.5-3.3-3.3s1.5-3.3,3.3-3.3s3.3,1.5,3.3,3.3l0,0
			C-2960.1-9559.6-2961.6-9558.1-2963.4-9558.1L-2963.4-9558.1L-2963.4-9558.1z"/>
	</g>
	<path fill="none" d="M-2962.5-9556.8l-3.1-0.3c-0.7,0-0.9-0.4-0.9-0.8c0-0.1-0.1-0.2-0.2-0.2c0,0-0.1,0-0.1,0.1
		c-0.7,0.7-0.9,1.7-0.5,2.6c0.1,0.1,0.2,0.2,0.3,0.3c0.4,0.2,0.8,0.3,1.2,0.3c0.1,0,0.6,0,0.6,0h1.7c0.1,0,0.2-0.1,0.3-0.2l1-1.1
		C-2961.6-9556.8-2962.5-9556.8-2962.5-9556.8z"/>
	<path fill="none" d="M-2900.1-9554.4c-0.9-0.4-1.9-0.5-2.9-0.5c-0.1,0-0.2,0.2-0.1,0.2c0.6,0.6,1.3,1,2.1,1.3l1.2,0.5
		c0.2,0.1,0.3,0.1,0.4,0c0.1-0.2,0.3-0.7-0.5-1.4C-2900-9554.3-2900.1-9554.3-2900.1-9554.4z"/>
	<path fill="#ABABAE" d="M-2895.7-9549.4L-2895.7-9549.4c-0.3-1.4-1.2-2.5-2.4-3.2c-0.1,0-0.1-0.1-0.1-0.2c0.2-0.6,0-1.3-0.6-1.6
		c-2.6-1.6-5.6-2.4-8.6-2.6c0,0-0.1,0-0.1-0.1c-0.3-0.5-0.9-0.7-1.5-0.7l0,0c-3.7-2.5-7.7-4.6-11.9-6.3c-2.4-1.1-11-1.7-11.7-1.7
		c-0.2,0-0.3,0-0.5-0.1c-1.1-0.5-2.3-0.9-3.5-1c0,0-0.8-0.1-0.9-0.1c-3.9-0.2-18.9,0-19.5,0l-0.7,0.1c-0.9,0.1-1.8,0.6-2.4,1.2h-0.1
		c-1.6,0.1-2.4,0.1-2.9,0.2c-0.5,0.1-0.8,0.5-0.7,0.9c0,0.1,0,0.2,0.1,0.3l0.2,0.4c0,0.1,0,0.2-0.1,0.2c-1.6,1.4-3,3-4,4.9l0,0
		c-1,1.2-1.2,2.9-0.5,4.3l0,0c0.5,2.4,0,2.9-0.1,3l0,0c-0.4,0.2-0.8,0.6-0.9,1.1l0,0l0.2,3.3l0,0c0.2,0.8,0.6,1.5,1.3,2
		c0.1,0,0.2,0.1,0.3,0.1c2.1,0.5,4.2,1,6.3,1.3c0-0.2,0-0.5,0-0.7c0-4.1,3.3-7.4,7.4-7.4c4.1,0,7.4,3.3,7.4,7.4c0,0.4,0,0.7-0.1,1
		c1.3,0,3.4,0,3.4,0c0.8,0,24.7-0.1,25.1-0.1h0.1c1.8,0,3.6,0,4.2,0c-0.1-0.4-0.1-0.8-0.1-1.2c0-3.9,3.2-7.1,7.1-7.1
		c3.9,0,7.1,3.2,7.1,7.1c0,0.5-0.1,1-0.2,1.5c0.2,0.1,0.3,0.1,0.4,0.1c0.1,0,0.3,0.1,0.5,0.1c0.4,0,0.7-0.2,0.9-0.5c0,0,0,0,0.1-0.1
		c0.6-0.2,1.2-0.6,1.5-1.2C-2895.5-9545.5-2895.7-9549.3-2895.7-9549.4z M-2962.2-9556.1l-1,1.1c-0.1,0.1-0.2,0.2-0.3,0.2h-1.7
		c0,0-0.5,0-0.6,0c-0.4,0-0.8-0.1-1.2-0.3c-0.1-0.1-0.2-0.2-0.3-0.3c-0.4-0.9-0.2-1.9,0.5-2.6c0.1-0.1,0.2-0.1,0.2,0l0.1,0.1
		c0,0.3,0.2,0.8,0.9,0.8l3.1,0.3C-2962.5-9556.8-2961.6-9556.8-2962.2-9556.1z M-2947.4-9564.2l-1.9,6.2c-0.1,0.2-0.2,0.3-0.4,0.3
		l-11.5-0.3c0,0-0.7,0-0.9,0c-0.7-0.1-1.7-0.3-0.9-1.7l0.4-0.5c0.4-0.5,1.9-2.2,3-3.2c0.4-0.4,0.8-0.6,1.3-0.7
		c0.4-0.1,0.8-0.2,1.2-0.2h0.1l9.6-0.1C-2947.4-9564.5-2947.3-9564.4-2947.4-9564.2C-2947.3-9564.2-2947.4-9564.2-2947.4-9564.2
		L-2947.4-9564.2z M-2931.7-9557l-15-0.5c-0.1,0-0.2-0.1-0.2-0.2l0,0l1.3-6.5c0-0.1,0.1-0.2,0.1-0.2l0,0l13.6,0.3
		c0.1,0,0.2,0.1,0.2,0.2l0.1,6.8C-2931.5-9557.1-2931.6-9557-2931.7-9557C-2931.6-9557-2931.6-9557-2931.7-9557L-2931.7-9557z
		 M-2916.3-9558.6c-0.3,0.2-0.6,0.6-0.6,1c-0.1,0.3,0,0.6,0.1,0.9c0.1,0.2,0.3,0.4,0.4,0.5c0.1,0.1,0,0.2-0.2,0.2l-12.2-0.7
		c-0.1,0-0.1-0.1-0.2-0.1l-0.6-6.8c0-0.1,0-0.2,0.1-0.2l0,0c2.4,0.1,4.7,0.4,7.1,0.9c0.1,0.1,0.3,0.1,0.4,0.1l5.4,2.5l0.1,0.1
		l0.2,1.2C-2916.3-9558.8-2916.3-9558.7-2916.3-9558.6z M-2910.2-9555.9c0,0.1-0.1,0.1-0.1,0.1l-3.2-0.1c-0.1,0-0.2,0-0.2-0.1
		l-0.7-3.4c0-0.1,0-0.2,0.1-0.2h0.1l3.5,2.7l0,0C-2910.7-9556.8-2910.1-9556.3-2910.2-9555.9L-2910.2-9555.9z M-2899.5-9552.9
		c0,0.1-0.2,0.1-0.4,0l-1.2-0.5c-0.8-0.3-1.5-0.7-2.1-1.3c-0.1-0.1,0-0.2,0.1-0.2c1,0,2,0.1,2.9,0.5l0.2,0.1
		C-2899.2-9553.5-2899.3-9553.1-2899.5-9552.9L-2899.5-9552.9z"/>
</g>
</svg>
