<?xml version="1.0" encoding="utf-8"?>
<!-- Generator: Adobe Illustrator 21.1.0, SVG Export Plug-In . SVG Version: 6.00 Build 0)  -->
<svg version="1.1" id="Capa_1" xmlns="http://www.w3.org/2000/svg" xmlns:xlink="http://www.w3.org/1999/xlink" x="0px" y="0px"
	 viewBox="0 0 35 35" enable-background="new 0 0 35 35" xml:space="preserve">
<g id="Group_8585" transform="translate(-892.672 -1851.971)">
	<g id="Group_3998" transform="translate(166.672 925.971)">
		<path id="Path_2593" opacity="0.7" fill="#88898D" enable-background="new    " d="M735,952.5c-0.4,0-0.8-0.2-1-0.5
			c-1.5-2.1-2.4-4.7-2.4-7.3c-0.1-6.7,5.2-12.1,11.9-12.2c6.7,0.1,12,5.5,11.9,12.2c0,2.6-0.8,5.2-2.3,7.3c-0.4,0.6-1.2,0.7-1.7,0.3
			c0,0,0,0,0,0c-0.6-0.4-0.7-1.2-0.3-1.8c1.2-1.7,1.9-3.7,1.9-5.7c0.1-5.3-4.1-9.6-9.4-9.6c-5.2,0.1-9.5,4.4-9.4,9.6
			c0,2.1,0.6,4.1,1.9,5.8c0.4,0.6,0.3,1.4-0.2,1.8C735.5,952.4,735.2,952.5,735,952.5z"/>
		<path id="Path_2594" opacity="0.7" fill="#88898D" enable-background="new    " d="M744.2,945.5c-0.3,0-0.6,0-0.9,0.1l-2.9-4.9
			c-0.2-0.4-0.7-0.5-1-0.3c0,0,0,0,0,0c-0.4,0.2-0.5,0.7-0.2,1.1l2.9,4.9c-0.6,0.6-0.9,1.4-0.9,2.2c0,1.7,1.5,3.1,3.2,3
			s3.1-1.5,3-3.2C747.2,946.9,745.9,945.5,744.2,945.5L744.2,945.5z"/>
	</g>
</g>
</svg>
