<?xml version="1.0" encoding="utf-8"?>
<!-- Generator: Adobe Illustrator 21.1.0, SVG Export Plug-In . SVG Version: 6.00 Build 0)  -->
<svg version="1.1" id="Capa_1" xmlns="http://www.w3.org/2000/svg" xmlns:xlink="http://www.w3.org/1999/xlink" x="0px" y="0px"
	 viewBox="0 0 35 35" enable-background="new 0 0 35 35" xml:space="preserve">
<path id="Path_5531" opacity="0.7" fill="#88898D" enable-background="new    " d="M27.1,7.5H15.5c-0.4,0-0.8,0.2-1.1,0.5l-6.6,6.6
	c-0.3,0.3-0.4,0.7-0.5,1.1l0,11.2c0,0.4,0.3,0.6,0.6,0.6h19.1c0.4,0,0.6-0.3,0.6-0.6V8.1C27.7,7.8,27.4,7.5,27.1,7.5z M24.9,20.7
	c0,0.3-0.2,0.5-0.5,0.6h-3.1c-0.3,0-0.5-0.3-0.5-0.6c0,0,0,0,0,0v-0.6c0-0.3,0.2-0.5,0.5-0.6h3.1c0.3,0,0.5,0.3,0.5,0.6c0,0,0,0,0,0
	L24.9,20.7z M24.9,16.4c0,0.4-0.3,0.6-0.6,0.6H10.8c-0.4,0-0.4-0.2-0.2-0.5l5.7-5.7c0.3-0.3,0.7-0.4,1.1-0.5h6.9
	c0.4,0,0.6,0.3,0.6,0.6L24.9,16.4L24.9,16.4z"/>
</svg>
