<?xml version="1.0" encoding="utf-8"?>
<!-- Generator: Adobe Illustrator 21.1.0, SVG Export Plug-In . SVG Version: 6.00 Build 0)  -->
<svg version="1.1" id="Capa_1" xmlns="http://www.w3.org/2000/svg" xmlns:xlink="http://www.w3.org/1999/xlink" x="0px" y="0px"
	 viewBox="0 0 24 24" enable-background="new 0 0 24 24" xml:space="preserve">
<path fill="#88898D" d="M20,18.7c0-0.1-0.1-0.2-0.2-0.3l-2.5-2.5l-2.5-2.5c0,0-0.1-0.1-0.2-0.1c0.8-1.1,1.3-2.4,1.3-3.9
	C16,5.9,13.1,3,9.5,3S3,5.9,3,9.5S5.9,16,9.5,16c1.4,0,2.8-0.5,3.9-1.3c0,0,0,0,0,0c0,0,0.1,0.1,0.1,0.1l0.9,0.9l4.1,4.1
	c0.4,0.4,1,0.4,1.4,0C20.1,19.5,20.2,19.1,20,18.7z M9.5,14C7,14,5,12,5,9.5C5,7,7,5,9.5,5S14,7,14,9.5C14,12,12,14,9.5,14z"/>
</svg>
