<?xml version="1.0" encoding="utf-8"?>
<!-- Generator: Adobe Illustrator 21.1.0, SVG Export Plug-In . SVG Version: 6.00 Build 0)  -->
<svg version="1.1" id="Group_9060" xmlns="http://www.w3.org/2000/svg" xmlns:xlink="http://www.w3.org/1999/xlink" x="0px" y="0px"
	 viewBox="0 0 46 46" enable-background="new 0 0 46 46" xml:space="preserve">
<g id="Group_8729" transform="translate(123 -589)">
	<path fill="#009FC7" d="M-100,633c-11.6,0-21-9.4-21-21c0-11.6,9.4-21,21-21c11.6,0,21,9.4,21,21C-79,623.6-88.4,633-100,633z
		 M-100,593c-10.5,0-19,8.5-19,19s8.5,19,19,19s19-8.5,19-19S-89.5,593-100,593z"/>
	<path id="Path_5555" opacity="0.1" enable-background="new    " d="M-97.3,598.4l2.2,2.2l-2.9-0.1l0.2-2.2L-97.3,598.4z"/>
	<g id="Group_8721" transform="translate(7.808 6.1)">
		<path id="Path_5557" fill="#009FC7" d="M-108.8,614.3c-0.3,0-0.5-0.3-0.5-0.6l0,0l3.1-21.2c0.1-0.3,0.4-0.5,0.7-0.4
			c0.3,0.1,0.5,0.3,0.4,0.6l-3.1,21.2C-108.2,614.2-108.5,614.4-108.8,614.3L-108.8,614.3z"/>
		<path id="Path_5558" fill="#009FC7" d="M-113.5,613.7c0.3,0,0.5,0.3,0.5,0.6l0,0l-0.2,1c-0.1,1,0.5,1.9,1.5,2.1
			c1,0.1,1.9-0.5,2.1-1.5l0,0l0.3-1.9l1.1,0.2l-0.3,1.9c-0.2,1.6-1.7,2.7-3.4,2.5c-1.6-0.2-2.7-1.7-2.5-3.3l0.2-1
			C-114.2,613.8-113.9,613.6-113.5,613.7z"/>
		<g id="Group_8720" transform="translate(0 1.265)">
			<path id="Path_5559" fill="#009FC7" d="M-94.5,602.4c0-0.3-0.1-0.7-0.1-1c-0.2-1.1-0.6-2.2-1.3-3.2c-0.1-0.2-0.2-0.3-0.3-0.4
				c-0.2-0.3-0.4-0.5-0.7-0.8c-0.3-0.4-0.7-0.8-1.1-1.2c-2.2-2-5-3.2-8-3.6c1.3,0.2,2.3,1.5,2.9,3.6c0.1,0.4,0.2,0.9,0.3,1.3
				c0.1,0.3,0.1,0.6,0.2,1c0,0.2,0,0.3,0.1,0.5c0.2,1.3,0.2,2.6,0.2,3.9c0,0.2,0,0.3,0,0.5c0.1,0,0.3-0.1,0.4-0.2
				c1.4-0.5,2.9-0.7,4.4-0.5c1.1,0.1,2.1,0.5,3,1C-94.5,603-94.5,602.7-94.5,602.4z"/>
			<path id="Path_5560" fill="#009FC7" d="M-111.1,597.3c0.3-0.8,0.7-1.5,1.1-2.2c1.2-2,2.7-3.2,4-3c-3.1-0.5-6.3,0-9.1,1.5
				c-0.8,0.4-1.5,0.9-2.2,1.5c-0.9,0.8-1.6,1.7-2.2,2.7c-0.1,0.3-0.3,0.6-0.4,0.9c-0.1,0.3-0.2,0.6-0.3,0.9c1-0.3,2.1-0.3,3.2-0.1
				c1.5,0.3,2.9,0.8,4.1,1.7c0.1,0.1,0.2,0.2,0.3,0.3l0.1-0.5C-112,599.8-111.6,598.5-111.1,597.3z"/>
			<path id="Path_5561" fill="#009FC7" d="M-102.5,598.6c0-0.2,0-0.3-0.1-0.5c0-0.3-0.1-0.7-0.2-1c-0.1-0.5-0.2-0.9-0.3-1.3
				c-0.6-2.1-1.6-3.4-2.9-3.6c-1.3-0.2-2.8,1-4,3c-0.4,0.7-0.8,1.4-1.1,2.2c-0.5,1.2-0.9,2.5-1.2,3.7l-0.1,0.5
				c0.9-0.2,1.7-0.3,2.6-0.4c0.9-0.1,1.7,0,2.6,0.1c1,0.1,1.9,0.4,2.8,0.7c0.7,0.3,1.4,0.7,2.1,1c0-0.2,0-0.3,0-0.5
				C-102.3,601.1-102.3,599.8-102.5,598.6z"/>
		</g>
	</g>
</g>
<rect id="Rectangle_7829" fill="none" width="46" height="46"/>
</svg>
