<?xml version="1.0" encoding="utf-8"?>
<!-- Generator: Adobe Illustrator 21.1.0, SVG Export Plug-In . SVG Version: 6.00 Build 0)  -->
<svg version="1.1" id="Capa_1" xmlns="http://www.w3.org/2000/svg" xmlns:xlink="http://www.w3.org/1999/xlink" x="0px" y="0px"
	 viewBox="0 0 20 24" enable-background="new 0 0 20 24" xml:space="preserve">
<path fill="#FFFFFF" d="M17,8c-0.7,0-1.4,0.3-1.9,0.7L6,3.4C6,3.3,6,3.1,6,3c0-1.7-1.3-3-3-3S0,1.3,0,3s1.3,3,3,3
	c1.2,0,2.2-0.7,2.7-1.6l8.8,5.1C14.2,9.9,14,10.5,14,11c0,0.5,0.1,1,0.3,1.4l-9,6.8C4.8,18.4,3.9,18,3,18c-1.7,0-3,1.3-3,3
	s1.3,3,3,3s3-1.3,3-3c0-0.4-0.1-0.7-0.2-1l9.1-6.8c0.5,0.5,1.3,0.8,2.1,0.8c1.7,0,3-1.3,3-3S18.7,8,17,8z"/>
</svg>
