<?xml version="1.0" encoding="utf-8"?>
<!-- Generator: Adobe Illustrator 21.1.0, SVG Export Plug-In . SVG Version: 6.00 Build 0)  -->
<svg version="1.1" id="Group_9570" xmlns="http://www.w3.org/2000/svg" xmlns:xlink="http://www.w3.org/1999/xlink" x="0px" y="0px"
	 viewBox="0 0 214 150" enable-background="new 0 0 214 150" xml:space="preserve">
<path fill="#88888C" d="M189.8,132.9c0-2.2-1.8-4-4-4s-4,1.8-4,4c0,2,1.4,3.6,3.3,3.9v10.4H5.3v-10.4c2.1-0.2,3.7-1.9,3.7-4
	c0-2.2-1.8-4-4-4s-4,1.8-4,4c0,2,1.4,3.6,3.3,3.9v10.9l0,0v0.5h181.8v-0.5l0,0v-10.9C188.1,136.7,189.8,135,189.8,132.9z"/>
<path fill="#88888C" d="M212,26.8h-0.1v-0.5H201c-0.2-2-1.9-3.5-3.9-3.5c-2.2,0-4,1.8-4,4s1.8,4,4,4c2,0,3.7-1.5,3.9-3.5h10v95.8
	h-10c-0.2-2-1.9-3.5-3.9-3.5c-2.2,0-4,1.8-4,4s1.8,4,4,4c2,0,3.7-1.5,3.9-3.5h10.9v-0.5h0.1V26.8z"/>
<g>
	<path id="Path_5908_1_" opacity="0.6" fill="#88888C" enable-background="new    " d="M124.5,64.6c-1.7,0-4.5,0-9.2-0.2
		c-6.8-0.2-15.7-0.4-24.3-0.7C79.1,63.3,67.8,63,63.2,63c-3.1,0-4.9-0.7-5.2-4c-0.5-6.1,2.5-17.5,5.8-24.3c0.4-0.9,1.5-3.1,3.5-3.1
		h0c1.9,0,4.9,0,8.3,0c12.6,0,31.6-0.1,38.1,2.1c7,2.4,12.1,8.4,17,14.2c2.2,2.6,4.5,5.2,6.9,7.6l1.3,1.2l-1.8-0.1
		c-3.9-0.3-8.6,0.1-10,1.6c-0.3,0.3-0.5,0.7-0.4,1.1c0.1,1.3,0.4,2.6,0.8,3.9c0.1,0.1,0.1,0.3,0.1,0.4l0,0l0.1,0.3l-0.2,0.3
		C127.2,64.5,127.1,64.6,124.5,64.6z M67.2,32.9c-1.1,0-1.8,1.2-2.3,2.4c-3.8,8.1-6,18.9-5.6,23.6c0.2,2.2,1,2.8,4,2.8
		c4.6,0,16,0.4,27.9,0.7c14.1,0.4,31.3,1,35,0.9c-0.4-1.3-0.6-2.5-0.7-3.9c-0.1-0.8,0.3-1.6,0.8-2.1c1.9-1.9,6.6-2.1,9.3-2
		c-2-2-3.9-4.3-5.8-6.5c-4.8-5.7-9.8-11.6-16.4-13.8c-6.3-2.1-26-2-37.7-2C72.1,32.9,69.1,32.9,67.2,32.9L67.2,32.9z"/>
	<g id="Group_9568_1_">
		<path id="Path_5907_1_" fill="#88888C" d="M119,117.6L119,117.6l-45.6-0.1h0c-0.4,0-0.8-0.1-1.2-0.1c-3.8-0.4-4.9-0.8-4.3-6.5
			c0.2-1.9,0.2-3.9,0.2-5.6C68,91.5,56.8,80.3,43,80.3s-24.9,11.2-24.9,24.9c0,1.3,0,2.5,0,3.7c0,0.7,0.1,1.3,0.1,1.8
			c0.1,1.7,0.2,2.8-0.6,3.5c-0.8,0.7-2.3,0.6-5.3,0.1l0,0C8.7,113.8,7,107.8,7,96.2c0-0.6,0-1.1,0-1.5c-0.1-2.6,0-3.8,3.7-4.3
			c0.5-0.1,0.9-0.1,1.3-0.1c0.2,0,0.4,0,0.6,0c0-0.5,0.1-1,0.1-1.5c0.4-8.8,1.6-17.5,3.3-26.1c1.9-8.7,8.3-18.2,13-25.1
			c1.3-2,2.6-3.9,3.5-5.4c0.9-1.2,1.1-2.8,0.7-4.2c-0.2-0.5-0.2-1,0.1-1.4c0.2-0.3,0.6-0.5,1-0.4c9.9-0.8,22.9-0.6,35.4-0.4
			c9,0.1,18.4,0.3,26.2,0c7.6-0.2,15.3,0.8,21,3l0.8,0.3c2.8,0.9,5.6,2.2,8.1,3.9c9.8,6.2,20.1,14.5,28.4,21.2
			c4.7,3.8,8.7,7.1,11.5,9c4,2.7,12.9,11.7,14.7,15.7c2.4,5.2,1.3,10.7,0.9,12.8c0,0.1,0,0.1,0,0.2c2.7,0.7,2.6,4.1,2.6,5.4
			c0,1,0,1.9,0,2.7c0.2,3-0.1,6-0.9,8.9c-0.3,1.2,0.6,2.3,1.3,3.1c0.5,0.6,1,1.1,0.7,1.7c-0.3,0.6-1,0.7-1.7,0.7l-6.2,0.2l-0.1,0
			c-0.2,0-0.4-0.1-0.6-0.1c-2.7-0.5-3.8-0.9-3.5-4.9c0.1-1.5,0.1-3,0.1-4.2c0-13.8-11.1-24.9-24.9-24.9c-13.8,0-24.9,11.1-24.9,24.9
			c0,0,0,0,0,0c0,1.9,0,3.8,0.1,5.7c0.1,1.2,0.2,2.4,0.5,3.5c0.2,1.1,0.3,1.8-0.1,2.3c-0.5,0.6-1.3,0.6-3.3,0.7
			C120,117.6,119.5,117.6,119,117.6L119,117.6z M73.4,116.2l45.5,0.1c0.5,0,0.9,0,1.3-0.1c0.8,0,1.6-0.1,2.3-0.2
			c0-0.4-0.1-0.9-0.1-1.3c-0.2-1.2-0.4-2.4-0.5-3.7c-0.1-1.9-0.1-3.9-0.1-5.8c0-14.5,11.7-26.2,26.2-26.2
			c14.5,0,26.2,11.7,26.2,26.2c0,1.2,0,2.7-0.1,4.2c-0.1,1.6,0,2.5,0.3,2.9c0.3,0.4,1,0.5,2.1,0.7c0.2,0,0.4,0.1,0.6,0.1l6-0.2
			c0.1,0,0.2,0,0.3,0c-0.1-0.1-0.2-0.2-0.2-0.3c-0.8-0.9-2.1-2.3-1.5-4.3c0.7-2.8,1-5.7,0.8-8.6c0-0.9,0-1.8,0-2.8
			c0-3.6-1-4.2-2.1-4.2l-0.4,0l-0.1-0.4c-0.1-0.3-0.1-0.5,0.1-1.2c0.4-2,1.4-7.2-0.8-12c-1.7-3.8-10.5-12.6-14.3-15.2
			c-2.8-1.9-6.9-5.2-11.6-9c-8.3-6.7-18.6-15-28.3-21.1c-2.5-1.6-5.1-2.8-7.9-3.7l-0.8-0.3c-5.5-2-13.1-3.1-20.5-2.9
			c-7.9,0.3-17.3,0.1-26.3,0c-12.5-0.2-25.3-0.3-35.2,0.4c0,0.1,0,0.2,0.1,0.3c0.5,1.8,0.2,3.7-0.9,5.2c-1,1.6-2.2,3.5-3.6,5.5
			C25.6,45.2,19.3,54.6,17.4,63c-1.8,8.5-2.9,17.2-3.3,25.8c0,0.7-0.1,1.3-0.1,1.9c-0.1,0.8-1,0.9-1.9,0.9c-0.4,0-0.8,0-1.2,0.1
			c-2.7,0.4-2.7,0.8-2.6,3c0,0.5,0,1,0,1.6c0,6,0.5,16.3,4.3,17c1.9,0.3,3.7,0.6,4.2,0.2c0.3-0.3,0.2-1.2,0.1-2.4
			c0-0.5-0.1-1.2-0.1-1.9c0-1.2,0-2.4,0-3.7C16.8,90.8,28.6,79,43,79s26.2,11.7,26.2,26.2c0,1.9-0.1,3.8-0.2,5.7
			c-0.3,2.5-0.2,3.8,0.3,4.3c0.4,0.5,1.4,0.6,2.9,0.8C72.6,116.1,73,116.2,73.4,116.2L73.4,116.2z"/>
		<path id="Path_5909_1_" opacity="0.6" fill="#88888C" enable-background="new    " d="M43.1,125.6c-11.2,0-20.3-9.1-20.3-20.3
			c0-11.2,9.1-20.3,20.3-20.3s20.3,9.1,20.3,20.3C63.4,116.5,54.3,125.6,43.1,125.6z M43.1,86.2c-10.5,0-19,8.5-19,19s8.5,19,19,19
			c10.5,0,19-8.5,19-19C62.1,94.7,53.6,86.2,43.1,86.2z"/>
		<path id="Path_5910_1_" opacity="0.6" fill="#88888C" enable-background="new    " d="M148.1,125.6c-11.2,0-20.3-9.1-20.3-20.3
			S136.9,85,148.1,85c11.2,0,20.3,9.1,20.3,20.3C168.4,116.5,159.3,125.6,148.1,125.6z M148.1,86.2c-10.5,0-19,8.5-19,19
			c0,10.5,8.5,19,19,19c10.5,0,19-8.5,19-19C167.1,94.7,158.6,86.2,148.1,86.2z"/>
	</g>
	<path id="Path_5911_1_" opacity="0.6" fill="#88888C" enable-background="new    " d="M36,61.8c-2.3,0-5.8-0.1-7.2-0.2
		c-1.9-0.2-3.2-0.5-3.8-1.4c-0.6-1-0.3-2.4,0.4-4.4c2.1-5.5,5.2-10.6,9-15.1c3.5-4.2,8.9-9.1,14.7-9.2h0c0.8,0,2,0,3,0
		c1.1,0,2.1,0,3.2,0c0.7,0,1.3,0.3,1.7,0.9c0.4,0.7,0.1,1.5-0.3,2.6c-0.2,0.4-0.4,0.9-0.5,1.5c-0.8,2.5-1.5,5.1-2.2,7.6
		c-1.7,6.2-3.3,12.1-5.3,14.6c-2.1,2.7-3.3,2.7-6.8,2.8c-1,0-2.3,0.1-3.9,0.2C37.8,61.8,37,61.8,36,61.8z M49.1,32.8
		C39.7,32.8,29.5,48,26.6,56.2c-0.5,1.3-0.9,2.7-0.5,3.3c0.3,0.4,1.2,0.7,2.9,0.9c1.9,0.2,7.9,0.2,9.1,0.1c1.6-0.1,2.9-0.1,3.9-0.2
		c3.5-0.1,4.2-0.1,5.9-2.3c1.8-2.3,3.4-8.1,5-14.1c0.7-2.6,1.4-5.2,2.2-7.7c0.2-0.6,0.4-1.1,0.6-1.6c0.2-0.5,0.4-1,0.4-1.5
		c0,0-0.1-0.2-0.8-0.3c-1-0.1-2-0.1-3,0C51.1,32.8,50,32.8,49.1,32.8z"/>
</g>
<path fill="#88888C" d="M22.1,58.7V2.3h-1v56.3c-2,0.2-3.5,1.9-3.5,3.9c0,2.2,1.8,4,4,4s4-1.8,4-4C25.6,60.6,24.1,58.9,22.1,58.7z"
	/>
</svg>
