<?xml version="1.0" encoding="utf-8"?>
<!-- Generator: Adobe Illustrator 21.1.0, SVG Export Plug-In . SVG Version: 6.00 Build 0)  -->
<svg version="1.1" id="silueta_cabrio" xmlns="http://www.w3.org/2000/svg" xmlns:xlink="http://www.w3.org/1999/xlink" x="0px"
	 y="0px" viewBox="0 0 294 150" enable-background="new 0 0 294 150" xml:space="preserve">
<path id="Path_5912" fill="#88888C" d="M190.1,111H87.6l-0.1,0c-4-0.8-6.6-2.4-6-7.8c0.2-2,0.3-4,0.3-6c0-15.3-12.4-27.8-27.8-27.8
	S26.2,81.8,26.2,97.1c0,0,0,0,0,0c0,0.7,0,1.3,0,2c0,1,0,1.9,0,2.9c0,2.3,0.1,3.8-0.9,4.7c-0.9,0.8-2.3,0.8-5,0.5
	c-2.2-0.3-4.1-0.5-5.8-0.8c-3.7-0.7-6-1.4-7-2.4c-2.6-2.4-3.2-5.9-3.2-10.7c0-0.7,0-1.4-0.1-2c-0.2-3.1-0.3-6,3-7.4l0.2-0.1
	c0.7-0.2,1.4-0.6,2-1c0.3-5,0.4-6.2,0.8-9c0.1-1.3,0.3-2.8,0.6-5.2c0.4-3.5,3.2-6.3,7.7-7.7c17.6-5.5,32.2-7,53.1-7.8
	c2.6-0.1,4,1,5.5,2.3c1,0.9,2.2,1.7,3.4,2.2c2.7,1.1,3.3,1,3.4,0.9c0,0,0.2-0.1,0.1-1.1l-0.1-5.1c0-1,0.7-1.9,1.8-2l3.9-0.3
	c1,0,1.9,0.7,2.1,1.8l0.8,4.4c0.5,2.9,0.9,3.6,3.4,3.9c12.8,1.5,31.5,3.5,45.7,2.8c0.6,0,1.1,0,1.5-0.1c0.2,0,0.5,0,0.7,0
	c0-0.1-0.1-0.2-0.1-0.3c-0.1-0.4-0.3-0.9-0.5-1.6c-0.4-1.1-0.6-2.3-0.7-3.5c-0.1-1,0.3-2,1-2.7c1.7-1.7,5.2-2.1,8.2-2.1
	c-8.7-6-17.9-11.4-27.4-16c-0.2-0.1-0.4-0.2-0.5-0.3c-0.7-0.3-1.4-0.6-1.6-1.3c-0.1-0.6,0-1.3,0.5-1.8l0.9-1.4
	c1.1-1.7,2.7-1.1,3.6-0.8c14.2,5.2,27.1,12.4,39.6,19.2c2.4,1.4,4.8,2.6,7.1,3.9c2.6,0.2,5.5,0.3,8.6,0.5
	c10.4,0.6,23.4,1.3,35.8,2.5c14.7,1.5,25.7,3.6,33.6,6.2c6.6,2.2,9.3,6.7,11.6,11.1c1,2,1.8,3.3,2.5,4.4c0.6,0.9,1.1,1.9,1.6,2.9
	c1,0.1,1.9,0.7,2.2,1.7c0.1,0.1,0.1,0.2,0.1,0.3c0.3,0.5,0.6,1.7,0.5,6.2c-0.1,2-0.2,5-0.4,7.1c-0.4,4.1-1,6.8-3.5,8.6
	c-1.5,1.1-3.4,1.8-5.3,1.9l-6.7,0.2H254c-0.4-0.1-0.8-0.1-1.2-0.2c-3.6-0.5-4.3-1-3.9-6.1c0.1-1.4,0.2-2.9,0.2-4.4
	c0.1-15.3-12.3-27.8-27.6-27.9c-15.3-0.1-27.8,12.3-27.9,27.6c0,0.1,0,0.2,0,0.3c0,2.9,0.2,5.8,0.8,8.6c0.6,2.4,0.7,3.6,0.1,4.4
	c-0.6,0.7-1.5,0.8-2.9,0.8C191.2,110.9,190.7,110.9,190.1,111L190.1,111z M87.7,109.3H190c0.6,0,1.2-0.1,1.6-0.1
	c0.5,0,1.1,0,1.6-0.1c0-1-0.2-2-0.4-2.9c-0.6-2.9-0.9-5.9-0.9-8.9c0-16.3,13.2-29.5,29.5-29.5s29.5,13.2,29.5,29.5
	c0,1.6-0.1,3.1-0.2,4.6c-0.1,1.6-0.2,3.1,0.1,3.6c0.2,0.3,1,0.5,2.3,0.6c0.3,0.1,0.7,0.1,1.1,0.1l6.6-0.2c1.6-0.1,3.1-0.7,4.3-1.6
	c1.7-1.3,2.4-3.2,2.8-7.4c0.2-2,0.3-5.1,0.4-7c0.1-4.4-0.2-5.2-0.3-5.3c-0.1-0.1-0.1-0.2-0.2-0.3c-0.3-0.7-0.4-0.7-1.4-0.8l-0.5,0
	l-0.2-0.5c-0.5-1.1-1.1-2.2-1.7-3.2c-0.7-1.1-1.5-2.4-2.5-4.5c-2.1-4.1-4.7-8.2-10.6-10.2c-17.7-5.9-48.5-7.6-69-8.7
	c-3.1-0.2-6.1-0.3-8.8-0.5H173l-0.2-0.1c-2.4-1.3-4.8-2.6-7.2-4c-12.4-6.9-25.2-14-39.3-19.2c-1.2-0.4-1.3-0.3-1.6,0.1l-0.9,1.4
	c-0.1,0.2-0.2,0.3-0.2,0.4c0.2,0.1,0.4,0.2,0.6,0.3c0.2,0.1,0.4,0.2,0.6,0.3c10.5,5.1,20.5,11.1,30,17.8l2.3,1.7l-2.9-0.2
	c-4.8-0.3-8.4,0.3-9.7,1.6c-0.4,0.3-0.6,0.8-0.5,1.4c0.1,1.1,0.3,2.1,0.7,3.1c0.2,0.6,0.3,1.1,0.5,1.5c0.3,0.8,0.5,1.4,0.1,2
	c-0.4,0.6-1,0.6-2.3,0.6c-0.4,0-0.9,0-1.4,0.1c-14.4,0.7-33.1-1.3-46-2.8c-3.7-0.4-4.3-2.3-4.8-5.3l-0.8-4.4
	c-0.1-0.3-0.2-0.4-0.3-0.4L85.6,52c-0.2,0-0.2,0.1-0.2,0.2l0.1,5.1c0.1,0.9-0.2,1.9-0.9,2.5c-1,0.7-2.6,0.3-5-0.7
	c-1.4-0.6-2.7-1.5-3.8-2.5c-1.4-1.2-2.3-2-4.3-1.9c-20.8,0.8-35.3,2.4-52.7,7.8c-3.8,1.2-6.2,3.5-6.5,6.3c-0.3,2.4-0.5,4-0.6,5.3
	c-0.3,2.7-0.5,3.9-0.8,8.9c-0.1,1.2-1.4,1.7-3.1,2.4l-0.2,0.1c-2.1,0.8-2.1,2.5-1.9,5.7c0,0.7,0.1,1.4,0.1,2.1
	c0.1,5.9,1.1,8,2.7,9.5c0.5,0.5,2.1,1.3,6.2,2c1.7,0.3,3.6,0.6,5.7,0.8l0,0c1.7,0.2,3.3,0.3,3.7,0c0.4-0.3,0.3-1.8,0.3-3.4
	c0-1,0-2,0-2.9c0-0.7,0-1.3,0-2c0-16.3,13.2-29.5,29.5-29.5s29.5,13.2,29.5,29.5c0,2.1-0.1,4.1-0.3,6.2
	C82.7,107.5,84.3,108.6,87.7,109.3z"/>
<path id="Path_5913" opacity="0.6" fill="#88888C" enable-background="new    " d="M221.4,120.1c-12.6,0-22.9-10.2-22.9-22.9
	c0-12.6,10.2-22.9,22.9-22.9c12.6,0,22.9,10.2,22.9,22.9C244.3,109.8,234.1,120,221.4,120.1z M221.4,76c-11.7,0-21.2,9.5-21.2,21.2
	s9.5,21.2,21.2,21.2c11.7,0,21.2-9.5,21.2-21.2l0,0C242.6,85.5,233.1,76,221.4,76L221.4,76z"/>
<path id="Path_5914" opacity="0.6" fill="#88888C" enable-background="new    " d="M53.9,120.1c-12.6,0-22.9-10.2-22.9-22.9
	c0-12.6,10.2-22.9,22.9-22.9s22.9,10.2,22.9,22.9l0,0C76.8,109.8,66.6,120,53.9,120.1z M53.9,76c-11.7,0-21.2,9.5-21.2,21.2
	s9.5,21.2,21.2,21.2c11.7,0,21.2-9.5,21.2-21.2C75.1,85.5,65.6,76,53.9,76L53.9,76z"/>
<path fill="#88888C" d="M270.8,132.9c0-2.2-1.8-4-4-4s-4,1.8-4,4c0,2,1.4,3.6,3.3,3.9v10.4H5.3v-10.4c2.1-0.2,3.7-1.9,3.7-4
	c0-2.2-1.8-4-4-4s-4,1.8-4,4c0,2,1.4,3.6,3.3,3.9v10.9l0,0v0.5h262.8v-0.5l0,0v-10.9C269.1,136.7,270.8,135,270.8,132.9z"/>
<path fill="#88888C" d="M293,26.8h-0.1v-0.5H282c-0.2-2-1.9-3.5-3.9-3.5c-2.2,0-4,1.8-4,4s1.8,4,4,4c2,0,3.7-1.5,3.9-3.5h10v95.8
	h-10c-0.2-2-1.9-3.5-3.9-3.5c-2.2,0-4,1.8-4,4s1.8,4,4,4c2,0,3.7-1.5,3.9-3.5h10.9v-0.5h0.1V26.8z"/>
<path fill="#88888C" d="M33.1,58.7V2.3h-1v56.3c-2,0.2-3.5,1.9-3.5,3.9c0,2.2,1.8,4,4,4s4-1.8,4-4C36.6,60.6,35.1,58.9,33.1,58.7z"
	/>
</svg>
