<?xml version="1.0" encoding="utf-8"?>
<!-- Generator: Adobe Illustrator 21.1.0, SVG Export Plug-In . SVG Version: 6.00 Build 0)  -->
<svg version="1.1" id="Group_9567" xmlns="http://www.w3.org/2000/svg" xmlns:xlink="http://www.w3.org/1999/xlink" x="0px" y="0px"
	 viewBox="0 0 294 150" enable-background="new 0 0 294 150" xml:space="preserve">
<path fill="#88888C" d="M270.8,132.9c0-2.2-1.8-4-4-4s-4,1.8-4,4c0,2,1.4,3.6,3.3,3.9v10.4H5.3v-10.4c2.1-0.2,3.7-1.9,3.7-4
	c0-2.2-1.8-4-4-4s-4,1.8-4,4c0,2,1.4,3.6,3.3,3.9v10.9h0v0.5h262.8v-0.5h0v-10.9C269.1,136.7,270.8,135,270.8,132.9z"/>
<path fill="#88888C" d="M293,26.8h-0.1v-0.5H282c-0.2-2-1.9-3.5-3.9-3.5c-2.2,0-4,1.8-4,4s1.8,4,4,4c2,0,3.7-1.5,3.9-3.5h10v95.8
	h-10c-0.2-2-1.9-3.5-3.9-3.5c-2.2,0-4,1.8-4,4s1.8,4,4,4c2,0,3.7-1.5,3.9-3.5h10.9v-0.5h0.1V26.8z"/>
<g id="Group_9565" transform="translate(-5155.973 1391.007)">
	<path id="Path_5902" fill="#88888C" d="M5343.9-1277.3L5343.9-1277.3l-111.5-0.1h-0.1c-0.5-0.1-0.9-0.1-1.3-0.1
		c-4.1-0.4-5.5-0.9-4.8-7.3c0.2-2,0.2-4.2,0.2-6c0-14.8-12-26.9-26.9-26.9c-14.8,0-26.9,12-26.9,26.9c0,1.4,0,2.7,0.1,4
		c0,0.7,0.1,1.4,0.1,2c0.1,1.9,0.2,3.1-0.7,3.9c-0.9,0.8-2.6,0.7-5.8,0.2l0,0c-3.6-0.6-5.8-1.4-6.8-2.3c-2.9-2.7-2.7-9.7-2.5-14.8
		c0-0.9,0.1-1.8,0.1-2.5c0-1.1,1.2-1.6,2-1.9c0.4-0.1,0.7-0.3,1-0.5c0.5-5.3,1.3-10.5,2.4-15.6c0.8-4.6,1.6-8.9,2-12.1
		c0.4-4.1,2.5-7.3,6.5-9.8c5.6-3.5,21.5-12.8,27.5-15.3c1.4-0.6,2.1-1,2.7-1.3c1.5-0.8,3.1-1.3,4.8-1.4c14.7-2,29.5-3.2,44.3-3.7
		c13.8-0.4,32.6,0,44.2,3.6c15.2,4.8,29.3,11.6,47.3,22.8c25.2,4.3,48.8,8.5,62.6,12.2c7.1,1.9,9.8,5.4,11.6,9c2,4,3.1,6.4,4,8.6
		c3.2,0.7,3.1,4.6,3.1,6.1c0,1,0,2,0,2.9c0.2,3.3-0.1,6.5-1,9.7c-1,3.6-4.2,5.9-8.3,6.1l-6.7,0.2l-0.1,0c-0.2-0.1-0.5-0.1-0.7-0.1
		c-3.1-0.6-4.2-1.2-3.9-5.5c0.1-1.2,0.1-2.6,0.1-4.5c0-14.8-12-26.9-26.9-26.9s-26.9,12-26.9,26.9c0,2,0,4.2,0.1,6.2
		c0.1,1.3,0.3,2.5,0.5,3.8c0.2,1.3,0.4,2-0.1,2.7c-0.6,0.7-1.5,0.7-3.7,0.8C5345-1277.4,5344.5-1277.3,5343.9-1277.3L5343.9-1277.3z
		 M5232.5-1279.2l111.3,0.1c0.5,0,1-0.1,1.4-0.1c0.8,0,1.6-0.1,2.4-0.2c0-0.4-0.1-0.9-0.2-1.3c-0.2-1.3-0.4-2.6-0.5-4
		c-0.1-2.1-0.1-4.2-0.1-6.3c0-15.8,12.8-28.6,28.6-28.6c15.8,0,28.6,12.8,28.6,28.6c0,1.3,0,2.9-0.1,4.6c-0.1,1.7,0,2.6,0.3,3
		c0.3,0.4,1.1,0.5,2.2,0.7c0.2,0,0.4,0.1,0.6,0.1l6.5-0.2c3.4-0.1,6-2,6.8-4.8c0.8-3,1.1-6.1,0.9-9.2c0-1,0-1.9,0-3
		c0.1-3.7-1-4.4-2.1-4.4l-0.5,0l-0.2-0.5c-0.9-2.2-2-4.7-4.1-8.9c-1.9-3.7-4.4-6.5-10.5-8.1c-13.7-3.7-37.4-7.9-62.6-12.2l-0.2,0
		l-0.1-0.1c-17.9-11.2-32-18-47.1-22.8c-19.8-6.3-64.3-3.3-87.8,0.1c-1.5,0.1-2.9,0.5-4.2,1.2c-0.9,0.5-1.9,1-2.9,1.4
		c-5.9,2.5-21.7,11.8-27.3,15.2c-4.6,2.9-5.5,6.2-5.7,8.5c-0.3,3.3-1.1,7.6-2,12.2c-1,5.1-1.8,10.3-2.3,15.5c-0.1,1.1-1.2,1.6-2,1.9
		c-0.3,0.1-0.6,0.3-0.9,0.4c0,0.7,0,1.6-0.1,2.5c-0.2,4.5-0.4,11.3,1.9,13.5c0.5,0.5,2,1.2,6,1.9c1.2,0.2,3.9,0.7,4.4,0.2
		c0.3-0.2,0.2-1.4,0.1-2.5c0-0.6-0.1-1.2-0.1-2c-0.1-1.3-0.1-2.6-0.1-4.1c0-15.8,12.8-28.6,28.6-28.6s28.6,12.8,28.6,28.6
		c0,2.1-0.1,4.1-0.3,6.2c-0.3,2.7-0.2,4,0.3,4.6c0.4,0.5,1.5,0.6,3.1,0.8C5231.6-1279.2,5232.1-1279.2,5232.5-1279.2L5232.5-1279.2z
		"/>
	<path id="Path_5903" opacity="0.6" fill="#88888C" enable-background="new    " d="M5254.5-1328.7c-0.3,0-0.7,0-1-0.1
		c-0.6-0.1-1.3-0.1-2.1-0.1c-8.6-0.1-18-0.7-27-1.2c-6.7-0.4-13.7-0.8-20.2-1c-1.4,0-2.6-0.7-3.3-1.8c-0.8-1.2,0.3-3.2,4.4-8.3
		c0.3-0.4,0.5-0.6,0.6-0.8c1.5-2.1,8.9-10.7,12.8-11.8h0c7.7-1.8,16.2-2.1,24.5-2.4c2.3-0.1,4.5-0.1,6.7-0.3c1.4,0.1,2.6,1,3.2,2.2
		c1,2.7,1.4,5.7,2.3,13.7c0.3,2.3,0.6,4.8,0.9,8l0,0c0.2,1.8,0.3,2.7-0.3,3.4C5255.5-1328.8,5255-1328.6,5254.5-1328.7z
		 M5202.2-1333.8c0.4,0.6,1.2,1,1.9,1c6.5,0.2,13.5,0.7,20.3,1c9,0.6,18.3,1.1,26.9,1.2c0.9,0,1.6,0.1,2.2,0.1
		c0.4,0,0.9,0.1,1.1,0.1c0-0.7-0.1-1.3-0.2-2l0,0c-0.4-3.1-0.7-5.7-0.9-8c-0.9-7.8-1.2-10.7-2.2-13.3c-0.1-0.3-1.1-1.1-1.5-1.1
		c-2.2,0.1-4.5,0.2-6.7,0.3c-8.2,0.3-16.6,0.5-24.1,2.3c-1.3,0.4-3.6,2.2-6.4,5c-1.9,1.9-3.8,4-5.4,6.2c-0.1,0.2-0.3,0.5-0.7,0.8
		C5203-1335.8,5202.2-1334.3,5202.2-1333.8L5202.2-1333.8z"/>
	<path id="Path_5904" opacity="0.6" fill="#88888C" enable-background="new    " d="M5311.5-1326.5c-2.1,0-6.7-0.2-17-0.8
		c-9.9-0.5-21.1-1.1-27.2-1.2c-3.5,0-4.6-1-5.2-4.6c-0.5-3.3-1.2-7.4-1.8-11.3c-0.6-3.5-1.1-6.8-1.4-9c-0.3-0.8-0.2-1.7,0.3-2.4
		c0.5-0.5,1.2-0.7,2-0.7l1.6,0c9.2,0.2,20.5,0.4,29.1,3.3c9.9,3.4,23.8,9.8,32.6,16.3l2.3,1.7l-2.9-0.2c-4.2-0.3-9.2,0.1-10.7,1.7
		c-0.3,0.3-0.5,0.7-0.5,1.1c0.1,1.4,0.4,2.8,0.9,4.2c0.1,0.2,0.1,0.3,0.1,0.5l0,0l0.1,0.4l-0.3,0.3
		C5313.3-1326.7,5313.2-1326.5,5311.5-1326.5z M5260.5-1354.6c0,0.3,0,0.7,0.1,1c0.3,2.1,0.9,5.4,1.4,8.9c0.7,3.9,1.3,8,1.8,11.3
		c0.4,2.7,0.9,3.1,3.5,3.1c6.2,0.1,17.4,0.7,27.3,1.2c7.2,0.4,14.6,0.8,17.1,0.8c-0.4-1.3-0.6-2.7-0.7-4c-0.1-0.9,0.3-1.8,0.9-2.4
		c0.6-0.6,2.8-2.3,9.2-2.3c-8.6-5.9-20.9-11.4-29.8-14.5c-8.3-2.8-19.5-3-28.6-3.2l-1.6,0C5261-1354.6,5260.7-1354.6,5260.5-1354.6z
		"/>
	<path id="Path_5905" opacity="0.6" fill="#88888C" enable-background="new    " d="M5199.6-1268.7c-12.3,0-22.2-9.9-22.2-22.2
		c0-12.3,9.9-22.2,22.2-22.2s22.2,9.9,22.2,22.2C5221.8-1278.6,5211.9-1268.7,5199.6-1268.7z M5199.6-1311.3
		c-11.3,0-20.5,9.2-20.5,20.5s9.2,20.5,20.5,20.5s20.5-9.2,20.5-20.5l0,0C5220.1-1302.2,5210.9-1311.3,5199.6-1311.3z"/>
	<path id="Path_5906" opacity="0.6" fill="#88888C" enable-background="new    " d="M5375.4-1268.7c-12.3,0-22.2-9.9-22.2-22.2
		c0-12.3,9.9-22.2,22.2-22.2s22.2,9.9,22.2,22.2C5397.6-1278.6,5387.7-1268.7,5375.4-1268.7z M5375.4-1311.3
		c-11.3,0-20.5,9.2-20.5,20.5s9.2,20.5,20.5,20.5s20.5-9.2,20.5-20.5C5395.9-1302.2,5386.7-1311.3,5375.4-1311.3z"/>
</g>
<path fill="#88888C" d="M33.1,58.7V2.3h-1v56.3c-2,0.2-3.5,1.9-3.5,3.9c0,2.2,1.8,4,4,4s4-1.8,4-4C36.6,60.6,35.1,58.9,33.1,58.7z"
	/>
</svg>
