<?xml version="1.0" encoding="utf-8"?>
<!-- Generator: Adobe Illustrator 21.1.0, SVG Export Plug-In . SVG Version: 6.00 Build 0)  -->
<svg version="1.1" id="silueta_familiar" xmlns="http://www.w3.org/2000/svg" xmlns:xlink="http://www.w3.org/1999/xlink" x="0px"
	 y="0px" viewBox="0 0 294 150" enable-background="new 0 0 294 150" xml:space="preserve">
<g id="Group_7724" transform="translate(-3281.464 1359.943) rotate(90)" opacity="0.7">
	<line id="Line_987" fill="none" stroke="#88898D" x1="-1333.4" y1="-3574" x2="-1236.5" y2="-3574"/>
</g>
<g>
	<path id="Path_5946" opacity="0.6" fill="#88888C" enable-background="new    " d="M221.1,121.7c-11.1,0-20.1-9-20.1-20.1
		s9-20.1,20.1-20.1s20.1,9,20.1,20.1C241.2,112.7,232.2,121.6,221.1,121.7z M221.1,83.2c-10.1,0-18.4,8.2-18.4,18.4
		s8.2,18.4,18.4,18.4c10.1,0,18.4-8.2,18.4-18.4l0,0C239.5,91.4,231.2,83.2,221.1,83.2z"/>
	<path id="Path_5947" opacity="0.6" fill="#88888C" enable-background="new    " d="M67.3,121.7c-11.1,0-20.1-9-20.1-20.1
		s9-20.1,20.1-20.1s20.1,9,20.1,20.1S78.4,121.6,67.3,121.7z M67.3,83.2c-10.1,0-18.4,8.2-18.4,18.4S57.1,120,67.3,120
		s18.4-8.2,18.4-18.4C85.7,91.4,77.4,83.2,67.3,83.2z"/>
	<path id="Path_5948" fill="#88888C" d="M261.3,112h-18.1l0.3-1.1c2.5-9.5,1.3-18.1-3.3-24.2c-4.2-5.4-10.9-8.4-19-8.4
		s-14.8,3-19,8.4c-4.7,6.1-5.9,14.7-3.3,24.2l0.3,1.1H89.4l0.3-1.1c2.5-9.5,1.3-18.1-3.3-24.2c-4.2-5.4-10.9-8.4-19-8.4
		s-14.8,3-19,8.4c-4.7,6-5.9,14.6-3.4,24l0.3,1.1L13.4,110C8.2,109.7,4,101.6,4,92c0-5.7,0.8-8.5,2.9-9.4l0,0l1-0.4
		C8,75.9,8.6,69.7,9.6,63.5c0.3-1.9,1.1-3.6,2.2-5.2v-0.1c5.6-8.9,12.4-17,20.2-24.1c3.3-3,5.7-4,10.1-4.2
		c17.6-0.8,31.9-1.1,58.8-1.1c23.9,0,37.9,0.2,48.2,1c5,0.3,9.8,1.7,14.2,4.1c13.4,6.9,26.4,14.7,38.8,23.2
		c18.7,1.8,33.9,3.9,47.6,6.6c7.4,1.4,13,8.4,14.6,18.1c4.2,1.4,5.7,4.1,5.7,10.3C270,101.6,267.3,112,261.3,112z M245.4,110.3h15.9
		c4.6,0,7-9.5,7-18.4c0-6.3-1.6-7.9-5-8.9l-0.5-0.1l-0.1-0.5c-1.4-9.3-6.5-15.9-13.3-17.2c-13.7-2.7-28.8-4.8-47.6-6.6h-0.2
		l-0.2-0.1C189,49.9,176,42.2,162.6,35.3c-4.2-2.3-8.8-3.6-13.6-3.9c-10.2-0.9-24.2-1-48-1c-26.9,0-41.2,0.3-58.7,1.1
		c-4,0.2-6,1-9.1,3.8c-7.7,7-14.3,15-19.8,23.7v0.1c-1,1.4-1.6,2.9-1.9,4.6c-1,6.3-1.6,12.7-1.7,19.1v0.5l-2.1,0.8
		c-1.8,0.8-2,4.9-2,7.9c0,9.5,4,16.1,7.8,16.3L43,110c-2.2-9.5-0.8-18.1,4-24.3c4.5-5.8,11.7-9,20.3-9s15.9,3.2,20.4,9.1
		c4.8,6.3,6.2,14.9,3.9,24.6h105.3c-2.3-9.6-0.9-18.3,3.9-24.6c4.5-5.8,11.7-9.1,20.4-9.1s15.9,3.2,20.4,9.1
		C246.3,92,247.6,100.7,245.4,110.3L245.4,110.3z"/>
	<path id="Path_5949" opacity="0.6" fill="#88888C" enable-background="new    " d="M188.3,64h-55.1l-4.4-30.4h1
		c10.2,0.1,15.8,0.4,19.4,1c3.9,0.4,7.6,1.5,11.2,3.1c9.7,5,18.9,10.8,27.6,17.4l0.3,0.3L188.3,64z M134.6,62.3h52v-6.1
		c-8.5-6.4-17.5-12.1-27-17c-3.4-1.5-7-2.5-10.6-2.9c-3.4-0.5-8.7-0.8-18.1-0.9L134.6,62.3z"/>
	<path id="Path_5950" opacity="0.6" fill="#88888C" enable-background="new    " d="M125.3,64h-52l7.5-30.4h0.7
		c5.6-0.1,12.1-0.1,19.2-0.1c8.3,0,14.5,0,19.6,0.1h0.7L125.3,64z M75.4,62.3h47.9l-3.9-27.1c-4.9,0-11,0-18.9,0
		c-6.8,0-13,0-18.5,0.1L75.4,62.3z"/>
	<path id="Path_5951" opacity="0.6" fill="#88888C" enable-background="new    " d="M66.9,64H33.3l-5.5-5.5l0.3-0.6
		c3.3-6.2,7.1-12,11.3-17.6c2.4-3.1,6-5,9.8-5.4c4.7-0.7,12.1-1.1,24.1-1.3h1.1L66.9,64z M34,62.3h31.6l6.6-26.9
		C61,35.6,53.8,36,49.4,36.6c-3.4,0.3-6.6,2-8.7,4.8c-4,5.3-7.6,10.9-10.8,16.8L34,62.3z"/>
</g>
<path fill="#88888C" d="M270.8,132.9c0-2.2-1.8-4-4-4s-4,1.8-4,4c0,2,1.4,3.6,3.3,3.9v10.4H5.3v-10.4c2.1-0.2,3.7-1.9,3.7-4
	c0-2.2-1.8-4-4-4s-4,1.8-4,4c0,2,1.4,3.6,3.3,3.9v10.9l0,0v0.5h262.8v-0.5l0,0v-10.9C269.1,136.7,270.8,135,270.8,132.9z"/>
<path fill="#88888C" d="M293,26.8h-0.1v-0.5H282c-0.2-2-1.9-3.5-3.9-3.5c-2.2,0-4,1.8-4,4s1.8,4,4,4c2,0,3.7-1.5,3.9-3.5h10v95.8
	h-10c-0.2-2-1.9-3.5-3.9-3.5c-2.2,0-4,1.8-4,4s1.8,4,4,4c2,0,3.7-1.5,3.9-3.5h10.9v-0.5h0.1V26.8z"/>
<path fill="#88888C" d="M22.1,58.7V2.3h-1v56.3c-2,0.2-3.5,1.9-3.5,3.9c0,2.2,1.8,4,4,4s4-1.8,4-4C25.6,60.6,24.1,58.9,22.1,58.7z"
	/>
</svg>
