<?xml version="1.0" encoding="utf-8"?>
<!-- Generator: Adobe Illustrator 21.1.0, SVG Export Plug-In . SVG Version: 6.00 Build 0)  -->
<svg version="1.1" id="silueta_suv" xmlns="http://www.w3.org/2000/svg" xmlns:xlink="http://www.w3.org/1999/xlink" x="0px"
	 y="0px" viewBox="0 0 294 150" enable-background="new 0 0 294 150" xml:space="preserve">
<g>
	<path id="Path_5933" fill="#88888C" d="M194.7,108.5H83.8c-4.1,0-4.5-0.7-4.7-4.4c0-0.2,0-0.5-0.1-0.7C78.1,89.6,66.2,79.1,52.4,80
		C40,80.8,30,90.6,29,103.1c-0.1,0.5-0.1,0.9-0.1,1.3c-0.3,3.9-0.7,4.2-5.1,4.2H13.1c-3.2,0-6.3-0.6-7.6-4.9l0,0
		c-1-3.2-1.5-9.3-1.4-18c0-2.1,0.4-4.3,3.3-4.9c0.7-0.1,1.3-0.3,2-0.5c0.4-6.6,0.8-11.5,1.6-18.4c0.3-3.3,4.1-6.1,8.1-9
		c1.6-1.2,3.2-2.4,4.6-3.6c2.6-2.4,6.9-5.7,10.7-8.6c2-1.5,3.8-3,5.1-4c1-0.8,0.8-1.6,0.4-2.8c-0.4-1-1-2.7,1.1-3.6
		c3.9-1.8,11-2.8,21.6-3.1c13.4-0.4,47.4-1.2,72.1,0.6c8.7,0.6,15.8,1.8,21,3.4c9.4,3,18.1,8.6,26.6,14c5.8,3.9,11.8,7.5,18.1,10.6
		c1.5,0.2,3.1,0.3,4.6,0.5c16.5,1.7,33.6,3.5,50.6,7.7c6.2,1.5,7.7,3.9,9.7,7.8c1,2.1,1.6,4.4,1.7,6.8c0.1,0.8,0.2,1.7,0.3,2.5h0.4
		c0.8-0.1,1.5,0.3,1.8,1c0.4,0.8,0.5,1.7,0.4,2.6c0,0.4,0,0.9,0,1.3c0.1,0.7,0.1,1.4,0.2,2.1c0.6,6.9,1.3,15.5-4.1,19.6
		c-0.2,0.1-0.4,0.3-0.7,0.4c-0.1,0.1-0.2,0.1-0.3,0.1l-0.2,0.1h-8.7c-4.5,0-4.8-1.1-5.2-5c0-0.3-0.1-0.6-0.1-1
		C249,89.7,238.3,80,225.4,80c-12.3,0.2-22.8,9.2-24.8,21.4c-0.2,1.1-0.3,2-0.3,2.8C200,107.8,199.5,108.5,194.7,108.5z M54,78.3
		c14.1,0,25.8,11,26.7,25c0,0.3,0,0.5,0.1,0.8c0,0.8,0.1,1.7,0.4,2.5c0.3,0.3,1.5,0.3,2.7,0.3h110.9c1.5,0,3-0.1,3.5-0.5
		c0.4-0.3,0.4-1.2,0.6-2.5c0.1-0.8,0.2-1.7,0.3-2.9c2.1-13,13.2-22.6,26.4-22.8c13.7,0,25.2,10.4,26.6,24c0,0.3,0.1,0.7,0.1,1
		c0.1,1.6,0.3,2.6,0.6,3c0.3,0.4,1.1,0.5,2.9,0.5h8.3c0.1,0,0.1-0.1,0.2-0.1c0.1,0,0.3-0.1,0.4-0.2c4.7-3.5,4-11.6,3.5-18.1
		c-0.1-0.8-0.1-1.5-0.2-2.2c0-0.5,0-1,0-1.5c0.1-0.6,0-1.2-0.2-1.8c0-0.1,0-0.1-0.1-0.1h-0.2c-0.4,0-0.7,0-1.1,0l-0.5,0l-0.2-0.5
		c-0.4-1.1-0.6-2.3-0.6-3.5c-0.1-2.1-0.6-4.2-1.5-6.2c-1.7-3.3-2.9-5.5-8.6-6.9c-16.9-4.2-33.9-6-50.3-7.7l-4.7-0.5l-0.1,0l-0.1-0.1
		c-6.3-3-12.4-6.9-18.4-10.8c-8.3-5.4-16.9-10.9-26.2-13.9c-5-1.6-11.9-2.7-20.6-3.4c-24.7-1.8-58.5-1-72-0.6
		c-10.3,0.3-17.4,1.3-21,3c-0.5,0.2-0.6,0.3-0.2,1.5s1.1,3.1-0.9,4.7c-1.2,1-3,2.4-5.1,4c-3.8,2.9-8.1,6.2-10.6,8.5
		c-1.4,1.3-3.1,2.5-4.7,3.7c-3.5,2.6-7.1,5.2-7.4,7.8c-0.7,6.9-1.2,11.9-1.6,18.5c-0.1,1.2-1.6,1.5-3.3,1.9
		c-1.5,0.3-1.9,1.1-1.9,3.2C5.6,94.2,6,100.1,7,103.1l0,0c1,3.1,2.9,3.8,6,3.8h10.8c1,0.1,2,0,3-0.3c0.3-0.2,0.3-1.1,0.4-2.4
		c0-0.4,0.1-0.8,0.1-1.3C28.5,89,40.1,78.3,54,78.3z"/>
	<path id="Path_5934" opacity="0.6" fill="#88888C" enable-background="new    " d="M54,125.8c-11.5,0-20.8-9.3-20.8-20.8
		S42.6,84.3,54,84.3c11.5,0,20.8,9.3,20.8,20.8l0,0C74.8,116.5,65.5,125.8,54,125.8z M54,86C43.5,86,35,94.5,35,105
		s8.5,19.1,19.1,19.1s19.1-8.5,19.1-19.1l0,0C73.1,94.5,64.6,86,54,86L54,86z"/>
	<path id="Path_5935" opacity="0.6" fill="#88888C" enable-background="new    " d="M225.5,125.8c-11.5,0-20.8-9.3-20.8-20.8
		c0-11.5,9.3-20.8,20.8-20.8c11.5,0,20.8,9.3,20.8,20.8v0C246.2,116.5,236.9,125.8,225.5,125.8z M225.5,86
		c-10.5,0-19.1,8.5-19.1,19.1s8.5,19.1,19.1,19.1c10.5,0,19.1-8.5,19.1-19.1C244.5,94.5,236,86,225.5,86L225.5,86z"/>
	<path id="Path_5936" opacity="0.6" fill="#88888C" enable-background="new    " d="M170.7,61.9c-2,0-6.3-0.2-15.8-0.7
		c-9.2-0.5-19.7-1.1-25.4-1.1c-3.3,0-4.4-1-4.9-4.3c-0.3-1.8-0.5-3.9-0.8-6.1c-0.6-4.9-1.2-9.9-2.2-12.6c-0.4-0.7-0.3-1.6,0-2.3
		c0.5-0.6,1.3-0.9,2.1-0.8l8.6,0.2c6.4,0.1,17.3,0.8,21,2c8.2,2.9,17.7,8.3,28.3,16.2l2.3,1.7l-2.8-0.2c-4.3-0.3-7.5,0.3-8.7,1.4
		c-0.3,0.3-0.5,0.7-0.4,1.2c0.1,1.3,0.4,2.6,0.8,3.9c0.1,0.1,0.1,0.3,0.1,0.4l0.1,0.4l-0.3,0.3C172.4,61.7,172.3,61.9,170.7,61.9z
		 M123,35.7c0,0.2,0.1,0.5,0.2,0.7c1.1,2.9,1.7,8.1,2.3,13c0.3,2.2,0.5,4.2,0.8,6c0.4,2.5,0.8,2.8,3.2,2.9
		c5.8,0.1,16.2,0.6,25.5,1.1c6.6,0.4,13.5,0.7,15.9,0.7c-0.4-1.2-0.6-2.4-0.7-3.7c-0.1-0.9,0.3-1.8,1-2.5c1.5-1.5,4.6-1.9,7.3-1.9
		c-9.6-6.9-18.2-11.7-25.7-14.3c-3.5-1.2-14.2-1.8-20.5-1.9l-8.6-0.2C123.4,35.6,123.2,35.6,123,35.7L123,35.7z"/>
	<path id="Path_5937" opacity="0.6" fill="#88888C" enable-background="new    " d="M117.4,59.9c-0.3,0-0.6,0-1-0.1
		c-0.5,0-1.2-0.1-2-0.1c-9.4-0.1-23.1-0.8-35.2-1.5l-0.8-0.1l0-0.8c0.2-6.4,1.3-12.8,3.3-19l0.1-0.4l0.4-0.1c9.2-4,16.7-4,25.4-4
		h5.4c1.2,0,2.3,0.5,2.9,1.5c1,2.6,1.4,5.9,2.3,13.7c0.2,2,0.5,4.3,0.8,7.1c0.2,1.7,0.3,2.6-0.3,3.2C118.5,59.8,118,60,117.4,59.9z
		 M80.2,56.6c11.9,0.6,25.1,1.3,34.3,1.4c0.7,0,1.4,0,2.1,0.1c0.4,0,0.8,0.1,1,0.1c0-0.6-0.1-1.2-0.1-1.8c-0.3-2.7-0.6-5-0.8-7.1
		c-0.9-7.7-1.3-10.9-2.2-13.3c-0.4-0.3-0.8-0.5-1.3-0.5h0c-1.9,0-3.6,0-5.4,0c-8.7,0-15.6-0.1-24.4,3.7C81.5,45,80.4,50.8,80.2,56.6
		L80.2,56.6z"/>
	<path id="Path_5938" opacity="0.6" fill="#88888C" enable-background="new    " d="M74.6,58.2l-0.8,0c-1.9-0.1-2.7-0.2-3.3-0.3
		c-1-0.1-2-0.2-2.9-0.2c-1.7-0.1-3.8-0.3-4.6-1.8c-0.8-1.7,0.6-3.9,2.2-6.1c1.3-1.8,6-7.8,11.9-10.5l1.7-0.8l-0.6,1.8
		c-1.8,5.6-3,11.4-3.6,17.2L74.6,58.2z M76,41.6c-3.7,2.4-6.9,5.5-9.5,9c-1.7,2.3-2.4,3.8-2,4.4c0.1,0.3,0.7,0.8,3.1,0.9
		c1,0,2.1,0.1,3.1,0.2c0.5,0.1,1.1,0.1,2.4,0.2C73.7,51.4,74.7,46.5,76,41.6L76,41.6z"/>
	<path id="Path_5939" opacity="0.6" fill="#88888C" enable-background="new    " d="M25.7,56.4c-1.2,0-1.8-0.3-2.1-0.9
		c-0.5-1,0.6-2,1.7-2.9c2.7-2.1,5.4-4.2,8-6.2c3.8-2.9,7.7-5.9,11.6-9.1l0.2-0.2l8.8-0.6L52.8,38c-6.4,8.1-13.6,16.1-24.1,18
		C27.7,56.2,26.7,56.4,25.7,56.4z M25.5,54.7c1,0,1.9-0.1,2.9-0.3c9.3-1.7,15.9-8.6,21.9-15.9l-4.5,0.3c-3.8,3.1-7.7,6.1-11.4,8.9
		c-2.6,2-5.3,4.1-8,6.2C25.9,54.3,25.7,54.5,25.5,54.7z"/>
</g>
<path fill="#88888C" d="M270.8,132.9c0-2.2-1.8-4-4-4s-4,1.8-4,4c0,2,1.4,3.6,3.3,3.9v10.4H5.3v-10.4c2.1-0.2,3.7-1.9,3.7-4
	c0-2.2-1.8-4-4-4s-4,1.8-4,4c0,2,1.4,3.6,3.3,3.9v10.9l0,0v0.5h262.8v-0.5l0,0v-10.9C269.1,136.7,270.8,135,270.8,132.9z"/>
<path fill="#88888C" d="M293,26.8h-0.1v-0.5H282c-0.2-2-1.9-3.5-3.9-3.5c-2.2,0-4,1.8-4,4s1.8,4,4,4c2,0,3.7-1.5,3.9-3.5h10v95.8
	h-10c-0.2-2-1.9-3.5-3.9-3.5c-2.2,0-4,1.8-4,4s1.8,4,4,4c2,0,3.7-1.5,3.9-3.5h10.9v-0.5h0.1V26.8z"/>
<path fill="#88888C" d="M33.1,58.7V2.3h-1v56.3c-2,0.2-3.5,1.9-3.5,3.9c0,2.2,1.8,4,4,4s4-1.8,4-4C36.6,60.6,35.1,58.9,33.1,58.7z"
	/>
</svg>
