<?xml version="1.0" encoding="utf-8"?>
<!-- Generator: Adobe Illustrator 21.1.0, SVG Export Plug-In . SVG Version: 6.00 Build 0)  -->
<svg version="1.1" id="silueta_berlina" xmlns="http://www.w3.org/2000/svg" xmlns:xlink="http://www.w3.org/1999/xlink" x="0px"
	 y="0px" viewBox="0 0 294 150" enable-background="new 0 0 294 150" xml:space="preserve">
<g>
	<path id="Path_5920" opacity="0.6" fill="#88888C" enable-background="new    " d="M56.1,119.4c-11.4,0-20.6-9.2-20.6-20.6
		c0-11.4,9.2-20.6,20.6-20.6s20.6,9.2,20.6,20.6C76.7,110.2,67.5,119.4,56.1,119.4z M56.1,79.9c-10.4,0-18.9,8.5-18.9,18.9
		c0,10.4,8.5,18.9,18.9,18.9S75,109.3,75,98.8v0C75,88.4,66.6,79.9,56.1,79.9z"/>
	<path id="Path_5921" opacity="0.6" fill="#88888C" enable-background="new    " d="M76.7,62.2l-1-0.1c-4.5-0.2-8-0.4-11.1-0.5
		c-1.3,0-2.5-0.6-3.1-1.7c-1-1.6-1.8-3.4-2.5-5.2c-0.4-1.2-0.3-2,0.7-3.3c1.6-2.2,13.1-7.6,14.4-8.2l1.1-0.5L76.7,62.2z M73.7,45.3
		c-6.4,3-11.8,6.1-12.6,7.1c-0.7,1-0.7,1.1-0.5,1.7c0.6,1.7,1.4,3.3,2.3,4.8c0.4,0.6,1.1,1,1.8,1c2.8,0.1,6,0.2,10.1,0.5L73.7,45.3z
		"/>
	<path id="Path_5922" opacity="0.6" fill="#88888C" enable-background="new    " d="M114.2,63.9c-0.3,0-0.6,0-1-0.1
		c-0.5,0-1.2-0.1-2-0.1c-8.2-0.1-17.9-0.7-27.2-1.2c-1.8-0.1-3.5-0.2-5.2-0.3l-0.7,0l-1.7-19.9l0.6-0.3c1.3-0.6,2.6-1.1,4-1.6
		c4.5-1.4,9.2-2.1,13.9-2.2l15.1-0.2h0c1.2,0,2.3,0.5,2.9,1.5c1,2.6,1.4,5.8,2.3,13.6c0.2,2,0.5,4.3,0.8,7c0.2,1.7,0.3,2.6-0.3,3.2
		C115.1,63.8,114.6,63.9,114.2,63.9z M79.5,60.6l4.5,0.3c9.3,0.5,19,1.1,27.2,1.2c0.7,0,1.4,0,2.1,0.1c0.3,0,0.7,0.1,0.9,0.1
		c0-0.6-0.1-1.2-0.1-1.7c-0.3-2.7-0.6-5-0.9-7c-0.9-7.6-1.3-10.8-2.2-13.2c-0.4-0.3-0.8-0.5-1.3-0.5h0L94.6,40
		c-4.5,0.1-9.1,0.8-13.4,2.2c-1.1,0.4-2.2,0.8-3.2,1.2L79.5,60.6z"/>
	<path id="Path_5923" fill="#88888C" d="M194.3,111.4L194.3,111.4l-107.9-0.1h-0.1c-0.5-0.1-0.9-0.1-1.3-0.2
		c-2.2-0.3-3.4-0.4-4.1-1.5c-0.6-1-0.5-2.3-0.2-5.2c0-0.4,0.1-0.8,0.1-1.3c0.1-1.2,0.1-2.7,0.1-4.3c0.1-13.7-11-24.9-24.7-25
		c-13.7-0.1-24.9,11-25,24.7c0,0.1,0,0.2,0,0.3c0,1.3,0,2.5,0.1,3.6c0.2,2.9,0,4.5-0.9,5.4c-1,1-2.5,0.9-4.4,0.7
		c-0.2,0-0.4,0-0.6-0.1l0,0c-4-0.3-8.6-0.7-12.2-1.3c-3.4-0.6-5.4-1.3-6.4-2.2c-3-2.8-2.9-10.2-2.8-15.2v-0.9c0-1.1,1.1-1.5,1.9-1.8
		c0.3-0.1,0.6-0.2,0.9-0.4c0.4-6.4,0.8-13.8,1.6-20.8c0.7-6.5,10.1-8.4,19.1-10.2c3.2-0.6,6.4-1.3,9.5-2.2c4-1.2,7.5-3.3,11.6-5.6
		c3.6-2.1,7.3-4.1,11.1-5.8l1.2-0.5c10.1-4.5,18.8-8.3,29.4-8.3c3.7,0,7.8-0.1,12.2-0.2c16.6-0.4,35.4-0.8,48.6,3.4
		c10.7,3.4,20.9,8.7,30.8,13.9c4.7,2.4,9.5,5,14.3,7.3c19.1,2.1,38,5.5,56.6,10.2c6.7,1.7,9.3,5.1,10.9,8.2c1.2,2.3,2.1,4.7,2.9,7.2
		c0.3,0.7,0.5,1.4,0.7,2h0.4c0.8-0.1,1.5,0.3,1.8,1c0.4,0.8,0.5,1.7,0.4,2.6c0,0.4,0,0.9,0,1.3c0.1,1.6,0.4,7.1-0.7,10.9
		c-0.9,3.1-1.7,4.6-3.3,5.7c-1.2,1-2.8,1.6-4.4,1.6l-6.8,0.2l-0.1,0c-4-0.7-4.1-1.7-3.8-5.3c0.1-0.6,0.1-1.2,0.1-2
		c0-0.7,0.1-1.5,0.1-2.3C251,85.1,239.8,74,226,74.1c-13.6,0.1-24.6,11.1-24.7,24.7c0,1.6,0,3,0.1,4.2c0.1,0.9,0.1,1.7,0.2,2.4
		c0.2,2.9,0.3,4.2-0.5,5.1c-0.7,0.8-1.9,0.8-4.1,0.9C196.3,111.3,195.4,111.4,194.3,111.4L194.3,111.4z M86.5,109.6l107.7,0.1
		c1.1-0.1,2.1-0.1,2.9-0.1c1,0.1,1.9,0,2.9-0.3c0.3-0.3,0.2-1.8,0-3.8c-0.1-0.7-0.1-1.5-0.2-2.4c-0.1-1.2-0.1-2.6-0.1-4.3
		c0-14.7,11.9-26.5,26.5-26.5s26.5,11.9,26.5,26.5c0,0.8,0,1.6-0.1,2.4c0,0.8-0.1,1.4-0.1,2c-0.2,0.9-0.1,1.8,0.1,2.6
		c0.2,0.3,1.1,0.6,2.3,0.8l6.6-0.2c1.2-0.1,2.4-0.5,3.4-1.3c1.2-0.9,1.9-2.1,2.6-4.8c0.7-3.4,1-6.9,0.6-10.4c0-0.5,0-1,0-1.4
		c0.1-0.6,0-1.2-0.2-1.8c0-0.1-0.1-0.1-0.1-0.1h-0.1c-0.4,0-0.7,0-1.1,0l-0.5,0l-0.2-0.5c-0.3-0.7-0.6-1.6-0.9-2.6
		c-0.8-2.4-1.7-4.7-2.9-7c-1.5-2.9-3.7-5.8-9.8-7.3c-18.6-4.6-37.5-7.9-56.5-10.1l-0.1,0l-0.1-0.1c-4.9-2.3-9.8-4.9-14.5-7.3
		c-9.8-5.1-19.9-10.4-30.5-13.8c-12.8-4.1-31.5-3.7-48-3.3c-4.4,0.1-8.5,0.2-12.3,0.2c-10.3,0-18.8,3.8-28.7,8.2l-1.2,0.5
		c-3.7,1.7-7.4,3.6-10.9,5.7c-4,2.3-7.8,4.4-11.9,5.8c-2.9,0.9-6.3,1.6-9.7,2.3C19.4,59,10.6,60.7,10.1,66c-0.7,7-1.2,14.4-1.6,20.8
		c-0.1,1.1-1.1,1.5-1.9,1.8C6.3,88.7,6,88.9,5.8,89v0.8c-0.1,4.1-0.2,11.6,2.3,13.9c0.5,0.5,1.8,1.1,5.5,1.8c3.5,0.6,8.1,1,12.1,1.3
		l0,0c0.2,0,0.4,0,0.6,0.1c1.5,0.1,2.6,0.2,3.1-0.2c0.5-0.5,0.6-1.8,0.4-4c-0.1-1.1-0.1-2.3-0.1-3.7c0-14.7,11.9-26.5,26.5-26.5
		s26.5,11.9,26.5,26.5c0,1.7-0.1,3.1-0.2,4.4c0,0.5-0.1,0.9-0.1,1.3c-0.2,2.2-0.3,3.7,0,4.2c0.2,0.4,1.3,0.5,2.9,0.7
		C85.6,109.5,86,109.6,86.5,109.6z"/>
	<path id="Path_5924" opacity="0.6" fill="#88888C" enable-background="new    " d="M167,65.8c-2,0-6.2-0.2-15.7-0.7
		c-9.2-0.5-19.5-1-25.2-1.1c-3.3,0-4.3-0.9-4.8-4.3c-0.3-1.8-0.5-3.9-0.8-6c-0.6-4.8-1.2-9.8-2.2-12.5c-0.4-0.7-0.3-1.6,0-2.3
		c0.5-0.6,1.3-0.9,2.1-0.8l8.5,0.2c6.7,0.1,16.4,1.7,19.9,2.9c10.3,3.7,20.1,8.8,29,15.2L180,58l-2.8-0.2c-4.2-0.3-7.5,0.2-8.6,1.4
		c-0.3,0.3-0.5,0.7-0.5,1.2c0.1,1.3,0.4,2.6,0.8,3.9c0.1,0.2,0.1,0.3,0.1,0.4l0,0l0.1,0.4l-0.3,0.3C168.7,65.7,168.6,65.8,167,65.8z
		 M119.7,39.9c0,0.2,0.1,0.5,0.2,0.7c1.1,2.9,1.7,8,2.3,12.9c0.3,2.2,0.5,4.2,0.8,6c0.4,2.5,0.7,2.8,3.2,2.8
		c5.7,0.1,16.1,0.6,25.3,1.1c6.6,0.4,13.3,0.7,15.8,0.7c-0.4-1.2-0.6-2.4-0.7-3.7c-0.1-0.9,0.3-1.8,0.9-2.5c1.5-1.5,4.5-1.9,7.1-1.9
		c-8.2-5.5-17-10-26.3-13.3c-3.4-1.2-12.9-2.7-19.4-2.8l-8.5-0.2C120.1,39.8,119.9,39.8,119.7,39.9z"/>
	<path id="Path_5925" opacity="0.6" fill="#88888C" enable-background="new    " d="M226.2,119.4c-11.4,0-20.6-9.2-20.6-20.6
		s9.2-20.6,20.6-20.6s20.6,9.2,20.6,20.6v0C246.8,110.2,237.6,119.4,226.2,119.4z M226.2,79.9c-10.4,0-18.9,8.5-18.9,18.9
		s8.5,18.9,18.9,18.9s18.9-8.5,18.9-18.9C245.1,88.4,236.6,79.9,226.2,79.9z"/>
</g>
<path fill="#88888C" d="M270.8,132.9c0-2.2-1.8-4-4-4s-4,1.8-4,4c0,2,1.4,3.6,3.3,3.9v10.4H5.3v-10.4c2.1-0.2,3.7-1.9,3.7-4
	c0-2.2-1.8-4-4-4s-4,1.8-4,4c0,2,1.4,3.6,3.3,3.9v10.9l0,0v0.5h262.8v-0.5l0,0v-10.9C269.1,136.7,270.8,135,270.8,132.9z"/>
<path fill="#88888C" d="M293,26.8h-0.1v-0.5H282c-0.2-2-1.9-3.5-3.9-3.5c-2.2,0-4,1.8-4,4s1.8,4,4,4c2,0,3.7-1.5,3.9-3.5h10v95.8
	h-10c-0.2-2-1.9-3.5-3.9-3.5c-2.2,0-4,1.8-4,4s1.8,4,4,4c2,0,3.7-1.5,3.9-3.5h10.9v-0.5h0.1V26.8z"/>
<path fill="#88888C" d="M33.1,58.7V2.3h-1v56.3c-2,0.2-3.5,1.9-3.5,3.9c0,2.2,1.8,4,4,4s4-1.8,4-4C36.6,60.6,35.1,58.9,33.1,58.7z"
	/>
</svg>
