<?xml version="1.0" encoding="utf-8"?>
<!-- Generator: Adobe Illustrator 21.1.0, SVG Export Plug-In . SVG Version: 6.00 Build 0)  -->
<svg version="1.1" id="Capa_1" xmlns="http://www.w3.org/2000/svg" xmlns:xlink="http://www.w3.org/1999/xlink" x="0px" y="0px"
	 viewBox="0 0 294 150" enable-background="new 0 0 294 150" xml:space="preserve">
<path fill="#88888C" d="M270.8,132.9c0-2.2-1.8-4-4-4s-4,1.8-4,4c0,2,1.4,3.6,3.3,3.9v10.4H5.3v-10.4c2.1-0.2,3.7-1.9,3.7-4
	c0-2.2-1.8-4-4-4s-4,1.8-4,4c0,2,1.4,3.6,3.3,3.9v10.9l0,0v0.5h262.8v-0.5l0,0v-10.9C269.1,136.7,270.8,135,270.8,132.9z"/>
<path fill="#88888C" d="M293,26.8h-0.1v-0.5H282c-0.2-2-1.9-3.5-3.9-3.5c-2.2,0-4,1.8-4,4s1.8,4,4,4c2,0,3.7-1.5,3.9-3.5h10v95.8
	h-10c-0.2-2-1.9-3.5-3.9-3.5c-2.2,0-4,1.8-4,4s1.8,4,4,4c2,0,3.7-1.5,3.9-3.5h10.9v-0.5h0.1V26.8z"/>
<g>
	<path id="Path_5926_1_" opacity="0.6" fill="#88888C" enable-background="new    " d="M221.8,125.6c-11.1,0-20.1-9-20.1-20.1
		s9-20.1,20.1-20.1c11.1,0,20.1,9,20.1,20.1c0,0,0,0,0,0C241.9,116.6,232.9,125.6,221.8,125.6z M221.8,87.1
		c-10.2,0-18.4,8.2-18.4,18.4s8.2,18.4,18.4,18.4c10.2,0,18.4-8.2,18.4-18.4C240.2,95.4,232,87.1,221.8,87.1z"/>
	<path id="Path_5927_1_" opacity="0.6" fill="#88888C" enable-background="new    " d="M63.1,125.6c-11.1,0-20.1-9-20.1-20.1
		c0-11.1,9-20.1,20.1-20.1c11.1,0,20.1,9,20.1,20.1C83.2,116.6,74.2,125.6,63.1,125.6z M63.1,87.1c-10.2,0-18.4,8.2-18.4,18.4
		s8.2,18.4,18.4,18.4c10.2,0,18.4-8.2,18.4-18.4C81.5,95.4,73.3,87.1,63.1,87.1z"/>
	<path id="Path_5928_1_" fill="#88888C" d="M262,116h-18.1l0.3-1.1c2.5-9.5,1.3-18.1-3.3-24.2c-4.2-5.4-10.9-8.4-19-8.4
		c-8.1,0-14.9,3-19,8.4c-4.7,6.1-5.9,14.7-3.3,24.2l0.3,1.1H85.2l0.3-1.1c2.5-9.5,1.3-18.1-3.3-24.2c-4.2-5.4-10.9-8.4-19-8.4
		c-8.1,0-14.8,3-19,8.4c-4.7,6-5.9,14.6-3.4,24l0.3,1.1l-27-1.9c-5.2-0.3-9.4-8.4-9.4-18c0-5.7,0.8-8.5,2.9-9.4l0,0l1.1-0.4
		c0.1-6.3,0.7-12.6,1.7-18.8c0.3-1.6,0.9-3.2,1.8-4.6l0.3-0.6C19.6,48.9,25.8,40,32.6,33.1c2.9-3,5.4-4.1,10.2-4.3
		c19.6-0.8,36.7-1.2,65.4-1.2c32.3,0,50.6,0.2,60.9,1c5,0.3,9.8,1.7,14.2,4.1c13.1,6.7,28.5,15.7,48.6,28.1
		c4.3,1.4,8.7,2.7,13.9,4.7c7.3,2.7,11,4.5,12.5,5.8c3.8,3.8,6.2,8.8,6.9,14.1c4.2,1.4,5.7,4.1,5.7,10.3
		C270.8,105.6,268,116,262,116z M246.1,114.3H262c4.6,0,7.1-9.5,7.1-18.4c0-6.3-1.6-7.9-5-8.9l-0.5-0.1l-0.1-0.5
		c-0.8-5.6-3.1-10.5-6.5-13.7c-1.6-1.5-7.6-3.9-11.9-5.5c-5.2-1.9-9.6-3.3-13.9-4.7l-0.1,0l-0.1-0.1C210.9,50,195.5,41,182.5,34.3
		c-4.2-2.3-8.8-3.6-13.6-3.9c-10.2-0.8-28.5-1-60.8-1c-28.6,0-45.7,0.3-65.3,1.2c-4.3,0.2-6.3,1-9,3.8C27.1,41,21,49.9,13.9,62.9
		c-0.1,0.2-0.2,0.4-0.4,0.6c-0.8,1.2-1.4,2.6-1.6,4.1c-1,6.3-1.6,12.7-1.7,19.1l0,0.5l-2,0.8c-1.7,0.8-1.9,4.9-1.9,7.9
		c0,9.5,4.1,16.2,7.9,16.4l24.7,1.7c-2.2-9.5-0.8-18.1,4-24.3c4.5-5.8,11.7-9,20.3-9c8.6,0,15.9,3.2,20.4,9.1
		c4.8,6.3,6.2,15,3.9,24.6h110.2c-2.3-9.6-0.9-18.3,3.9-24.6c4.5-5.8,11.7-9.1,20.4-9.1c8.6,0,15.9,3.2,20.4,9.1
		C247,96,248.4,104.7,246.1,114.3L246.1,114.3z"/>
	<path id="Path_5929_1_" opacity="0.6" fill="#88888C" enable-background="new    " d="M229.2,67.9h-28.1l-3.6-21.5l1.6,1
		c9,5.6,18.5,12,28.1,19L229.2,67.9z M202.5,66.2h21.6c-8.3-6-16.4-11.5-24.3-16.5L202.5,66.2z"/>
	<path id="Path_5930_1_" opacity="0.6" fill="#88888C" enable-background="new    " d="M198,67.9h-54.4l-4.4-35.3h1
		c16.5,0.1,25.2,0.4,29,1c3.9,0.4,7.6,1.5,11.1,3.1c4,2,8.6,4.5,13.5,7.4l0.3,0.2L198,67.9z M145,66.2h51l-3.5-20.9
		c-4.7-2.8-9.1-5.2-13-7.2c-3.4-1.5-7-2.5-10.7-2.9c-3.6-0.5-12-0.8-27.8-1L145,66.2z"/>
	<path id="Path_5931_1_" opacity="0.6" fill="#88888C" enable-background="new    " d="M135.6,67.9h-52L88,32.6h0.7
		c5.6,0,11.9-0.1,19.4-0.1c8.9,0,16.2,0,22.4,0h0.7L135.6,67.9z M85.5,66.2h48.2l-4-31.9c-6,0-13.1,0-21.6,0c-7.1,0-13.2,0-18.6,0.1
		L85.5,66.2z"/>
	<path id="Path_5932_1_" opacity="0.6" fill="#88888C" enable-background="new    " d="M77.2,67.9H33.9l-5.5-5.4l0.2-0.5
		c3.4-9.3,7.9-18.3,11.3-22.5c2.4-3.1,5.9-5,9.8-5.4c4.8-0.7,14.6-1.1,30.9-1.3h1L77.2,67.9z M34.6,66.2h41.1l4-31.8
		C64,34.6,54.6,35,49.9,35.6c-3.5,0.3-6.6,2.1-8.8,4.8c-3.2,4-7.6,12.7-10.9,21.6L34.6,66.2z"/>
</g>
<path fill="#88888C" d="M22.1,58.7V2.3h-1v56.3c-2,0.2-3.5,1.9-3.5,3.9c0,2.2,1.8,4,4,4s4-1.8,4-4C25.6,60.6,24.1,58.9,22.1,58.7z"
	/>
</svg>
