<?xml version="1.0" encoding="utf-8"?>
<!-- Generator: Adobe Illustrator 21.1.0, SVG Export Plug-In . SVG Version: 6.00 Build 0)  -->
<svg version="1.1" id="silueta_coupe" xmlns="http://www.w3.org/2000/svg" xmlns:xlink="http://www.w3.org/1999/xlink" x="0px"
	 y="0px" viewBox="0 0 294 150" enable-background="new 0 0 294 150" xml:space="preserve">
<path id="Path_5915" fill="#88888C" d="M196.5,110.7L196.5,110.7l-110.7-0.1h-0.1c-0.6-0.1-1.2-0.1-1.7-0.2c-1.8-0.2-2.8-0.3-3.3-1
	c-0.6-0.8-0.5-1.9-0.3-4.2c0.1-0.5,0.1-1.1,0.2-1.7c0.2-1.8,0.2-3.6,0.2-5.4c0-13.8-11.2-25.1-25.1-25.1S30.7,84.1,30.7,98
	c0,0.6,0,1.2,0,1.8c0,0.7,0,1.4,0,2.1c0,2.6-0.1,4.2-1.1,5c-1,0.9-2.3,0.8-4.5,0.6c-0.3,0-0.6-0.1-0.9-0.1l-1.2-0.1
	c-3.4-0.3-6.9-0.6-9.8-1c-2.2-0.3-5.1-1-6.4-2.2c-3-2.8-2.9-10.3-2.8-15.3V88c0-1.1,1.1-1.5,1.9-1.8c0.3-0.1,0.6-0.3,0.9-0.4
	C7.2,79,7.6,73.2,8.4,66.4c0.3-3.2,2.9-5.8,7-7.1c7-2.2,16-3.9,23.2-5.2c4.4-0.8,8.2-1.5,10.3-2.1c2.4-0.7,4.6-1.7,6.6-3.1
	c0.3-0.2,0.6-0.4,0.9-0.6c7.3-4.5,14.8-8.7,22.6-12.4c1-0.4,2.1-1,3-1.5c3.7-1.8,7.4-3.7,12.9-3.7c2.8,0,5.6,0,8.5-0.1
	c16-0.2,32.6-0.4,46.7,4.1c10.8,3.4,21.1,8.8,31.1,14c4.7,2.5,9.6,5,14.5,7.3c19.2,2.2,38.3,5.6,57.1,10.2c6.8,1.7,9.4,5.1,11,8.2
	c1.2,2.4,2.2,4.8,3,7.3c0.3,0.8,0.5,1.5,0.7,2.1c0.9,0.1,1.7,0.7,2,1.5c0,0.1,0.1,0.2,0.1,0.3c0.3,0.5,0.5,1.6,0.5,5.6
	c-0.1,1.8-0.2,4.6-0.3,6.4c-0.3,3.7-1,6.2-3.2,7.8c-1.4,1-3.1,1.6-4.8,1.7l-5.1,0.2h-0.1c-0.7-0.1-1.4-0.2-1.9-0.2
	c-1.8-0.2-2.8-0.3-3.4-1.1c-0.5-0.8-0.4-1.9-0.3-4c0-0.4,0.1-1,0.1-1.5c0.1-0.9,0.1-1.8,0.1-2.7c0-13.8-11.2-25.1-25.1-25.1
	S200.8,84.2,200.8,98c0,2.3,0.2,4.6,0.6,6.8c0.1,0.7,0.3,1.3,0.4,1.8c0.4,1.7,0.5,2.6,0,3.3c-0.5,0.6-1.4,0.7-2.9,0.7
	C198.3,110.6,197.5,110.6,196.5,110.7L196.5,110.7z M85.9,108.9l110.6,0.1c1-0.1,1.7-0.1,2.4-0.1c0.5,0,1.1,0,1.6-0.1
	c-0.1-0.6-0.2-1.2-0.3-1.8c-0.1-0.5-0.2-1.1-0.4-1.8c-0.4-2.4-0.6-4.8-0.6-7.1c-0.1-14.8,11.8-26.8,26.6-26.9s26.8,11.8,26.9,26.6
	c0,0.1,0,0.2,0,0.3c0,0.9,0,1.9-0.1,2.8c0,0.6-0.1,1.1-0.1,1.5c-0.2,1-0.2,1.9,0,2.9c0.7,0.3,1.4,0.4,2.2,0.4
	c0.5,0.1,1.2,0.1,1.9,0.2l5-0.2c1.4-0.1,2.7-0.5,3.9-1.3c1.5-1.2,2.2-2.8,2.5-6.6c0.2-1.8,0.3-4.6,0.3-6.3c0.1-3.9-0.2-4.7-0.3-4.8
	c-0.1-0.1-0.1-0.2-0.1-0.3c-0.3-0.6-0.3-0.6-1.2-0.7l-0.5,0l-0.2-0.5c-0.3-0.7-0.6-1.6-1-2.6c-0.8-2.4-1.8-4.8-2.9-7.1
	c-1.5-3-3.8-5.9-9.9-7.4c-18.8-4.6-37.8-8-57-10.2l-0.1,0l-0.1-0.1c-4.9-2.3-9.9-4.9-14.7-7.4c-9.9-5.1-20.1-10.5-30.8-13.9
	c-13.9-4.4-30.3-4.2-46.2-4.1c-3,0-5.7,0.1-8.6,0.1c-5.1,0-8.5,1.7-12.2,3.5c-1,0.5-2,1-3.1,1.5c-7.7,3.7-15.2,7.8-22.4,12.3
	c-0.3,0.2-0.6,0.4-0.9,0.5c-2.2,1.5-4.5,2.6-7.1,3.3c-2.1,0.6-6,1.4-10.4,2.2c-7.1,1.4-16.1,3-23,5.2c-3.4,1.1-5.5,3.1-5.8,5.6
	C9.3,73.3,8.8,79,8.5,85.8c-0.1,1.1-1.2,1.5-1.9,1.8C6.2,87.8,6,87.9,5.7,88v0.8c-0.1,4.1-0.2,11.7,2.3,14c0.8,0.7,2.8,1.4,5.5,1.7
	c2.9,0.4,6.3,0.7,9.7,1l1.2,0.1c0.3,0,0.6,0.1,0.9,0.1c1.6,0.1,2.8,0.3,3.2-0.1c0.5-0.4,0.5-2.2,0.5-3.8v-2.1c0-0.6,0-1.2,0-1.8
	c0.1-14.8,12.1-26.7,26.9-26.6c14.7,0.1,26.5,11.9,26.6,26.6c0,1.9-0.1,3.7-0.3,5.6c-0.1,0.6-0.1,1.2-0.2,1.7c-0.2,1-0.3,2-0.1,3
	c0.7,0.3,1.4,0.4,2.2,0.4C84.7,108.7,85.2,108.8,85.9,108.9z"/>
<path id="Path_5916" opacity="0.6" fill="#88888C" enable-background="new    " d="M106.8,62.4c-0.4,0-0.9,0-1.4-0.1
	c-0.3,0-0.6,0-0.9-0.1l-24.6-1.2c-3.1-0.1-5-1.1-5.7-2.8c-0.8-1.9,0.2-4.4,2.5-6.9c3.7-3.6,7.8-6.8,12.2-9.7
	c2.4-1.6,8.3-5.3,10.5-5.3h0.1l3.9,0.1c2.3,0.1,2.8,1.4,3,2.9c0.6,3.3,1.2,7.7,2.6,18.9l0,0c0.2,1.8,0.3,2.8-0.3,3.5
	C108.2,62.3,107.5,62.5,106.8,62.4z M99.3,38.2c-2.5,0-15.9,8.8-21.4,14.5c-1.8,1.9-2.7,3.9-2.2,5.1c0.5,1.3,2.6,1.7,4.2,1.7
	l24.6,1.2c0.3,0,0.6,0,0.9,0.1c0.7,0.1,1.3,0.1,2,0c0-0.7,0-1.5-0.1-2.2l0,0c-1.4-11.2-2-15.5-2.6-18.8c-0.2-1.3-0.3-1.4-1.4-1.5
	L99.3,38.2z"/>
<path id="Path_5917" opacity="0.6" fill="#88888C" enable-background="new    " d="M167.5,64.6L167.5,64.6l-48-2
	c-3.3-0.1-4.2-1-4.8-4.3c-1-5.5-2.3-13.6-3.1-18.9c-0.2-0.8-0.1-1.6,0.3-2.3c0.5-0.5,1.2-0.7,1.9-0.6l14,0.5
	c6.5,0.2,16.3,1.6,20.1,2.9c10.4,3.7,20.2,8.9,29.2,15.3l2.3,1.7l-2.8-0.2c-4.3-0.3-7.5,0.3-8.7,1.4c-0.3,0.3-0.5,0.7-0.5,1.2
	c0.1,1,0.3,1.9,0.7,2.8c0.4,1.1,0.6,1.7,0.2,2.2C168,64.5,167.8,64.6,167.5,64.6z M113.1,38.2c0,0.3,0,0.6,0.1,0.9
	c0.8,5.3,2.1,13.4,3.1,18.9c0.5,2.5,0.8,2.8,3.3,2.9l47,2c0-0.1-0.1-0.2-0.1-0.3c-0.4-1.1-0.6-2.1-0.8-3.3c-0.1-0.9,0.3-1.8,1-2.5
	c1.5-1.5,4.6-1.9,7.2-1.9c-8.2-5.6-17.2-10.1-26.5-13.5c-3.3-1.1-12.7-2.6-19.6-2.8l-14-0.5C113.4,38.2,113.2,38.2,113.1,38.2z"/>
<path id="Path_5918" opacity="0.6" fill="#88888C" enable-background="new    " d="M55.8,118.7C44.3,118.7,35,109.5,35,98
	s9.3-20.8,20.8-20.8S76.5,86.5,76.5,98l0,0C76.5,109.4,67.2,118.7,55.8,118.7z M55.8,78.9c-10.5,0-19.1,8.5-19.1,19.1
	s8.5,19.1,19.1,19.1s19.1-8.5,19.1-19.1l0,0C74.9,87.4,66.3,78.9,55.8,78.9L55.8,78.9z"/>
<path id="Path_5919" opacity="0.6" fill="#88888C" enable-background="new    " d="M225.9,118.7c-11.5,0-20.8-9.3-20.8-20.8
	c0-11.5,9.3-20.8,20.8-20.8c11.5,0,20.8,9.3,20.8,20.8C246.7,109.4,237.4,118.7,225.9,118.7z M225.9,78.9
	c-10.5,0-19.1,8.5-19.1,19.1s8.5,19.1,19.1,19.1c10.5,0,19.1-8.5,19.1-19.1C245,87.4,236.4,78.9,225.9,78.9L225.9,78.9z"/>
<path fill="#88888C" d="M270.8,132.9c0-2.2-1.8-4-4-4s-4,1.8-4,4c0,2,1.4,3.6,3.3,3.9v10.4H5.3v-10.4c2.1-0.2,3.7-1.9,3.7-4
	c0-2.2-1.8-4-4-4s-4,1.8-4,4c0,2,1.4,3.6,3.3,3.9v10.9l0,0v0.5h262.8v-0.5l0,0v-10.9C269.1,136.7,270.8,135,270.8,132.9z"/>
<path fill="#88888C" d="M293,26.8h-0.1v-0.5H282c-0.2-2-1.9-3.5-3.9-3.5c-2.2,0-4,1.8-4,4s1.8,4,4,4c2,0,3.7-1.5,3.9-3.5h10v95.8
	h-10c-0.2-2-1.9-3.5-3.9-3.5c-2.2,0-4,1.8-4,4s1.8,4,4,4c2,0,3.7-1.5,3.9-3.5h10.9v-0.5h0.1V26.8z"/>
<path fill="#88888C" d="M33.1,58.7V2.3h-1v56.3c-2,0.2-3.5,1.9-3.5,3.9c0,2.2,1.8,4,4,4s4-1.8,4-4C36.6,60.6,35.1,58.9,33.1,58.7z"
	/>
</svg>
