<?xml version="1.0" encoding="utf-8"?>
<!-- Generator: Adobe Illustrator 21.1.0, SVG Export Plug-In . SVG Version: 6.00 Build 0)  -->
<svg version="1.1" id="silueta_todoterreno" xmlns="http://www.w3.org/2000/svg" xmlns:xlink="http://www.w3.org/1999/xlink"
	 x="0px" y="0px" viewBox="0 0 294 150" enable-background="new 0 0 294 150" xml:space="preserve">
<g>
	<path id="Path_5940" fill="#88888C" d="M256.5,107.6h-6.6c-2.5,0-3.6-0.1-4.4-0.8c-0.8-0.7-0.9-1.8-0.9-3.5c0-0.6-0.1-1.2-0.1-1.9
		c-1.1-14.4-13.6-25.3-28-24.2c-12.9,1-23.2,11.2-24.2,24.1c-0.1,0.9-0.1,1.6-0.1,2.2c-0.1,1.7-0.1,2.8-1,3.4
		c-0.8,0.5-1.9,0.6-4.5,0.6H80.2c-5.5,0-6-0.4-6.4-4.7c-0.1-0.7-0.1-1.6-0.2-2.6C72,86,59,75.7,44.6,77.3
		c-12.4,1.4-22,11.4-23.1,23.8c-0.1,0.6-0.1,1.3-0.1,1.9c0,2.2,0,4.7-3.3,4.7h-1.8l-0.1,0c-0.2,0-0.3-0.1-0.5-0.1
		c-0.4-0.1-0.8-0.1-1.1-0.2c-2.8-0.4-4.4-0.8-4.9-5c-0.4-3.2-0.5-7.6-0.5-11.2C9.2,89,9.2,87,9,85.8c-0.1-1.2-0.4-4.9,3.1-5.6l0.1,0
		c0.7-0.1,1.4-0.3,2-0.5c0.3-6.7,1.5-13.3,3.4-19.7c2.9-9.8,6.7-19.3,11.4-28.4c0.3-0.6,0.6-1.2,0.9-1.7c2-4.1,2.3-4.3,8.2-4.2h1.1
		c6,0,12.1,0,18.2,0c21.6-0.1,44-0.1,65.6,0.3l4.7,0.1c16.8,0.3,32.7,0.6,39.9,2.9l0.1,0l0.1,0c6.3,3.5,12.3,10,17.6,15.8
		c2.7,3.1,5.6,6.1,8.8,8.8c3.2,0.3,6.4,0.6,9.6,1c15.4,1.5,31.3,3.1,46.4,6.8l0.8,0.2c5.8,1.4,8.3,2,9.5,8.9
		c0.4,2.2,0.6,4.4,0.8,6.4c0.1,1.4,0.2,2.6,0.4,3.6h0.4c0.9,0,1.9,0.5,2,3l0,0.9c0.1,4.3,0.4,12.3-0.2,17
		C263.3,105.6,260.9,107.6,256.5,107.6z M218.3,75.5c14.6,0,26.7,11.2,27.7,25.8c0.1,0.8,0.1,1.4,0.1,2c0.1,1.2,0.1,2.1,0.4,2.3
		c0.4,0.4,1.9,0.4,3.4,0.4h6.6c3.7,0,5.4-1.4,5.8-4.8c0.6-4.5,0.4-12.5,0.2-16.7l0-0.9c0-0.8-0.2-1.4-0.4-1.4h-0.1
		c-0.4,0-0.7,0-1.1,0l-0.6-0.1l-0.1-0.6c-0.3-1.4-0.4-2.9-0.5-4.4c-0.2-1.9-0.4-4.2-0.8-6.2c-1.1-5.9-2.6-6.2-8.3-7.7l-0.8-0.2
		c-15-3.7-30.8-5.3-46.2-6.8c-3.2-0.3-6.6-0.6-9.9-1l-0.2,0l-0.2-0.1c-3.3-2.8-6.3-5.9-9.1-9.1c-5.2-5.6-11.1-12.1-17.1-15.4
		c-7-2.2-22.7-2.5-39.4-2.8l-4.7-0.1c-21.7-0.4-44-0.4-65.6-0.3c-6.1,0-12.2,0-18.2,0h-1.1c-2.6,0-4,0-4.8,0.4
		c-0.7,0.3-1.1,1.1-2,2.9c-0.2,0.5-0.5,1.1-0.9,1.7c-4.7,9-8.4,18.4-11.3,28.1c-1.9,6.3-3,12.9-3.3,19.5c-0.1,1.2-1.6,1.5-3.3,1.8
		l-0.1,0c-1.1,0.2-2.1,0.9-1.8,3.9c0.1,1.2,0.1,3.2,0.2,5.4c0,3.7,0.2,7.3,0.5,11c0.4,3.2,1.1,3.2,3.5,3.6c0.4,0.1,0.8,0.1,1.2,0.2
		c0.2,0,0.3,0.1,0.5,0.1h1.6c1.5,0,1.7-0.5,1.7-3c0-0.7,0-1.3,0.1-2C21.2,85.6,34.7,74.3,50,75.6c13.2,1.1,23.8,11.4,25.3,24.6
		c0.1,1,0.2,1.9,0.2,2.7c0.1,1.6,0.2,2.4,0.6,2.7c0.5,0.4,2.1,0.4,4.2,0.4h106.3c1.2,0.1,2.4,0,3.6-0.3c0.2-0.2,0.3-1,0.3-2.1
		c0-0.6,0.1-1.4,0.1-2.3C191.7,86.8,203.7,75.5,218.3,75.5L218.3,75.5z"/>
	<path id="Path_5941" opacity="0.6" fill="#88888C" enable-background="new    " d="M218.3,125.6c-12.3,0-22.4-10-22.4-22.4
		s10-22.4,22.4-22.4c12.3,0,22.4,10,22.4,22.4C240.6,115.6,230.6,125.6,218.3,125.6z M218.3,82.6c-11.5,0-20.7,9.3-20.7,20.7
		c0,11.5,9.3,20.7,20.7,20.7c11.5,0,20.7-9.3,20.7-20.7c0,0,0,0,0,0C239,91.9,229.7,82.6,218.3,82.6L218.3,82.6z"/>
	<path id="Path_5942" opacity="0.6" fill="#88888C" enable-background="new    " d="M47.6,125.6c-12.3,0-22.4-10-22.4-22.4
		c0-12.3,10-22.4,22.4-22.4s22.4,10,22.4,22.4C69.9,115.6,59.9,125.6,47.6,125.6z M47.6,82.6c-11.5,0-20.7,9.3-20.7,20.7
		c0,11.5,9.3,20.7,20.7,20.7s20.7-9.3,20.7-20.7c0,0,0,0,0,0C68.3,91.9,59,82.6,47.6,82.6L47.6,82.6z"/>
</g>
<path id="Path_5943" opacity="0.6" fill="#88888C" enable-background="new    " d="M167.3,58.3c-2.2,0-5.2,0-9-0.1
	c-7.9-0.2-17.7-0.5-23.9-0.8c-3.7,0.1-4.4-2.5-4.8-5.1c-1-6.3-2.3-14.5-3-18.6c-0.3-0.7-0.3-1.5,0.1-2.1c0.5-0.6,1.3-0.9,2-0.8
	l8.5,0.2c0.3,0,26.4,0.6,30.7,2l0.1,0.1l0.1,0.1c5.1,4.2,10,8.2,15.7,16l1,1.4l-1.7-0.1c-4.2-0.3-7.4,0.2-8.6,1.4
	c-0.3,0.3-0.5,0.7-0.5,1.2c0.1,1.1,0.4,2.3,0.9,3.3c0.1,0.2,0.2,0.4,0.2,0.7l0,0.1c0,0.3-0.1,0.5-0.2,0.7
	C174.8,58,174.4,58.3,167.3,58.3z M134.5,55.7L134.5,55.7c12.4,0.7,34.5,1.2,38.9,0.8c-0.5-1.1-0.8-2.3-0.9-3.5
	c-0.1-0.9,0.3-1.8,0.9-2.4c1.7-1.6,5.3-2,8.1-1.9c-4.1-5.3-8.9-10.1-14.3-14.2c-3.3-1-20.1-1.7-30.1-1.9l-8.5-0.2
	c-0.2,0-0.4,0-0.6,0.1c0,0.2,0.1,0.5,0.2,0.7l0,0.1c0.7,4.1,2,12.3,3,18.7c0.4,2.7,0.9,3.7,3.1,3.7L134.5,55.7L134.5,55.7z"/>
<path id="Path_5944" opacity="0.6" fill="#88888C" enable-background="new    " d="M110.3,57.6c-8.5,0-19,0-27.3-0.3
	c-0.3,0-0.6,0-0.8,0c-1.7,0-2.9-0.1-3.7-0.9c-0.6-0.7-0.8-1.9-0.6-4c0.5-4.5,2.5-10.8,4.1-15.8c0.2-0.7,0.4-1.4,0.6-2
	c0.5-1.7,1.4-4.3,4.1-4.3h0.1c5.5,0.2,10.7,0.2,15.8,0.2c5.1,0,10.3,0.1,15.6,0.2h0c1.1,0,2.2,0.5,2.8,1.5c1,2.6,1.4,5.8,2.3,13.5
	c0.2,2,0.5,4.3,0.8,7c0.2,1.8,0.3,3.1-0.4,4c-0.7,0.8-1.9,0.9-4.1,0.9L110.3,57.6L110.3,57.6z M86.7,31.9c-1.3,0-1.9,1-2.5,3.1
	c-0.2,0.6-0.4,1.3-0.6,2c-1.5,4.7-3.6,11.2-4,15.5l0,0c-0.2,1.5-0.1,2.4,0.2,2.7c0.3,0.4,1.2,0.4,2.5,0.4c0.3,0,0.5,0,0.8,0
	C93.2,56,106.8,56,115.8,56h3.9c1.2,0,2.6,0,2.9-0.4c0.3-0.3,0.2-1.5,0-2.7c-0.3-2.7-0.6-5-0.8-7c-0.9-7.6-1.3-10.7-2.2-13.1
	c-0.4-0.3-0.9-0.5-1.4-0.5h0c-5.4-0.2-10.6-0.2-15.6-0.2C97.5,32.1,92.2,32.1,86.7,31.9C86.7,31.9,86.7,31.9,86.7,31.9z"/>
<path id="Path_5945" opacity="0.6" fill="#88888C" enable-background="new    " d="M57.2,57.3c-2.8,0-6.1,0-9.6,0
	c-6.7,0-13.6-0.1-17.1,0c-1.1,0.2-2.1-0.3-2.8-1.1c-0.7-1-0.6-2.4,0.2-4.8C32.3,39,34,35.6,35.8,32.1c0.8-1,1.9-1.6,3.1-1.8l0,0
	c6.2-0.1,21.8-0.3,29.8-0.2c1.7,0,3.3,0.2,4,1.3c0.7,1.1,0.1,2.7-0.8,4.7c-1,2.3-2.1,4.7-3.1,7c-1.7,3.9-3.3,7.6-4.4,10.1
	c-1.3,2.7-3.2,4.1-5.9,4.1C58.1,57.3,57.6,57.3,57.2,57.3z M37.4,55.7c3.1,0,6.7,0,10.2,0c4,0,7.8,0,10.9,0c2,0,3.4-1,4.4-3.2l0,0
	c1.2-2.5,2.8-6.1,4.4-10c1-2.3,2.1-4.7,3.1-7c0.4-0.9,1.2-2.7,0.9-3.1c-0.1-0.2-0.6-0.5-2.7-0.5c-8.1-0.1-23.6,0.1-29.8,0.2h0
	c-0.6,0.2-1.2,0.5-1.6,0.9c-1.5,2.8-3.1,5.8-7.8,19.1c-0.8,2.2-0.6,3-0.4,3.3s0.7,0.4,1.5,0.4C32.1,55.7,34.6,55.7,37.4,55.7
	L37.4,55.7z"/>
<path fill="#88888C" d="M270.8,132.9c0-2.2-1.8-4-4-4s-4,1.8-4,4c0,2,1.4,3.6,3.3,3.9v10.4H5.3v-10.4c2.1-0.2,3.7-1.9,3.7-4
	c0-2.2-1.8-4-4-4s-4,1.8-4,4c0,2,1.4,3.6,3.3,3.9v10.9l0,0v0.5h262.8v-0.5l0,0v-10.9C269.1,136.7,270.8,135,270.8,132.9z"/>
<path fill="#88888C" d="M293,26.8h-0.1v-0.5H282c-0.2-2-1.9-3.5-3.9-3.5c-2.2,0-4,1.8-4,4s1.8,4,4,4c2,0,3.7-1.5,3.9-3.5h10v95.8
	h-10c-0.2-2-1.9-3.5-3.9-3.5c-2.2,0-4,1.8-4,4s1.8,4,4,4c2,0,3.7-1.5,3.9-3.5h10.9v-0.5h0.1V26.8z"/>
<path fill="#88888C" d="M33.1,58.7V2.3h-1v56.3c-2,0.2-3.5,1.9-3.5,3.9c0,2.2,1.8,4,4,4s4-1.8,4-4C36.6,60.6,35.1,58.9,33.1,58.7z"
	/>
</svg>
