<?xml version="1.0" encoding="utf-8"?>
<!-- Generator: Adobe Illustrator 21.1.0, SVG Export Plug-In . SVG Version: 6.00 Build 0)  -->
<svg version="1.1" id="Group_8790" xmlns="http://www.w3.org/2000/svg" xmlns:xlink="http://www.w3.org/1999/xlink" x="0px" y="0px"
	 viewBox="0 0 46 24" enable-background="new 0 0 46 24" xml:space="preserve">
<path fill-rule="evenodd" clip-rule="evenodd" fill="#ABABAE" d="M23.7,6.3c1.5,0.1,2.9,0.4,4.2,0.9l-0.9,1.9c-0.2,0.4,0,0.8,0.4,1
	h0c0.4,0.2,0.8,0,1-0.4l0.9-1.9c1.3,0.7,2.5,1.6,3.4,2.6l-1.6,1.3c-0.3,0.3-0.4,0.7-0.1,1l0,0c0.3,0.3,0.7,0.4,1,0.1l1.6-1.3
	c0.9,1.2,1.5,2.5,2,3.9l-2,0.5c-0.4,0.1-0.6,0.5-0.5,0.9l0,0c0.1,0.4,0.5,0.6,0.9,0.5l2-0.5c0.2,0.9,0.3,1.8,0.3,2.7
	c0,0.6,0,1.3-0.1,1.9H26c0.3-0.5,0.5-1.2,0.5-1.9c0-0.3,0-0.5-0.1-0.8l2.2-5.7c0.1-0.2,0-0.5-0.2-0.7c-0.2-0.2-0.5-0.2-0.7,0
	l-4.9,3.7c-1.9,0.1-3.4,1.6-3.4,3.5c0,0.7,0.2,1.3,0.5,1.9H9.7c-0.1-0.6-0.1-1.2-0.1-1.9c0-0.9,0.1-1.9,0.3-2.7l2,0.5
	c0.4,0.1,0.8-0.1,0.9-0.5l0,0c0.1-0.4-0.1-0.8-0.5-0.9l-2-0.5c0.5-1.4,1.1-2.7,2-3.9l1.6,1.3c0.3,0.3,0.8,0.2,1-0.1l0,0
	c0.3-0.3,0.2-0.8-0.1-1l-1.6-1.3c1-1.1,2.2-2,3.4-2.6l0.9,1.9c0.2,0.4,0.6,0.5,1,0.4h0c0.4-0.2,0.5-0.6,0.4-1L18,7.2
	c1.3-0.5,2.7-0.9,4.2-0.9v2.1c0,0.4,0.3,0.7,0.7,0.7h0c0.4,0,0.7-0.3,0.7-0.7V6.3L23.7,6.3z M22.1,20.8c-0.7-0.5-0.8-1.4-0.3-2.1
	c0.5-0.7,1.4-0.8,2.1-0.3c0.7,0.5,0.8,1.4,0.3,2.1C23.7,21.2,22.7,21.3,22.1,20.8L22.1,20.8z M23,3.8c8.7,0,15.8,7.1,15.8,15.8
	c0,0.6,0,1.3-0.1,1.9H40c0.1-0.6,0.1-1.2,0.1-1.9c0-9.5-7.7-17.1-17.1-17.1c-9.5,0-17.1,7.7-17.1,17.1c0,0.6,0,1.3,0.1,1.9h1.3
	c-0.1-0.6-0.1-1.2-0.1-1.9C7.2,10.9,14.3,3.8,23,3.8L23,3.8z"/>
</svg>
