<?xml version="1.0" encoding="utf-8"?>
<!-- Generator: Adobe Illustrator 21.1.0, SVG Export Plug-In . SVG Version: 6.00 Build 0)  -->
<svg version="1.1" id="Capa_1" xmlns="http://www.w3.org/2000/svg" xmlns:xlink="http://www.w3.org/1999/xlink" x="0px" y="0px"
	 viewBox="0 0 76 30" enable-background="new 0 0 76 30" xml:space="preserve">
<g transform="translate(2743.986 9569.978)">
	<g transform="translate(49.383 13.714)">
		<path fill="#ABABAE" d="M-2732.4-9568c-3.1,0-5.6,2.5-5.6,5.6s2.5,5.6,5.6,5.6s5.6-2.5,5.6-5.6l0,0
			C-2726.9-9565.5-2729.3-9568-2732.4-9568z M-2732.4-9559.2c-1.8,0-3.2-1.5-3.2-3.2s1.5-3.2,3.2-3.2s3.2,1.5,3.2,3.2
			S-2730.6-9559.2-2732.4-9559.2L-2732.4-9559.2z"/>
	</g>
	<path fill="none" d="M-2719.6-9565.7c0-0.2-0.2-0.3-0.4-0.3h-0.7c-0.2,0-0.3,0.1-0.4,0.3l-1.2,4.6c-0.1,0.2,0.1,0.4,0.3,0.5l0,0
		c0.9,0.2,1.7,0.2,2.6,0.2c0.2,0,0.4-0.2,0.4-0.4c0,0,0,0,0-0.1L-2719.6-9565.7z"/>
	<path fill="none" d="M-2722.5-9566.1l-4.5,0.5c-0.1,0-0.2,0.1-0.3,0.2l-1.2,2c-0.2,0.3-0.6,1.2-0.7,1.4l1.4,0.2
		c0.6,0.1,0.8,0.2,1.2,0.2l2.9,0.4c0.2,0,0.4-0.1,0.4-0.3l1.2-4.2C-2722-9565.9-2722.2-9566.1-2722.5-9566.1
		C-2722.4-9566.1-2722.4-9566.1-2722.5-9566.1z"/>
	<path fill="none" d="M-2711.9-9565.7c0-0.2-0.2-0.3-0.4-0.3l-5.9,0.1c-0.2,0-0.4,0.2-0.4,0.4l0,0l0.7,4.8c0,0.2,0.2,0.3,0.4,0.3
		l6.3,0.4c0.2,0,0.4-0.2,0.4-0.4v-0.1L-2711.9-9565.7z"/>
	<path fill="none" d="M-2731.8-9559.7l-2.8-0.6c-0.2,0-0.4-0.1-0.6,0.1l-0.1,0.2c-0.1,0.1-0.1,0.2-0.2,0.3l-0.1,0.2
		c-0.1,0.1-0.2,0.3-0.2,0.5l0.1,2.5c0,0.2,0.2,0.4,0.4,0.4h0.5h0.1c0.3,0,0.6-0.1,1-0.2c0.1,0,0.1-0.1,0.2-0.1l2.1-2.3
		c0,0,0-0.1,0.1-0.1C-2731.1-9559.5-2731.8-9559.7-2731.8-9559.7z"/>
	<path fill="none" d="M-2698.3-9562.5l-2.8-1.8c-2.3-1.7-7.2-1.7-7.5-1.7l0,0c-0.4,0-0.7,0.3-0.8,0.7c0,0.1,0,0.1,0,0.2l1.8,5.2
		c0.1,0.2,0.2,0.3,0.4,0.3l8.4,0.2c0.2,0,0.4-0.2,0.4-0.4c0-0.1,0-0.1,0-0.2c-0.2-0.4-0.2-0.9-0.1-1.3c0-0.2,0.1-0.4,0.3-0.5
		s0.2-0.4,0.1-0.5C-2698.2-9562.4-2698.2-9562.5-2698.3-9562.5z"/>
	<path fill="none" d="M-2675.2-9556.6c-0.1-0.1-0.2-0.2-0.3-0.2c-0.4-0.1-0.9-0.1-1.3,0c0,0-1.5,0.1-1.2,0.5l1.6,1.6
		c0.1,0.1,0.2,0.1,0.3,0.1c0.3,0,0.6-0.1,0.9-0.1c0.2-0.1,0.3-0.3,0.3-0.5C-2674.9-9555.8-2675-9556.2-2675.2-9556.6z"/>
	<path fill="#ABABAE" d="M-2673.3-9552.2L-2673.3-9552.2c0.1-0.7,0-1.3-0.1-1.9v-0.1l-0.3-0.5c0-0.1-0.1-0.1,0-0.2
		c0-0.7-0.1-1.5-0.4-2.1c0,0,0-0.1-0.1-0.1c-2.4-2.6-15.2-3.4-15.2-3.4c-0.9-0.1-1.7-0.3-2.6-0.6c-0.1,0-0.1,0-0.1-0.1
		c-3.4-2.9-7.4-5.1-11.7-6.3l0,0c-5.4-1-19.9,0-19.9,0l-2.7,0.3c-1.3,0.1-3.7,0.5-4.9,0.8c-0.2,0-0.4,0.2-0.3,0.5
		c0,0.1,0.1,0.2,0.1,0.2l0,0c0.2,0.1,0.2,0.4,0,0.6l0,0c-1.5,1.2-3.9,3.4-4.5,4.1c-0.3,0.4-0.5,0.9-0.7,1.4c-0.1,1.1,0,3,0,3.5
		c0,0.1,0,0.1-0.1,0.2l-0.4,0.6c-0.1,0.2-0.1,0.4-0.2,0.6v1c0,0.1,0,0.1-0.1,0.2c-0.3,0.5-0.4,1.1-0.4,1.6l0.1,0.9
		c0,0.4,0.1,0.9,0.2,1.3c0.2,1.3,0.9,1.6,1.1,1.6c0,0,0,0,0.1,0l4.7,0.6c0.1,0,0.2,0,0.2,0c0-0.2,0-0.4,0-0.6c0-3.7,3-6.8,6.8-6.8
		c3.7,0,6.8,3,6.8,6.8c0,0.4,0,0.8-0.1,1.3c0.1,0,0.1,0,0.2,0l27.9,0.1c0.1,0,0.2-0.1,0.3-0.2l0.1-0.2l0,0c-0.1-0.4-0.1-0.8-0.1-1.2
		c0-3.7,3-6.7,6.7-6.7s6.7,3,6.7,6.7c0,0.4,0,0.9-0.1,1.3h1.8c0,0,0,0,0.1,0c1.1-0.2,1.2-0.7,1.2-0.7c0.1-0.3,0.1-0.6-0.2-0.8
		c-0.1-0.1-0.2-0.3-0.1-0.5C-2673.4-9550-2673.2-9551.1-2673.3-9552.2z M-2731.3-9558.9C-2731.4-9558.9-2731.4-9558.8-2731.3-9558.9
		l-2.2,2.4c0,0-0.1,0.1-0.2,0.1c-0.3,0.1-0.6,0.2-1,0.2h-0.1h-0.5c-0.2,0-0.4-0.2-0.4-0.4l-0.1-2.5c0-0.2,0.1-0.3,0.2-0.5l0.1-0.2
		c0.1-0.2,0.1-0.1,0.2-0.3l0.1-0.2c0.1-0.2,0.4-0.1,0.6-0.1l2.8,0.6C-2731.8-9559.7-2731.1-9559.5-2731.3-9558.9z M-2723.7-9561.1
		l-2.9-0.4c-0.4-0.1-0.6-0.1-1.2-0.2l-1.4-0.2c0.1-0.2,0.6-1.1,0.7-1.4l1.2-2c0.1-0.1,0.2-0.1,0.3-0.2l4.5-0.5
		c0.2,0,0.4,0.1,0.4,0.4v0.1l-1.2,4.2C-2723.3-9561.2-2723.5-9561.1-2723.7-9561.1z M-2719.7-9560.5c-0.6,0-1.3-0.1-1.9-0.2
		c-0.2-0.1-0.3-0.3-0.2-0.5l0.9-4.6c0-0.1,0.1-0.3,0.3-0.3h0.5c0.1,0,0.3,0.1,0.3,0.3l0.5,4.8
		C-2719.4-9560.7-2719.5-9560.5-2719.7-9560.5L-2719.7-9560.5z M-2711.3-9560l-6.3-0.4c-0.2,0-0.3-0.2-0.4-0.3l-0.7-4.8
		c0-0.2,0.1-0.4,0.3-0.4c0,0,0,0,0.1,0l5.9-0.1c0.2,0,0.4,0.1,0.4,0.3l1,5.2C-2711-9560.3-2711.1-9560.1-2711.3-9560
		C-2711.2-9560-2711.3-9560-2711.3-9560L-2711.3-9560z M-2698.3-9561.9c-0.2,0.1-0.3,0.3-0.3,0.5c-0.1,0.4,0,0.9,0.1,1.3
		c0.1,0.2,0,0.4-0.2,0.5c-0.1,0-0.1,0-0.2,0l-8.4-0.2c-0.2,0-0.3-0.1-0.4-0.3l-1.8-5.2c0-0.1,0-0.1,0-0.2c0.1-0.4,0.4-0.7,0.8-0.7
		l0,0c0.3,0,5.2,0,7.5,1.7l2.8,1.8c0.2,0.1,0.2,0.4,0.1,0.5C-2698.2-9561.9-2698.2-9561.9-2698.3-9561.9z M-2675.2-9554.8
		c-0.3,0.1-0.6,0.1-0.9,0.1c-0.1,0-0.2,0-0.3-0.1l-1.6-1.6c-0.3-0.3,1.2-0.5,1.2-0.5c0.4-0.1,0.9-0.1,1.3,0c0.1,0,0.2,0.1,0.3,0.2
		c0.2,0.4,0.3,0.9,0.4,1.3C-2674.8-9555.1-2675-9554.9-2675.2-9554.8L-2675.2-9554.8z"/>
	<path fill="#ABABAE" d="M-2724.8-9554.1c-3.1,0-5.6,2.5-5.6,5.6s2.5,5.6,5.6,5.6s5.6-2.5,5.6-5.6l0,0
		C-2719.2-9551.6-2721.7-9554.1-2724.8-9554.1z M-2724.8-9545.3c-1.8,0-3.2-1.5-3.2-3.2s1.5-3.2,3.2-3.2c1.8,0,3.2,1.5,3.2,3.2l0,0
		C-2721.5-9546.8-2723-9545.3-2724.8-9545.3z"/>
</g>
</svg>
