<?xml version="1.0" encoding="utf-8"?>
<!-- Generator: Adobe Illustrator 21.1.0, SVG Export Plug-In . SVG Version: 6.00 Build 0)  -->
<svg version="1.1" id="Capa_1" xmlns="http://www.w3.org/2000/svg" xmlns:xlink="http://www.w3.org/1999/xlink" x="0px" y="0px"
	 viewBox="0 0 76 30" enable-background="new 0 0 76 30" xml:space="preserve">
<g transform="translate(2865.944 9576.011)">
	<g transform="translate(11.16 15.515)">
		<path fill="#ABABAE" d="M-2855.9-9574c-3.4,0-6.1,2.7-6.1,6.1s2.7,6.1,6.1,6.1c3.4,0,6.1-2.7,6.1-6.1S-2852.5-9574-2855.9-9574
			L-2855.9-9574z M-2855.9-9564.4c-2,0-3.5-1.6-3.5-3.5c0-2,1.6-3.5,3.5-3.5c2,0,3.5,1.6,3.5,3.5
			C-2852.3-9566-2853.9-9564.4-2855.9-9564.4L-2855.9-9564.4L-2855.9-9564.4z"/>
	</g>
	<g transform="translate(52.844 14.638)">
		<path fill="#ABABAE" d="M-2855.9-9574c-3.4,0-6.1,2.7-6.1,6.1s2.7,6.1,6.1,6.1c3.4,0,6.1-2.7,6.1-6.1l0,0
			C-2849.8-9571.3-2852.5-9574-2855.9-9574z M-2855.9-9564.4c-2,0-3.5-1.6-3.5-3.5c0-2,1.6-3.5,3.5-3.5c2,0,3.5,1.6,3.5,3.5l0,0
			C-2852.3-9565.9-2853.9-9564.4-2855.9-9564.4L-2855.9-9564.4z"/>
	</g>
	<path fill="none" d="M-2845.6-9572.2l-4.1,0.1l0,0c-0.7,0.1-1.3,0.4-1.8,1l0,0l-2.9,5c-0.1,0.1,0,0.3,0.1,0.4h0.1h8.3
		c0.1,0,0.3-0.1,0.3-0.3l0.3-5.9C-2845.4-9572.1-2845.5-9572.2-2845.6-9572.2L-2845.6-9572.2z"/>
	<path fill="none" d="M-2856.3-9562.6c-0.7,0-2.4,0-3-0.1c-0.1,0-0.3,0.1-0.3,0.2c0,1.2,0.1,2.5,0.3,3.7c0,0.1,0.1,0.2,0.3,0.2
		l2.8-0.1c0.1,0,0.3-0.1,0.3-0.3l0,0l-0.1-3.5C-2856-9562.4-2856.1-9562.6-2856.3-9562.6L-2856.3-9562.6z"/>
	<path fill="none" d="M-2832.5-9571.5c-0.1-0.4-0.5-0.7-1-0.6l0,0l-8.3-0.2l0,0c-0.5,0-0.8,0.4-0.8,0.9l0,0l0,0l-0.3,5.6
		c0,0.1,0.1,0.3,0.3,0.3l0,0l10.9,0.2c0.2,0,0.3-0.1,0.3-0.3l0,0L-2832.5-9571.5z"/>
	<path fill="none" d="M-2795.6-9561.8h-1c-0.1,0-0.3,0.1-0.3,0.3v2.7c0,0.1,0.1,0.3,0.3,0.3h1.3c0.1,0,0.3-0.1,0.3-0.2
		c0.1-1,0-1.9-0.3-2.9C-2795.3-9561.7-2795.4-9561.8-2795.6-9561.8z"/>
	<path fill="none" d="M-2818.4-9568c-1.8-1.5-3.6-2.8-5.5-4.1h-0.1l-5.7-0.2h-0.1c-0.9,0.1-0.6,1.1-0.6,1.1l1.9,5.9
		c0,0.1,0.1,0.2,0.3,0.2l9.4-0.1c0.1,0,0.3-0.1,0.3-0.3l0,0l-0.1-1.7c0-0.1,0-0.1,0.1-0.2l0.2-0.2
		C-2818.3-9567.7-2818.3-9567.9-2818.4-9568L-2818.4-9568z"/>
	<path fill="#ABABAE" d="M-2793.9-9558.8c-0.1,0-0.3-0.1-0.2-0.3l0,0c0.1-1-0.1-2-0.4-3c-0.1-0.2-0.2-0.3-0.4-0.4l-1.4-0.9
		c-0.3-0.2-0.6-0.3-0.9-0.3l-14.3-1.6c-0.1,0-0.2-0.1-0.2-0.1c-0.2-0.4-0.6-0.6-1.1-0.7c-0.1,0-0.1,0-0.1-0.1l-8-6.6
		c0.3,0.2-0.4-0.3-0.4-0.3c-0.5-0.3-1.1-0.5-1.6-0.5l0,0c-6.8-1-31,0.3-31,0.3l0,0c-0.6,0.1-1.1,0.4-1.5,0.8l0,0
		c-0.3,0.2-0.2,0.4-0.1,0.5c0.1,0.1,0.1,0.2,0,0.3l-4.2,6.3l-0.1,0.1c-0.5,0.4-0.8,1-0.9,1.7c-0.1,1.6,0,3.2,0.2,4.8
		c0,0.1-0.1,0.2-0.2,0.3l-0.3,0.1c-0.1,0-0.2,0.1-0.2,0.1c-0.1,0.3-0.1,0.6,0,0.8c0,0.2,0,0.4-0.2,0.4c-0.4,0.1-0.3,1.3-0.3,1.3
		c0,0.4,0,1,0.3,1c0.1,0,0.1,0.1,0.1,0.2v0.8c0,0.2,0.2,0.4,0.4,0.4l4.6,0.3l0,0l4.1,1c0.1,0,0.1,0,0.2,0c0-0.1,0-0.3,0-0.4
		c0.1-4,3.4-7.2,7.4-7.1c4-0.1,7.3,3.1,7.4,7.1c0,0.2,0,0.3,0,0.5l0,0l27.1,0.1c0.1,0,0.2,0,0.2-0.1c-0.1-0.4-0.1-0.8-0.1-1.2
		c0-3.9,3.2-7.1,7.1-7.1s7.1,3.2,7.1,7.1c0,0.4,0,0.8-0.1,1.2c0.2,0,0.4,0,0.5,0s0.2-0.1,0.2-0.3l0.1-0.8c0-0.1,0.1-0.2,0.1-0.2
		c0.6-0.3,1.2-0.7,1.8-1.2c0.2-0.1,0.3-0.4,0.3-0.6l0.1-3.1C-2793-9558.6-2793.6-9558.8-2793.9-9558.8z M-2856.2-9558.6l-2.8,0.1
		c-0.1,0-0.3-0.1-0.3-0.2c-0.2-1.2-0.3-2.5-0.3-3.7c0-0.1,0.1-0.2,0.3-0.2c0.6,0,2.3,0.1,3,0.1c0.1,0,0.3,0.1,0.3,0.3l0,0l0.1,3.5
		C-2855.9-9558.7-2856.1-9558.6-2856.2-9558.6z M-2845.7-9566c0,0.1-0.1,0.3-0.3,0.3h-8.3c-0.1,0-0.3-0.1-0.3-0.3v-0.1l2.9-5l0,0
		c0.4-0.5,1.1-0.9,1.8-1l0,0l4.1-0.1c0.1,0,0.3,0.1,0.3,0.3l0,0L-2845.7-9566z M-2831.7-9565.3l-10.9-0.2c-0.1,0-0.3-0.1-0.3-0.3
		l0,0l0.3-5.6l0,0c0-0.5,0.3-0.9,0.8-0.9l0,0l0,0l8.3,0.2l0,0c0.4-0.1,0.9,0.2,1,0.6l1.1,5.9
		C-2831.4-9565.4-2831.5-9565.3-2831.7-9565.3C-2831.6-9565.3-2831.7-9565.3-2831.7-9565.3L-2831.7-9565.3z M-2818.4-9567.6
		l-0.2,0.2c-0.1,0.1-0.1,0.1-0.1,0.2l0.1,1.7c0,0.1-0.1,0.3-0.2,0.3l0,0l-9.4,0.1c-0.1,0-0.2-0.1-0.3-0.2l-1.9-5.9
		c0,0-0.3-1,0.6-1.1h0.1l5.7,0.2h0.1c1.9,1.3,3.7,2.6,5.5,4.1C-2818.3-9567.9-2818.3-9567.7-2818.4-9567.6L-2818.4-9567.6z
		 M-2795-9558.7c0,0.1-0.1,0.2-0.3,0.2h-1.3c-0.1,0-0.3-0.1-0.3-0.3v-2.7c0-0.1,0.1-0.3,0.3-0.3h1c0.1,0,0.2,0.1,0.3,0.2
		C-2795-9560.6-2794.9-9559.7-2795-9558.7L-2795-9558.7z"/>
</g>
</svg>
