<?xml version="1.0" encoding="utf-8"?>
<!-- Generator: Adobe Illustrator 21.1.0, SVG Export Plug-In . SVG Version: 6.00 Build 0)  -->
<svg version="1.1" id="Capa_1" xmlns="http://www.w3.org/2000/svg" xmlns:xlink="http://www.w3.org/1999/xlink" x="0px" y="0px"
	 viewBox="0 0 35 35" enable-background="new 0 0 35 35" xml:space="preserve">
<g>
	<path id="Path_5532" opacity="0.7" fill="#898989" enable-background="new    " d="M22.7,12.5h3.5c0.4,0,0.8-0.3,0.9-0.7l0.7-3.6
		c0.1-0.3-0.1-0.6-0.4-0.7c-0.1,0-0.1,0-0.2,0h-3.5c-0.4,0-0.8,0.3-0.9,0.7l-0.1,0.7H12.7l0.1-0.7c0.1-0.3-0.1-0.6-0.4-0.7
		c-0.1,0-0.1,0-0.2,0H8.7C8.3,7.5,8,7.8,7.9,8.2l-0.7,3.6c-0.1,0.3,0.1,0.6,0.4,0.7c0.1,0,0.1,0,0.2,0h3.5c0.4,0,0.8-0.3,0.9-0.7
		l0.1-0.7h4.1v12.8h-3.9v-0.6c0-0.4-0.3-0.7-0.7-0.7H8.2c-0.4,0-0.7,0.3-0.7,0.7v3.5c0,0.4,0.3,0.7,0.7,0.7h3.5
		c0.4,0,0.7-0.3,0.7-0.7v-0.6h10.1v0.6c0,0.4,0.3,0.7,0.7,0.7h3.5c0.4,0,0.7-0.3,0.7-0.7v-3.5c0-0.4-0.3-0.7-0.7-0.7h-3.5
		c-0.4,0-0.7,0.3-0.7,0.7v0.6h-3.9V11.1h3.7l-0.1,0.7c-0.1,0.3,0.1,0.6,0.4,0.7C22.6,12.5,22.7,12.5,22.7,12.5z"/>
</g>
</svg>
