<?xml version="1.0" encoding="utf-8"?>
<!-- Generator: Adobe Illustrator 21.1.0, SVG Export Plug-In . SVG Version: 6.00 Build 0)  -->
<svg version="1.1" id="Capa_1" xmlns="http://www.w3.org/2000/svg" xmlns:xlink="http://www.w3.org/1999/xlink" x="0px" y="0px"
	 viewBox="0 0 18 18" enable-background="new 0 0 18 18" xml:space="preserve">
<path id="_1499261564_03-twitter_1_" fill="#333333" d="M16.8,4.1c-0.6,0.3-1.2,0.4-1.8,0.5c0.7-0.4,1.2-1,1.4-1.8
	c-0.6,0.4-1.3,0.6-2,0.8c-1.2-1.3-3.3-1.4-4.6-0.1C9,4.3,8.6,5.5,8.9,6.6c-2.6-0.1-5-1.4-6.6-3.4c-0.9,1.5-0.4,3.4,1,4.3
	c-0.5,0-1-0.2-1.5-0.4c0,0,0,0,0,0c0,1.5,1.1,2.8,2.6,3.2c-0.3,0.1-0.6,0.1-0.8,0.1c-0.2,0-0.4,0-0.6-0.1c0.4,1.3,1.6,2.2,3,2.2
	c-1.1,0.9-2.5,1.4-4,1.4c-0.3,0-0.5,0-0.8,0c1.5,0.9,3.2,1.5,4.9,1.4c5,0,9.1-4,9.2-9c0,0,0-0.1,0-0.1c0-0.1,0-0.3,0-0.4
	C15.9,5.3,16.4,4.8,16.8,4.1z"/>
</svg>
