<?xml version="1.0" encoding="utf-8"?>
<!-- Generator: Adobe Illustrator 21.1.0, SVG Export Plug-In . SVG Version: 6.00 Build 0)  -->
<svg version="1.1" id="Group_9057" xmlns="http://www.w3.org/2000/svg" xmlns:xlink="http://www.w3.org/1999/xlink" x="0px" y="0px"
	 viewBox="0 0 46 46" enable-background="new 0 0 46 46" xml:space="preserve">
<path fill="#009FC7" d="M23,44C11.4,44,2,34.6,2,23C2,11.4,11.4,2,23,2c11.6,0,21,9.4,21,21C44,34.6,34.6,44,23,44z M23,4
	C12.5,4,4,12.5,4,23s8.5,19,19,19s19-8.5,19-19S33.5,4,23,4z"/>
<g id="Group_8718" transform="translate(9.538 10.115)">
	<g id="Group_8716" transform="translate(0 4.462)">
		<path id="Path_5552" fill="#009FC7" d="M6,3C4.3,3,3,4.3,3,6v9.3c0,1.7,1.3,3,3,3h0.4V3H6z"/>
		<path id="Path_5553" fill="#009FC7" d="M20.9,3h-0.4v15.3h0.4c1.7,0,3-1.3,3-3V6C23.9,4.4,22.6,3,20.9,3z"/>
	</g>
	<g id="Group_8717" transform="translate(4.5)">
		<path id="Path_5554" fill="#009FC7" d="M14.2,7.5V6.4c0-1.8-1.5-3.3-3.3-3.3H7.2c-1.8,0-3.3,1.5-3.3,3.3v1.1H3.2v15.3h11.9V7.5
			H14.2z M6,6.3c0-0.6,0.5-1.1,1.1-1.1h3.7c0.6,0,1.1,0.5,1.1,1.1v1.1h-6L6,6.3z"/>
	</g>
</g>
<rect id="Rectangle_7832" fill="none" width="46" height="46"/>
</svg>
