<?xml version="1.0" encoding="utf-8"?>
<!-- Generator: Adobe Illustrator 22.0.1, SVG Export Plug-In . SVG Version: 6.00 Build 0)  -->
<svg version="1.1" id="Capa_1" xmlns="http://www.w3.org/2000/svg" xmlns:xlink="http://www.w3.org/1999/xlink" x="0px" y="0px"
	 viewBox="0 0 18 18" enable-background="new 0 0 18 18" xml:space="preserve">
<g>
	<path fill-rule="evenodd" clip-rule="evenodd" fill="#333333" d="M17,8.8c0,4.3-3.5,7.8-7.9,7.8c-1.4,0-2.7-0.4-3.8-1L1,17l1.4-4.2
		c-0.7-1.2-1.1-2.6-1.1-4C1.3,4.5,4.8,1,9.1,1C13.5,1,17,4.5,17,8.8L17,8.8z M9.1,2.2c-3.6,0-6.6,2.9-6.6,6.6c0,1.4,0.5,2.8,1.3,3.8
		L3,15.1l2.5-0.8c1,0.7,2.3,1.1,3.6,1.1c3.6,0,6.6-2.9,6.6-6.6C15.7,5.2,12.8,2.2,9.1,2.2L9.1,2.2z M13.1,10.6
		c0-0.1-0.2-0.1-0.4-0.2c-0.2-0.1-1.1-0.6-1.3-0.6c-0.2-0.1-0.3-0.1-0.4,0.1c-0.1,0.2-0.5,0.6-0.6,0.7c-0.1,0.1-0.2,0.1-0.4,0
		c-0.2-0.1-0.8-0.3-1.5-0.9c-0.6-0.5-1-1.1-1.1-1.3C7.2,8.2,7.3,8.1,7.4,8c0.1-0.1,0.2-0.2,0.3-0.3c0.1-0.1,0.1-0.2,0.2-0.3
		c0.1-0.1,0-0.2,0-0.3c0-0.1-0.4-1-0.6-1.4C7.1,5.2,7,5.3,6.9,5.3c-0.1,0-0.2,0-0.4,0c-0.1,0-0.3,0-0.5,0.2C5.8,5.7,5.3,6.1,5.3,7.1
		C5.3,8,6,8.9,6.1,9c0.1,0.1,1.3,2.1,3.3,2.9c2,0.8,2,0.5,2.3,0.5c0.4,0,1.1-0.5,1.3-0.9C13.2,11.1,13.2,10.7,13.1,10.6L13.1,10.6z
		 M13.1,10.6"/>
</g>
</svg>
