<?xml version="1.0" encoding="utf-8"?>
<!-- Generator: Adobe Illustrator 21.1.0, SVG Export Plug-In . SVG Version: 6.00 Build 0)  -->
<svg version="1.1" id="Capa_1" xmlns="http://www.w3.org/2000/svg" xmlns:xlink="http://www.w3.org/1999/xlink" x="0px" y="0px"
	 viewBox="0 0 16 18" enable-background="new 0 0 16 18" xml:space="preserve">
<g transform="translate(854 -3250)">
	<path fill="#ABACAE" d="M-838.3,3253.5c0-1-0.8-1.7-1.7-1.7c0,0,0,0,0,0h-0.9v-1.7h-1.7v1.7h-7v-1.7h-1.7v1.7h-0.9
		c-1,0-1.7,0.8-1.7,1.7c0,0,0,0,0,0v2h15.7V3253.5z"/>
	<path fill="#ABACAE" d="M-854,3265.7c0,1,0.8,1.7,1.7,1.7c0,0,0,0,0,0h12.2c1,0,1.7-0.8,1.7-1.7c0,0,0,0,0,0v-9.4H-854V3265.7z
		 M-843.3,3259.1h1.8v1.8h-1.8V3259.1z M-843.3,3262.3h1.8v1.8h-1.8V3262.3z M-847,3259.1h1.8v1.8h-1.8V3259.1z M-847.1,3262.3h1.8
		v1.8h-1.8V3262.3z M-850.7,3259.1h1.8v1.8h-1.8L-850.7,3259.1L-850.7,3259.1z M-850.8,3262.3h1.8v1.8h-1.8L-850.8,3262.3z"/>
</g>
</svg>
