<?xml version="1.0" encoding="utf-8"?>
<!-- Generator: Adobe Illustrator 21.1.0, SVG Export Plug-In . SVG Version: 6.00 Build 0)  -->
<svg version="1.1" id="Group_9905" xmlns="http://www.w3.org/2000/svg" xmlns:xlink="http://www.w3.org/1999/xlink" x="0px" y="0px"
	 viewBox="0 0 20 20" enable-background="new 0 0 20 20" xml:space="preserve">
<path id="Path_5820" fill="#F2C600" d="M9.5,0.9c0.2-0.5,0.6-0.5,0.9,0l2.3,4.7c0.3,0.5,0.8,0.9,1.4,1l5.2,0.8
	c0.5,0.1,0.7,0.5,0.3,0.8l-3.8,3.7c-0.4,0.5-0.6,1.1-0.6,1.7l0.9,5.2c0.1,0.5-0.2,0.8-0.7,0.5l-4.7-2.5c-0.6-0.2-1.2-0.2-1.8,0
	l-4.7,2.5c-0.5,0.2-0.8,0-0.7-0.5l0.9-5.2C4.6,13,4.4,12.4,4,11.9L0.2,8.3c-0.4-0.4-0.3-0.8,0.3-0.8l5.2-0.8c0.6-0.1,1.1-0.5,1.4-1
	L9.5,0.9z"/>
</svg>
