<?xml version="1.0" encoding="utf-8"?>
<!-- Generator: Adobe Illustrator 21.1.0, SVG Export Plug-In . SVG Version: 6.00 Build 0)  -->
<svg version="1.1" id="Capa_1" xmlns="http://www.w3.org/2000/svg" xmlns:xlink="http://www.w3.org/1999/xlink" x="0px" y="0px"
	 viewBox="0 0 18 18" enable-background="new 0 0 18 18" xml:space="preserve">
<g id="XMLID_184_">
	<path id="XMLID_182_" d="M17,4.9c-0.2-0.7-0.8-1.3-1.5-1.5C14.2,3.1,9,3.1,9,3.1s-5.2,0-6.5,0.4C1.7,3.6,1.2,4.2,1,4.9
		C0.6,6.3,0.6,9,0.6,9s0,2.7,0.4,4.1c0.2,0.7,0.8,1.3,1.5,1.5C3.8,14.9,9,14.9,9,14.9s5.2,0,6.5-0.4c0.7-0.2,1.3-0.8,1.5-1.5
		c0.4-1.3,0.4-4.1,0.4-4.1S17.4,6.3,17,4.9z"/>
	<polygon id="XMLID_1355_" fill="#FFFFFF" points="7.3,11.5 11.7,9 7.3,6.5 	"/>
</g>
</svg>
