<?xml version="1.0" standalone="no"?><!-- Generator: Gravit.io --><svg xmlns="http://www.w3.org/2000/svg" xmlns:xlink="http://www.w3.org/1999/xlink" style="isolation:isolate" viewBox="771 505 15.913 15.913" width="15.913" height="15.913"><g><path d=" M 779 508.8 C 776.7 508.8 774.9 510.6 774.9 512.9 C 774.9 515.2 776.7 517 779 517 C 781.3 517 783.1 515.2 783.1 512.9 C 783.1 510.7 781.3 508.8 779 508.8 Z  M 779 515.6 C 777.5 515.6 776.4 514.4 776.4 513 C 776.4 511.5 777.6 510.4 779 510.4 C 780.4 510.4 781.6 511.6 781.6 513 L 781.6 513 C 781.6 514.4 780.4 515.6 779 515.6 Z " fill="rgb(51,51,51)"/><path d=" M 784.2 508.8 C 784.2 509.3 783.8 509.7 783.3 509.7 C 782.8 509.7 782.4 509.3 782.4 508.8 C 782.4 508.3 782.8 507.9 783.3 507.9 C 783.8 507.9 784.2 508.3 784.2 508.8 Z " fill="rgb(51,51,51)"/><path d=" M 785.7 506.3 C 784.8 505.4 783.6 504.9 782.3 505 L 775.7 505 C 773.3 504.9 771.2 506.7 771 509.1 C 771 509.3 771 509.5 771 509.6 L 771 516.2 C 771 517.5 771.4 518.7 772.3 519.6 C 773.2 520.4 774.4 520.9 775.6 520.9 L 782.2 520.9 C 783.4 520.9 784.7 520.5 785.6 519.6 C 786.5 518.7 787 517.5 786.9 516.2 L 786.9 509.6 C 787 508.4 786.5 507.2 785.7 506.3 Z  M 785.5 516.3 C 785.5 517.2 785.2 518 784.6 518.6 C 784 519.2 783.1 519.5 782.3 519.4 L 775.7 519.4 C 774.8 519.4 774 519.1 773.4 518.6 C 772.8 518 772.5 517.1 772.5 516.2 L 772.5 509.6 C 772.5 508.7 772.8 507.9 773.4 507.3 C 774 506.7 774.9 506.4 775.7 506.5 L 782.3 506.5 C 783.2 506.5 784 506.8 784.6 507.4 C 785.2 508 785.5 508.9 785.5 509.7 L 785.5 516.3 Z " fill="rgb(51,51,51)"/></g></svg>