<?xml version="1.0" standalone="no"?><!-- Generator: Gravit.io --><svg xmlns="http://www.w3.org/2000/svg" xmlns:xlink="http://www.w3.org/1999/xlink" style="isolation:isolate" viewBox="667.645 400.809 115 115" width="115" height="115"><g><path d=" M 782.6 458.3 C 782.6 474.2 776.2 488.6 765.8 499 C 755.4 509.4 741 515.8 725.1 515.8 C 693.4 515.8 667.6 490.1 667.6 458.3 C 667.6 426.6 693.4 400.8 725.1 400.8 C 756.9 400.8 782.6 426.6 782.6 458.3 Z " fill="rgb(0,158,200)"/><path d=" M 699.3 485.1 C 699.3 485.1 699.3 486.7 700.8 486.7 C 702.7 486.7 718.7 486.7 718.7 486.7 L 718.7 472.1 C 718.7 472.1 718.5 469.6 720.8 469.6 L 728.2 469.6 C 731 469.6 730.8 472.1 730.8 472.1 L 730.8 486.7 C 730.8 486.7 745.9 486.7 748.3 486.7 C 750.3 486.7 750.2 484.7 750.2 484.7 L 750.2 457.7 L 725.5 435.7 L 699.3 457.7 C 699.3 457.7 699.3 485.1 699.3 485.1 Z " fill="rgb(255,255,255)"/><path d=" M 689.7 455.6 C 689.7 455.6 691.9 459.7 696.8 455.6 L 725.7 431.1 L 752.9 455.5 C 758.5 459.5 760.6 455.5 760.6 455.5 L 725.7 423.9 L 689.7 455.6 Z " fill="rgb(255,255,255)"/><path d=" M 752.2 431.1 L 745.2 431.1 L 745.3 439.5 L 752.2 445.4 L 752.2 431.1 Z " fill="rgb(255,255,255)"/></g></svg>