<?xml version="1.0" standalone="no"?><!-- Generator: Gravit.io --><svg xmlns="http://www.w3.org/2000/svg" xmlns:xlink="http://www.w3.org/1999/xlink" style="isolation:isolate" viewBox="667.645 70.809 115 115" width="115" height="115"><g><path d=" M 782.6 128.3 C 782.6 160.1 756.9 185.8 725.1 185.8 C 693.4 185.8 667.6 160.1 667.6 128.3 C 667.6 96.6 693.4 70.8 725.1 70.8 C 756.9 70.8 782.6 96.6 782.6 128.3 Z " fill="rgb(0,158,200)"/><path d=" M 725.1 128.6 C 726.8 128.2 728.2 128 729.6 128.3 C 730.6 128.5 731.6 128.6 732.6 128.8 C 733.8 129.2 735.1 129.7 736.3 130.1 C 737.1 130.5 737.8 130.9 738.6 131.3 C 739.4 131.7 740.3 132.2 741.1 132.7 C 741.5 132.9 742 133.2 742.4 133.5 C 743.3 134.1 744.2 134.8 745.1 135.4 C 745.6 135.7 746 136.1 746.4 136.4 C 746.5 136.6 746.7 136.7 746.8 136.8 C 747.7 137.6 748.6 138.4 749.5 139.2 C 750.3 140 751.1 140.8 751.8 141.7 C 752.8 142.9 753.7 144.1 754.5 145.4 C 755.2 146.7 755.9 148.1 756 149.6 C 756 150.1 756.1 150.5 756 151 C 755.9 151.7 755.6 152.3 755.2 152.8 C 754.7 153.8 754.1 154.7 753.3 155.4 C 752.7 156 752.2 156.6 751.5 157 C 750.8 157.5 750.1 157.9 749.3 158.3 C 747.9 158.9 746.4 159 745 159 C 743.4 158.9 741.9 158.8 740.3 158.7 C 738.6 158.6 736.9 158.4 735.1 159 C 734.2 159.3 733.3 159.8 732.4 160.3 C 730.6 161.2 728.9 162.2 727.1 163.2 C 724.7 164.5 722.2 165.7 719.5 166.5 C 718 167 716.4 167.2 714.7 167.2 C 713.7 167.1 712.6 167 711.6 166.6 C 711.2 166.4 710.6 166.3 710.1 166 C 709.7 165.7 709.2 165.3 708.9 164.8 C 708.1 163.8 707.8 162.5 707.6 161.2 C 707.5 159.9 707.6 158.7 707.6 157.5 C 707.7 156.5 707.9 155.5 708.1 154.5 C 708.3 153.7 708.4 153 708.6 152.2 C 708.8 151.6 709 150.9 709.2 150.2 C 709.4 149.6 709.6 148.9 709.9 148.2 C 710 147.6 710.2 147.2 710.4 146.6 C 710.7 145.9 711 145.2 711.3 144.5 C 711.5 144 711.8 143.5 712.1 143 C 712.3 142.5 712.5 142 712.8 141.4 C 713 141.1 713.2 140.7 713.4 140.3 C 713.9 139.6 714.3 138.8 714.8 138.1 C 715.1 137.5 715.5 137 715.8 136.5 C 716.2 135.9 716.6 135.4 717.1 134.8 C 717.8 134 718.6 133.1 719.4 132.3 C 720.4 131.3 721.5 130.3 722.7 129.6 C 723.6 129.2 724.5 128.9 725.1 128.6 Z " fill="rgb(255,255,255)"/><path d=" M 741.9 97.6 C 742.2 99 742.5 100.5 742.5 102 C 742.5 102.9 742.5 103.9 742.4 104.8 C 742.4 105.8 742.2 106.8 742.1 107.8 C 741.9 108.7 741.6 109.6 741.3 110.4 C 740.9 111.3 740.5 112.2 740 113.1 C 739.3 114.5 738.3 115.6 737.1 116.6 C 736.2 117.2 735.3 117.8 734.2 118 C 733 118.3 731.8 118.4 730.5 117.9 C 729.6 117.6 728.7 117.1 728 116.5 C 727.3 115.9 726.7 115.2 726.2 114.5 C 724.7 112.3 724 109.9 723.6 107.3 C 723.3 105.9 723.3 104.5 723.4 103 C 723.5 101.9 723.7 100.8 723.9 99.7 C 724.1 98.6 724.5 97.5 724.9 96.5 C 725.1 95.9 725.4 95.4 725.7 94.9 C 725.9 94.4 726.1 94 726.4 93.6 C 726.8 93 727.3 92.4 727.7 91.9 C 728 91.6 728.4 91.2 728.7 91 C 730 90 731.3 89.2 732.9 89.2 C 733.9 89.1 734.9 89.2 735.8 89.6 C 736.9 90 737.8 90.7 738.6 91.5 C 739.2 92.2 739.8 92.9 740.3 93.8 C 740.9 95 741.5 96.2 741.9 97.6 Z " fill="rgb(255,255,255)"/><path d=" M 719.2 108.7 C 719.6 110.4 719.9 112.1 719.8 113.8 C 719.8 114.7 719.7 115.6 719.6 116.5 C 719.4 117.2 719.1 117.9 718.8 118.6 C 718.6 119.2 718.4 119.7 718 120.1 C 717.6 120.7 717.1 121.3 716.5 121.7 C 715.7 122.3 714.8 122.7 713.9 122.9 C 712.8 123.1 711.7 123.1 710.6 122.8 C 710 122.6 709.3 122.4 708.7 122.2 C 708.1 121.9 707.6 121.6 707.1 121.3 C 706.6 121 706.1 120.6 705.6 120.2 C 704.5 119.3 703.5 118.3 702.6 117.1 C 701.6 115.8 700.8 114.4 700.1 112.9 C 699.3 111.3 698.9 109.5 698.5 107.7 C 698.3 106.5 698.3 105.4 698.3 104.2 C 698.4 102.9 698.6 101.6 699.1 100.4 C 699.5 99.3 700.1 98.3 701 97.4 C 702.3 96.2 703.9 95.6 705.7 95.6 C 707.3 95.6 708.8 96 710.1 96.8 C 711.1 97.3 712 97.9 712.9 98.6 C 713.4 99 713.9 99.6 714.3 100 C 714.5 100.2 714.7 100.4 714.9 100.6 C 716.7 102.9 718.2 105.3 719 108.1 C 719 108.4 719.1 108.6 719.2 108.7 Z " fill="rgb(255,255,255)"/><path d=" M 686.8 132.5 C 686.7 131.8 686.5 131.1 686.4 130.4 C 686.3 129.1 686.4 127.8 686.7 126.6 C 687.1 125.2 687.7 124.1 688.7 123.2 C 690.2 121.7 692.1 121.1 694.2 121.2 C 695.2 121.2 696.1 121.4 696.9 121.6 C 697.5 121.8 698.1 122 698.7 122.2 C 699.2 122.5 699.7 122.7 700.3 123 C 700.7 123.3 701.2 123.5 701.6 123.9 C 702.1 124.3 702.7 124.7 703.2 125.2 C 704.3 126.1 705.3 127.2 706 128.4 C 706.4 129.1 706.9 129.7 707.2 130.3 C 708 132 708.6 133.7 708.8 135.4 C 708.8 136.1 708.8 136.9 708.8 137.6 C 708.7 138.3 708.5 139.1 708.3 139.8 C 708.2 140.2 708 140.6 707.8 141 C 707.3 141.8 706.7 142.6 705.9 143.1 C 704.7 144 703.2 144.5 701.6 144.6 C 700.7 144.6 699.7 144.5 698.8 144.3 C 698 144.1 697.3 143.8 696.5 143.5 C 695.1 143 693.8 142.1 692.6 141.2 C 692.2 140.8 691.7 140.4 691.3 140 C 690.6 139.1 689.8 138.3 689.2 137.4 C 688.1 135.9 687.2 134.4 686.8 132.5 Z " fill="rgb(255,255,255)"/><path d=" M 762.5 116.1 C 762.8 117.5 763 118.8 763 120.1 C 763 121 762.9 122 762.9 123 C 762.9 123.2 762.8 123.4 762.8 123.6 C 762.5 124.5 762.4 125.5 762 126.4 C 761.5 128 760.7 129.6 759.7 130.9 C 759 131.9 758.2 132.7 757.2 133.5 C 755.7 134.6 754.1 135.4 752.2 135.3 C 751.2 135.3 750.2 135.2 749.3 134.8 C 748.3 134.3 747.5 133.6 746.7 132.8 C 745.1 130.8 744.2 128.6 743.9 126.1 C 743.8 124.6 743.8 123.1 744 121.6 C 744.1 120.7 744.3 119.8 744.6 119 C 744.9 118 745.2 117 745.7 116.1 C 746 115.3 746.6 114.6 747 113.8 C 747.4 113.3 747.8 112.8 748.3 112.3 C 749 111.5 749.9 110.9 750.9 110.3 C 752.3 109.4 753.9 109.1 755.6 109.2 C 756.4 109.3 757.1 109.5 757.8 109.9 C 758.3 110.2 758.8 110.5 759.3 110.9 C 760.7 112 761.5 113.5 762.2 115.1 C 762.3 115.5 762.4 115.9 762.5 116.1 Z " fill="rgb(255,255,255)"/></g></svg>