<?xml version="1.0" standalone="no"?><!-- Generator: Gravit.io --><svg xmlns="http://www.w3.org/2000/svg" xmlns:xlink="http://www.w3.org/1999/xlink" style="isolation:isolate" viewBox="520.586 70.809 115 115" width="115" height="115"><g><path d=" M 635.6 128.3 C 635.6 160.1 609.8 185.8 578.1 185.8 C 546.3 185.8 520.6 160.1 520.6 128.3 C 520.6 96.6 546.3 70.8 578.1 70.8 C 609.8 70.8 635.6 96.6 635.6 128.3 Z " fill="rgb(0,158,200)"/><path d=" M 594.7 120.5 L 577.1 120.5 L 577.2 110.6 C 577.2 110.6 585.4 110.2 588.4 111.1 C 590.2 111.7 594.3 116.1 595.9 118.1 C 597.3 119.8 596.5 120.5 594.7 120.5 Z  M 574.3 120.5 L 556.9 120.5 C 555.1 120.5 553.9 119.5 554.9 118.3 C 556.2 116.8 559.1 113.5 560.4 112.9 C 563.7 111.4 574.3 110.8 574.3 110.8 L 574.3 120.5 Z  M 618.3 133.7 C 619.5 129.9 619 125.7 615.9 123.9 C 613.7 122.7 601.8 120.3 601.8 120.3 C 601.8 120.3 592.1 108.4 588 108.1 C 580.1 107.3 562.7 107.8 558.4 110.9 C 555.2 113.3 547.7 120.6 547.7 120.6 C 543.4 120.4 542 118.7 540 120.3 C 538.3 121.7 540.9 125.7 540 126.6 C 536.7 129.9 539.3 136.7 542 139.4 L 549.2 139.4 C 549.2 139.3 549.2 139.2 549.2 139 C 549.2 134.3 553 130.4 557.8 130.4 C 562.5 130.4 566.4 134.3 566.4 139 C 566.4 139.2 566.4 139.3 566.4 139.4 L 589.9 139.4 C 589.9 139.3 589.9 139.2 589.9 139 C 589.9 134.3 593.7 130.4 598.5 130.4 C 603.2 130.4 607.1 134.3 607.1 139 C 607.1 139.2 607.1 139.3 607.1 139.4 L 617.4 139.4 C 617.4 139.4 619.3 138.3 619.3 136.8 C 619.3 135.7 618.1 134.4 618.3 133.7 Z " fill="rgb(255,255,255)"/><path d=" M 598.7 141.8 C 597.2 141.8 596 140.6 596 139.1 C 596 137.6 597.2 136.4 598.7 136.4 C 600.1 136.4 601.3 137.6 601.3 139.1 C 601.3 140.6 600.1 141.8 598.7 141.8 Z  M 598.7 132.4 C 596.7 132.4 595 133.2 593.8 134.5 C 593.4 135 593 135.6 592.7 136.2 C 592.2 137 592 138 592 139.1 C 592 139.6 592.1 140.2 592.2 140.7 C 592.3 141.3 592.6 141.9 592.9 142.5 C 594.1 144.4 596.2 145.8 598.7 145.8 C 602.3 145.8 605.3 142.8 605.3 139.1 C 605.3 135.4 602.3 132.4 598.7 132.4 Z " fill="rgb(255,255,255)"/><path d=" M 558 141.8 C 556.6 141.8 555.4 140.6 555.4 139.1 C 555.4 137.6 556.6 136.4 558 136.4 C 559.5 136.4 560.7 137.6 560.7 139.1 C 560.7 140.6 559.5 141.8 558 141.8 Z  M 558 132.4 C 556.1 132.4 554.4 133.2 553.2 134.5 C 552.7 135 552.3 135.6 552 136.2 C 551.6 137 551.4 138 551.4 139.1 C 551.4 139.6 551.4 140.2 551.5 140.7 C 551.7 141.3 551.9 141.9 552.3 142.5 C 553.4 144.4 555.6 145.8 558 145.8 C 561.7 145.8 564.7 142.8 564.7 139.1 C 564.7 135.4 561.7 132.4 558 132.4 Z " fill="rgb(255,255,255)"/></g></svg>