<?xml version="1.0" encoding="UTF-8" standalone="no"?>
<!DOCTYPE svg PUBLIC "-//W3C//DTD SVG 1.1//EN" "http://www.w3.org/Graphics/SVG/1.1/DTD/svg11.dtd">
<svg version="1.1" xmlns="http://www.w3.org/2000/svg" xmlns:xlink="http://www.w3.org/1999/xlink" preserveAspectRatio="xMidYMid meet" viewBox="-0.9619999999999891 -1 119 119" width="115" height="115"><defs><path d="M57.54 115C25.74 115 0.04 89.3 0.04 57.5C0.04 25.7 25.74 0 57.54 0C89.24 0 115.04 25.7 115.04 57.5C115.04 89.3 89.24 115 57.54 115Z" id="a48OJJbUrN"></path><path d="M63.34 47.5L63.34 89.5L53.94 89.5L53.94 47.5L63.34 47.5Z" id="d1DBjdTN7x"></path><path d="M45.34 88.7L43.94 94L58.54 94L73.14 94L71.74 88.7L58.54 88.7L45.34 88.7Z" id="b3aWzJ8oxV"></path><path d="M64.14 73.7C62.64 73.7 61.44 72.4 61.44 70.9C61.44 68.84 61.44 52.36 61.44 50.3C61.44 48.7 61.64 47.5 63.14 47.5C63.24 47.5 64.04 47.5 64.14 47.5C65.74 47.5 66.94 48.7 66.94 50.3C66.94 51.67 66.94 58.54 66.94 70.9C66.14 72.77 65.2 73.7 64.14 73.7Z" id="e3upxzwx3u"></path><path d="M58.54 18C58.54 18 50.74 27.6 50.74 35.6C50.74 39.7 52.84 41.7 54.84 42.6C54.64 42.2 54.54 41.6 54.54 41C54.54 36.9 58.54 32.1 58.54 32.1C58.54 32.1 62.54 36.9 62.54 41C62.54 41.6 62.44 42.2 62.24 42.6C64.34 41.7 66.44 39.7 66.44 35.6C66.44 27.6 60.12 21.52 58.54 18Z" id="b7gZhNWve"></path><path d="M51.64 66C51.59 66 51.19 66 51.14 66C49.64 66 48.44 64.8 48.44 63.3C48.44 61.8 49.64 60.6 51.14 60.6C51.19 60.6 51.59 60.6 51.64 60.6C53.14 60.6 54.34 61.8 54.34 63.3C54.34 64.8 53.14 66 51.64 66Z" id="b2TAUxT4JS"></path><path d="M53.04 64.3C54.54 64.3 55.84 63.5 55.84 62.5C55.84 61.18 55.84 50.62 55.84 49.3C55.84 48.3 55.64 47.5 54.14 47.5C54.03 47.5 53.15 47.5 53.04 47.5C51.54 47.5 50.24 48.3 50.24 49.3C50.24 50.18 50.24 54.58 50.24 62.5C51.1 63.7 52.04 64.3 53.04 64.3Z" id="g2ZR6MUJhO"></path><path d="M66.04 73.7C65.76 73.7 63.52 73.7 63.24 73.7C61.74 73.7 62.84 72.4 62.84 70.9C62.84 69.4 64.04 68.2 65.54 68.2C65.59 68.2 65.99 68.2 66.04 68.2C67.54 68.2 68.74 69.4 68.74 70.9C68.74 72.4 67.54 73.7 66.04 73.7Z" id="aHh3CQ9PI"></path></defs><g><g><use xlink:href="#a48OJJbUrN" opacity="1" fill="#029cc6" fill-opacity="1"></use><g><use xlink:href="#a48OJJbUrN" opacity="1" fill-opacity="0" stroke="#000000" stroke-width="1" stroke-opacity="0"></use></g></g><g><use xlink:href="#d1DBjdTN7x" opacity="1" fill="#ffffff" fill-opacity="1"></use><g><use xlink:href="#d1DBjdTN7x" opacity="1" fill-opacity="0" stroke="#000000" stroke-width="1" stroke-opacity="0"></use></g></g><g><use xlink:href="#b3aWzJ8oxV" opacity="1" fill="#ffffff" fill-opacity="1"></use><g><use xlink:href="#b3aWzJ8oxV" opacity="1" fill-opacity="0" stroke="#000000" stroke-width="1" stroke-opacity="0"></use></g></g><g><use xlink:href="#e3upxzwx3u" opacity="1" fill="#ffffff" fill-opacity="1"></use><g><use xlink:href="#e3upxzwx3u" opacity="1" fill-opacity="0" stroke="#000000" stroke-width="1" stroke-opacity="0"></use></g></g><g><use xlink:href="#b7gZhNWve" opacity="1" fill="#ffffff" fill-opacity="1"></use><g><use xlink:href="#b7gZhNWve" opacity="1" fill-opacity="0" stroke="#000000" stroke-width="1" stroke-opacity="0"></use></g></g><g><use xlink:href="#b2TAUxT4JS" opacity="1" fill="#ffffff" fill-opacity="1"></use><g><use xlink:href="#b2TAUxT4JS" opacity="1" fill-opacity="0" stroke="#000000" stroke-width="1" stroke-opacity="0"></use></g></g><g><use xlink:href="#g2ZR6MUJhO" opacity="1" fill="#ffffff" fill-opacity="1"></use><g><use xlink:href="#g2ZR6MUJhO" opacity="1" fill-opacity="0" stroke="#000000" stroke-width="1" stroke-opacity="0"></use></g></g><g><use xlink:href="#aHh3CQ9PI" opacity="1" fill="#ffffff" fill-opacity="1"></use><g><use xlink:href="#aHh3CQ9PI" opacity="1" fill-opacity="0" stroke="#000000" stroke-width="1" stroke-opacity="0"></use></g></g></g></svg>