<?xml version="1.0" standalone="no"?><!-- Generator: Gravit.io --><svg xmlns="http://www.w3.org/2000/svg" xmlns:xlink="http://www.w3.org/1999/xlink" style="isolation:isolate" viewBox="387.645 70.809 115 115" width="115" height="115"><g><path d=" M 502.6 128.3 C 502.6 160.1 476.9 185.8 445.1 185.8 C 413.4 185.8 387.6 160.1 387.6 128.3 C 387.6 96.6 413.4 70.8 445.1 70.8 C 476.9 70.8 502.6 96.6 502.6 128.3 Z " fill="rgb(0,158,200)"/><path d=" M 453.4 100.3 L 464.3 100.3 L 464.3 110.3 L 453.4 110.3 L 453.4 100.3 Z " fill="none"/><path d=" M 437.8 101.2 L 448.5 101.2 L 448.5 108.6 L 437.8 108.6 L 437.8 101.2 Z " fill="none"/><path d=" M 445.2 145.4 C 437.9 145.4 431.9 139.5 431.9 132.2 C 431.9 124.9 437.9 119 445.2 119 C 452.5 119 458.4 124.9 458.4 132.2 C 458.4 139.5 452.5 145.4 445.2 145.4 Z  M 440.3 103.5 C 441.2 102.3 442.8 101.7 445.1 101.7 L 445.2 101.7 C 447.5 101.7 449.2 102.3 450 103.5 C 450.7 104.3 450.9 105.5 451 106.6 L 439.3 106.6 C 439.4 105.5 439.6 104.3 440.3 103.5 Z  M 467.6 106.6 L 456.3 106.6 C 456.2 104.1 455.5 101.9 454.2 100.3 C 453.3 99.1 452.1 98.1 450.6 97.5 C 449.1 96.8 447.3 96.5 445.2 96.4 C 443.1 96.4 441.3 96.8 439.7 97.4 C 438.3 98.1 437 99 436.1 100.2 C 434.8 101.9 434.1 104.1 434 106.6 L 422.8 106.6 C 417 106.6 412.4 111.2 412.4 116.9 L 412.4 143.6 C 412.4 149.3 417 154 422.8 154 L 467.6 154 C 473.3 154 477.9 149.3 477.9 143.6 L 477.9 116.9 C 477.9 111.2 473.3 106.6 467.6 106.6 Z " fill="rgb(255,255,255)"/><path d=" M 448.6 124.4 L 441.8 124.4 L 441.8 129.1 L 437 129.1 L 437 136 L 441.8 136 L 441.8 140.7 L 448.6 140.7 L 448.6 136 L 453.4 136 L 453.4 129.1 L 448.6 129.1 L 448.6 124.4 Z " fill="rgb(255,255,255)"/></g></svg>