<?xml version="1.0" standalone="no"?><!-- Generator: Gravit.io --><svg xmlns="http://www.w3.org/2000/svg" xmlns:xlink="http://www.w3.org/1999/xlink" style="isolation:isolate" viewBox="246.617 248 115 115" width="115" height="115"><g><path d=" M 361.6 305.5 C 361.6 337.3 335.9 363 304.1 363 C 272.4 363 246.6 337.3 246.6 305.5 C 246.6 273.7 272.4 248 304.1 248 C 335.9 248 361.6 273.7 361.6 305.5 Z " fill="rgb(2,156,198)"/><path d=" M 334.1 295.5 C 332.4 283.9 318.3 277.8 308.6 284.5 C 306.9 285.6 305.5 287.1 303.9 288.5 C 303.8 288.4 303.7 288.2 303.5 288 C 300.5 284.3 296.7 282.1 292 281.8 C 283.2 281.2 278.3 285.9 275.2 292 C 274.3 293.7 274 295.6 273.9 297.5 C 273.8 302.5 274.7 307.2 277.9 311.2 C 279.1 312.8 280.3 314.4 281.6 315.9 C 288 323.4 295.5 329.6 303.6 335.1 C 304.1 335.4 304.4 335.3 304.8 335 C 308.2 332.4 311.7 329.9 315 327.2 C 320.7 322.6 325.9 317.4 330.3 311.4 C 333.8 306.6 334.9 301.3 334.1 295.5 Z " fill="rgb(255,255,255)"/></g></svg>