<?xml version="1.0" standalone="no"?><!-- Generator: Gravit.io --><svg xmlns="http://www.w3.org/2000/svg" xmlns:xlink="http://www.w3.org/1999/xlink" style="isolation:isolate" viewBox="245.562 405 115 115" width="115" height="115"><g><path d=" M 360.6 462.5 C 360.6 494.3 334.8 520 303.1 520 C 271.3 520 245.6 494.3 245.6 462.5 C 245.6 430.7 271.3 405 303.1 405 C 334.8 405 360.6 430.7 360.6 462.5 Z " fill="rgb(2,156,198)"/><path d=" M 293.8 439.5 L 312.8 439.5 L 312.8 452.5 L 293.8 452.5 L 293.8 439.5 Z " fill="none"/><path d=" M 272.6 469.8 L 300 446.4 C 301.3 445.5 303 445.5 304.2 446.4 L 331.6 469.8 C 332.3 470.4 333.1 470.7 334 470.7 C 335 470.7 336 470.2 336.7 469.4 C 338 467.9 337.9 465.6 336.3 464.3 L 321.3 451.4 L 321.3 442.2 C 321.3 440.2 319.7 438.5 317.7 438.5 C 315.6 438.5 314 440.2 314 442.2 L 314 445.2 L 304.5 437 C 303.1 435.8 301.1 435.8 299.7 437 L 267.9 464.3 C 266.4 465.6 266.2 467.9 267.5 469.4 C 268.8 470.9 271.1 471.1 272.6 469.8 Z " fill="rgb(255,255,255)"/><path d=" M 311.2 487.1 L 323.3 487.1 C 325.2 487.1 326.7 485.5 326.7 483.6 L 326.7 471.8 C 326.7 469.9 325.5 467.3 324.1 466.1 L 304.8 450.1 C 303.3 448.8 300.9 448.8 299.5 450.1 L 280.2 466.1 C 278.7 467.3 277.5 469.9 277.5 471.8 L 277.5 483.6 C 277.5 485.5 279.1 487.1 281 487.1 L 293 487.1 L 311.2 487.1 Z " fill="rgb(255,255,255)"/></g></svg>