<?xml version="1.0" standalone="no"?><!-- Generator: Gravit.io --><svg xmlns="http://www.w3.org/2000/svg" xmlns:xlink="http://www.w3.org/1999/xlink" style="isolation:isolate" viewBox="247.645 70.809 115 115" width="115" height="115"><g><path d=" M 362.6 128.3 C 362.6 160.1 336.9 185.8 305.1 185.8 C 273.4 185.8 247.6 160.1 247.6 128.3 C 247.6 96.6 273.4 70.8 305.1 70.8 C 336.9 70.8 362.6 96.6 362.6 128.3 Z " fill="rgb(0,158,200)"/><path d=" M 332.3 143 C 329.3 143 326.8 140.5 326.8 137.5 C 326.8 137.4 326.8 137.2 326.8 137.1 L 330.9 138.8 C 331.3 138.9 331.6 138.8 331.8 138.5 L 332.9 136.8 C 333.1 136.5 333.1 136.1 332.8 135.9 L 329.4 132.9 C 330.2 132.4 331.2 132.1 332.3 132.1 C 335.3 132.1 337.7 134.5 337.7 137.5 C 337.7 140.5 335.3 143 332.3 143 Z  M 278.2 143 C 275.2 143 272.8 140.5 272.8 137.5 C 272.8 134.5 275.2 132.1 278.2 132.1 C 279.4 132.1 280.5 132.5 281.4 133.1 L 278.4 135.3 C 278.1 135.5 278.1 135.9 278.2 136.2 L 279.8 138.9 C 280 139.2 280.4 139.3 280.7 139.2 L 283.7 137.9 C 283.5 140.7 281.1 143 278.2 143 Z  M 332.3 125.8 C 329.3 125.8 326.6 126.8 324.5 128.7 L 323 127.3 C 326.9 123.9 332.1 122.7 335.9 123.3 L 337.3 122.3 C 336.5 113.6 330.2 108.9 324.3 106.4 L 322.1 107.4 L 321.6 110.1 L 319.3 107.7 L 314.5 107.7 L 314.5 111.1 L 317.8 111.1 L 320.8 114.3 L 320.6 115.2 L 318 116.9 L 313.8 113.9 C 313.5 113.7 313 113.5 312.5 113.4 L 303.5 112.6 C 302.6 112.5 301.8 112.9 301.2 113.6 L 297.5 117.9 C 296.9 118.7 295.8 119.1 294.8 118.8 L 282.9 115.5 C 282.4 115.4 282.2 115 282.3 114.5 L 283.1 111.4 C 283.2 111.1 283.1 110.8 282.9 110.5 C 282.7 110.2 282.4 110.1 282.1 110.1 L 268.6 110.2 C 268.2 110.2 267.9 110.5 267.9 110.8 L 267.9 111.7 C 267.9 112 268 112.2 268.2 112.3 L 290 126.7 L 286.6 129.2 C 284.4 127.1 281.5 125.8 278.2 125.8 C 271.7 125.8 266.4 131 266.4 137.5 C 266.4 144 271.7 149.3 278.2 149.3 C 284.7 149.3 290 144 290 137.5 C 290 136.7 289.9 136 289.8 135.2 L 294.2 133.3 C 294.4 134.7 294.5 136.2 294.3 137.6 C 294.1 139 294.5 140.4 295.4 141.5 C 296.4 142.6 297.7 143.2 299.1 143.2 L 318.5 143.2 C 317.8 139.5 318 136.4 318.8 133.8 L 320.9 134.6 C 320.6 135.6 320.5 136.5 320.5 137.5 C 320.5 144 325.8 149.3 332.3 149.3 C 338.8 149.3 344 144 344 137.5 C 344 131 338.8 125.8 332.3 125.8 Z " fill="rgb(255,255,255)"/></g></svg>