<?xml version="1.0" standalone="no"?><!-- Generator: Gravit.io --><svg xmlns="http://www.w3.org/2000/svg" xmlns:xlink="http://www.w3.org/1999/xlink" style="isolation:isolate" viewBox="390.899 248 115 115" width="115" height="115"><g><path d=" M 505.9 305.5 C 505.9 329.2 491.6 349.5 471.1 358.3 C 464.2 361.3 456.5 363 448.4 363 C 416.6 363 390.9 337.3 390.9 305.5 C 390.9 273.7 416.6 248 448.4 248 C 480.2 248 505.9 273.7 505.9 305.5 Z " fill="rgb(2,156,198)"/><path d=" M 428 289.7 C 423.5 289.7 419.9 293.3 419.9 297.8 L 419.9 323.3 C 419.9 327.8 423.5 331.4 428 331.4 L 429 331.4 L 429 289.7 L 428 289.7 Z " fill="rgb(255,255,255)"/><path d=" M 468.8 289.7 L 464 289.7 L 464.5 331.4 L 468.8 331.4 C 473.3 331.4 476.9 327.8 476.9 323.3 L 476.9 297.8 C 476.9 293.3 473.3 289.7 468.8 289.7 Z " fill="rgb(255,255,255)"/><path d=" M 440.3 286.6 C 440.3 284.9 441.6 283.6 443.3 283.6 L 453.5 283.6 C 455.2 283.6 456.5 284.9 456.5 286.6 L 456.5 289.7 L 440.3 289.7 L 440.3 286.6 Z  M 462.7 289.7 L 462.7 286.6 C 462.7 281.6 458.5 277.5 453.5 277.5 L 443.3 277.5 C 438.3 277.5 434.1 281.6 434.1 286.6 L 434.1 289.7 L 432.1 289.7 L 432.1 331.4 L 464.7 331.4 L 464.7 289.7 L 462.7 289.7 Z " fill="rgb(255,255,255)"/><path d=" M 467.4 313.5 L 467.4 309.2 C 467.4 305.2 464.2 302 460.3 302 C 456.4 302 453.2 305.2 453.2 309.2 L 453.2 313.5 L 467.4 313.5 Z  M 449 333.9 C 447.8 333.9 446.8 332.9 446.8 331.7 L 446.8 315.7 C 446.8 314.5 447.8 313.5 449 313.5 L 449.6 313.5 L 449.6 309.2 C 449.6 303.3 454.4 298.5 460.3 298.5 C 466.2 298.5 471 303.3 471 309.2 L 471 313.5 L 471.5 313.5 C 472.8 313.5 473.8 314.5 473.8 315.7 L 473.8 331.7 C 473.8 332.9 472.8 333.9 471.5 333.9 L 449 333.9 Z " fill="rgb(255,255,255)"/><path d=" M 453.5 313.1 L 453.5 309.2 C 453.5 305.4 456.6 302.4 460.3 302.4 C 464 302.4 467 305.4 467 309.2 L 467 313.1 L 453.5 313.1 Z  M 460.3 298.1 C 454.2 298.1 449.2 303 449.2 309.2 L 449.2 309.2 L 449.2 309.2 L 449.2 313.1 L 449 313.1 C 447.6 313.1 446.4 314.3 446.4 315.7 L 446.4 331.7 C 446.4 333.1 447.6 334.3 449 334.3 L 471.5 334.3 C 473 334.3 474.2 333.1 474.2 331.7 L 474.2 315.7 C 474.2 314.3 473 313.1 471.5 313.1 L 471.4 313.1 L 471.4 309.2 C 471.4 303 466.4 298.1 460.3 298.1 Z  M 452.8 313.8 L 467.8 313.8 L 467.8 309.2 C 467.8 305 464.4 301.6 460.3 301.6 C 456.1 301.6 452.8 305 452.8 309.2 L 452.8 313.8 Z  M 460.3 298.8 C 466 298.8 470.6 303.5 470.6 309.2 L 470.6 313.8 L 471.5 313.8 C 472.6 313.8 473.4 314.7 473.4 315.7 L 473.4 331.7 C 473.4 332.7 472.6 333.5 471.5 333.5 L 449 333.5 C 448 333.5 447.1 332.7 447.1 331.7 L 447.1 315.7 C 447.1 314.7 448 313.8 449 313.8 L 450 313.8 L 450 309.2 C 450 303.5 454.6 298.8 460.3 298.8 Z " fill="rgb(0,158,200)"/><path d=" M 463.1 321.4 C 463.1 319.8 461.8 318.5 460.3 318.5 C 458.7 318.5 457.5 319.8 457.5 321.4 C 457.5 322.5 458.2 323.5 459.2 324 L 458.4 328.9 L 462.2 328.9 L 461.3 324 C 462.4 323.5 463.1 322.5 463.1 321.4 Z " fill="rgb(0,158,200)"/></g></svg>