<?xml version="1.0" standalone="no"?><!-- Generator: Gravit.io --><svg xmlns="http://www.w3.org/2000/svg" xmlns:xlink="http://www.w3.org/1999/xlink" style="isolation:isolate" viewBox="521.833 250.982 115 115" width="115" height="115"><g><path d=" M 636.8 308.5 C 636.8 340.2 611.1 366 579.3 366 C 547.6 366 521.8 340.2 521.8 308.5 C 521.8 276.7 547.6 251 579.3 251 C 611.1 251 636.8 276.7 636.8 308.5 Z " fill="rgb(2,156,198)"/><path d=" M 576.7 288.4 C 576.7 288.4 568.7 289.4 565.7 294.4 C 562.7 299.4 557.7 320.4 558.7 323.4 C 559.7 326.4 559.7 333.4 570.7 337.4 C 581.7 341.4 592.7 334.4 592.7 334.4 C 592.7 334.4 599.7 332.4 599.7 316.4 C 599.7 300.4 589.7 290.4 589.7 290.4 C 589.7 290.4 580.7 286.4 576.7 288.4 Z " fill="rgb(2,156,198)"/><path d=" M 591.5 323.6 C 590.8 323.6 590.3 324.2 590.3 324.8 C 590.3 327.3 588.1 329.3 585.5 329.3 C 582.8 329.3 580.6 327.3 580.6 324.8 L 580.6 322.4 C 582.5 321.8 583.9 319.8 584.3 317.2 C 584.4 316.7 584.3 316.2 584 315.9 C 583.8 315.6 583.5 315.4 583.1 315.4 L 575.6 315.4 C 575.3 315.4 575 315.6 574.8 315.9 C 574.5 316.2 574.3 316.7 574.4 317.2 C 574.8 319.8 576.3 321.8 578.2 322.4 L 578.2 324.8 C 578.2 327.3 576 329.3 573.4 329.3 C 570.7 329.3 568.5 327.3 568.5 324.8 C 568.5 324.2 568 323.6 567.3 323.6 C 566.7 323.6 566.1 324.2 566.1 324.8 C 566.1 328.6 569.4 331.7 573.4 331.7 C 575.8 331.7 578.1 330.5 579.4 328.5 C 580.7 330.5 583 331.7 585.5 331.7 C 589.4 331.7 592.7 328.6 592.7 324.8 C 592.7 324.2 592.1 323.6 591.5 323.6 Z " fill="rgb(255,255,255)"/><path d=" M 576.6 325.4 C 576.6 324.8 576.1 324.3 575.5 324.3 C 574.9 324.3 574.5 324.8 574.5 325.4 C 574.5 326 574.9 326.5 575.5 326.5 C 576.1 326.5 576.6 326 576.6 325.4 Z " fill="rgb(255,255,255)"/><path d=" M 572.1 327.8 C 572.6 327.8 573.1 327.3 573.1 326.8 C 573.1 326.2 572.6 325.7 572.1 325.7 C 571.5 325.7 571 326.2 571 326.8 C 571 327.3 571.5 327.8 572.1 327.8 Z " fill="rgb(255,255,255)"/><path d=" M 572.5 324.9 C 573 324.9 573.5 324.4 573.5 323.8 C 573.5 323.2 573 322.7 572.5 322.7 C 571.9 322.7 571.4 323.2 571.4 323.8 C 571.4 324.4 571.9 324.9 572.5 324.9 Z " fill="rgb(255,255,255)"/><path d=" M 582.7 325.1 C 582.7 325.7 583.2 326.2 583.8 326.2 C 584.4 326.2 584.9 325.7 584.9 325.1 C 584.9 324.5 584.4 324 583.8 324 C 583.2 324 582.7 324.5 582.7 325.1 Z " fill="rgb(255,255,255)"/><path d=" M 586.2 326.4 C 586.2 327 586.7 327.5 587.3 327.5 C 587.8 327.5 588.3 327 588.3 326.4 C 588.3 325.9 587.8 325.4 587.3 325.4 C 586.7 325.4 586.2 325.9 586.2 326.4 Z " fill="rgb(255,255,255)"/><path d=" M 586.9 324.6 C 587.5 324.6 588 324.1 588 323.5 C 588 322.9 587.5 322.4 586.9 322.4 C 586.3 322.4 585.8 322.9 585.8 323.5 C 585.8 324.1 586.3 324.6 586.9 324.6 Z " fill="rgb(255,255,255)"/><path d=" M 575.3 305 C 575.3 306.7 573.8 308.1 572.1 308.1 C 570.3 308.1 568.9 306.7 568.9 305 C 568.9 303.2 570.3 301.8 572.1 301.8 C 573.8 301.8 575.3 303.2 575.3 305 Z " fill="rgb(255,255,255)"/><path d=" M 610 296.3 C 607.5 289.9 602.2 286.9 594.3 287.4 C 592.6 287.5 592.6 288.2 593.9 289.7 C 597.3 291.8 599.7 298.9 601.4 305.2 C 602 307.3 603.9 308.2 605.4 307.3 C 608.8 305 612.2 301.8 610 296.3 Z " fill="rgb(255,255,255)"/><path d=" M 553.3 307.3 C 554.7 308.2 556.7 307.3 557.2 305.2 C 558.9 298.9 561.4 291.8 564.7 289.7 C 566 288.2 566 287.5 564.4 287.4 C 556.5 286.9 551.2 289.9 548.6 296.3 C 546.4 301.8 549.9 305 553.3 307.3 Z " fill="rgb(255,255,255)"/><path d=" M 579.4 336.5 C 563 336.5 558.8 326.6 561.7 312.3 C 564.4 299 564.8 290.7 578.7 290.4 C 577.7 300.1 578.1 318.9 597.4 313.2 C 600.2 326.5 595.1 336.5 579.4 336.5 Z  M 586.7 301.8 C 588.4 301.8 589.9 303.3 589.9 305 C 589.9 306.8 588.4 308.2 586.7 308.2 C 584.9 308.2 583.5 306.8 583.5 305 C 583.5 303.3 584.9 301.8 586.7 301.8 Z  M 600.8 311.4 C 600.4 309.8 600.1 308.3 599.7 306.8 C 598.5 301.2 597.4 296.3 594.6 292.7 C 591.5 288.6 586.7 286.6 579.4 286.6 C 571.9 286.6 566.8 288.7 563.6 293.2 C 562.3 295.1 561.3 297.3 560.5 300.3 C 559.7 302.8 559.2 305.6 558.6 308.5 C 558.4 309.5 558.2 310.5 558 311.6 C 557.1 316.1 556.9 319.3 557.3 322.9 C 557.8 327 559.2 330.4 561.5 333.2 C 563.4 335.5 565.9 337.3 568.9 338.5 C 571.9 339.7 575.4 340.3 579.4 340.3 C 583.4 340.3 587 339.6 590.1 338.3 C 593.1 337.1 595.6 335.2 597.6 332.7 C 599.8 329.9 601.2 326.4 601.7 322.4 C 602.1 318.8 601.8 315.7 600.8 311.4 Z " fill="rgb(255,255,255)"/></g></svg>