<?xml version="1.0" standalone="no"?><!-- Generator: Gravit.io --><svg xmlns="http://www.w3.org/2000/svg" xmlns:xlink="http://www.w3.org/1999/xlink" style="isolation:isolate" viewBox="525.645 404.809 115 115" width="115" height="115"><g><path d=" M 640.6 462.3 C 640.6 494.1 614.9 519.8 583.1 519.8 C 551.4 519.8 525.6 494.1 525.6 462.3 C 525.6 430.6 551.4 404.8 583.1 404.8 C 614.9 404.8 640.6 430.6 640.6 462.3 Z " fill="rgb(0,158,200)"/><path d=" M 575.1 452.2 L 580.4 454 L 585.3 439.8 L 583.3 439.8 C 583.3 439.8 583.3 439.8 583.3 439.8 C 583.3 439.8 583.3 439.8 583.3 439.8 L 575 439.8 C 571 439.8 567.8 443 567.8 447 C 567.8 447 567.7 457.4 567.7 457.4 C 567.7 458.8 568.6 460 569.8 460.4 L 571.6 461 L 573.8 454.5 L 573.9 454.5 C 573.9 450.7 573.9 452.2 573.9 447.1 C 573.9 446.7 574.2 446.5 574.5 446.5 C 574.9 446.5 575.1 446.7 575.1 447.1 L 575.1 452.2 Z " fill="rgb(255,255,255)"/><circle vector-effect="non-scaling-stroke" cx="583.3164226281237" cy="431.37865753561255" r="6.3786575356130015" fill="rgb(255,255,255)"/><path d=" M 581.1 464.3 L 581.1 464.3 C 582.7 464.8 584.5 464 585 462.4 C 585.6 460.7 584.7 459 583.1 458.4 L 581.1 464.3 Z " fill="rgb(255,255,255)"/><path d=" M 598.9 447 C 598.9 443 595.6 439.8 591.6 439.8 L 588.9 439.8 L 583.6 455 L 584.2 455.3 C 587.6 456.4 589.4 460.1 588.2 463.4 C 587.1 466.8 583.4 468.6 580 467.5 L 575.1 465.8 C 575.1 465.8 575.1 497 575.1 498.8 C 575.1 500.8 576.8 502.5 578.8 502.5 C 580.9 502.5 582.5 500.8 582.5 498.8 C 582.5 497.7 582.5 474.9 582.5 470.1 C 582.5 469.6 582.9 469.3 583.3 469.3 C 583.8 469.3 584.1 469.6 584.1 470.1 C 584.1 474.7 584.1 497.2 584.1 498.8 C 584.1 500.8 585.8 502.5 587.8 502.5 C 589.8 502.5 591.5 500.8 591.5 498.8 L 591.4 447 C 591.4 446.7 591.7 446.4 592.1 446.4 C 592.4 446.4 592.7 446.7 592.7 447 C 592.7 447 592.7 447.1 592.7 447.1 L 592.8 469.7 C 592.8 471.4 594.2 472.7 595.9 472.7 C 595.9 472.7 595.9 472.7 595.9 472.7 C 597.6 472.7 599 471.3 599 469.6 L 598.9 447 Z " fill="rgb(255,255,255)"/></g></svg>