<?xml version="1.0" encoding="utf-8"?>
<!-- Generator: Adobe Illustrator 21.1.0, SVG Export Plug-In . SVG Version: 6.00 Build 0)  -->
<svg version="1.1" id="Capa_1" xmlns="http://www.w3.org/2000/svg" xmlns:xlink="http://www.w3.org/1999/xlink" x="0px" y="0px"
	 viewBox="0 0 16 16" enable-background="new 0 0 16 16" xml:space="preserve">
<path fill="#F2C600" d="M5.1,5.5C5.4,5.5,5.7,5.3,5.8,5l1.9-4C7.9,0.8,8,0.8,8.1,1l2,4c0.1,0.2,0.4,0.4,0.7,0.5l4.4,0.6
	c0.2,0,0.3,0.2,0.1,0.4l-3.2,3.1c-0.2,0.2-0.3,0.5-0.2,0.8l0.8,4.4c0,0.2-0.1,0.4-0.3,0.2l-4-2.1c-0.3-0.1-0.6-0.1-0.8,0l-3.9,2.1
	c-0.2,0.1-0.4,0-0.3-0.2l0.7-4.4c0-0.3-0.1-0.6-0.3-0.8L0.6,6.6C0.4,6.4,0.5,6.2,0.7,6.2L5.1,5.5z"/>
</svg>
