<?xml version="1.0" encoding="utf-8"?>
<!-- Generator: Adobe Illustrator 24.1.3, SVG Export Plug-In . SVG Version: 6.00 Build 0)  -->
<svg version="1.1" id="Layer_1" xmlns="http://www.w3.org/2000/svg" xmlns:xlink="http://www.w3.org/1999/xlink" x="0px" y="0px"
	 width="22px" height="22px" viewBox="0 0 512 512" style="enable-background:new 0 0 512 512;" xml:space="preserve">
<style type="text/css">
	.st0{fill-rule:evenodd;clip-rule:evenodd;fill:#009FC7;}
</style>
<path class="st0" d="M395.9,242.43L161.85,8.03C158.5,4.68,154.64,3,150.3,3c-4.36,0-8.21,1.68-11.55,5.03l-25.11,25.15
	c-3.35,3.36-5.02,7.21-5.02,11.57c0,4.36,1.67,8.22,5.02,11.57L311.02,254L113.63,451.68c-3.35,3.36-5.02,7.21-5.02,11.57
	c0,4.36,1.67,8.22,5.02,11.57l25.11,25.15c3.34,3.36,7.2,5.03,11.55,5.03c4.35,0,8.2-1.67,11.55-5.03l234.06-234.4
	c3.34-3.35,5.02-7.21,5.02-11.57C400.93,249.65,399.25,245.79,395.9,242.43L395.9,242.43z"/>
</svg>
