<?xml version="1.0" encoding="utf-8"?>
<!-- Generator: Adobe Illustrator 24.1.3, SVG Export Plug-In . SVG Version: 6.00 Build 0)  -->
<svg version="1.1" id="Layer_1" xmlns="http://www.w3.org/2000/svg" xmlns:xlink="http://www.w3.org/1999/xlink" x="0px" y="0px"
	 width="22px" height="22px" viewBox="0 0 512 512" style="enable-background:new 0 0 512 512;" xml:space="preserve">
<style type="text/css">
	.st0{fill-rule:evenodd;clip-rule:evenodd;fill:#525252;}
</style>
<path class="st0" d="M243.2,395.14c3.36,3.34,7.21,5.02,11.57,5.02c4.36,0,8.22-1.68,11.57-5.02l234.4-234.06
	c3.36-3.35,5.03-7.2,5.03-11.55c0-4.36-1.67-8.21-5.03-11.55l-25.15-25.11c-3.35-3.35-7.21-5.02-11.57-5.02
	c-4.35,0-8.21,1.67-11.57,5.02L254.77,310.25L57.08,112.86c-3.35-3.35-7.21-5.02-11.57-5.02c-4.35,0-8.21,1.67-11.57,5.02
	L8.8,137.98c-3.35,3.34-5.03,7.2-5.03,11.55c0,4.35,1.68,8.2,5.03,11.55L243.2,395.14L243.2,395.14z"/>
</svg>
