<?xml version="1.0" encoding="UTF-8"?>
<svg xmlns="http://www.w3.org/2000/svg" xmlns:xlink="http://www.w3.org/1999/xlink" width="22px" height="22px" viewBox="0 0 22 22" version="1.1">
<g id="surface1">
<path style=" stroke:none;fill-rule:nonzero;fill:rgb(0%,62.352941%,77.647059%);fill-opacity:1;" d="M 11 22 C 6.550781 22 2.539062 19.320312 0.835938 15.210938 C -0.867188 11.097656 0.0742188 6.367188 3.222656 3.222656 C 6 0.433594 10.054688 -0.65625 13.855469 0.359375 C 17.65625 1.378906 20.621094 4.34375 21.640625 8.144531 C 22.65625 11.945312 21.566406 16 18.777344 18.777344 C 16.71875 20.847656 13.917969 22.007812 11 22 Z M 11 1.402344 C 5.707031 1.402344 1.402344 5.707031 1.402344 11 C 1.402344 16.292969 5.707031 20.597656 11 20.597656 C 16.292969 20.597656 20.597656 16.292969 20.597656 11 C 20.597656 5.707031 16.292969 1.402344 11 1.402344 Z M 11 1.402344 "/>
<path style=" stroke:none;fill-rule:evenodd;fill:rgb(0%,62.352941%,77.647059%);fill-opacity:1;" d="M 8.664062 17.269531 L 9.957031 17.269531 L 9.957031 12.675781 C 9.574219 13.03125 9.132812 12.757812 9.050781 12.609375 C 8.628906 11.9375 9.257812 11.644531 9.257812 11.644531 L 9.257812 9.382812 C 9.257812 9.035156 9.675781 9.019531 9.675781 9.019531 C 9.675781 9.019531 11.789062 9.011719 12.324219 9.019531 C 12.859375 9.023438 12.847656 9.351562 12.847656 9.351562 C 12.847656 9.351562 12.871094 12.445312 12.847656 13.175781 C 13.265625 13.308594 13.308594 13.644531 13.332031 13.808594 C 13.25 14.371094 12.742188 14.375 12.742188 14.375 L 12.113281 14.375 L 12.113281 17.304688 L 13.308594 17.304688 C 14.167969 17.304688 14.238281 18.53125 14.238281 18.53125 L 7.761719 18.53125 C 7.761719 18.53125 7.925781 17.269531 8.664062 17.269531 Z M 11.53125 8.316406 C 11.71875 7.871094 12.042969 6.878906 11 5.992188 C 11 5.992188 9.953125 6.628906 10.511719 8.285156 C 9.949219 7.910156 8.835938 6.882812 9.539062 5.527344 C 10.238281 4.171875 11 2.929688 11 2.929688 C 11 2.929688 12.097656 4.222656 12.496094 5.292969 C 12.875 6.304688 12.863281 7.53125 11.53125 8.316406 Z M 11.53125 8.316406 "/>
</g>
</svg>
