<svg xmlns="http://www.w3.org/2000/svg" width="22px" height="22px" viewBox="0 0 471.16 471.16"><defs><style>.cls-1,.cls-2{fill:#009fc6;}.cls-2{fill-rule:evenodd;}</style></defs><g id="Layer_1" data-name="Layer 1"><path class="cls-1" d="M250.64,486.08A235.58,235.58,0,0,1,84.06,83.92,235.58,235.58,0,1,1,417.22,417.08,234,234,0,0,1,250.64,486.08Zm0-441.16c-113.35,0-205.58,92.22-205.58,205.58s92.23,205.58,205.58,205.58S456.22,363.86,456.22,250.5,364,44.92,250.64,44.92Z" transform="translate(-15.06 -14.92)"/><path class="cls-2" d="M200.65,384.75h27.62V286.43c-8.19,7.61-17.63,1.73-19.39-1.43-9-14.46,4.48-20.66,4.48-20.66V215.9c0-7.48,8.94-7.84,8.94-7.84s45.24-.13,56.68,0,11.19,7.12,11.19,7.12.58,66.24,0,81.94c9,2.86,9.91,10,10.44,13.53-1.75,12.06-12.68,12.11-12.68,12.11H274.51v62.76h25.58c18.43,0,19.91,26.3,19.91,26.3H181.29S184.81,384.75,200.65,384.75ZM262,193c4-9.51,11-30.8-11.36-49.75,0,0-22.4,13.66-10.48,49.11-12-8-35.88-30.06-20.84-59.09s31.32-55.57,31.32-55.57,23.47,27.63,32.07,50.58C290.83,149.92,290.55,176.23,262,193Z" transform="translate(-15.06 -14.92)"/></g></svg>