<?xml version="1.0" encoding="utf-8"?>
<!-- Generator: Adobe Illustrator 25.2.3, SVG Export Plug-In . SVG Version: 6.00 Build 0)  -->
<svg version="1.1" id="Layer_1" xmlns="http://www.w3.org/2000/svg" xmlns:xlink="http://www.w3.org/1999/xlink" x="0px" y="0px"
	width="22px" height="22px" viewBox="0 0 471.2 471.2" style="enable-background:new 0 0 471.2 471.2;" xml:space="preserve">
<style type="text/css">
	.st0{fill:#009FC6;}
</style>
<g>
	<path class="st0" d="M368.7,104.8L368.7,104.8c-1.8,1.6-2.8,3.8-2.9,6.2l-0.3,6.5c-0.1,2.4,0.7,4.7,2.3,6.4
		c1.6,1.8,3.8,2.8,6.2,2.9l41.1,1.9c0.1,0,0.2,0,0.4,0c4.8,0,8.7-3.7,9-8.5l0.3-6.5c0.1-2.4-0.7-4.7-2.3-6.4
		c-1.6-1.8-3.8-2.8-6.2-2.9l-41-1.9C372.8,102.3,370.5,103.2,368.7,104.8z"/>
	<path class="st0" d="M352.7,80.1c1.6,1.8,3.8,2.8,6.2,2.9c0.1,0,0.3,0,0.4,0c2.2,0,4.4-0.8,6-2.3l30.4-27.5
		c1.8-1.6,2.8-3.8,2.9-6.2c0.1-2.4-0.7-4.7-2.3-6.4l-4.4-4.8c-3.3-3.6-9-3.9-12.7-0.6l-30.4,27.5c-1.8,1.6-2.8,3.8-2.9,6.2
		c-0.1,2.4,0.7,4.7,2.3,6.4L352.7,80.1z"/>
	<path class="st0" d="M312.3,64.1h6.5c4.9,0,9-4,9-8.9V14.3c0-4.9-4-8.9-9-8.9h-6.5c-4.9,0-9,4-9,8.9v40.9
		C303.3,60.1,307.3,64.1,312.3,64.1z"/>
	<path class="st0" d="M233.5,53.2l30.4,27.5c1.6,1.5,3.8,2.3,6,2.3c0.1,0,0.3,0,0.4,0c2.4-0.1,4.6-1.1,6.2-2.9l4.4-4.8
		c1.6-1.8,2.4-4.1,2.3-6.4c-0.1-2.4-1.1-4.6-2.9-6.2L250,35.1c-3.7-3.3-9.3-3-12.7,0.6l-4.4,4.8c-1.6,1.8-2.4,4.1-2.3,6.4
		C230.7,49.4,231.8,51.6,233.5,53.2z"/>
	<path class="st0" d="M444.9,269.2l-32.8-111.3c-3.2-10.9-13.4-18.5-24.8-18.5H349l-7.5-43.5c-1.4-7.9-8.2-13.7-16.3-13.7h-19.4
		c-8.7,0-16.3,6.5-17.6,15.1l-6.3,42.3c-14.3,1.6-25.3,13.7-25.3,28.2v1.1H56.9c-9.3,0-16.8,7.5-16.8,16.7V282h6.3l0.2,0.9L51,282
		l2.2,0c0.9,0.2,1.8,0.6,2.7,1.2c1.8,1.2,3.1,3.1,3.3,4.9c0.2,2.1-0.4,4-1.7,5.6c-1.2,1.4-3.1,2.2-5.2,2.3c-2,0-3.9-0.7-5.2-2
		c-2.7-2.8-6.7-3.6-10-2.2c-1.6,0.7-3.6,1.1-5.9,1.2l-6.4-0.4l2.1,5.6c3.9,10.5,14,17.6,25.2,17.6c7.9,0,15.4-3.5,20.6-9.5
		c5.1-6,7.3-14,5.9-21.9c-1.4-8.3-7.1-15.7-14.9-19.4V213l163.6,12.6l-9.6,95.9H3v73.7c0,13.4,10.9,24.2,24.3,24.2h11.3
		c5.6,27.1,29.6,46.7,57.5,46.7c27.9,0,51.9-19.6,57.5-46.7h165.6c5.6,27.1,29.6,46.7,57.5,46.7c27.9,0,51.9-19.6,57.5-46.7h10.4
		c13.2,0,24-10.7,24-23.9v-89.4C468.6,290.4,459.3,275.9,444.9,269.2z M376.7,371.6c20,0,36.3,16.2,36.3,36.1
		c0,19.9-16.3,36.1-36.3,36.1c-20,0-36.3-16.2-36.3-36.1C340.4,387.8,356.7,371.6,376.7,371.6z M350.1,288.8h77.3
		c9.7,0,17.5,7.8,17.5,17.4v89.4c0,0.2-0.2,0.4-0.4,0.4h-10.4c-5.6-27.1-29.6-46.7-57.5-46.7c-27.9,0-51.9,19.6-57.5,46.7h-39.1
		l0.1-228.1c0-2.6,2.2-4.8,4.8-4.8h37.7v98.6C322.7,276.6,335,288.8,350.1,288.8z M346.3,261.6V163h41c1,0,1.8,0.6,2.1,1.6
		l29.7,100.7h-69.1C348,265.2,346.3,263.6,346.3,261.6z M305.8,139.4l5.1-33.7h8.3l5.8,33.7H305.8z M103.3,192.4h127.4l-1,9.8
		L103.3,192.4z M241.5,321.5l12.9-129.1h2.1v129.1H241.5z M96.1,371.6c20,0,36.3,16.2,36.3,36.1c0,19.9-16.3,36.1-36.3,36.1
		c-20,0-36.3-16.2-36.3-36.1C59.8,387.8,76.1,371.6,96.1,371.6z M257.1,345v50.9H153.6c-5.6-27.1-29.6-46.7-57.5-46.7
		c-27.9,0-51.9,19.6-57.5,46.7H27.3c-0.4,0-0.7-0.3-0.7-0.7V345H257.1z"/>
	<path class="st0" d="M213.8,128.7c0.1,0,0.2,0,0.4,0l41-1.9c2.4-0.1,4.6-1.1,6.2-2.9c1.6-1.8,2.4-4.1,2.3-6.4l-0.3-6.5
		c-0.1-2.4-1.2-4.6-2.9-6.2c-1.8-1.6-4-2.4-6.5-2.3l-41,1.9c-4.9,0.2-8.8,4.4-8.5,9.3l0.3,6.5C205.1,125,209,128.7,213.8,128.7z"/>
	<path class="st0" d="M376.7,425.5c9.9,0,17.9-8,17.9-17.9c0-9.8-8.1-17.9-17.9-17.9c-9.9,0-17.9,8-17.9,17.9
		C358.8,417.5,366.8,425.5,376.7,425.5z"/>
	<path class="st0" d="M95.6,426.8c9.9,0,17.9-8,17.9-17.9c0-9.8-8-17.9-17.9-17.9c-9.9,0-17.9,8-17.9,17.9
		C77.7,418.8,85.7,426.8,95.6,426.8z"/>
</g>
</svg>
