<?xml version="1.0" encoding="utf-8"?>
<!-- Generator: Adobe Illustrator 24.1.3, SVG Export Plug-In . SVG Version: 6.00 Build 0)  -->
<svg version="1.1" id="Layer_1" xmlns="http://www.w3.org/2000/svg" xmlns:xlink="http://www.w3.org/1999/xlink" x="0px" y="0px"
	width="22px" height="22px" viewBox="0 0 512 512" style="enable-background:new 0 0 512 512;" xml:space="preserve">
<style type="text/css">
	.st0{fill:#009FC6;}
</style>
<path class="st0" d="M120.8,248c-26,0-44.8,16.8-44.8,40c0,23.1,18.8,40,44.8,40l10.1,0.1c39.2,0,45.1-20.1,45.1-32.1
	C176,271.2,144.9,248,120.8,248L120.8,248z M130.9,304c-3.5,0-7-0.1-10.1-0.1c-12.5,0-20.8-6.4-20.8-16s8.3-16,20.8-16
	s31.2,14.4,31.2,23.9C152,303.1,141.5,304,130.9,304L130.9,304z M391.2,248c-24.1,0-55.2,23.2-55.2,47.9c0,12,5.9,32.1,45.1,32.1
	l10.1-0.1c26,0,44.8-16.8,44.8-40C436,264.8,417.1,248,391.2,248z M391.2,303.9c-3.1,0-6.6,0.1-10.1,0.1c-10.5,0-21.1-0.9-21.1-8.1
	c0-9.6,18.7-23.9,31.2-23.9s20.8,6.4,20.8,16S403.7,303.9,391.2,303.9L391.2,303.9z M506,163c-7.3-11.9-20.1-19-34-19h-49.7
	l-8.1-24.8C403.5,86.3,372.8,64,338.2,64H173.8c-34.6,0-65.3,22.3-76.1,55.2L89.7,144H40c-14,0-26.7,7.1-34,19s-8,26.4-1.8,38.9
	l5.8,11.6c4,7.9,9.9,14.1,17,18.6c-6.9,11.7-11,25.3-11,40v128c0,26.5,21.5,48,48,48h16c26.5,0,48-21.5,48-48v-16h256v16
	c0,26.5,21.5,48,48,48h16c26.5,0,48-21.5,48-48V272c0-14.7-4.1-28.2-11-40c7.1-4.5,13-10.7,17-18.6l5.8-11.6
	C514,189.4,513.3,174.8,506,163L506,163z M128.2,129.1C134.7,109.3,153,96,173.8,96h164.3c20.8,0,39.2,13.3,45.6,33.1l20.5,62.9
	H107.7L128.2,129.1L128.2,129.1z M38.7,199.2l-5.8-11.6c-1.8-3.6-0.3-6.6,0.3-7.8c0.9-1.4,2.9-3.8,6.8-3.8h39.2l-6.4,19.8
	c-8.2,2.5-16,6.3-23,11.3C45.1,206.1,40.9,203.6,38.7,199.2L38.7,199.2z M96,400c0,8.8-7.2,16-16,16H64c-8.8,0-16-7.2-16-16v-16h48
	V400z M464,400c0,8.8-7.2,16-16,16h-16c-8.8,0-16-7.2-16-16v-16h48V400z M464,320v32H48v-80c0-26.5,21.5-48,48-48h320
	c26.5,0,48,21.5,48,48L464,320L464,320z M479.1,187.6l-5.8,11.6c-2.2,4.4-6.4,7-11.1,8c-6.9-4.9-14.7-8.8-23-11.3l-6.5-19.8H472
	c3.9,0,5.9,2.4,6.8,3.8C479.5,180.9,480.9,184,479.1,187.6L479.1,187.6z"/>
</svg>
