<?xml version="1.0" encoding="utf-8"?>
<!-- Generator: Adobe Illustrator 24.2.1, SVG Export Plug-In . SVG Version: 6.00 Build 0)  -->
<svg version="1.1" id="Layer_1" xmlns="http://www.w3.org/2000/svg" xmlns:xlink="http://www.w3.org/1999/xlink" x="0px" y="0px"
	width="22px" height="22px" viewBox="0 0 576 512" style="enable-background:new 0 0 576 512;" xml:space="preserve">
<style type="text/css">
	.st0{fill:#009FC6;}
</style>
<path class="st0" d="M528,32H48C21.5,32,0,53.5,0,80v352c0,26.5,21.5,48,48,48h480c26.5,0,48-21.5,48-48V80
	C576,53.5,554.5,32,528,32z M48,64h480c8.8,0,16,7.2,16,16v48H32V80C32,71.2,39.2,64,48,64z M528,448H48c-8.8,0-16-7.2-16-16V224
	h512v208C544,440.8,536.8,448,528,448z M192,364v8c0,6.6-5.4,12-12,12h-72c-6.6,0-12-5.4-12-12v-8c0-6.6,5.4-12,12-12h72
	C186.6,352,192,357.4,192,364z M384,364v8c0,6.6-5.4,12-12,12H236c-6.6,0-12-5.4-12-12v-8c0-6.6,5.4-12,12-12h136
	C378.6,352,384,357.4,384,364z"/>
</svg>
