<?xml version="1.0" encoding="utf-8"?>
<!-- Generator: Adobe Illustrator 24.1.3, SVG Export Plug-In . SVG Version: 6.00 Build 0)  -->
<svg version="1.1" id="Layer_1" xmlns="http://www.w3.org/2000/svg" xmlns:xlink="http://www.w3.org/1999/xlink" x="0px" y="0px"
	width="22px" height="22px" viewBox="0 0 512 512" style="enable-background:new 0 0 512 512;" xml:space="preserve">
<style type="text/css">
	.st0{fill:#009FC6;}
</style>
<path class="st0" d="M468.7,76.5C423.6,32.2,375,32,362.3,32S300.8,32.2,256,76.4C211.3,32.3,162.5,32,149.7,32
	C137,32,88.3,32.2,43.3,76.5C15.4,104,0,140.7,0,179.9C0,214.1,12.3,246,33.8,272h120.8l29.9-71.8l56.9,126.4
	c5.5,12.3,22.9,12.7,28.9,0.6l49.7-99.4l22.1,44.2h136c21.5-26,33.8-57.9,33.8-92.1C512,140.7,496.6,104,468.7,76.5L468.7,76.5z
	 M462.5,240H361.9l-27.6-55.2c-5.9-11.8-22.7-11.8-28.6,0l-48.9,97.9l-58.2-129.3c-5.8-12.8-24-12.5-29.4,0.4L133.3,240H49.5
	c-9.2-14.6-42.6-82.7,18.3-142.7C90.4,75.1,120,64,149.7,64c33.9,0,54.5,6.3,106.3,57.3C311,67.1,330.5,64,362.3,64
	c29.7,0,59.3,11.1,81.8,33.3C505.1,157.4,471.6,225.5,462.5,240L462.5,240z M268.7,443.4c-6.2,6.1-16.2,6.1-22.4,0L108.9,304H64
	l159.9,162.2c18.7,18.5,48.6,18.4,67.3,0L448,304h-44.5L268.7,443.4z"/>
</svg>
