<?xml version="1.0" encoding="utf-8"?>
<!-- Generator: Adobe Illustrator 24.2.1, SVG Export Plug-In . SVG Version: 6.00 Build 0)  -->
<svg version="1.1" xmlns="http://www.w3.org/2000/svg" xmlns:xlink="http://www.w3.org/1999/xlink" x="0px" y="0px"
	width="22px" height="22px" viewBox="0 0 384 512" style="enable-background:new 0 0 384 512;" xml:space="preserve">
<style type="text/css">
	.st0{fill:#009FC6;}
</style>
<g id="Layer_1">
</g>
<g id="Layer_2">
	<g>
		<path class="st0" d="M192,0C86,0,0,86,0,192c0,77.4,27,99,172.3,309.7c9.5,13.8,29.9,13.8,39.5,0C357,291,384,269.4,384,192
			C384,86,298,0,192,0z M192,473.9C52.7,272.5,32,256.5,32,192c0-42.7,16.6-82.9,46.9-113.1S149.3,32,192,32s82.9,16.6,113.1,46.9
			S352,149.3,352,192C352,256.5,331.3,272.5,192,473.9z"/>
		<path class="st0" d="M192,93.7c-57.7,0-104.5,46.8-104.5,104.5c0,57.7,46.8,104.5,104.5,104.5c57.7,0,104.5-46.8,104.5-104.5
			C296.5,140.5,249.7,93.7,192,93.7z M192,274.9c-42.4,0-76.7-34.3-76.7-76.7c0-42.4,34.3-76.7,76.7-76.7s76.7,34.3,76.7,76.7
			C268.7,240.5,234.4,274.9,192,274.9z"/>
	</g>
</g>
</svg>
