<?xml version="1.0" encoding="utf-8"?>
<!-- Generator: Adobe Illustrator 24.2.0, SVG Export Plug-In . SVG Version: 6.00 Build 0)  -->
<svg version="1.1" id="Layer_1" xmlns="http://www.w3.org/2000/svg" xmlns:xlink="http://www.w3.org/1999/xlink" x="0px" y="0px"
	width="22px" height="22px" viewBox="0 0 512 512" style="enable-background:new 0 0 512 512;" xml:space="preserve">
<style type="text/css">
	.st0{fill:#009FC6;}
</style>
<path class="st0" d="M464,96H352V56c0-13.3-10.7-24-24-24H184c-13.3,0-24,10.7-24,24v40H48c-26.5,0-48,21.5-48,48v288
	c0,26.5,21.5,48,48,48h416c26.5,0,48-21.5,48-48V144C512,117.5,490.5,96,464,96z M192,64h128v32H192V64z M384,128v320H128V128H384z
	 M32,432V144c0-8.8,7.2-16,16-16h48v320H48C39.2,448,32,440.8,32,432z M480,432c0,8.8-7.2,16-16,16h-48V128h48c8.8,0,16,7.2,16,16
	V432z M352,272v32c0,6.6-5.4,12-12,12h-56v56c0,6.6-5.4,12-12,12h-32c-6.6,0-12-5.4-12-12v-56h-56c-6.6,0-12-5.4-12-12v-32
	c0-6.6,5.4-12,12-12h56v-56c0-6.6,5.4-12,12-12h32c6.6,0,12,5.4,12,12v56h56C346.6,260,352,265.4,352,272z"/>
</svg>
