<?xml version="1.0" encoding="utf-8"?>
<!-- Generator: Adobe Illustrator 24.1.3, SVG Export Plug-In . SVG Version: 6.00 Build 0)  -->
<svg version="1.1" id="Layer_1" xmlns="http://www.w3.org/2000/svg" xmlns:xlink="http://www.w3.org/1999/xlink" x="0px" y="0px"
	width="22px" height="22px" viewBox="0 0 640 512" style="enable-background:new 0 0 640 512;" xml:space="preserve">
<style type="text/css">
	.st0{fill:#009FC6;}
</style>
<path class="st0" d="M512.2,192c-17.9,0-35,3.6-50.5,10.3L435.8,160H520c13.3,0,24-10.7,24-24V88c0-13.3-10.7-24-24-24h-60
	c-7.6,0-14.7,3.6-19.2,9.6l-31.9,42.5l-27.3-44.5c-2.9-4.7-8.1-7.6-13.6-7.6h-76c-6.6,0-12,5.4-12,12v8c0,6.6,5.4,12,12,12h67
	l39.2,64H217.6c-16.7-19.1-41.8-32-89.6-32H80.5c-8.6,0-16,6.6-16.4,15.2c-0.4,9.2,6.9,16.8,16,16.8h48c24.3,0,40.1,8.2,51.6,20
	l-10.4,18.8c-12.8-4.4-26.2-6.6-39.7-6.8C58.7,191.2,0.3,248.7,0,319.5C-0.3,390.4,57.1,448,128,448c59.6,0,109.7-40.8,124-96h84.8
	c9.4,0,16.8-8.1,15.9-17.4c-5.1-56.8,20.2-110.8,64.6-143.5l16.8,27.4c-30.6,23.5-50.3,60.6-50.1,102.3
	c0.4,69.6,57.2,126.7,126.8,127.3c70.6,0.6,128.1-55.9,129.2-126.1C641,250.9,583.3,192.1,512.2,192L512.2,192z M462,92h54v40h-84
	L462,92z M128,416c-52.9,0-96-43.1-96-96s43.1-96,96-96c8.6,0,17.2,1.2,25.4,3.4L98,328.3c-5.9,10.6,1.9,23.7,14,23.7h106.5
	C205.3,389.2,169.7,416,128,416z M320,320H139.1l70.4-128h159.5C337.8,226.9,320,272.4,320,320z M508.2,415.9
	c-49.8-1.9-90.2-42.3-92.1-92.1c-1.2-31.3,12.6-59.5,34.9-77.8l57.5,93.8c3.5,5.7,10.9,7.4,16.5,4l6.8-4.2c5.7-3.5,7.4-10.9,4-16.5
	L478.7,230c10.7-4,21.9-6,33.3-6c52.9,0,96,43.1,96,96C608,374.2,562.9,418,508.2,415.9z"/>
</svg>
