<?xml version="1.0" encoding="utf-8"?>
<!-- Generator: Adobe Illustrator 25.2.3, SVG Export Plug-In . SVG Version: 6.00 Build 0)  -->
<svg version="1.1" id="Layer_1" xmlns="http://www.w3.org/2000/svg" xmlns:xlink="http://www.w3.org/1999/xlink" x="0px" y="0px"
	width="22px" height="22px" viewBox="0 0 471.2 471.2" style="enable-background:new 0 0 471.2 471.2;" xml:space="preserve">
<style type="text/css">
	.st0{fill:#26A6C5;}
</style>
<g>
	<path class="st0" d="M432.2,256.8c-1-6.5-2.9-12.7-5.3-18.8c-3.6-8.9-8.2-17.3-13.4-25.3c-5.9-9.1-12.5-17.6-19.6-25.7
		c-5.9-6.7-12.1-13.1-19-18.7c-6.8-5.5-14.1-10.1-22.3-13.3c-9.4-3.7-19-5.4-29.1-4.4c-7.6,0.8-14.7,3.1-21.2,7.2
		c-0.4,0.3-0.8,0.5-1.2,0.8c-0.4,0.3-0.7,0.2-1.1,0c-0.4-0.3-0.9-0.6-1.4-0.9c-4.1-2.6-8.3-4.9-12.7-6.9c-13.5-6.1-27.8-9-42.6-9.7
		c-6.2-0.3-12.4-0.2-18.5,0.2c-6,0.5-12,1.3-17.9,2.6c-11.4,2.5-22.2,6.7-32.2,12.9c-1.3,0.8-2.6,1.7-3.9,2.6
		c-0.5,0.4-0.9,0.4-1.5,0c-1.5-0.9-2.9-1.7-4.4-2.5c-10.2-5-21.1-6-32.2-4.3c-8.3,1.3-16,4.3-23.2,8.4c-7.4,4.2-14.1,9.4-20.3,15.3
		c-9.7,9.3-18.3,19.5-26.1,30.4c-5.9,8.2-11.2,16.7-15.5,25.8c-4.7,9.9-8.2,20.2-9.1,31.3c-0.3,3.9-0.2,7.7,0.3,11.6
		c0.9,6.7,3.2,12.9,6.7,18.6c7.2,11.9,17.3,20.3,30.4,24.9c4,1.4,8.1,2.3,12.2,3c0.3,0,0.5,0,0.8,0.1c0.7,0.1,0.8,0.3,0.7,0.9
		c-0.4,2.5-0.9,5.1-1.3,7.6c-0.8,5.9-1.3,11.9-1.6,17.8c-0.3,8-0.2,16,0.8,24c0.8,7,2.2,13.9,4.3,20.7c6.1,19.6,17.2,35.7,33.4,48.3
		c9.7,7.5,20.5,13,32,17.1c14.4,5.2,29.4,8.1,44.6,9.7c5.1,0.5,10.3,0.9,15.4,1.2c4.7,0.3,9.5,0.3,14.3,0.4c4.9,0.1,9.8,0,14.7-0.2
		c5.6-0.2,11.1-0.4,16.7-0.8c5.1-0.4,10.1-1,15.2-1.6c7.2-1,14.3-2.4,21.4-4.2c12.2-3.1,23.9-7.5,34.9-13.8
		c10.4-6,19.6-13.4,27.3-22.7c11.5-13.9,18.2-29.9,21.3-47.6c0.6-3.5,1.1-7.1,1.3-10.7c0.4-4.9,0.7-9.9,0.5-14.9
		c-0.1-4.1-0.2-8.1-0.6-12.2c-0.4-4.3-0.8-8.6-1.5-12.9c-0.4-2.4-0.8-4.8-1.2-7.2c0.6-0.5,1.3-0.4,2-0.6c1.6-0.3,3.2-0.5,4.8-0.9
		c12.6-2.8,23.3-8.9,31.6-18.8c4.2-5,7.6-10.4,9.9-16.5C433.2,275.2,433.6,266,432.2,256.8z M98,293c-0.1,0.4-0.3,0.8-0.4,1.2
		c-0.2,0.6-0.6,0.9-1.2,0.8c-1.7,0-3.4-0.2-5.1-0.5c-4.1-0.6-8.1-1.8-11.7-3.9c-5.8-3.4-9.8-8.3-12.4-14.4c-1.2-2.8-1.5-5.8-1.4-8.7
		c0-5.1,1.2-9.9,2.8-14.6c2.6-7.5,6.3-14.4,10.5-21.1c6.1-9.8,13.2-18.9,20.9-27.5c3.7-4.1,7.6-8.1,11.9-11.7c4.4-3.7,9-7,14.2-9.5
		c3.9-1.9,8.1-3.3,12.4-3.8c3-0.4,6.1-0.3,9.1,0.3c0.5,0.1,0.7,0.4,0.3,0.8c-0.8,1.1-1.7,2.1-2.5,3.2c-6.8,8.9-12.3,18.5-17.1,28.6
		c-5.4,11.4-9.8,23.1-13.8,35c-3.8,11.3-7.9,22.5-12.1,33.7C100.9,285,99.4,289,98,293z M240.5,356.5c-3.2,1.9-6.2,2-9.4,0.1
		c-4.8-2.9-8.6-6.6-11.3-11.5c-0.6-1.1-1-2.2-1.3-3.4c-0.2-0.7-0.2-1.5,0-2.2c0.2-1.1,0.8-1.9,1.8-2.3c1.1-0.5,2.3-0.9,3.5-1.1
		c2.3-0.5,4.7-0.7,7.1-0.7c3.3-0.1,6.5-0.1,9.8,0c2.8,0.1,5.7,0.3,8.5,1.1c0.5,0.1,1,0.3,1.5,0.5c1.7,0.6,2.5,1.8,2.3,3.5
		c0.1,1.3-0.3,2.4-0.7,3.5c-0.7,1.6-1.6,3-2.6,4.4C247.2,351.6,244.1,354.4,240.5,356.5z M357.3,361.7c-0.3,8.4-1.7,16.6-4.3,24.6
		c-4.7,14.3-13.2,25.9-25.5,34.7c-6.7,4.8-14.1,8.5-21.8,11.3c-8.1,3-16.5,5.1-25,6.6c-5.8,1-11.5,1.7-17.4,2.3
		c-2.9,0.3-5.8,0.4-8.7,0.6c-1.4,0.1-2.8,0.2-4.3,0.3c-0.6,0-0.9-0.2-0.9-0.8c0-0.6,0-1.2,0-1.8c0-9,0-18.1,0-27.1
		c0-8.9,0-17.8,0-26.7c0-0.5,0-1,0-1.4c-0.1-1,0.4-1.6,1.3-2c5.9-2.7,11.1-6.6,15.7-11.2c4.5-4.6,8.3-9.7,10.9-15.6
		c2.1-4.6,3.3-9.4,3.2-14.4c-0.2-12.5-5.6-22-16.7-28c-4.1-2.2-8.6-3.4-13.2-4c-4-0.6-8.1-0.8-12.2-0.9c-4.8,0-9.6,0-14.4,0.5
		c-6,0.6-11.8,1.9-17.1,4.9c-8.1,4.6-13.2,11.3-15.1,20.4c-1.6,7.3-0.6,14.3,2.3,21.1c3.2,7.5,8.2,13.7,14.3,19.1
		c3.8,3.3,7.9,6.2,12.6,8.2c0.8,0.4,1.2,0.8,1.1,1.7c0,0.4,0,0.8,0,1.2c0,18.1,0,36.3,0,54.4c0,0.5,0,1,0,1.4c0,1-0.1,1.2-1.2,1.1
		c-2.9-0.2-5.8-0.3-8.7-0.5c-2.1-0.1-4.2-0.3-6.3-0.5c-12.8-1.2-25.4-3.5-37.6-7.8c-8.2-2.8-16-6.5-23.1-11.4
		c-14.2-9.8-23.5-23.1-27.8-39.8c-1.7-6.3-2.6-12.8-3-19.3c-0.2-3.7-0.3-7.3-0.2-11c0.4-13.6,2.5-26.9,6.5-39.9
		c2.4-7.7,5.2-15.3,8.1-22.8c4.7-12.4,9.1-25,13.4-37.6c3.5-10.2,7.5-20.2,12.3-29.9c3.7-7.5,7.9-14.7,13-21.4
		c4.8-6.4,10.4-12,16.8-16.8c8.4-6.2,17.8-10.3,28-12.6c4.9-1.1,9.9-1.8,14.9-2.1c4.4-0.3,8.8-0.4,13.2-0.2
		c10.2,0.4,20.1,1.9,29.7,5.6c8.1,3.1,15.5,7.5,22.1,13.2c7.6,6.6,13.7,14.5,18.9,23.1c5.1,8.4,9.2,17.2,12.9,26.3
		c2.7,6.7,5.2,13.4,7.4,20.3c3.7,11.3,7.9,22.4,12.1,33.5c2.7,7.2,5.4,14.5,7.7,21.9c2.2,7.3,3.9,14.7,5,22.2c0.4,3.2,0.7,6.3,1,9.5
		C357.5,349.8,357.5,355.7,357.3,361.7z M405.4,268.2c-0.2,2.7-0.7,5.4-1.9,7.8c-3.3,6.6-8,11.7-14.9,14.7c-3.1,1.3-6.4,2.1-9.8,2.5
		c-1.1,0.1-2.2,0.3-3.2,0.4c-1.6,0.1-1.6,0.1-2.2-1.4c-1.5-4.1-3-8.3-4.6-12.4c-5.1-13.2-9.6-26.5-14.2-39.9
		c-4.1-11.6-8.7-23-14.4-33.9c-4.9-9.4-10.4-18.3-17.2-26.4c-0.2-0.3-0.6-0.6-0.5-1.2c2.8-0.7,5.6-1,8.6-0.8
		c7.3,0.6,13.8,3.3,19.9,7.2c4.1,2.6,7.8,5.6,11.4,8.9c5.6,5.2,10.7,10.9,15.5,16.7c5.8,7.1,11.1,14.4,15.8,22.2
		c3.9,6.6,7.3,13.3,9.6,20.6C404.7,258.2,405.7,263.1,405.4,268.2z"/>
	<path class="st0" d="M163,57.2c2.1,5.9,5.5,11,9.9,15.5c8.6,8.6,17.2,17.2,25.8,25.8c2.7,2.7,5.4,5.5,8.3,8.2
		c9.6,9.1,21.1,12.8,34.2,11.2c9.2-1.1,17.1-5.1,23.7-11.6c11.4-11.3,22.7-22.6,34-34c8-8,11.9-17.8,12-29.2c0-4-0.2-5.8-1-9.3
		c-3.8-16.6-18-30.4-37.3-31.9c-6.1-0.5-12,0.4-17.8,2.6c-5.4,2.1-10.2,5.1-14.3,9.1c-1.4,1.4-2.8,2.8-4.2,4.2
		c-0.3,0.3-0.7,0.4-1.1,0c-1.3-1.3-2.7-2.7-4.1-4C220.7,3.9,208.4,0,194.2,2.6c-12.9,2.4-22.5,9.7-28.8,21.3
		c-3.8,7-5.3,14.6-4.6,22.6C161.1,50.2,161.8,53.8,163,57.2z M199.3,29.5c4.6-0.9,8.6,0.3,12.1,3.3c0.5,0.4,1,0.9,1.5,1.4
		c4.4,4.4,8.8,8.7,13.1,13.1c2.1,2.1,4.6,3.5,7.6,3.9c4.3,0.7,8-0.5,11.3-3.3c0.5-0.4,1-0.9,1.5-1.4c4.4-4.4,8.7-8.7,13.1-13.1
		c2.2-2.2,4.8-3.4,7.8-4c4.8-0.9,11.9,1.3,14.9,7.9c2.5,5.3,1.4,11.4-2.7,15.6c-3.4,3.4-6.8,6.8-10.2,10.2
		c-7.5,7.5-15.1,15.1-22.6,22.6c-0.4,0.4-0.8,0.8-1.2,1.1c-2.4,2.3-5.8,4-9.4,3.9c-4.4,0-7.7-1.4-10.5-4.2
		c-6.7-6.7-13.5-13.4-20.2-20.2c-4.4-4.4-8.7-8.7-13.1-13.1c-2-2-3.4-4.2-4-7C186.5,37.6,192.4,30.8,199.3,29.5z"/>
	<path class="st0" d="M212.7,259.2c0-3.3,0-6.6,0-10c0-0.9,0-1.8-0.2-2.6c-1.3-7.2-7.6-11.5-13.9-11.3c-6.9,0.2-13.1,5.8-13.3,13.1
		c-0.1,7.3-0.2,14.5,0,21.8c0.2,8.7,8.7,15,17.2,12.7c6.3-1.7,10.1-7.5,10.1-13C212.6,266.3,212.7,262.8,212.7,259.2
		C212.7,259.2,212.7,259.2,212.7,259.2z"/>
	<path class="st0" d="M285.6,246.4c-1.1-5.1-4.1-8.7-9.1-10.3c-4.9-1.6-9.4-0.7-13.3,2.6c-3,2.6-4.7,6-4.7,10c0,3.5,0,7.1,0,10.6
		c0,0,0,0,0,0c0,3.3,0,6.6,0,10c0,1.1,0,2.2,0.2,3.2c1.2,5.1,4.2,8.6,9.2,10.2c5.1,1.6,9.7,0.5,13.6-3.1c3-2.7,4.3-6.2,4.3-10.2
		c0-6.7,0-13.4,0-20.1C286,248.3,285.8,247.3,285.6,246.4z"/>
</g>
</svg>
