<?xml version="1.0" encoding="utf-8"?>
<!-- Generator: Adobe Illustrator 24.1.3, SVG Export Plug-In . SVG Version: 6.00 Build 0)  -->
<svg version="1.1" id="Layer_1" xmlns="http://www.w3.org/2000/svg" xmlns:xlink="http://www.w3.org/1999/xlink" x="0px" y="0px"
	width="22px" height="18px" viewBox="0 0 640 512" style="enable-background:new 0 0 640 512;" xml:space="preserve">
<style type="text/css">
	.st0{fill:#009FC6;}
</style>
<path class="st0" d="M80.5,339.3c7.7,8.1,18.4,12.7,29.5,12.7l127.1-0.2c11.3,0,22.4-2.6,32.5-7.6l283.1-140.3
	c29.2-14.5,52.8-34.6,68.4-58.2c18-27.3,22.4-50.3,13.2-68.4c-11.6-22.9-42-30.8-72.7-30.8c-26,0-52.5,6.6-78.8,19.6l-92.7,46
	L181.3,35.7c-4-2.4-8.6-3.7-13.3-3.7c-4,0-7.9,0.9-11.4,2.7l-64,31.7c-7.6,3.7-12.7,11-13.8,19.3c-1.1,9.3,3.4,18.4,11.4,23.3
	l136.5,84.1l-83.9,41.6L76,201.8c-7.2-3.5-15.6-3.5-22.8,0l-39.1,19.4c-7,3.4-12,9.9-13.6,17.6c-1.6,7.6,0.5,15.6,5.7,21.4
	L80.5,339.3z M64.6,231.9l78.2,38.5l149.9-74.3L118.5,89.2l49.3-24.4l224.1,82.1l105-52c21.9-10.8,43.6-16.3,64.6-16.3
	c16.3,0,39.3,3.6,44.2,13.3c3.4,6.7-0.8,20.3-11.4,36.3c-12.4,18.9-31.7,35.2-55.8,47.1L255.4,315.5c-5.7,2.8-12,4.3-18.3,4.3
	l-127,0.2c-2.4,0-4.6-1-6.3-2.7l-67.3-71.5L64.6,231.9L64.6,231.9z M632,448H9.1c-4.4,0-8,3.6-8,8v16c0,4.4,3.6,8,8,8H632
	c4.4,0,8-3.6,8-8v-16C640,451.6,636.4,448,632,448z"/>
</svg>
