<?xml version="1.0" encoding="utf-8"?>
<!-- Generator: Adobe Illustrator 24.1.3, SVG Export Plug-In . SVG Version: 6.00 Build 0)  -->
<svg version="1.1" id="Layer_1" xmlns="http://www.w3.org/2000/svg" xmlns:xlink="http://www.w3.org/1999/xlink" x="0px" y="0px"
	width="22px" height="22px" viewBox="0 0 512 512" style="enable-background:new 0 0 512 512;" xml:space="preserve">
<style type="text/css">
	.st0{fill:#009FC6;}
</style>
<path class="st0" d="M96,288c-17.7,0-32,14.3-32,32s14.3,32,32,32s32-14.3,32-32S113.7,288,96,288z M416,288c-17.7,0-32,14.3-32,32
	s14.3,32,32,32s32-14.3,32-32S433.7,288,416,288z M328,320H184c-4.4,0-8,3.6-8,8v16c0,4.4,3.6,8,8,8h144c4.4,0,8-3.6,8-8v-16
	C336,323.6,332.4,320,328,320z M447.1,229.6l-13.3-68.8c-7.3-37.6-40.3-64.8-78.5-64.8H352V64c0-17.7-14.3-32-32-32H192
	c-17.7,0-32,14.3-32,32v32h-3.3c-38.3,0-71.3,27.3-78.5,64.8l-13.3,68.8C27.2,242.6,0,277.9,0,320v32c0,23.6,12.9,44,32,55.1V448
	c0,17.7,14.3,32,32,32h48c17.7,0,32-14.3,32-32v-32h224v32c0,17.7,14.3,32,32,32h48c17.7,0,32-14.3,32-32v-40.9
	c19-11.1,32-31.5,32-55.1v-32C512,277.9,484.8,242.6,447.1,229.6z M192,64h128v32H192V64z M109.7,166.9
	c4.3-22.5,24.1-38.9,47.1-38.9h198.5c22.9,0,42.8,16.3,47.1,38.9l11.1,57.1H98.6C98.6,224,109.7,166.9,109.7,166.9z M112,448H64v-32
	h48V448z M448,448h-48v-32h48V448z M480,352c0,17.6-14.4,32-32,32H64c-17.6,0-32-14.4-32-32v-32c0-35.3,28.7-64,64-64h320
	c35.3,0,64,28.7,64,64V352z"/>
</svg>
